<svg width="287" height="142" viewBox="0 0 287 142" fill="none" xmlns="http://www.w3.org/2000/svg">
<path d="M285.568 75.4606C241.312 60.3676 188.549 54.3161 143.015 67.8747C130.634 71.5617 70.2723 89.2616 80.9213 110.861C86.0217 121.206 96.6786 113.666 101.182 107.421C110.046 95.1285 115.973 84.5915 118.832 69.2456C123.245 45.5582 123.705 10.6126 95.8336 1.98815C83.8049 -1.734 70.2923 10.4187 65.4583 19.8751C60.7189 29.1464 59.2646 38.7631 57.2437 48.8504C55.6011 57.049 56.5315 55.8404 49.7336 50.9157C32.6711 38.5549 -1.19662 40.66 6.83118 69.1569C11.3353 85.1455 22.4152 95.4923 33.5324 106.752C37.7083 110.982 44.6514 118.49 50.2183 120.722C56.2793 123.152 54.9719 115.157 51.7865 112.126C43.8671 104.59 37.3437 102.872 27.4836 107.733C18.5663 112.13 10.1632 124.916 14.6145 135.365C17.0841 141.162 14.9798 140.483 10.9651 137.164C7.85057 134.589 0.476785 125.092 2.26467 128.718C2.89457 129.996 8.17949 140.537 9.78416 140.657C15.4968 141.086 21.5309 138.171 27.0578 137.417" stroke="#EA5D80" stroke-width="2.60478" stroke-linecap="round"/>
</svg>
