<svg width="162" height="91" viewBox="0 0 162 91" fill="none" xmlns="http://www.w3.org/2000/svg">
<path d="M2 89.6613C20.7903 70.871 46.1976 54.5483 72.8499 50.0224C80.0975 48.7917 115.36 42.6525 115.36 56.3202C115.36 62.8663 108.023 61.7031 104.154 59.6543C96.5358 55.6213 90.8589 51.7451 85.5381 44.6508C77.3251 33.7003 68.2964 16.0267 80.3517 4.6414C85.5545 -0.272283 95.5095 2.52266 100.356 6.12323C105.108 9.65333 108.271 14.1837 111.841 18.8114C114.742 22.5727 113.963 22.1909 116.193 17.9779C121.792 7.40336 139.607 -0.0250626 142.681 16.496C144.406 25.7655 141.354 33.8133 138.513 42.3354C137.446 45.5366 135.792 51.1013 133.512 53.6344C131.03 56.3923 129.686 51.9944 130.549 49.652C132.694 43.8283 135.592 41.3167 141.848 41.3167C147.505 41.3167 155.012 45.7162 155.369 52.1525C155.568 55.7235 156.471 54.8499 157.685 52.1525C158.626 50.06 160 43.3749 160 45.6695C160 46.478 159.955 53.1704 159.166 53.6344C156.358 55.2861 152.545 55.3167 149.535 56.3202" stroke="#EA5D80" stroke-width="2.60478" stroke-linecap="round"/>
</svg>
