<svg width="47" height="47" viewBox="0 0 47 47" fill="none" xmlns="http://www.w3.org/2000/svg">
<path fill-rule="evenodd" clip-rule="evenodd" d="M18.2616 9.07958C18.1382 8.34723 18.0452 7.62319 17.9851 6.89907C17.8946 5.81289 17.9506 4.71841 17.9185 3.63223C17.9045 3.17142 17.8493 1.97006 17.8716 1.79725C18.0732 0.291413 19.2885 0.0609828 19.644 0.0198396C19.816 -0.00484632 21.5818 -0.202246 21.9628 1.75617C22.4302 4.15071 22.58 6.56167 22.4146 8.92329C22.8005 10.9311 23.4605 12.9306 24.3319 14.7409C27.7994 21.941 34.407 22.6404 41.5659 22.5746C42.6669 22.5581 43.5812 23.4221 43.6388 24.5165C43.6964 25.6192 42.8768 26.5737 41.7807 26.6724C37.7791 27.0592 30.6794 30.2684 28.2248 33.6092C27.7113 34.3087 27.4127 35.9956 27.0177 37.6495C26.4664 39.9453 25.8106 42.2164 25.0757 43.1709C24.9655 43.319 23.625 44.8331 23.2251 45.0553C22.264 45.5819 21.4946 45.2774 21.0577 44.9976C20.6208 44.7179 20.1262 44.1665 19.9287 43.2532C19.7222 42.2986 19.8966 40.3402 19.8645 39.9205C19.7477 38.3982 19.4433 35.4112 18.822 32.8439C18.4871 31.4615 18.1299 30.1861 17.5391 29.5525C15.352 27.2073 11.8548 27.5529 8.90975 27.9397C8.57155 27.9808 8.23336 28.0302 7.89598 28.0714C6.69707 28.4252 5.42407 28.6885 4.07868 28.8448C2.04703 29.0834 1.71297 27.2155 1.69487 27.0921C1.65702 26.8205 1.51629 25.4217 3.04764 24.8622C3.21468 24.8046 4.44735 24.533 4.92214 24.426C5.58372 24.2779 6.2527 24.1627 6.92416 24.0558C13.8601 21.8999 17.6272 15.8435 18.2616 9.07958ZM20.6421 16.5595C23.2605 21.9739 27.2341 24.5906 31.9442 25.7755H31.9434C29.0025 27.3143 26.3273 29.2398 24.9095 31.1736C24.3713 31.9059 23.8776 33.3788 23.4325 35.0328C23.1914 33.494 22.8655 31.8565 22.4352 30.4576C21.9456 28.8612 21.2864 27.5365 20.5508 26.7466C19.1305 25.2243 17.3482 24.3767 15.4317 23.957C17.7259 21.9246 19.4654 19.3901 20.6421 16.5595Z" fill="#EA5D80"/>
</svg>
