<svg width="1762" height="667" viewBox="0 0 1762 667" fill="none" xmlns="http://www.w3.org/2000/svg">
<g clip-path="url(#clip0_1124_995)">
<path fill-rule="evenodd" clip-rule="evenodd" d="M1733.26 9.07952C1733.14 8.34717 1733.05 7.62313 1732.99 6.89901C1732.89 5.81283 1732.95 4.71835 1732.92 3.63216C1732.9 3.17136 1732.85 1.97 1732.87 1.79719C1733.07 0.291352 1734.29 0.0609218 1734.64 0.0197786C1734.82 -0.00490736 1736.58 -0.202307 1736.96 1.75611C1737.43 4.15065 1737.58 6.56161 1737.41 8.92323C1737.8 10.931 1738.46 12.9305 1739.33 14.7408C1742.8 21.9409 1749.41 22.6403 1756.57 22.5745C1757.67 22.5581 1758.58 23.4221 1758.64 24.5165C1758.7 25.6191 1757.88 26.5736 1756.78 26.6724C1752.78 27.0591 1745.68 30.2683 1743.22 33.6092C1742.71 34.3086 1742.41 35.9955 1742.02 37.6494C1741.47 39.9452 1740.81 42.2163 1740.08 43.1708C1739.97 43.319 1738.63 44.8331 1738.23 45.0552C1737.26 45.5819 1736.49 45.2773 1736.06 44.9976C1735.62 44.7178 1735.13 44.1665 1734.93 43.2531C1734.72 42.2986 1734.9 40.3401 1734.86 39.9205C1734.75 38.3982 1734.44 35.4112 1733.82 32.8438C1733.49 31.4614 1733.13 30.186 1732.54 29.5524C1730.35 27.2072 1726.85 27.5529 1723.91 27.9396C1723.57 27.9808 1723.23 28.0302 1722.9 28.0713C1721.7 28.4251 1720.42 28.6884 1719.08 28.8447C1717.05 29.0834 1716.71 27.2155 1716.69 27.092C1716.66 26.8205 1716.52 25.4217 1718.05 24.8621C1718.21 24.8045 1719.45 24.5329 1719.92 24.426C1720.58 24.2778 1721.25 24.1627 1721.92 24.0557C1728.86 21.8998 1732.63 15.8435 1733.26 9.07952ZM1735.64 16.5594C1738.26 21.9739 1742.23 24.5905 1746.94 25.7755H1746.94C1744 27.3142 1741.33 29.2398 1739.91 31.1735C1739.37 31.9059 1738.88 33.3787 1738.43 35.0327C1738.19 33.4939 1737.87 31.8564 1737.44 30.4575C1736.95 28.8612 1736.29 27.5364 1735.55 26.7465C1734.13 25.2242 1732.35 24.3766 1730.43 23.957C1732.73 21.9245 1734.47 19.3901 1735.64 16.5594Z" fill="#EA5D80"/>
</g>
<path fill-rule="evenodd" clip-rule="evenodd" d="M18.2616 619.079C18.1382 618.347 18.0452 617.623 17.9851 616.899C17.8946 615.813 17.9506 614.718 17.9185 613.632C17.9045 613.171 17.8493 611.97 17.8716 611.797C18.0732 610.291 19.2885 610.061 19.644 610.019C19.816 609.995 21.5818 609.797 21.9628 611.756C22.4302 614.15 22.58 616.561 22.4146 618.923C22.8005 620.931 23.4605 622.93 24.3319 624.741C27.7994 631.941 34.407 632.64 41.5659 632.574C42.6669 632.558 43.5812 633.422 43.6388 634.516C43.6964 635.619 42.8768 636.573 41.7807 636.672C37.7791 637.059 30.6794 640.268 28.2248 643.609C27.7113 644.308 27.4127 645.995 27.0177 647.649C26.4664 649.945 25.8106 652.216 25.0757 653.171C24.9655 653.319 23.625 654.833 23.2251 655.055C22.264 655.582 21.4946 655.277 21.0577 654.997C20.6208 654.717 20.1262 654.166 19.9287 653.253C19.7222 652.298 19.8966 650.34 19.8645 649.92C19.7477 648.398 19.4433 645.411 18.822 642.844C18.4871 641.461 18.1299 640.186 17.5391 639.552C15.352 637.207 11.8548 637.553 8.90975 637.939C8.57155 637.98 8.23336 638.03 7.89598 638.071C6.69707 638.425 5.42407 638.688 4.07868 638.844C2.04703 639.083 1.71297 637.215 1.69487 637.092C1.65702 636.82 1.51629 635.421 3.04764 634.862C3.21468 634.804 4.44735 634.533 4.92214 634.426C5.58372 634.278 6.2527 634.162 6.92416 634.055C13.8601 631.9 17.6272 625.843 18.2616 619.079ZM20.6421 626.559C23.2605 631.974 27.2341 634.59 31.9442 635.775H31.9434C29.0025 637.314 26.3273 639.239 24.9095 641.173C24.3713 641.906 23.8776 643.378 23.4325 645.032C23.1914 643.494 22.8655 641.856 22.4352 640.457C21.9456 638.861 21.2864 637.536 20.5508 636.746C19.1305 635.224 17.3482 634.376 15.4317 633.957C17.7259 631.924 19.4654 629.39 20.6421 626.559Z" fill="#EA5D80"/>
<path fill-rule="evenodd" clip-rule="evenodd" d="M1162.26 629.079C1162.14 628.347 1162.05 627.623 1161.99 626.899C1161.89 625.813 1161.95 624.718 1161.92 623.632C1161.9 623.171 1161.85 621.97 1161.87 621.797C1162.07 620.291 1163.29 620.061 1163.64 620.02C1163.82 619.995 1165.58 619.798 1165.96 621.756C1166.43 624.151 1166.58 626.562 1166.41 628.923C1166.8 630.931 1167.46 632.93 1168.33 634.741C1171.8 641.941 1178.41 642.64 1185.57 642.574C1186.67 642.558 1187.58 643.422 1187.64 644.516C1187.7 645.619 1186.88 646.574 1185.78 646.672C1181.78 647.059 1174.68 650.268 1172.22 653.609C1171.71 654.309 1171.41 655.995 1171.02 657.649C1170.47 659.945 1169.81 662.216 1169.08 663.171C1168.97 663.319 1167.63 664.833 1167.23 665.055C1166.26 665.582 1165.49 665.277 1165.06 664.998C1164.62 664.718 1164.13 664.166 1163.93 663.253C1163.72 662.299 1163.9 660.34 1163.86 659.92C1163.75 658.398 1163.44 655.411 1162.82 652.844C1162.49 651.461 1162.13 650.186 1161.54 649.552C1159.35 647.207 1155.85 647.553 1152.91 647.94C1152.57 647.981 1152.23 648.03 1151.9 648.071C1150.7 648.425 1149.42 648.688 1148.08 648.845C1146.05 649.083 1145.71 647.215 1145.69 647.092C1145.66 646.82 1145.52 645.422 1147.05 644.862C1147.21 644.804 1148.45 644.533 1148.92 644.426C1149.58 644.278 1150.25 644.163 1150.92 644.056C1157.86 641.9 1161.63 635.843 1162.26 629.079ZM1164.64 636.559C1167.26 641.974 1171.23 644.59 1175.94 645.775H1175.94C1173 647.314 1170.33 649.24 1168.91 651.173C1168.37 651.906 1167.88 653.379 1167.43 655.033C1167.19 653.494 1166.87 651.856 1166.44 650.457C1165.95 648.861 1165.29 647.536 1164.55 646.746C1163.13 645.224 1161.35 644.377 1159.43 643.957C1161.73 641.924 1163.47 639.39 1164.64 636.559Z" fill="#EA5D80"/>
<defs>
<clipPath id="clip0_1124_995">
<rect width="46.0804" height="46.0804" fill="white" transform="translate(1715 6.10352e-05)"/>
</clipPath>
</defs>
</svg>
