<svg width="372" height="301" viewBox="0 0 372 301" fill="none" xmlns="http://www.w3.org/2000/svg">
<path d="M146.06 76.1242C150.364 82.4261 152.425 76.4048 151.971 72.2511" stroke="#9A7279" stroke-width="0.735594" stroke-linecap="round"/>
<path d="M157.985 75.9412C153.407 82.1864 151.615 76.0429 152.252 71.8585" stroke="#9A7279" stroke-width="0.735594" stroke-linecap="round"/>
<path d="M342.473 192.096C340.638 193.587 338.805 195.076 336.95 196.547C336.078 197.242 335.205 197.936 334.333 198.63C334.333 198.63 334.323 198.63 334.323 198.639C334.144 198.768 333.966 198.907 333.797 199.055C333.748 199.092 333.709 199.12 333.658 199.166C333.658 199.166 333.648 199.166 333.648 199.176C332.419 200.129 331.19 201.091 329.96 202.053C324.289 206.486 305.063 219.627 292.412 227.678C291.876 228.011 291.352 228.345 290.846 228.668C285.482 232.045 281.585 234.304 280.93 234.22C269.082 232.758 234.271 219.849 223.335 216.185C214.828 213.334 206.202 210.568 197.973 207.042C196.892 206.579 194.443 205.895 193.858 204.793C191.974 201.286 217.812 187.488 217.812 187.488L326.48 171.025C326.48 171.025 339.181 170.581 343.415 177.392C347.648 184.194 342.473 192.096 342.473 192.096Z" fill="#EA5D80"/>
<path d="M339.731 187.09C339.79 190.746 338.363 194.169 336.955 196.548C336.082 197.242 335.209 197.936 334.336 198.63C335.705 197.084 339.403 191.505 338.64 185.683C337.916 180.177 333.474 175.948 325.434 173.136L325.78 172.275C337.193 176.263 339.671 182.537 339.731 187.09Z" fill="#FFBF6D"/>
<path d="M292.42 227.678C291.884 228.012 291.359 228.344 290.853 228.668C292.292 225.985 292.816 223.338 292.44 220.728C291.121 211.733 279.332 206.2 279.213 206.144L279.659 205.312C280.165 205.543 292.034 211.123 293.422 220.599C293.769 222.941 293.432 225.3 292.42 227.678Z" fill="#FFBF6D"/>
<path d="M280.149 230.732C279.446 230.778 278.087 230.529 276.193 230.057C261.588 226.364 215.573 208.773 202.217 203.627C199.878 202.72 198.539 202.202 198.539 202.202L197.121 187.053L198.976 186.905L205.35 186.387C205.35 186.387 238.834 199.37 261.181 207.967C269.729 211.252 276.649 213.89 279.446 214.926C289.559 218.665 287.208 230.297 280.149 230.732Z" fill="white"/>
<mask id="mask0_735_1770" style="mask-type:luminance" maskUnits="userSpaceOnUse" x="197" y="186" width="17" height="18">
<path d="M197.113 186.908H213.026V203.629H197.113V186.908Z" fill="white"/>
</mask>
<g mask="url(#mask0_735_1770)">
<g opacity="0.619995">
<path d="M209.106 195.348L200.767 193.192L205.388 195.255L200.966 194.219L201.67 198.911L207.797 200.965L201.868 199.938L202.206 203.63C199.865 202.723 198.526 202.205 198.526 202.205L197.109 187.056L198.963 186.908L213.022 192.905L200.668 191.507L209.106 195.348Z" fill="#F8D1CA"/>
</g>
</g>
<mask id="mask1_735_1770" style="mask-type:luminance" maskUnits="userSpaceOnUse" x="253" y="207" width="34" height="24">
<path d="M253.332 207.968H286.234V230.738H253.332V207.968Z" fill="white"/>
</mask>
<g mask="url(#mask1_735_1770)">
<g opacity="0.619995">
<path d="M280.129 230.732C279.425 230.778 278.066 230.529 276.173 230.057L276.311 225.347L271.979 223.579L276.42 223.996L269.093 221.303L276.53 222.756L276.42 220.266L267.982 217.055L276.53 218.915L260.655 214.251L253.328 208.449L261.161 207.968C269.709 211.252 276.628 213.89 279.425 214.927C289.538 218.665 287.188 230.298 280.129 230.732Z" fill="#F8D1CA"/>
</g>
</g>
<path d="M342.794 149.725C343.499 148.188 265.645 111.747 265.645 111.747C265.645 111.747 213.508 149.554 198.436 161.618C197.418 162.336 196.426 163.056 195.482 163.777C189.228 168.552 186.147 172.675 186.313 176.537C186.483 180.485 188.185 183.667 191.245 185.888C197.158 190.181 267.454 215.919 270.739 215.919C274.024 215.919 340.909 169.586 340.909 169.586L334.37 167.088L312.708 169.021C328.48 159.226 342.488 150.391 342.794 149.725Z" fill="#F39D90"/>
<path d="M336.571 154.036V154.074L335.024 169.925C335.024 169.925 334.281 170.425 332.942 171.313C324.336 177.042 291.289 199.001 276.258 208.098C272.352 210.458 269.664 211.956 268.931 212.077C268.337 212.178 266.442 211.698 263.617 210.809C249.497 206.367 212.168 191.561 198.981 185.898C196.988 185.037 195.55 184.389 194.817 184.019C192.388 182.779 190.395 180.549 190.206 177.892C190.027 175.385 191.496 172.933 193.786 171.628C196.056 170.332 198.951 170.194 201.46 170.897C203.195 171.378 206.01 172.303 209.511 173.516C222.162 177.892 243.816 186.018 256.21 190.71C261.902 192.866 265.639 194.291 265.639 194.291L270.656 191.311L316.87 165.178L336.105 154.304L336.571 154.036Z" fill="white"/>
<mask id="mask2_735_1770" style="mask-type:luminance" maskUnits="userSpaceOnUse" x="316" y="154" width="21" height="18">
<path d="M316.867 154.069H336.568V171.31H316.867V154.069Z" fill="white"/>
</mask>
<g mask="url(#mask2_735_1770)">
<g opacity="0.619995">
<path d="M336.566 154.068L335.02 169.92C335.02 169.92 334.276 170.42 332.938 171.309L333.116 166.219L328.605 168.468L333.116 165.497V162.952L323.717 168.319L332.73 162.591L316.865 165.173L336.101 154.3L336.566 154.068Z" fill="#F8D1CA"/>
</g>
</g>
<mask id="mask3_735_1770" style="mask-type:luminance" maskUnits="userSpaceOnUse" x="190" y="170" width="22" height="16">
<path d="M190.188 170.475H211.222V185.895H190.188V170.475Z" fill="white"/>
</mask>
<g mask="url(#mask3_735_1770)">
<g opacity="0.619995">
<path d="M203.147 183.247L195.136 180.165L195.294 183.469L198.974 185.894C196.98 185.033 195.542 184.385 194.809 184.015C192.38 182.775 190.387 180.545 190.198 177.889C190.02 175.381 191.488 172.929 193.778 171.624C196.048 170.328 198.943 170.19 201.452 170.893C203.188 171.375 206.003 172.299 209.503 173.512C204.208 172.587 196.852 171.3 196.702 171.3C196.702 171.392 209.969 177.102 211.218 177.639L194.977 171.957L195.215 176.871L197.496 178.333L195.294 177.677L195.215 179.065L203.147 183.247Z" fill="#F8D1CA"/>
</g>
</g>
<mask id="mask4_735_1770" style="mask-type:luminance" maskUnits="userSpaceOnUse" x="254" y="195" width="29" height="10">
<path d="M254.887 195.623H282.153V204.515H254.887V195.623Z" fill="white"/>
</mask>
<g mask="url(#mask4_735_1770)">
<g opacity="0.619995">
<path d="M254.889 198.281L268.139 204.516L282.156 195.624L267.811 202.062L254.889 198.281Z" fill="#F8D1CA"/>
</g>
</g>
<path d="M333.721 199.018L333.801 199.055C333.751 199.092 333.711 199.12 333.662 199.166C333.682 199.101 333.701 199.055 333.721 199.018Z" fill="#FFBF6D"/>
<path d="M22.2433 132.493C21.6087 136.411 30.7077 157.652 36.9799 169.756C38.8245 173.306 40.4153 176.073 41.4596 177.391C44.7533 181.569 94.0613 208.535 121.674 223.444C122.974 224.14 124.219 224.815 125.42 225.456C125.674 225.589 125.916 225.722 126.159 225.854C127.084 226.352 127.965 226.838 128.826 227.293C135.712 230.998 140.065 233.322 140.065 233.322C171.937 225.292 167.767 193.443 165.887 190.949C165.533 190.468 161.71 188.055 155.772 184.461C154.761 183.855 153.694 183.207 152.573 182.536C152.187 182.305 151.791 182.074 151.395 181.843C150.79 181.479 150.175 181.106 149.548 180.733C125.23 166.233 81.2411 140.865 70.1592 134.473C68.4857 133.515 67.5619 132.985 67.5619 132.985C67.5619 132.985 63.9309 132.535 58.7225 131.997C45.7002 130.679 22.8235 128.878 22.2433 132.493Z" fill="#FFBF6D"/>
<path d="M58.724 132.002L56.2813 141.762L147.059 195.634L151.397 181.848C150.791 181.485 150.176 181.111 149.55 180.737C125.232 166.238 81.2435 140.871 70.1607 134.478C68.4872 133.519 67.5633 132.991 67.5633 132.991C67.5633 132.991 63.9324 132.54 58.724 132.002Z" fill="#9A7279"/>
<path d="M44.8808 155.05L36.9796 169.76C38.8242 173.31 40.415 176.077 41.4593 177.396C44.753 181.573 94.061 208.539 121.674 223.447C122.974 224.144 124.219 224.819 125.42 225.46C125.674 225.594 125.916 225.726 126.158 225.858L140.046 209.877L44.8808 155.05Z" fill="#9A7279"/>
<path d="M22.2433 132.496C21.9045 134.591 24.3407 141.623 27.6447 149.569C32.3287 160.852 38.758 173.977 41.4596 177.394C41.4596 177.394 54.3831 182.039 58.0969 175.226C61.8103 168.424 52.0163 161.421 52.5128 159.614C53.0107 157.796 63.9018 164.214 67.602 157.81C71.3023 151.405 59.7096 146.192 60.4345 143.973C61.1698 141.754 73.1511 148.412 75.507 142.985C76.6494 140.348 73.6042 137.11 70.1592 134.476C68.4857 133.518 67.5619 132.988 67.5619 132.988C67.5619 132.988 51.3875 130.972 38.3717 130.481C29.7801 130.149 22.568 130.485 22.2433 132.496Z" fill="#FEBD87"/>
<path d="M22.243 132.498C21.9042 134.593 24.3404 141.625 27.6444 149.571C32.3162 146.681 40.2748 140.388 38.3714 130.483C29.7798 130.151 22.5677 130.487 22.243 132.498Z" fill="#CB5C77"/>
<path d="M152.573 182.542C147.152 201.269 133.222 217.48 125.42 225.462C126.611 226.103 127.745 226.722 128.826 227.298C135.713 231.003 140.066 233.328 140.066 233.328C171.938 225.298 167.768 193.449 165.887 190.955C165.533 190.474 161.71 188.06 155.773 184.465C154.761 183.861 153.694 183.213 152.573 182.542Z" fill="#CB5C77"/>
<path d="M149.55 180.735C148.442 187.435 143.33 208.296 121.675 223.446C124.265 224.84 126.667 226.134 128.827 227.295C135.671 224.175 150.488 213.988 155.774 184.463C153.894 183.331 151.804 182.078 149.55 180.735Z" fill="#EA5D80"/>
<path d="M62.277 92.7498C60.6952 88.202 63.3733 83.1213 68.2599 81.4034C73.1468 79.6843 78.3911 81.978 79.9728 86.5257C81.5546 91.0735 78.8753 96.154 73.9884 97.8731C69.103 99.5912 63.8584 97.2987 62.277 92.7498ZM45.6711 103.355C47.3273 102.941 48.9727 102.472 50.6355 102.089C50.9398 102.02 51.4228 102.144 51.6225 102.353C52.9072 103.697 54.1069 105.115 55.4017 106.451C55.7794 106.841 55.905 107.117 55.6816 107.641C54.892 109.482 54.1568 111.341 53.4022 113.193C53.2784 113.494 53.1685 113.798 52.9657 114.323C55.7132 115.493 58.4299 116.65 61.2153 117.837C62.5647 115.777 63.8217 113.923 64.9991 112.026C65.415 111.358 65.7761 111.109 66.65 111.2C68.4338 111.386 70.2575 111.336 72.0587 111.434C72.3361 111.448 72.7054 111.672 72.8223 111.901C73.7108 113.655 74.604 115.41 75.3754 117.216C75.7441 118.082 76.2437 118.239 77.1176 117.918C77.4528 117.796 77.8303 117.784 78.188 117.722C79.7143 117.185 81.2403 116.65 82.7665 116.113C82.9146 116.008 83.0509 115.877 83.2137 115.802C84.9152 115.009 84.675 115.237 84.3141 113.643C83.8746 111.703 83.3988 109.771 83.0002 108.089C85.0061 106.358 86.8817 104.738 88.817 103.066C91.175 103.832 93.6392 104.634 96.1193 105.44C97.9696 102.958 99.2413 100.309 100.222 97.4796C98.1426 96.3231 96.1158 95.1911 94.0816 94.0729C93.7166 93.8731 93.5495 93.6961 93.6126 93.2077C93.8595 91.2962 94.0557 89.3771 94.1633 87.4607C94.1955 86.9089 94.3901 86.7048 94.8622 86.4898C96.8156 85.602 98.7487 84.6707 100.697 83.7756C101.182 83.5541 101.39 83.3183 101.295 82.7642C100.871 80.2754 99.9077 77.9983 98.7271 75.7937C98.4928 75.358 98.1731 75.3948 97.7382 75.5117C95.7258 76.0483 93.7024 76.5407 91.6943 77.0908C91.1147 77.2488 90.8101 77.1869 90.4111 76.7121C89.0355 75.0739 87.5536 73.5164 85.9971 71.8002C86.837 69.7346 87.7906 67.3916 88.7439 65.0497C86.1701 63.3752 83.4635 62.1588 80.4734 61.4238C79.0408 63.6423 77.646 65.8009 76.3828 67.7555C74.176 67.7524 72.127 67.6981 70.0765 67.7719C69.3007 67.7993 68.9286 67.6019 68.6392 66.9467C67.8682 65.2013 67.0246 63.4872 66.1914 61.7688C66.0268 61.4296 65.9199 60.948 65.2944 61.1719C62.7533 62.0864 60.2116 62.9983 57.6717 63.913C57.1315 64.1069 57.0337 64.4396 57.1655 64.9516C57.6535 66.8568 58.0537 68.7865 58.577 70.6823C58.7782 71.414 58.4807 71.7566 57.9177 72.2066C56.5267 73.3182 55.1504 74.4595 53.8937 75.7021C53.3519 76.2377 53.0141 76.3141 52.344 76.0752C50.1922 75.3099 48.0039 74.6252 45.8759 73.9257C44.563 75.2792 42.157 79.9729 41.7043 82.0202C43.7213 83.1185 45.7487 84.248 47.8086 85.323C48.3238 85.5922 48.3854 85.8727 48.3301 86.4123C48.1498 88.1527 48.0994 89.8986 47.9397 91.6406C47.9116 91.9326 47.6501 92.3497 47.381 92.4805C45.6741 93.3042 43.9391 94.074 42.2057 94.8429C41.2365 95.273 40.8431 95.4427 40.7663 95.8622L43.3959 103.423C43.832 103.81 44.3307 103.691 45.6711 103.355Z" stroke="#D9D9D9" stroke-width="1.30534" stroke-miterlimit="10"/>
<path d="M114.408 70.8613C115.255 67.9951 118.339 66.2314 121.296 66.9218C124.254 67.6123 125.967 70.4972 125.12 73.3633C124.273 76.2295 121.19 77.9932 118.232 77.3028C115.274 76.6111 113.561 73.7274 114.408 70.8613ZM108.263 71.3506C108.898 71.5661 109.542 71.7615 110.171 71.9898C110.286 72.0318 110.414 72.1804 110.428 72.2965C110.524 73.0453 110.576 73.8006 110.677 74.548C110.706 74.7649 110.681 74.8895 110.484 75.0233C109.79 75.4929 109.111 75.9794 108.426 76.4609C108.315 76.5392 108.207 76.6208 108.016 76.7595C108.627 77.766 109.231 78.7596 109.85 79.7804C110.777 79.3559 111.625 78.9843 112.457 78.5792C112.752 78.4369 112.927 78.4286 113.188 78.6508C113.721 79.104 114.323 79.4833 114.884 79.9088C114.969 79.9753 115.036 80.1336 115.019 80.2383C114.89 81.0441 114.762 81.8488 114.582 82.647C114.495 83.0289 114.62 83.1923 114.979 83.2702C115.116 83.3 115.242 83.3784 115.372 83.4348C115.994 83.5802 116.614 83.7254 117.236 83.8708C117.31 83.8663 117.385 83.8507 117.455 83.8596C118.195 83.9548 118.063 83.9819 118.325 83.3476C118.644 82.5758 118.949 81.7986 119.22 81.1266C120.281 80.959 121.273 80.8042 122.297 80.642C122.879 81.4226 123.485 82.2387 124.097 83.0597C125.286 82.5971 126.328 81.9514 127.318 81.1785C126.919 80.3235 126.533 79.4878 126.14 78.6556C126.07 78.5055 126.058 78.4079 126.194 78.2519C126.729 77.6387 127.249 77.0137 127.738 76.3699C127.881 76.1835 127.992 76.1548 128.198 76.183C129.04 76.2986 129.886 76.3957 130.731 76.5079C130.941 76.5357 131.063 76.499 131.164 76.2852C131.62 75.3258 131.849 74.3225 131.991 73.2981C132.019 73.0951 131.907 73.0386 131.737 72.9844C130.959 72.7328 130.187 72.4648 129.406 72.2191C129.181 72.1477 129.098 72.0598 129.081 71.8074C129.025 70.9368 128.916 70.0721 128.819 69.135C129.583 68.598 130.449 67.9896 131.315 67.38C130.879 66.2369 130.292 65.2238 129.5 64.3173C128.509 64.7785 127.545 65.2261 126.671 65.6332C125.957 65.1516 125.306 64.6864 124.625 64.2649C124.367 64.1054 124.294 63.9561 124.356 63.6646C124.521 62.8888 124.657 62.1086 124.796 61.3276C124.822 61.174 124.902 60.9826 124.646 60.9253C123.607 60.6905 122.567 60.4543 121.528 60.2207C121.305 60.1701 121.195 60.2652 121.117 60.4721C120.822 61.2423 120.492 62.0017 120.21 62.7759C120.102 63.0746 119.925 63.1296 119.635 63.1635C118.92 63.2476 118.204 63.3465 117.501 63.5053C117.198 63.5747 117.071 63.5266 116.91 63.2988C116.396 62.5633 115.85 61.8483 115.329 61.1406C114.582 61.3275 112.686 62.439 112.053 63.053C112.444 63.8745 112.831 64.7093 113.243 65.5324C113.346 65.7386 113.299 65.85 113.153 66.0257C112.681 66.5928 112.249 67.1909 111.784 67.7631C111.705 67.8593 111.521 67.946 111.403 67.9328C110.654 67.8484 109.909 67.7397 109.167 67.63C108.75 67.5687 108.582 67.5429 108.458 67.672L107.51 70.8791C107.56 71.1089 107.75 71.176 108.263 71.3506Z" fill="#D9D9D9"/>
<path d="M123.073 166.25C120.527 166.788 117.689 169.612 115.653 171.137C113.125 173.032 110.656 175.017 108.411 177.223C103.945 181.608 100.6 186.858 99.3492 192.847C97.5143 201.631 99.1005 211.525 104.424 218.692C104.615 218.951 104.807 219.215 105.029 219.451C105.029 219.451 95.2174 225.937 90.5505 234.508C85.8848 243.079 89.7902 246.373 91.3852 246.027C95.3464 245.165 103.782 225.009 112.235 224.059C120.688 223.11 117.361 219.276 117.361 219.276C117.361 219.276 134.36 225.051 147.738 208.981C161.118 192.913 141.473 162.376 141.473 162.376C141.473 162.376 123.076 166.249 123.073 166.25Z" fill="#FFBF6D"/>
<mask id="mask5_735_1770" style="mask-type:luminance" maskUnits="userSpaceOnUse" x="85" y="155" width="76" height="101">
<path d="M109.353 155.845L160.648 165.891L137.189 255.376L85.8945 245.331L109.353 155.845Z" fill="white"/>
</mask>
<g mask="url(#mask5_735_1770)">
<g opacity="0.199997">
<path d="M123.41 166.163C120.882 166.719 118.046 169.568 116.014 171.111C113.493 173.027 111.03 175.032 108.786 177.258C104.323 181.684 100.963 186.967 99.6723 192.977C97.7792 201.791 99.2669 211.694 104.481 218.838C104.668 219.097 104.857 219.359 105.075 219.594C105.075 219.594 95.2961 226.161 90.5982 234.781C85.9015 243.401 89.7438 246.675 91.3275 246.317C95.2604 245.426 103.792 225.172 112.177 224.162C120.562 223.153 117.298 219.334 117.298 219.334C117.298 219.334 134.095 225.003 147.49 208.809C160.887 192.617 141.677 162.155 141.677 162.155C141.677 162.155 123.413 166.162 123.41 166.163Z" fill="#9A7279"/>
</g>
</g>
<path d="M92.3374 244.779C92.0047 244.187 91.8417 243.545 91.7496 242.897C91.6553 242.247 91.6561 241.585 91.7368 240.921C91.8422 240.26 91.9952 239.593 92.311 238.97C92.6194 238.351 93.0565 237.759 93.6579 237.378C93.2986 238.69 93.1366 239.808 92.9788 241.031C92.804 242.241 92.6922 243.459 92.3374 244.779Z" fill="#9A7279"/>
<path d="M245.61 170.683C245.685 170.252 245.757 169.813 245.826 169.38C246.117 167.599 246.383 165.805 246.602 164.002C246.761 162.789 246.901 161.565 247.02 160.344C247.192 158.674 247.329 156.997 247.44 155.321C247.488 154.566 247.536 153.811 247.57 153.053C247.672 151.003 247.731 148.958 247.733 146.915C247.735 145.901 247.73 144.892 247.712 143.88C247.692 142.788 247.652 141.697 247.601 140.618C247.47 137.852 247.249 135.108 246.917 132.416C246.891 132.189 246.865 131.966 246.831 131.743C246.478 128.885 245.992 126.089 245.387 123.37C245.332 123.122 245.276 122.881 245.22 122.633C244.613 120.009 243.894 117.462 243.041 115.006C242.887 114.548 242.724 114.096 242.555 113.643C241.657 111.197 240.624 108.846 239.455 106.616C238.929 105.598 238.368 104.606 237.772 103.641C236.633 101.756 235.37 99.9739 233.992 98.3115C232.61 96.6307 231.098 95.0829 229.475 93.6581C232.949 90.8813 235.414 87.6956 236.976 84.2058C238.1 81.7029 238.772 79.0518 239.029 76.2811C239.103 75.4884 239.146 74.6919 239.158 73.8768C239.16 73.4863 239.157 73.0969 239.146 72.7075L239.144 72.6616C239.081 70.3113 238.759 67.8888 238.2 65.4266C238.154 65.2408 238.114 65.0613 238.068 64.8767C237.994 64.5628 237.913 64.2437 237.831 63.9246C237.777 63.7334 237.724 63.5423 237.664 63.3511C237.064 61.326 236.11 59.4534 234.817 57.7298L234.824 57.7313C234.656 57.4706 229.051 49.1336 227.268 45.0815C225.452 40.9737 224.197 35.6079 221.538 35.6285L221.532 35.6284C219.123 35.6498 213.939 40.8384 213.063 46.4451C213.063 46.4451 213.063 46.449 213.062 46.4514C211.772 46.1907 210.441 45.9521 209.054 45.7452C208.847 45.7137 208.63 45.6779 208.415 45.655C206.393 45.3615 204.28 45.1267 202.058 44.952L202.052 44.9519C201.143 44.8823 200.214 44.8201 199.271 44.7664C195.202 44.5388 190.821 44.4909 186.134 44.6265C185.981 44.6314 185.831 44.6366 185.685 44.6403C185.162 44.6592 184.645 44.6781 184.143 44.7077C182.766 44.7765 181.446 44.8807 180.169 45.0075L179.988 44.8577C179.222 44.2049 178.236 43.2367 178.12 43.1289C176.6 41.6589 175.626 39.6562 174.278 38.0566C172.317 35.7288 169.387 34.1294 166.041 34.9611C165.829 35.0159 165.641 35.1083 165.464 35.2507C165.009 35.6101 164.648 36.2418 164.381 37.0615C163.416 40.001 163.673 45.2779 164.991 48.4006C165.017 48.4638 165.049 48.5319 165.079 48.5948C158.854 51.2324 154.769 54.9871 152.083 59.2184C151.893 59.5122 151.718 59.8116 151.544 60.1098C150.845 61.3135 150.25 62.5533 149.741 63.8076C149.717 63.8685 149.694 63.9282 149.676 63.9877C149.419 64.625 149.189 65.2666 148.98 65.9135C148.882 66.2132 148.789 66.5063 148.704 66.8046C148.259 68.3216 147.918 69.8494 147.653 71.3708C147.622 71.5425 147.598 71.713 147.574 71.8772C147.543 72.0554 147.519 72.2271 147.496 72.3978C147.379 73.2059 147.304 73.9983 147.262 74.7695C147.257 74.8089 147.26 74.8411 147.255 74.8805C147.198 75.8468 147.193 76.7846 147.229 77.6925C147.247 78.1074 147.272 78.5161 147.304 78.9162C147.85 85.6352 150.624 90.5252 152.394 93.0102C152.754 93.5151 153.789 95.0557 154.875 96.6772C149.745 101.185 141.196 110.731 135.598 127.722C134.291 131.69 132.6 135.965 130.822 140.44C121.134 164.838 108.914 195.096 142.494 213.716C142.494 213.716 142.8 214.393 143.422 215.525C145.229 218.802 149.66 225.886 156.805 231.254C156.805 231.254 140.053 237.008 137.228 244.662C134.394 252.322 141.35 250.263 143.699 248.636C146.046 247.014 156.102 236.105 164.095 235.648C172.089 235.192 169.984 226.841 169.984 226.841C169.984 226.841 177.051 229.42 186.884 230.136C189.074 230.297 191.399 230.362 193.807 230.29C194.743 230.26 195.697 230.208 196.657 230.136C198.199 230.018 199.767 229.831 201.352 229.581C203.809 229.185 206.311 228.617 208.803 227.818C209.288 227.664 209.775 227.505 210.259 227.331C212.919 226.395 215.564 225.193 218.141 223.679C218.576 223.42 219.007 223.156 219.44 222.883C221.231 221.746 222.984 220.459 224.681 218.986C225.934 217.904 227.158 216.614 228.357 215.148C230.227 212.864 232.022 210.139 233.712 207.06C234.94 204.837 236.11 202.426 237.215 199.86L237.219 199.847C238.359 197.2 239.433 194.384 240.427 191.437C240.869 190.125 241.289 188.788 241.696 187.423C243.286 182.132 244.61 176.491 245.61 170.683Z" fill="#FFBF6D"/>
<path d="M302.76 123.036C300.826 124.819 297.746 126.319 293.842 126.923C293.013 127.049 292.188 127.183 291.362 127.323C286.909 128.075 282.525 129.07 278.615 131.136C273.166 134.02 268.627 138.984 266.107 148.275C265.456 150.667 265.046 153.29 264.718 156.031C264.356 159.009 264.086 162.114 263.698 165.195C261.896 179.678 257.573 193.578 229.262 190.408C229.262 190.408 227.096 180.955 234.082 181.013C234.082 181.013 238.199 181.564 242.8 180.862C246.157 180.347 249.774 179.17 252.248 176.628C252.417 176.458 252.573 176.265 252.722 176.065C256.917 170.531 255.48 154.288 258.169 141.79C258.809 138.821 259.673 136.065 260.908 133.716C261.885 131.851 263.155 130.07 264.641 128.402C269.707 122.716 277.312 118.283 284.642 115.868C289.748 114.183 294.719 113.481 298.609 114.019C305.949 115.037 306.529 119.567 302.76 123.036Z" fill="#FFBF6D"/>
<mask id="mask6_735_1770" style="mask-type:luminance" maskUnits="userSpaceOnUse" x="227" y="104" width="80" height="98">
<path d="M250.499 104.279L306.008 115.118L283.351 201.313L227.842 190.474L250.499 104.279Z" fill="white"/>
</mask>
<g mask="url(#mask6_735_1770)">
<g opacity="0.199997">
<path d="M302.711 122.701C300.777 124.502 297.71 126.028 293.834 126.662C293.011 126.794 292.192 126.934 291.371 127.081C286.95 127.867 282.595 128.897 278.7 130.996C273.272 133.927 268.727 138.937 266.145 148.269C265.478 150.672 265.048 153.305 264.698 156.055C264.312 159.043 264.017 162.158 263.605 165.25C261.688 179.783 257.277 193.75 229.237 190.777C229.237 190.777 227.175 181.315 234.1 181.323C234.1 181.323 238.177 181.846 242.745 181.109C246.078 180.567 249.674 179.361 252.15 176.795C252.319 176.623 252.475 176.429 252.625 176.227C256.834 170.648 255.556 154.375 258.334 141.826C258.995 138.844 259.876 136.075 261.122 133.711C262.107 131.834 263.382 130.04 264.87 128.356C269.944 122.619 277.523 118.12 284.812 115.645C289.889 113.919 294.824 113.179 298.676 113.691C305.943 114.658 306.478 119.195 302.711 122.701Z" fill="#9A7279"/>
</g>
</g>
<path d="M302.705 123.948C300.849 123.499 299.538 121.359 299.538 121.359C291.092 121.892 286.49 118.874 284.257 116.61C289.453 114.892 294.513 114.177 298.473 114.73C305.945 115.775 306.539 120.405 302.705 123.948Z" fill="#9A7279"/>
<path d="M291.273 127.827C286.766 128.588 282.33 129.595 278.372 131.685C278.298 129.778 278.802 126.87 282.052 125.085C285.375 123.26 289.066 125.79 291.273 127.827Z" fill="#9A7279"/>
<path d="M265.432 136.999C264.043 140.137 260.46 141.351 257.729 141.809C258.364 138.849 259.221 136.104 260.447 133.762C261.415 131.904 262.676 130.13 264.152 128.467C265.472 130.064 267.081 133.278 265.432 136.999Z" fill="#9A7279"/>
<path d="M263.771 165.051C261.655 164.011 259.417 162.258 260.247 159.678C260.976 157.382 262.973 156.362 264.783 155.906C264.423 158.877 264.157 161.976 263.771 165.051Z" fill="#9A7279"/>
<path d="M250.921 183.811C246.552 185.596 243.998 182.193 242.964 180.323C246.35 179.802 249.999 178.618 252.494 176.058C252.666 175.887 252.821 175.693 252.972 175.491C253.975 178.161 254.738 182.25 250.921 183.811Z" fill="#9A7279"/>
<path d="M151.125 165.153L172.511 169.302C172.511 169.302 155.924 167.01 146.014 179.846C137.582 190.763 139.231 206.194 142.947 214.839L142.907 214.865C142.283 213.732 141.976 213.054 141.976 213.054C108.34 194.421 120.586 164.133 130.294 139.71C142.011 122.462 156.341 114.125 170.489 117.704C186.819 121.835 188.962 135.779 189.204 140.669C186.616 143.205 180.386 149.044 176.952 150.099C176.952 150.099 154.103 145.274 151.125 165.153Z" fill="#FFDFC5"/>
<path d="M222.975 52.0896C220.655 50.3709 217.898 49.2473 215.663 48.5562C213.314 47.8336 211.55 47.5711 211.459 47.5515C212.344 41.9157 217.572 36.6982 220.001 36.6758L220.007 36.6758C220.427 37.9388 220.917 39.4516 220.088 42.8415C220.003 43.1746 219.947 43.4995 219.903 43.8155C219.239 48.515 222.407 51.7001 222.975 52.0896Z" fill="#9A7279"/>
<path d="M171.27 45.9434C171.27 45.9434 167.582 46.9224 164.57 47.7987C163.645 48.0639 162.777 48.3237 162.107 48.5368C160.778 45.3965 160.521 40.0886 161.497 37.1318C161.766 36.3072 162.131 35.6717 162.59 35.3101C162.59 35.3101 163.853 35.7987 164.887 38.5568C165.262 39.5629 165.593 40.526 165.982 41.4133C166.905 43.5108 168.171 45.1714 171.27 45.9434Z" fill="#9A7279"/>
<mask id="mask7_735_1770" style="mask-type:luminance" maskUnits="userSpaceOnUse" x="205" y="85" width="13" height="10">
<path d="M207.115 85.0106L217.736 87.0791L215.884 94.1071L205.264 92.0386L207.115 85.0106Z" fill="white"/>
</mask>
<g mask="url(#mask7_735_1770)">
<g opacity="0.479996">
<path d="M207.163 87.9052C205.58 88.9522 205.297 91.0551 207.062 92.0839C209.425 93.4625 213.95 93.1307 216.117 91.297C217.946 89.7491 216.901 87.002 214.955 86.5397C213.31 86.149 211.552 86.3188 209.924 86.7759C209.165 86.9875 208.049 87.3182 207.163 87.9052Z" fill="#EA5D80"/>
</g>
</g>
<mask id="mask8_735_1770" style="mask-type:luminance" maskUnits="userSpaceOnUse" x="151" y="81" width="14" height="10">
<path d="M153.515 81.779L164.461 83.9173L162.796 90.2551L151.85 88.1167L153.515 81.779Z" fill="white"/>
</mask>
<g mask="url(#mask8_735_1770)">
<g opacity="0.479996">
<path d="M162.711 84.5273C164.131 85.6772 164.097 87.7943 162.182 88.7046C159.619 89.922 155.155 89.29 153.27 87.3167C151.679 85.6505 153.135 82.979 155.145 82.6469C156.844 82.3657 158.572 82.6534 160.128 83.2157C160.851 83.4784 161.915 83.8827 162.711 84.5273Z" fill="#EA5D80"/>
</g>
</g>
<path d="M197.247 45.1787C194.396 47.4884 192.224 51.0153 190.5 53.6725C189.553 55.1287 188.684 56.631 187.874 58.1563C187.261 59.3 186.176 60.4383 184.746 60.6227C182.951 60.8524 181.373 59.7722 180.502 58.3926C179.406 56.6679 179.413 54.6147 179.773 52.6662C180.286 49.9086 181.664 47.2826 183.553 45.0577C183.698 45.0536 183.851 45.0486 184.004 45.0449C188.729 44.9054 193.146 44.9517 197.247 45.1787Z" fill="#9A7279"/>
<path d="M150.469 73.2554C148.536 73.5494 146.547 72.9408 144.793 72.0389C144.818 71.8668 144.841 71.6944 144.873 71.5148C144.898 71.349 144.923 71.1757 144.954 71.0037C145.223 69.4667 145.568 67.9242 146.02 66.3942C149.661 69.5528 154.093 72.6993 150.469 73.2554Z" fill="#9A7279"/>
<path d="M149.791 77.8309C148.501 78.5387 146.555 78.6369 144.722 78.5004C144.689 78.0945 144.664 77.6812 144.646 77.2591C144.61 76.3381 144.615 75.3881 144.673 74.4067C144.679 74.3668 144.676 74.3343 144.68 74.2941C148.434 75.2848 152.066 76.5812 149.791 77.8309Z" fill="#9A7279"/>
<path d="M150.031 65.1987C148.969 65.0546 147.867 64.4493 146.844 63.6734C146.86 63.6145 146.884 63.5532 146.909 63.4922C147.424 62.2305 148.023 60.9831 148.729 59.7722C150.82 62.6339 152.489 65.5333 150.031 65.1987Z" fill="#9A7279"/>
<path d="M206.641 46.3411C205.883 47.0718 205.033 47.8899 204.42 48.5058C202.486 50.4581 200.439 53.1866 198.982 53.4717C195.937 54.0705 194.81 51.28 196.872 48.4652C197.813 47.1819 199.091 46.2619 200.205 45.6351L200.213 45.6341C202.459 45.8102 204.597 46.0449 206.641 46.3411Z" fill="#9A7279"/>
<path d="M181.728 44.9703C180.096 46.8477 178.299 50.0115 176.688 50.4973C174.259 51.2275 172.453 49.4457 173.528 48.1993C174.572 46.9874 175.765 46.0466 176.799 45.367C178.366 45.1918 180.006 45.0577 181.728 44.9703Z" fill="#9A7279"/>
<path d="M212.495 86.11C209.262 88.1508 204.256 88.8225 200.675 87.4932C199.911 87.2087 199.202 86.8223 198.572 86.3179C195.839 84.1134 194.358 80.2493 194.429 76.8558C194.425 76.7773 194.425 76.6986 194.428 76.6204C194.566 73.1931 196.73 70.0977 199.946 68.4643C203.71 66.5535 209.264 65.9144 212.638 68.6675C213.969 69.7564 215.005 71.267 215.681 72.9669L215.689 72.9672C217.51 77.4928 216.824 83.3719 212.495 86.11Z" fill="white"/>
<path d="M212.493 86.1113C213.563 85.4318 214.456 84.5045 215.103 83.4507C215.759 82.3962 216.155 81.2188 216.36 80.0326C216.774 77.6482 216.386 75.2109 215.468 73.0561L215.695 73.1903L215.687 73.1912L215.526 73.2063L215.46 73.0558C215.001 71.9955 214.399 70.9972 213.641 70.1341C212.885 69.2665 211.982 68.5388 210.926 68.0869C208.808 67.1683 206.319 67.1446 203.985 67.6376C201.646 68.146 199.36 69.1253 197.693 70.7555C196.862 71.5717 196.187 72.5282 195.708 73.5645C195.471 74.0832 195.272 74.6196 195.148 75.1709C195.072 75.4444 195.04 75.7243 194.989 76.0028C194.968 76.2693 194.922 76.5856 194.927 76.808L194.927 76.8436L194.928 76.8462C194.852 78.8338 195.26 80.8541 196.118 82.664C196.547 83.5694 197.088 84.4247 197.747 85.1892C198.408 85.9538 199.189 86.6155 200.118 87.0711C201.977 87.9855 204.185 88.2392 206.329 88.0582C208.479 87.8796 210.632 87.2452 212.493 86.1113ZM212.493 86.1113C210.643 87.2753 208.49 87.8932 206.335 88.1483C205.253 88.27 204.16 88.2788 203.084 88.1625C202.007 88.0498 200.94 87.8095 199.949 87.3795C198.954 86.9514 198.081 86.2893 197.353 85.5264C196.619 84.7611 196.005 83.8925 195.505 82.9679C194.506 81.1135 193.957 79.0219 193.925 76.8679L193.927 76.9064C193.901 74.3353 195.001 71.8446 196.875 69.9936C197.804 69.075 198.911 68.3048 200.107 67.7722C201.289 67.2281 202.53 66.8253 203.8 66.5808C206.321 66.1126 209.04 66.2138 211.324 67.3639C212.468 67.9259 213.415 68.7808 214.159 69.7324C214.913 70.6887 215.482 71.7607 215.898 72.8811L215.672 72.7457L215.679 72.7446L215.851 72.737L215.904 72.8797C216.327 74.0192 216.588 75.2117 216.688 76.4194C216.782 77.6269 216.726 78.8505 216.486 80.0488C216.244 81.2454 215.795 82.4124 215.137 83.4676C214.475 84.521 213.57 85.442 212.493 86.1113Z" fill="#9A7279"/>
<path d="M205.036 85.3566C207.933 85.539 211.077 84.2739 212.667 81.8893C215.2 78.09 213.681 72.5599 209.503 70.6118C207.261 69.5653 204.281 69.5228 201.994 70.6051C195.885 73.4991 196.929 82.4256 202.733 84.841C203.448 85.1385 204.231 85.3057 205.036 85.3566Z" fill="#9A7279"/>
<path d="M206.325 83.6558C207.816 83.7473 209.436 83.0854 210.258 81.8428C211.567 79.863 210.794 76.9875 208.647 75.9788C207.494 75.4369 205.96 75.4182 204.782 75.984C201.632 77.4969 202.157 82.1402 205.14 83.3902C205.508 83.5442 205.91 83.6302 206.325 83.6558Z" fill="white"/>
<path d="M202.375 75.4527C203.121 75.4984 203.931 75.1674 204.342 74.5462C204.997 73.5563 204.61 72.1185 203.536 71.6141C202.96 71.3432 202.193 71.3339 201.604 71.6168C200.029 72.3732 200.291 74.6949 201.783 75.3198C201.967 75.3968 202.168 75.4399 202.375 75.4527Z" fill="white"/>
<mask id="mask9_735_1770" style="mask-type:luminance" maskUnits="userSpaceOnUse" x="194" y="64" width="23" height="17">
<path d="M197.252 64.6954L216.778 68.5023L213.54 80.805L194.014 76.998L197.252 64.6954Z" fill="white"/>
</mask>
<g mask="url(#mask9_735_1770)">
<g opacity="0.210007">
<path d="M215.605 72.9533C202.628 68.2866 195.167 76.0446 194.267 77.0562C194.263 76.9765 194.265 76.8969 194.268 76.8172C194.439 73.3381 196.635 70.1806 199.874 68.4994C203.665 66.5324 209.236 65.8427 212.594 68.6122C213.917 69.7073 214.941 71.2329 215.605 72.9533Z" fill="#9A7279"/>
</g>
</g>
<path d="M171.995 77.7291C170.558 80.5946 166.954 81.9099 163.821 82.0351C163.388 82.0481 162.961 82.0267 162.545 81.9655C157.516 81.2417 154.21 75.1477 155.779 70.5886C155.932 70.1181 156.148 69.664 156.415 69.2315C158.766 65.4533 165.263 63.6103 169.255 65.8592C170.217 66.4105 170.876 67.3513 171.359 68.2854C171.691 68.9235 171.979 69.6432 172.208 70.4057C172.941 72.7967 173.065 75.5992 171.995 77.7291Z" fill="white"/>
<path d="M171.982 77.7267C172.98 75.6407 172.877 73.2761 172.317 71.1647C172.029 70.1007 171.612 69.073 171.051 68.1351C170.493 67.2052 169.777 66.3469 168.765 65.951C166.762 65.0489 164.367 65.1392 162.232 65.7835C161.155 66.0992 160.131 66.5856 159.214 67.199C158.297 67.8098 157.494 68.578 156.937 69.4638C155.819 71.2423 155.692 73.5206 156.29 75.5326C156.866 77.5518 158.072 79.4762 159.9 80.6803C160.803 81.2885 161.863 81.6761 162.978 81.8346C163.538 81.9029 164.114 81.8853 164.691 81.8375C165.268 81.7945 165.846 81.7113 166.413 81.5751C167.547 81.3125 168.659 80.888 169.643 80.2524C170.134 79.932 170.581 79.5517 170.985 79.1352C171.381 78.7106 171.711 78.2321 171.982 77.7267ZM171.982 77.7267C171.717 78.2346 171.394 78.7182 171.001 79.1486C170.602 79.5724 170.157 79.9595 169.668 80.2867C168.69 80.9412 167.591 81.4243 166.449 81.7283C165.877 81.8803 165.297 82.009 164.71 82.0865C164.126 82.1699 163.528 82.2251 162.931 82.1888C161.742 82.0959 160.578 81.7522 159.564 81.1602C157.521 79.9845 156.071 78.0254 155.311 75.8464C154.95 74.7473 154.748 73.5742 154.829 72.3777C154.859 72.0798 154.908 71.7805 154.948 71.4821C154.998 71.1857 155.094 70.8947 155.168 70.6004C155.326 70.0167 155.595 69.4333 155.928 68.9071C157.319 66.7811 159.625 65.4475 161.986 64.842C164.351 64.2488 166.946 64.3304 169.056 65.4406C170.162 65.9646 170.881 66.9673 171.385 67.9562C171.901 68.959 172.236 70.0349 172.479 71.1232C172.723 72.2105 172.833 73.332 172.778 74.4527C172.729 75.5704 172.502 76.7013 171.982 77.7267Z" fill="#9A7279"/>
<path d="M160.78 78.2026C160.987 78.3507 162.955 80.4302 167.077 79.015C171.197 77.5993 170.56 72.5843 169.869 70.9686C169.178 69.3529 166.872 66.0659 162.163 67.5243C157.451 68.9836 157.203 75.6465 160.78 78.2026Z" fill="#9A7279"/>
<path d="M162.126 78.0309C162.239 78.1096 163.307 79.2122 165.526 78.4751C167.745 77.7377 167.386 75.0885 167.008 74.2338C166.63 73.3791 165.375 71.6381 162.839 72.3966C160.301 73.1556 160.188 76.6727 162.126 78.0309Z" fill="white"/>
<path d="M164.417 71.3216C164.473 71.3609 165.007 71.9123 166.117 71.5437C167.226 71.175 167.046 69.8504 166.857 69.423C166.668 68.9957 166.041 68.1252 164.773 68.5045C163.504 68.884 163.448 70.6425 164.417 71.3216Z" fill="white"/>
<path d="M164.417 71.3216C164.473 71.3609 165.007 71.9123 166.117 71.5437C167.226 71.175 167.046 69.8504 166.857 69.423C166.668 68.9957 166.041 68.1252 164.773 68.5045C163.504 68.884 163.448 70.6425 164.417 71.3216Z" fill="white"/>
<path d="M164.417 71.3216C164.473 71.3609 165.007 71.9123 166.117 71.5437C167.226 71.175 167.046 69.8504 166.857 69.423C166.668 68.9957 166.041 68.1252 164.773 68.5045C163.504 68.884 163.448 70.6425 164.417 71.3216Z" fill="white"/>
<mask id="mask10_735_1770" style="mask-type:luminance" maskUnits="userSpaceOnUse" x="155" y="63" width="19" height="11">
<path d="M157.533 63.2056L173.197 66.2815L171.221 73.8366L155.557 70.7607L157.533 63.2056Z" fill="white"/>
</mask>
<g mask="url(#mask10_735_1770)">
<g opacity="0.210007">
<path d="M172.092 70.4788C166.357 67.706 159.211 69.4952 155.553 70.7671C155.71 70.2858 155.93 69.8206 156.203 69.3776C158.599 65.504 165.153 63.5833 169.155 65.8549C170.119 66.4119 170.775 67.3684 171.254 68.3191C171.583 68.9686 171.868 69.7017 172.092 70.4788Z" fill="#9A7279"/>
</g>
</g>
<path d="M236.919 64.5727C225.375 71.6571 221.194 64.4499 225.957 62.9153C229.15 61.8841 232.054 60.0391 233.966 58.7937C235.314 60.5609 236.3 62.488 236.919 64.5727Z" fill="#9A7279"/>
<path d="M238.606 73.8586L238.609 73.9051C238.595 74.1232 238.593 74.3336 238.585 74.5452C234.325 76.3934 229.073 77.5971 224.843 76.1646C223.247 75.6232 221.839 74.2726 222.315 72.7685C222.509 72.1688 222.994 71.6321 223.594 71.2267C225.362 70.016 227.856 69.6611 230.028 69.2905C232.496 68.8642 235.393 67.6573 237.652 66.5366C238.218 69.0284 238.544 71.48 238.606 73.8586Z" fill="#9A7279"/>
<path d="M238.71 77.378C238.447 80.1791 237.764 82.8594 236.625 85.3901C233.684 86.0609 230.457 85.6415 227.818 84.3967C226.642 83.8385 225.576 82.8851 225.785 81.5276C226.061 79.7316 228.565 79.363 230.095 79.2824C234.241 79.0684 237.169 78.0572 238.71 77.378Z" fill="#9A7279"/>
<path d="M217.291 46.9444C217.291 46.9444 215.94 46.9598 215.56 46.6925C215.175 46.4265 217.247 46.227 217.247 46.227C216.187 45.8864 215.27 44.8086 215.623 44.7632C215.983 44.7105 217.242 45.4691 217.242 45.4691C215.88 43.834 216.615 41.1612 218.02 41.2276C218.622 41.2559 219.344 42.4524 219.971 43.8064C219.305 48.5111 222.478 51.7016 223.047 52.0916C220.724 50.3707 217.962 49.2457 215.724 48.5537C216.013 47.5891 217.291 46.9444 217.291 46.9444Z" fill="white"/>
<path d="M164.624 47.8083C164.755 46.74 165.842 45.1938 165.939 45.0614C165.85 45.1011 164.912 45.5572 164.452 45.3558C163.968 45.1409 165.536 44.4276 165.536 44.4276C165.536 44.4276 164.307 44.6102 164.19 44.2692C164.063 43.9366 165.324 43.935 165.324 43.935C164.407 43.4975 162.666 41.3573 163.73 40.6803C164.425 40.2408 165.424 40.8836 166.043 41.3907C166.97 43.4989 168.243 45.1681 171.357 45.9438C171.357 45.9438 167.65 46.9276 164.624 47.8083Z" fill="white"/>
<path d="M182.447 74.9075C182.447 74.9075 180.662 72.7886 179.716 73.1797C178.771 73.5711 181.455 76.7795 182.5 77.0772C183.546 77.3761 185.926 73.9534 185.373 73.2979C184.818 72.6421 182.447 74.9075 182.447 74.9075Z" fill="#9A7279"/>
<mask id="mask11_735_1770" style="mask-type:luminance" maskUnits="userSpaceOnUse" x="170" y="74" width="25" height="19">
<path d="M174.577 74.7434L194.669 78.6527L190.957 92.7296L170.865 88.8203L174.577 74.7434Z" fill="white"/>
</mask>
<g mask="url(#mask11_735_1770)">
<g opacity="0.479996">
<path d="M178.085 77.2375C176.322 77.6382 174.612 78.6849 173.559 80.3004C172.032 82.6416 171.665 85.5677 173.465 87.6686C174.581 88.9712 176.186 89.6724 177.81 90.0921C180.919 90.8969 184.075 91.4851 187.312 90.6084C188.487 90.2907 189.65 89.802 190.623 88.9939C192.114 87.7538 193.061 85.7682 193.109 83.79C193.154 81.8124 192.298 79.8871 190.864 78.7419C189.1 77.3353 186.411 76.9049 184.199 76.9477C182.229 76.9857 180.023 76.796 178.085 77.2375Z" fill="#9A7279"/>
</g>
</g>
<path d="M147.154 88.311C148.975 87.5526 150.841 86.961 152.718 86.4104C154.6 85.8759 156.493 85.3836 158.431 85.0596C156.611 85.8183 154.745 86.4111 152.868 86.9605C150.986 87.4935 149.093 87.9858 147.154 88.311Z" fill="#9A7279"/>
<path d="M145.697 83.6821C147.59 83.3542 149.485 83.2023 151.38 83.0936C153.277 83.002 155.174 82.9548 157.074 83.0864C155.181 83.4156 153.287 83.5675 151.39 83.6747C149.494 83.765 147.598 83.8113 145.697 83.6821Z" fill="#9A7279"/>
<path d="M146.771 78.1004C148.607 78.5949 150.368 79.2547 152.109 79.9537C153.843 80.6694 155.558 81.4258 157.197 82.3485C155.361 81.854 153.601 81.1957 151.859 80.4954C150.126 79.7785 148.41 79.0218 146.771 78.1004Z" fill="#9A7279"/>
<path d="M212.929 89.4638C214.917 89.5118 216.874 89.7357 218.822 90.0042C220.768 90.2907 222.705 90.6216 224.609 91.1308C222.621 91.0853 220.665 90.8601 218.717 90.5904C216.772 90.3029 214.834 89.9718 212.929 89.4638Z" fill="#9A7279"/>
<path d="M225.158 86.6077C223.282 87.0124 221.394 87.2409 219.506 87.4264C217.617 87.596 215.723 87.7207 213.82 87.6685C215.695 87.2636 217.583 87.0338 219.471 86.8483C221.361 86.6814 223.255 86.5568 225.158 86.6077Z" fill="#9A7279"/>
<path d="M223.193 81.2763C221.694 82.3968 220.106 83.37 218.497 84.3071C216.88 85.2297 215.24 86.1148 213.512 86.8525C215.01 85.7306 216.597 84.7587 218.207 83.8218C219.825 82.9004 221.466 82.0156 223.193 81.2763Z" fill="#9A7279"/>
<mask id="mask12_735_1770" style="mask-type:luminance" maskUnits="userSpaceOnUse" x="147" y="90" width="16" height="10">
<path d="M149.133 90.4552L162.624 93.1062L160.96 99.4718L147.469 96.8208L149.133 90.4552Z" fill="white"/>
</mask>
<g mask="url(#mask12_735_1770)">
<g opacity="0.479996">
<path d="M149.136 90.4523C149.653 91.2833 150.168 92.1114 150.724 92.9097C150.995 93.3127 151.279 93.7077 151.576 94.0848C151.875 94.4581 152.199 94.8298 152.558 95.0836L152.657 95.1538L152.65 95.2891C152.629 95.6997 152.632 96.1309 152.697 96.5259C152.753 96.9114 152.921 97.3217 153.142 97.3584C153.25 97.3783 153.288 97.3729 153.389 97.2392C153.478 97.1083 153.544 96.9158 153.592 96.7224C153.687 96.3312 153.72 95.8996 153.732 95.4934L153.764 94.3034L154.297 95.3377C154.502 95.7343 154.74 96.1334 154.997 96.5037C155.256 96.8718 155.539 97.2305 155.866 97.4962C156.027 97.6319 156.21 97.7315 156.366 97.7504C156.437 97.7682 156.546 97.7545 156.599 97.7324C156.671 97.7165 156.695 97.677 156.734 97.6262C156.878 97.3565 156.773 96.8314 156.63 96.4444L156.413 95.8465L156.944 96.1783C157.611 96.5939 158.324 96.9614 159.043 97.3067C159.764 97.6523 160.514 97.9424 161.303 98.1467C160.484 98.0574 159.695 97.8144 158.928 97.5428C158.162 97.2599 157.431 96.9163 156.71 96.5342L157.024 96.268C157.125 96.5012 157.2 96.7292 157.25 96.9822C157.29 97.2333 157.331 97.5118 157.183 97.8339C157.099 97.9891 156.942 98.1455 156.771 98.1991C156.683 98.2392 156.604 98.2509 156.525 98.2601C156.445 98.277 156.364 98.2728 156.283 98.262C155.959 98.2283 155.712 98.0798 155.51 97.9244C155.095 97.6115 154.792 97.2296 154.513 96.8392C154.234 96.4464 153.987 96.0456 153.761 95.6148L154.327 95.4606C154.321 95.9212 154.275 96.3647 154.163 96.8291C154.099 97.0611 154.028 97.2969 153.864 97.5392C153.778 97.6587 153.658 97.7874 153.484 97.8637C153.306 97.9433 153.111 97.9441 152.956 97.8955C152.63 97.8055 152.445 97.5417 152.345 97.3191C152.243 97.0872 152.199 96.8574 152.165 96.6284C152.109 96.1701 152.111 95.7268 152.162 95.2687L152.254 95.4754C151.828 95.1304 151.537 94.7299 151.248 94.3259C150.966 93.9182 150.705 93.5016 150.457 93.0783C149.977 92.2208 149.526 91.3519 149.136 90.4523Z" fill="#9A7279"/>
</g>
</g>
<mask id="mask13_735_1770" style="mask-type:luminance" maskUnits="userSpaceOnUse" x="214" y="89" width="18" height="14">
<path d="M216.891 89.8481L231.078 92.6088L228.472 102.491L214.285 99.73L216.891 89.8481Z" fill="white"/>
</mask>
<g mask="url(#mask13_735_1770)">
<g opacity="0.479996">
<path d="M214.281 99.7383C215.16 99.3311 216.043 98.9349 216.911 98.5074C217.779 98.0864 218.649 97.6645 219.475 97.1839L219.979 96.8909L219.772 97.435C219.681 97.6741 219.606 97.9394 219.574 98.186C219.535 98.4274 219.566 98.6836 219.656 98.7528C219.691 98.7865 219.778 98.8099 219.853 98.8014C219.9 98.7988 219.988 98.7552 220.073 98.6802C220.245 98.5292 220.405 98.3074 220.546 98.0819C220.827 97.6244 221.069 97.1269 221.28 96.621C221.486 96.118 221.683 95.5848 221.801 95.0916L222.023 94.1557L222.37 95.0177C222.519 95.3884 222.711 95.7676 222.939 96.0905C223.164 96.4103 223.475 96.695 223.716 96.6258C223.991 96.5862 224.275 96.2287 224.463 95.8665C224.655 95.495 224.807 95.0807 224.921 94.6797L224.969 94.5059L225.137 94.4908C226.15 94.3984 227.186 94.1777 228.18 93.8639C228.683 93.7178 229.177 93.5349 229.661 93.3258C230.146 93.1194 230.611 92.8652 231.073 92.6002C230.227 93.2475 229.262 93.7437 228.264 94.133C227.257 94.5076 226.228 94.7825 225.155 94.9366L225.371 94.7478C225.276 95.2039 225.14 95.638 224.928 96.069C224.821 96.2831 224.698 96.4965 224.524 96.6963C224.356 96.8919 224.114 97.0913 223.798 97.1602C223.649 97.1932 223.475 97.1929 223.327 97.1449C223.179 97.1006 223.06 97.0298 222.956 96.9528C222.747 96.7975 222.597 96.6162 222.458 96.4318C222.19 96.056 221.989 95.6687 221.813 95.2476L222.381 95.1734C222.242 95.7591 222.035 96.2737 221.815 96.8061C221.587 97.332 221.343 97.8522 221.015 98.3496C220.847 98.597 220.67 98.8438 220.405 99.0659C220.273 99.1717 220.102 99.2869 219.864 99.3078C219.657 99.3193 219.455 99.2697 219.289 99.1188C218.989 98.787 219.062 98.4258 219.103 98.141C219.16 97.8411 219.254 97.5704 219.376 97.2923L219.672 97.5447C218.799 97.9916 217.91 98.3841 217.009 98.7445C216.106 99.0954 215.202 99.4411 214.281 99.7383Z" fill="#9A7279"/>
</g>
</g>
<mask id="mask14_735_1770" style="mask-type:luminance" maskUnits="userSpaceOnUse" x="187" y="122" width="43" height="55">
<path d="M199.653 122.66L229.144 128.424L216.575 176.287L187.084 170.522L199.653 122.66Z" fill="white"/>
</mask>
<g mask="url(#mask14_735_1770)">
<g opacity="0.479996">
<path d="M187.084 170.538C189.57 169.492 192.019 168.363 194.389 167.093C196.76 165.833 199.081 164.469 201.196 162.86L202.224 162.079L201.902 163.32C201.701 164.094 201.556 164.954 201.635 165.668C201.668 166.027 201.805 166.3 201.935 166.338C201.976 166.361 201.934 166.325 201.866 166.328C201.828 166.317 201.778 166.344 201.784 166.335C201.77 166.347 201.83 166.304 201.877 166.259C201.984 166.154 202.104 165.996 202.215 165.835C202.663 165.167 203.04 164.381 203.394 163.606C203.747 162.826 204.077 162.023 204.378 161.229L205.438 158.434L205.536 161.365C205.567 162.244 205.664 163.162 205.866 163.997C206.042 164.811 206.503 165.683 206.853 165.581C206.985 165.599 207.169 165.456 207.35 165.087C207.518 164.741 207.63 164.312 207.709 163.88C207.865 163.013 207.914 162.081 207.9 161.198L207.894 160.881L208.171 160.685C210.79 158.822 213.181 156.471 215.337 154.024C217.519 151.573 219.469 148.928 221.213 146.165C224.673 140.621 227.279 134.606 229.113 128.402C228.392 131.545 227.411 134.646 226.222 137.687C225.051 140.735 223.573 143.685 221.901 146.536C220.21 149.376 218.305 152.114 216.141 154.667C213.938 157.197 211.585 159.574 208.786 161.602L209.057 161.089C209.086 162.069 209.053 163.018 208.894 164.01C208.808 164.506 208.699 165.007 208.457 165.534C208.334 165.794 208.178 166.068 207.909 166.325C207.653 166.583 207.221 166.787 206.825 166.791C206.458 166.81 206.052 166.688 205.775 166.473C205.497 166.264 205.317 166.022 205.181 165.781C204.912 165.296 204.769 164.813 204.657 164.332C204.441 163.366 204.357 162.425 204.339 161.441L205.499 161.577C205.169 162.404 204.823 163.208 204.443 164.015C204.058 164.82 203.669 165.615 203.125 166.405C202.981 166.604 202.834 166.801 202.62 167.005C202.502 167.107 202.391 167.214 202.169 167.309C202.076 167.357 201.913 167.39 201.767 167.39C201.592 167.377 201.443 167.319 201.394 167.286C200.733 166.929 200.618 166.277 200.575 165.82C200.534 164.839 200.749 163.983 201.022 163.102L201.727 163.562C199.476 165.131 197.086 166.447 194.628 167.59C192.16 168.705 189.655 169.73 187.084 170.538Z" fill="#9A7279"/>
</g>
</g>
<path d="M166.216 166.265C166.329 165.276 166.721 164.325 167.248 163.448C167.775 162.566 168.49 161.774 169.326 161.111C170.167 160.451 171.17 159.967 172.212 159.733C173.248 159.454 174.329 159.526 175.302 159.758C174.296 160.04 173.358 160.234 172.496 160.642C171.639 161.023 170.824 161.469 170.105 162.057C168.628 163.189 167.424 164.647 166.216 166.265Z" fill="#9A7279"/>
<path d="M155.484 164.884C155.601 163.827 155.975 162.809 156.465 161.845C156.954 160.876 157.609 159.976 158.382 159.162C159.185 158.374 160.127 157.693 161.18 157.24C162.231 156.78 163.395 156.63 164.471 156.742C163.428 157.142 162.482 157.523 161.624 158.079C160.783 158.642 160 159.266 159.294 159.987C157.877 161.434 156.705 163.104 155.484 164.884Z" fill="#9A7279"/>
<mask id="mask15_735_1770" style="mask-type:luminance" maskUnits="userSpaceOnUse" x="133" y="164" width="54" height="64">
<path d="M148.557 164.132L186.43 171.518L171.779 227.189L133.906 219.803L148.557 164.132Z" fill="white"/>
</mask>
<g mask="url(#mask15_735_1770)">
<g opacity="0.479996">
<path d="M186.289 172.032C179.197 170.073 171.656 169.03 164.232 170.177C160.542 170.768 156.924 172.028 153.793 174.064C150.648 176.081 148.1 178.927 146.321 182.142C142.831 188.648 141.023 195.996 141.335 203.166C141.574 210.325 144.049 217.376 148.875 222.739C146.245 220.274 144.165 217.234 142.732 213.903C141.314 210.564 140.476 206.957 140.249 203.28C139.848 195.924 141.527 188.318 145.295 181.638C147.181 178.287 149.902 175.293 153.23 173.195C156.552 171.076 160.366 169.901 164.151 169.376C167.953 168.859 171.771 168.937 175.477 169.453C179.185 169.967 182.809 170.836 186.289 172.032Z" fill="#9A7279"/>
</g>
</g>
<mask id="mask16_735_1770" style="mask-type:luminance" maskUnits="userSpaceOnUse" x="159" y="123" width="10" height="15">
<path d="M162.852 123.201L168.428 124.304L165 137.496L159.424 136.394L162.852 123.201Z" fill="white"/>
</mask>
<g mask="url(#mask16_735_1770)">
<g opacity="0.479996">
<path d="M167.159 125.648C166.749 125.3 166.334 124.959 165.897 124.67C165.678 124.529 165.451 124.397 165.222 124.318C164.998 124.233 164.764 124.224 164.713 124.283C164.598 124.274 164.719 124.858 164.952 125.264C165.171 125.7 165.473 126.132 165.764 126.527L167.305 128.618L164.996 127.279C164.578 127.036 164.086 126.8 163.648 126.692C163.436 126.638 163.214 126.629 163.174 126.65C163.152 126.655 163.194 126.651 163.196 126.628C163.242 126.582 163.219 126.542 163.233 126.586C163.273 126.81 163.663 127.254 163.993 127.588C164.348 127.94 164.754 128.284 165.154 128.588L165.779 129.058L165.11 129.543C164.592 129.92 164.025 130.432 163.547 130.956C163.058 131.489 162.588 132.046 162.174 132.647C161.753 133.242 161.365 133.865 161.008 134.511C160.639 135.154 160.355 135.833 160.036 136.516C160.137 135.785 160.312 135.057 160.545 134.341C160.755 133.614 161.096 132.927 161.44 132.24C161.817 131.568 162.238 130.91 162.733 130.3C163.243 129.689 163.749 129.121 164.446 128.593L164.404 129.549C163.934 129.211 163.508 128.864 163.089 128.47C162.881 128.267 162.677 128.064 162.493 127.813C162.312 127.562 162.118 127.315 162.02 126.868C161.972 126.648 161.99 126.329 162.171 126.032C162.337 125.783 162.61 125.59 162.866 125.525C163.376 125.394 163.724 125.496 164.036 125.584C164.655 125.788 165.134 126.07 165.632 126.4L164.865 127.152C164.558 126.67 164.314 126.185 164.106 125.647C164.009 125.373 163.911 125.099 163.888 124.766C163.878 124.598 163.883 124.414 163.945 124.207C164.018 123.994 164.197 123.771 164.428 123.68C164.904 123.498 165.247 123.692 165.494 123.835C165.752 123.992 165.956 124.183 166.154 124.377C166.544 124.765 166.876 125.191 167.159 125.648Z" fill="#9A7279"/>
</g>
</g>
<mask id="mask17_735_1770" style="mask-type:luminance" maskUnits="userSpaceOnUse" x="187" y="172" width="22" height="14">
<path d="M190.063 172.711L208.425 176.308L205.923 185.856L187.561 182.259L190.063 172.711Z" fill="white"/>
</mask>
<g mask="url(#mask17_735_1770)">
<g opacity="0.479996">
<path d="M190.073 172.713C191.863 173.043 193.52 173.783 195.093 174.616C196.667 175.456 198.128 176.478 199.496 177.602C200.856 178.735 202.106 179.994 203.187 181.382C204.312 182.735 205.181 184.282 205.921 185.858C204.747 184.554 203.627 183.253 202.405 182.047C201.196 180.832 199.954 179.655 198.622 178.576C197.315 177.47 195.938 176.439 194.522 175.452C193.084 174.501 191.656 173.499 190.073 172.713Z" fill="#9A7279"/>
</g>
</g>
<path d="M242.984 114.71C238.131 116.144 232.792 116.499 228.366 115.98C226.896 115.803 225.372 115.452 224.356 114.446C221.908 111.997 225.092 109.209 227.479 108.162C229.22 107.399 231.101 107.054 232.926 106.539C234.712 106.038 236.46 105.385 238.128 104.573C238.733 105.55 239.302 106.555 239.836 107.588C241.023 109.848 242.073 112.232 242.984 114.71Z" fill="#9A7279"/>
<path d="M247.799 132.896C245.707 132.713 243.639 132.361 241.751 131.556C241.046 131.251 240.344 130.88 239.864 130.307C239.372 129.73 239.112 128.934 239.357 128.204C239.543 127.619 240.014 127.16 240.522 126.784C242.082 125.604 244.176 124.901 246.341 124.445C246.952 127.189 247.444 130.012 247.799 132.896Z" fill="#9A7279"/>
<path d="M249.004 154.105C244.58 154.184 240.188 153.204 236.385 151.201C235.549 150.759 234.716 150.249 234.188 149.491C233.671 148.722 233.524 147.64 234.087 146.859C234.651 146.072 235.706 145.801 236.669 145.643C240.814 144.966 245 145.264 249.151 144.787C249.169 145.814 249.175 146.84 249.172 147.871C249.168 149.945 249.109 152.023 249.004 154.105Z" fill="#9A7279"/>
<path d="M247.601 170.333C245.154 169.805 242.884 168.76 241.316 167.283C240.832 166.84 240.412 166.313 240.235 165.693C240.087 165.173 240.113 164.722 240.282 164.313C241.082 162.416 245.011 161.618 248.81 161.237C248.689 162.466 248.548 163.698 248.386 164.919C248.164 166.734 247.895 168.54 247.601 170.333Z" fill="#9A7279"/>
<path d="M221.797 222.951C221.36 223.225 220.925 223.492 220.485 223.751C217.883 225.276 215.213 226.488 212.528 227.43C212.039 227.606 211.547 227.767 211.058 227.921C209.708 224.541 209.346 220.663 210.358 217.501C210.6 216.759 210.951 216.027 211.53 215.474C212.005 215.024 212.507 214.77 213.03 214.704C215.871 214.303 219.281 218.91 221.797 222.951Z" fill="#9A7279"/>
<path d="M198.594 229.801C197.62 229.873 196.652 229.927 195.704 229.958C193.261 230.031 190.902 229.966 188.682 229.804C188.218 227.714 187.991 225.609 188.453 223.408C189.113 220.227 192.538 221.197 194.302 222.767C195.832 224.124 196.738 226.091 197.546 227.915C197.807 228.494 198.18 229.13 198.594 229.801Z" fill="#9A7279"/>
<path d="M236.01 207.423C234.296 210.53 232.478 213.281 230.583 215.587C224.411 212.365 219.188 207.345 216.983 200.946C216.27 198.872 216.08 196.164 217.952 194.789C219.633 193.554 222.061 194.18 223.702 195.333C226.026 196.963 227.515 199.424 229.306 201.582C231.071 203.709 233.17 205.575 235.511 207.119C235.672 207.226 235.843 207.329 236.01 207.423Z" fill="#9A7279"/>
<path d="M243.885 187.997C243.474 189.371 243.049 190.716 242.601 192.038C241.596 195.003 240.512 197.837 239.359 200.503L239.356 200.515C235.922 198.367 233.007 195.513 230.6 192.338C228.158 189.149 227.97 184.27 233.322 183.62C237.12 183.163 240.113 185.551 242.955 187.457C243.236 187.65 243.549 187.827 243.885 187.997Z" fill="#9A7279"/>
<path d="M176.909 107.851L178.829 111.596L182.997 112.089L187.481 107.341L181.788 102.497L176.029 105.061L177.622 107.766L176.909 107.851Z" fill="#9A7279"/>
<path d="M181.698 102.337L177.515 109.437L163.962 98.7785C163.962 98.7785 174.769 101.496 181.698 102.337Z" fill="white"/>
<path d="M181.849 102.76L185.027 111.297C185.027 111.297 201.067 108.351 209.986 101.109C209.986 101.109 194.652 103.96 181.849 102.76Z" fill="white"/>
<path d="M183.385 111.91C183.385 111.91 181.917 124.06 181.082 148.055L176.814 150.71C176.814 150.71 171.722 149.16 166.027 150.699C166.027 150.699 176.858 121.113 179.308 111.419L183.385 111.91Z" fill="#EA5D80"/>
<mask id="mask18_735_1770" style="mask-type:luminance" maskUnits="userSpaceOnUse" x="152" y="130" width="42" height="38">
<path d="M160.472 130.034L193.042 136.355L184.785 167.597L152.215 161.276L160.472 130.034Z" fill="white"/>
</mask>
<g mask="url(#mask18_735_1770)">
<g opacity="0.479996">
<path d="M152.219 161.294C152.984 159.017 154.425 156.927 156.206 155.183C158.008 153.445 160.192 152.083 162.528 151.128L164.318 150.522C164.916 150.325 165.536 150.235 166.146 150.088C167.365 149.754 168.61 149.735 169.844 149.588C171.079 149.514 172.306 149.575 173.538 149.568L177.169 149.97L176.761 150.042C179.85 148.316 182.835 146.27 185.622 144.037C187.025 142.922 188.312 141.683 189.587 140.429C190.854 139.161 191.974 137.773 193.047 136.333C191.317 139.454 188.889 142.233 186.181 144.659C184.824 145.874 183.418 147.043 181.931 148.104C180.445 149.172 178.938 150.181 177.314 151.089L177.14 151.186L176.905 151.162L173.384 150.806C172.205 150.81 171.021 150.736 169.841 150.795C167.483 150.967 165.113 151.294 162.863 152.107C160.618 152.898 158.478 154.071 156.661 155.651C154.825 157.207 153.269 159.121 152.219 161.294Z" fill="#9A7279"/>
</g>
</g>
<path d="M203.621 174.962C203.498 175.688 202.797 176.213 202.046 176.106L149.941 169.511C149.198 169.419 148.697 168.755 148.823 168.018L148.994 166.944L149.213 165.64C149.326 164.947 149.985 164.45 150.692 164.487C150.727 164.495 150.753 164.488 150.787 164.495L200.827 170.762C200.945 170.775 201.049 170.796 201.164 170.82C202.626 171.143 203.654 172.367 203.729 173.803C203.739 174.056 203.726 174.303 203.686 174.558L203.621 174.962Z" fill="#9A7279"/>
<path d="M203.732 173.894L148.952 166.969L148.918 166.962L149.364 164.347L150.649 164.505L201.163 170.897C202.624 171.223 203.654 172.453 203.732 173.894Z" fill="#EA5D80"/>
<path d="M153.294 169.5L146.818 123.42C146.211 119.095 142.723 115.773 138.215 115.226L67.1442 106.616C63.371 106.159 60.0463 109.329 60.4915 112.959L66.0175 158.021L153.294 169.5Z" fill="#9A7279"/>
<path d="M150.572 169.165L143.977 122.992C143.37 118.667 139.88 115.345 135.374 114.798L64.3006 106.188C60.5273 105.73 57.2026 108.9 57.6478 112.531L63.1753 157.594L150.572 169.165Z" fill="#EA5D80"/>
<path d="M175.773 81.0163C180.685 88.4776 183.239 81.4526 182.798 76.5749" stroke="#9A7279" stroke-width="0.86319" stroke-linecap="round"/>
<path d="M189.771 81.01C184.265 88.2647 182.299 81.0215 183.139 76.1195" stroke="#9A7279" stroke-width="0.86319" stroke-linecap="round"/>
<path fill-rule="evenodd" clip-rule="evenodd" d="M42.1572 193.39C42.104 193.095 42.0638 192.803 42.0379 192.511C41.9988 192.074 42.023 191.633 42.0091 191.195C42.0031 191.01 41.9793 190.526 41.9889 190.456C42.0759 189.85 42.6005 189.757 42.7539 189.74C42.8281 189.73 43.5902 189.651 43.7547 190.44C43.9564 191.404 44.021 192.375 43.9497 193.327C44.1162 194.135 44.401 194.941 44.7771 195.67C46.2737 198.571 49.1255 198.852 52.2153 198.826C52.6905 198.819 53.085 199.167 53.1099 199.608C53.1348 200.052 52.781 200.437 52.308 200.476C50.5809 200.632 47.5167 201.925 46.4573 203.271C46.2357 203.552 46.1068 204.232 45.9363 204.898C45.6984 205.823 45.4153 206.738 45.0982 207.122C45.0506 207.182 44.4721 207.792 44.2995 207.881C43.8847 208.094 43.5526 207.971 43.364 207.858C43.1754 207.746 42.962 207.523 42.8768 207.156C42.7876 206.771 42.8629 205.982 42.8491 205.813C42.7986 205.2 42.6672 203.997 42.3991 202.962C42.2546 202.406 42.1004 201.892 41.8454 201.637C40.9015 200.692 39.3921 200.831 38.121 200.987C37.9751 201.004 37.8291 201.023 37.6835 201.04C37.1661 201.183 36.6166 201.289 36.036 201.352C35.1591 201.448 35.0149 200.695 35.0071 200.646C34.9908 200.536 34.9301 199.973 35.591 199.747C35.6631 199.724 36.1951 199.615 36.4 199.572C36.6855 199.512 36.9743 199.466 37.2641 199.422C40.2576 198.554 41.8834 196.114 42.1572 193.39ZM43.1847 196.403C44.3147 198.584 46.0297 199.638 48.0626 200.115H48.0622C46.7929 200.735 45.6384 201.511 45.0264 202.29C44.7942 202.585 44.5811 203.178 44.389 203.844C44.2849 203.224 44.1443 202.565 43.9585 202.001C43.7472 201.358 43.4627 200.825 43.1452 200.506C42.5323 199.893 41.763 199.552 40.9359 199.383C41.926 198.564 42.6768 197.543 43.1847 196.403Z" fill="#F39D90"/>
<path fill-rule="evenodd" clip-rule="evenodd" d="M242.739 46.6161C243.411 46.3926 244.118 46.0957 244.663 45.6658C245.311 45.1551 245.574 44.4975 245.751 43.8052C245.978 42.9159 246.068 41.9684 246.344 41.0776C246.446 40.7468 246.642 40.6218 246.726 40.5663C246.939 40.4261 247.154 40.3886 247.356 40.4027C247.596 40.4189 247.925 40.5036 248.142 40.8787C248.173 40.9324 248.213 41.0142 248.24 41.1263C248.26 41.2084 248.272 41.4654 248.293 41.5713C248.345 41.8322 248.389 42.0931 248.43 42.3555C248.566 43.2286 248.645 43.9703 249.075 44.7724C249.659 45.8615 250.245 46.5278 251.038 46.8229C251.806 47.1083 252.724 47.0546 253.896 46.8309C254.008 46.8056 254.118 46.784 254.228 46.7663C254.745 46.682 255.239 46.9988 255.34 47.4795C255.442 47.9599 255.113 48.428 254.601 48.5336C254.494 48.5556 254.389 48.5765 254.284 48.5956C252.7 48.9617 250.865 50.2684 249.799 51.4125C249.471 51.7653 248.99 52.7516 248.499 53.3808C248.137 53.845 247.73 54.1509 247.388 54.259C247.159 54.3318 246.966 54.3207 246.807 54.2839C246.575 54.2306 246.383 54.1135 246.235 53.9271C246.155 53.8252 246.08 53.6886 246.045 53.5142C246.028 53.4302 246.026 53.2169 246.026 53.1203C245.926 52.7992 245.804 52.4857 245.715 52.1617C245.502 51.3887 245.085 50.8994 244.589 50.2529C244.125 49.6478 243.627 49.2676 242.897 48.9642C242.802 48.9426 242.036 48.7674 241.765 48.6669C241.37 48.5195 241.181 48.2727 241.113 48.1397C240.997 47.9141 240.985 47.717 241.008 47.5527C241.042 47.3101 241.159 47.1026 241.366 46.935C241.494 46.8309 241.685 46.7296 241.942 46.6802C242.14 46.6417 242.665 46.6193 242.739 46.6161ZM247.235 45.3562C247.271 45.4301 247.309 45.5043 247.349 45.5793C248.204 47.1743 249.161 48.0647 250.324 48.4968L250.363 48.5109C249.585 49.05 248.881 49.6525 248.343 50.2302C248.121 50.468 247.828 50.9621 247.511 51.4687C247.223 50.5949 246.751 49.9772 246.159 49.2042C245.707 48.6143 245.233 48.1703 244.65 47.8085C245.102 47.5919 245.533 47.3382 245.909 47.042C246.534 46.5487 246.948 45.9771 247.235 45.3562Z" fill="#F39D90"/>
<path d="M268.007 80.7268C268.007 80.7268 266.892 78.2743 265.041 76.0254C265.135 75.9026 265.235 75.7686 265.324 75.6515C265.037 75.5393 264.743 75.4396 264.448 75.3448C264.216 75.0924 263.978 74.8431 263.727 74.6072C263.632 74.7453 263.524 74.9021 263.423 75.0476C260.495 74.2909 257.64 74.2467 257.64 74.2467C257.64 74.2467 253.542 74.9477 253.996 78.5497C254.011 78.6671 253.781 78.9906 253.744 79.1151C253.591 79.6234 253.596 80.165 253.723 80.6774C254.107 82.2276 255.463 83.3135 256.75 84.2487C258.747 85.7004 263.102 88.1961 265.102 85.4952C268.85 84.5351 268.007 80.7268 268.007 80.7268Z" fill="#EA5D80"/>
<path d="M255.084 76.7875C254.073 74.9082 254.815 72.6654 256.514 71.1671C259.611 68.4373 260.861 67.6173 258.381 62.2365C255.858 56.762 258.222 44.8898 272.307 42.5248C288.624 39.785 301.404 54.7325 295.429 68.7281C289.453 82.7246 273.867 76.7895 272.179 79.3503C270.492 81.9102 268.499 85.1889 263.397 82.876C261.408 81.9746 259.562 80.8057 257.876 79.4738C257.165 78.9125 256.407 78.3869 255.783 77.7385C255.493 77.4369 255.261 77.1175 255.084 76.7875Z" fill="#FFC77D"/>
<path d="M266.189 58.7191C265.694 59.4356 264.89 61.6203 264.862 64.0624C264.854 64.6347 264.892 65.2757 265.024 65.8974C265.739 64.0801 266.235 62.1736 266.283 60.3274C266.305 59.4605 266.246 58.9787 266.189 58.7191ZM274.39 63.812C273.941 63.6451 272.597 64.4002 271.292 66.2335C270.748 66.9991 270.296 67.8466 270.03 68.6684C270.375 68.5541 270.692 68.4101 270.975 68.2599C273.085 67.138 274.553 64.967 274.512 64.051C274.503 63.8604 274.436 63.8311 274.404 63.8172L274.39 63.812ZM278.272 70.6936C278.138 70.6438 277.955 70.6268 277.724 70.6442C276.54 70.731 274.68 71.6126 272.686 72.8607C274.821 73.2171 277.37 72.5492 278.295 71.7114C278.833 71.2237 278.582 70.9518 278.448 70.8062C278.405 70.759 278.346 70.7211 278.272 70.6936ZM263.297 80.6332C263.269 80.6226 263.241 80.6092 263.215 80.594C262.966 80.4504 262.888 80.1458 263.042 79.9135C264.301 78.0057 267.356 75.2934 270.471 73.1356C270.231 72.9996 270.005 72.843 269.797 72.6668C268.943 71.9412 268.648 70.9577 268.712 69.9008C267.744 69.9271 266.811 69.6835 265.966 69.1714C265.62 68.9604 265.322 68.7048 265.068 68.4115C262.867 72.8815 259.833 76.3396 259.637 76.5615C259.45 76.772 259.115 76.8007 258.891 76.628C258.666 76.4536 258.633 76.1415 258.82 75.9319C258.87 75.876 262.202 72.0743 264.397 67.3539C263.247 64.8438 263.957 61.0367 264.844 59.0363C265.341 57.9139 265.866 57.4246 266.449 57.5402C267.143 57.678 267.389 58.4903 267.342 60.3507C267.28 62.7115 266.554 65.1262 265.568 67.3453C265.809 67.7448 266.127 68.0899 266.543 68.3415C267.337 68.8243 268.131 68.9596 268.868 68.9058C269.141 67.7812 269.731 66.64 270.41 65.6862C271.679 63.9024 273.55 62.3435 274.849 62.9204C275.291 63.1114 275.547 63.4982 275.571 64.0095C275.638 65.5142 273.697 67.9499 271.5 69.1194C270.928 69.4221 270.355 69.6378 269.787 69.7652C269.698 70.6378 269.895 71.4128 270.51 71.9354C270.78 72.1635 271.088 72.3495 271.423 72.4962C273.834 70.9231 276.176 69.766 277.642 69.6586C278.356 69.6049 278.897 69.7752 279.253 70.1621C279.898 70.8652 279.817 71.7091 279.033 72.4204C277.646 73.677 274.156 74.4188 271.551 73.6001C268.41 75.7277 265.193 78.5407 263.943 80.4326C263.806 80.6405 263.531 80.7204 263.297 80.6332Z" fill="white"/>
<path d="M276.993 46.6782C277.138 46.9322 277.39 47.1147 277.644 47.2793C278.079 47.5601 278.544 47.8118 279.053 47.9438C279.934 48.1725 281.159 48.0051 281.203 46.9901C281.236 46.2409 280.648 45.2665 280.051 44.7943C278.724 43.7473 276.031 44.9886 276.993 46.6782Z" fill="white"/>
<path d="M265.903 47.1829C265.123 47.7625 264.595 48.5797 264.082 49.3791C263.518 50.2626 263.397 51.8443 264.564 52.3709C266.092 53.0606 267.322 51.3655 268.211 50.538C268.897 49.8988 270.048 49.6668 270.917 49.3181C272.043 48.866 275.725 47.4366 274.047 45.8865C271.917 43.9202 267.773 45.7941 265.903 47.1829Z" fill="white"/>
<path d="M253.998 78.5503C254.756 79.3825 255.454 80.2094 256.248 80.9446C257.037 81.6817 257.874 82.3573 258.786 82.9297C259.687 83.5181 260.666 83.9898 261.689 84.3936C262.721 84.7817 263.801 85.0799 264.933 85.3499C263.774 85.4917 262.582 85.3995 261.43 85.1265C260.278 84.8491 259.178 84.3701 258.188 83.7452C257.209 83.1062 256.329 82.3351 255.624 81.4458C254.905 80.5705 254.367 79.5731 253.998 78.5503Z" fill="#9A7279"/>
<path d="M272.82 85.9059C272.005 85.4803 271.303 85.6271 271.202 86.569C271.05 87.9943 271.457 89.3647 271.958 90.686C272.84 93.0131 273.442 95.5515 275.186 97.4914C276.189 98.6066 277.988 99.4596 279.574 99.1967C282.039 98.7871 281.435 96.7473 280.524 95.2108C279.148 92.8903 277.478 90.6555 275.83 88.4945C275.072 87.5016 273.98 86.5289 272.85 85.9213C272.839 85.9163 272.829 85.9105 272.82 85.9059Z" fill="#FFC77D"/>
<path d="M274.539 83.0649C273.827 83.2215 273.506 83.6526 273.981 84.2466C274.702 85.1449 275.713 85.7348 276.751 86.251C278.579 87.1586 280.365 88.3273 282.473 88.5864C283.684 88.7357 285.206 88.3403 285.973 87.4044C287.163 85.9513 285.659 85.0714 284.261 84.6346C282.152 83.9735 279.921 83.507 277.744 83.0731C276.745 82.8738 275.562 82.8514 274.565 83.0597C274.557 83.0609 274.548 83.0629 274.539 83.0649Z" fill="#FFC77D"/>
</svg>
