<svg width="310" height="316" viewBox="0 0 310 316" fill="none" xmlns="http://www.w3.org/2000/svg">
<path d="M292.256 233.053C292.256 235.149 289.754 237.167 285.135 239.029C282.263 240.214 278.557 241.339 274.113 242.387C254.264 247.141 219.746 250.594 178.958 251.623C170.731 251.816 162.253 251.932 153.577 251.932C105.847 251.932 63.7394 248.654 38.7855 243.648C32.4792 242.387 27.2796 241.009 23.3614 239.574C17.8884 237.535 14.9004 235.342 14.9004 233.053C14.9004 232.994 14.9004 232.937 14.9194 232.878C14.9194 232.548 15.0162 232.22 15.1718 231.889C16.1039 229.793 19.5589 227.776 25.1268 225.932C29.55 224.438 35.2944 223.06 42.1836 221.8C67.445 217.162 107.941 214.153 153.577 214.153C168.559 214.153 182.975 214.483 196.501 215.066C202.652 215.356 208.626 215.687 214.37 216.055C237.714 217.608 257.368 220.034 271.106 223.022C275.473 223.954 279.237 224.962 282.341 226.029C287.387 227.738 290.627 229.56 291.772 231.481C292.102 232.005 292.256 232.529 292.256 233.053Z" fill="#EA5D80"/>
<mask id="mask0_986_7176" style="mask-type:luminance" maskUnits="userSpaceOnUse" x="14" y="214" width="183" height="38">
<path d="M14.9062 214.156H196.623V251.936H14.9062V214.156Z" fill="white"/>
</mask>
<g mask="url(#mask0_986_7176)">
<g opacity="0.179993">
<path d="M178.962 251.625C170.735 251.82 162.255 251.936 153.581 251.936C105.849 251.936 63.7433 248.658 38.7894 243.65C32.4831 242.389 27.2835 241.011 23.3634 239.576C17.8904 237.539 14.9043 235.344 14.9043 233.055C14.9043 232.996 14.9043 232.939 14.9233 232.88C14.9233 232.552 15.0201 232.222 15.1758 231.891C16.1079 229.795 19.561 227.778 25.1307 225.934C29.5539 224.44 35.2964 223.064 42.1856 221.802C67.4489 217.164 107.945 214.157 153.581 214.157C168.561 214.157 182.977 214.487 196.503 215.068L196.619 216.019C143.822 216.019 100.999 224.053 100.999 233.968C100.999 242.757 134.586 250.074 178.962 251.625Z" fill="white"/>
</g>
</g>
<path d="M99.4541 218.392C90.8393 224.913 83.8723 227.281 78.5569 227.668C78.1678 227.706 77.7805 227.727 77.4122 227.727C77.0421 227.746 76.7136 227.746 76.3833 227.727C76.1517 227.727 75.9182 227.706 75.6847 227.687C69.6309 227.376 66.2727 224.505 65.5171 223.788L65.4981 223.769C65.4203 223.691 65.3615 223.632 65.3615 223.632C65.3615 223.632 60.9952 235.449 54.0302 238.843C47.7238 241.909 33.676 248.721 28.184 248.817C27.7759 248.838 27.4095 248.798 27.0982 248.683C26.4186 248.489 26.0104 248.003 25.9725 247.168C25.6232 240.92 41.5542 233.644 41.5542 233.644C41.5542 233.644 36.5862 229.452 34.665 218.336C34.2569 215.987 33.9873 213.349 33.9266 210.361C33.8487 207.352 34.0044 203.995 34.4524 200.271C34.5872 199.048 34.7619 197.767 34.9764 196.466C35.3446 194.217 35.8287 192.121 36.4324 190.16C37.6929 185.891 39.4584 182.244 41.4953 179.178C43.3975 176.247 45.5312 173.823 47.7048 171.824C55.2527 164.859 63.1309 162.957 63.1309 162.957C62.9543 157.311 63.4612 151.76 64.5091 146.346C65.4393 141.477 66.7985 136.742 68.4273 132.22C69.3784 129.544 70.4263 126.924 71.552 124.401C72.9492 121.219 74.4622 118.173 75.9961 115.281C81.7177 104.626 87.9709 96.2731 91.724 91.6335C92.041 91.2386 92.3447 90.8627 92.6238 90.5229C92.7984 90.3084 92.9731 90.1148 93.1097 89.9212C93.3243 89.6497 93.5369 89.4162 93.7115 89.2036C93.9621 88.9321 94.1576 88.6986 94.3323 88.4841C94.488 88.2905 94.6417 88.1177 94.7575 88C94.8752 87.8652 94.972 87.7665 95.0309 87.6887C95.0878 87.6317 95.1277 87.5919 95.1277 87.5919C95.6137 87.6507 96.0959 87.7475 96.5818 87.8652C96.8913 87.9222 97.2216 88.019 97.5329 88.1177C97.7645 88.1936 97.998 88.2715 98.2125 88.3493C98.2904 88.3683 98.3682 88.4082 98.446 88.4272C98.7365 88.543 99.0269 88.6607 99.3193 88.7954C99.3971 88.8144 99.4749 88.8543 99.5509 88.8922C99.8812 89.0479 100.21 89.2226 100.54 89.4162C100.832 89.5719 101.123 89.7465 101.394 89.9401C101.724 90.1546 102.055 90.3863 102.385 90.6387C102.56 90.7564 102.714 90.8912 102.89 91.0469C103.16 91.2405 103.412 91.474 103.665 91.7056C103.917 91.9201 104.168 92.1726 104.422 92.4251C104.538 92.5409 104.654 92.6567 104.771 92.7934C105.041 93.0648 105.314 93.3553 105.548 93.6476C105.8 93.9191 106.032 94.2095 106.265 94.5209C106.535 94.8493 106.808 95.2176 107.061 95.5878C108.515 97.6057 109.796 99.9521 110.941 102.572C111.309 103.445 111.678 104.358 112.027 105.269C124.212 137.887 116.957 205.121 99.4541 218.392Z" fill="#FFBF6D"/>
<mask id="mask1_986_7176" style="mask-type:luminance" maskUnits="userSpaceOnUse" x="26" y="87" width="93" height="163">
<path d="M26.1621 87.5854H118.17V249.012H26.1621V87.5854Z" fill="white"/>
</mask>
<g mask="url(#mask1_986_7176)">
<g opacity="0.199997">
<path d="M95.1218 87.5866C95.1218 87.5866 62.0239 123.798 63.3281 162.953C63.3281 162.953 39.6841 168.643 35.1793 196.465C30.6745 224.287 41.7628 233.642 41.7628 233.642C41.7628 233.642 25.8223 240.919 26.1697 247.157C26.5152 253.393 46.5561 242.181 54.2369 238.84C61.2627 235.786 65.5644 223.629 65.5644 223.629C65.5644 223.629 76.814 235.721 99.657 218.397C122.5 201.07 127.694 91.7554 95.1218 87.5866Z" fill="#9A7279"/>
</g>
</g>
<path d="M34.7265 246.903C34.5823 246.352 34.5861 245.787 34.6582 245.232C34.7284 244.674 34.8936 244.127 35.1385 243.607C35.3986 243.097 35.7441 242.614 36.1902 242.239C36.6401 241.865 37.1963 241.622 37.7563 241.568C37.3292 241.95 36.9704 242.299 36.6648 242.698C36.3743 243.106 36.1142 243.526 35.8959 243.977C35.4517 244.887 35.1328 245.861 34.7265 246.903Z" fill="#9A7279"/>
<path d="M293.647 261.32C293.647 261.32 287.105 265.409 283.016 261.32C278.929 257.233 275.115 242.118 264.955 238.426C254.793 234.741 248.253 220.841 248.253 220.841C248.253 220.841 228.351 230.654 202.317 220.427C176.279 210.203 224.127 135.123 224.127 135.123C224.127 135.123 250.091 130.016 265.24 162.043C266.479 164.642 267.637 167.48 268.702 170.595C269.245 172.184 269.741 173.728 270.193 175.235C271.222 178.626 272.019 181.822 272.645 184.818C273.5 188.951 274.022 192.709 274.289 196.107C275.529 211.727 271.559 219.609 271.559 219.609C271.559 219.609 298.148 251.509 293.647 261.32Z" fill="#FFBF6D"/>
<mask id="mask2_986_7176" style="mask-type:luminance" maskUnits="userSpaceOnUse" x="194" y="134" width="101" height="130">
<path d="M194.566 134.82H294.168V263.132H194.566V134.82Z" fill="white"/>
</mask>
<g mask="url(#mask2_986_7176)">
<g opacity="0.199997">
<path d="M293.655 261.313C293.655 261.313 287.113 265.403 283.024 261.313C278.937 257.226 275.123 242.112 264.963 238.419C254.801 234.735 248.261 220.835 248.261 220.835C248.261 220.835 228.359 230.647 202.325 220.421C176.287 210.196 224.135 135.116 224.135 135.116C224.135 135.116 250.099 130.01 265.248 162.037C266.487 164.636 267.645 167.474 268.71 170.589C269.253 172.178 269.749 173.721 270.2 175.229C271.229 178.619 272.027 181.816 272.653 184.812C273.507 188.944 274.029 192.703 274.297 196.101C275.537 211.721 271.567 219.603 271.567 219.603C271.567 219.603 298.156 251.503 293.655 261.313Z" fill="#9A7279"/>
</g>
</g>
<path d="M217.064 221.175C217.064 221.175 221.06 240.25 205.429 250.336C189.798 260.42 139.93 269.314 140.666 297.692C140.987 310.107 145.019 315.309 148.338 315.427C152.603 315.579 155.443 309.975 155.092 303.814C154.465 292.865 157.302 280.315 174.958 273.152C185.786 268.759 207.037 262.385 218.338 251.162C225.464 244.085 228.663 235.084 227.14 227.1C223.199 206.455 217.064 221.175 217.064 221.175Z" fill="#FFBF6D"/>
<mask id="mask3_986_7176" style="mask-type:luminance" maskUnits="userSpaceOnUse" x="140" y="216" width="88" height="100">
<path d="M140.674 216.089H227.533V315.43H140.674V216.089Z" fill="white"/>
</mask>
<g mask="url(#mask3_986_7176)">
<g opacity="0.199997">
<path d="M227.163 227.102C223.22 206.455 217.083 221.173 217.083 221.173C217.083 221.173 218.7 228.896 215.851 237.11C214.839 240.032 213.265 243.006 210.854 245.721C209.393 247.38 207.604 248.941 205.45 250.334C196.953 255.811 178.353 260.94 163.249 269.031C160.571 270.474 157.993 272 155.612 273.65C148.355 278.644 142.833 284.681 141.185 292.282C140.805 294.01 140.636 295.811 140.684 297.694C141.008 310.11 145.038 315.303 148.351 315.427C152.619 315.575 155.462 309.979 155.117 303.816C155.111 303.687 155.105 303.558 155.092 303.425C154.551 292.572 157.533 280.227 174.977 273.149C178.835 271.582 184.021 269.771 189.606 267.571C193.716 265.954 198.042 264.122 202.223 262.047C208.297 259.015 214.044 255.441 218.357 251.16C225.485 244.081 228.69 235.083 227.163 227.102Z" fill="#9A7279"/>
</g>
</g>
<path d="M155.099 303.815C155.094 303.687 155.088 303.558 155.075 303.424C153.37 299.5 151.228 302.499 151.228 302.499C148.559 295.735 144.102 293.216 141.167 292.282C140.788 294.008 140.619 295.809 140.666 297.692C140.991 310.108 145.021 315.303 148.335 315.427C152.603 315.573 155.447 309.979 155.099 303.815Z" fill="#9A7279"/>
<path d="M215.827 237.11C214.815 240.031 213.241 243.006 210.83 245.721C212.861 246.18 215.587 246.324 217.491 244.623C219.775 242.583 218.177 239.243 215.827 237.11Z" fill="#9A7279"/>
<path d="M202.199 262.043C200.723 260.213 198.066 258 194.468 259.372C190.647 260.832 189.759 264.98 189.582 267.567C193.692 265.952 198.018 264.12 202.199 262.043Z" fill="#9A7279"/>
<path d="M163.235 269.03C160.556 270.471 157.978 271.997 155.598 273.648C156.118 275.811 157.149 278.075 159.144 278.28C161.86 278.567 162.872 272.663 163.235 269.03Z" fill="#9A7279"/>
<path d="M245.125 153.524C244.66 149.604 244.077 145.705 243.321 141.844C242.562 137.924 241.672 134.044 240.584 130.22C238.779 123.642 236.47 117.22 233.657 111.089C233.385 110.449 233.095 109.807 232.784 109.188C231.58 106.645 230.282 104.103 228.903 101.601C227.157 98.3601 225.255 95.1975 223.161 92.1506C220.556 88.3311 217.658 84.7451 214.442 81.5103C215.678 79.7467 216.849 77.7478 217.874 75.409C218.749 73.4005 219.524 71.1643 220.154 68.6793C220.374 67.8175 220.566 66.9537 220.742 66.09C220.987 64.8788 221.19 63.6638 221.333 62.4584C221.959 57.5151 221.8 52.623 220.845 47.9398C220.706 47.2563 220.556 46.5786 220.384 45.9066C219.603 42.8863 218.489 39.9743 217.025 37.1989C215.224 33.7761 212.876 30.5793 210.009 27.6653C210.622 26.9933 211.201 26.2947 211.727 25.5619C211.738 25.5562 211.738 25.5467 211.738 25.5467C218.65 15.8594 217.536 1.91408 214.011 0.492218C213.595 0.327057 213.168 0.199875 212.72 0.120132C208.289 -0.684769 202.395 2.63358 196.948 7.8047C192.696 11.8273 186.606 13.0594 183.4 13.439C181.139 12.8164 178.783 12.2317 176.342 11.6963C173.388 11.0395 170.32 10.4567 167.169 9.95364C165.893 9.73723 164.602 9.55119 163.298 9.37654C157.453 8.56595 151.411 8.04388 145.414 7.89012C143.884 7.84456 142.352 7.81989 140.831 7.83318C136.871 7.84076 132.955 8.02492 129.166 8.3951C125.72 8.7292 122.383 9.23036 119.184 9.8891C115.995 10.0732 112.012 9.79987 108.428 8.06288C101.066 4.47688 93.8922 3.12144 90.0936 5.98987C90.0234 6.03922 89.9512 6.09427 89.8905 6.14743C87.584 8.03819 88.2086 16.9491 92.9696 24.1704C90.5606 27.1755 88.5104 30.6116 86.9196 34.338C85.437 37.7987 84.3568 41.5005 83.7398 45.32C83.5576 46.497 83.4057 47.6816 83.3146 48.8757C82.9273 53.4279 83.2235 58.0865 84.3093 62.6482C84.5409 63.5841 84.7915 64.52 85.0895 65.4502C86.0976 68.6679 87.5195 71.8059 89.4007 74.8053C91.3864 77.9737 93.915 80.9636 96.9676 83.72C93.262 91.6248 85.7179 112.744 88.2086 150.128C88.8863 160.393 90.3214 171.415 92.3413 182.125C97.7744 211.212 108.346 235.957 117.219 241.031C120.686 243.013 128.218 244.237 133.01 243.053C137.628 241.927 137.784 240.374 138.289 236.961C146.767 238.358 155.868 239.114 165.007 239.23C166.696 239.25 168.403 239.25 170.109 239.23C182.975 239.036 195.646 237.523 206.319 234.554C207.56 234.224 208.764 233.874 209.946 233.487C220.385 230.11 229.272 225.377 235.58 219.265C243.282 211.774 244.834 198.502 245.668 188.412C246.6 176.982 246.484 165.186 245.125 153.524Z" fill="#FFBF6D"/>
<path d="M211.735 25.5491C211.735 25.5491 211.732 25.5567 211.72 25.5605C211.637 25.7218 210.87 27.007 209.524 28.1954C209.52 28.2011 209.509 28.2049 209.505 28.2125C208.753 28.8788 207.565 29.4958 206.188 29.8868C203.758 30.5835 200.755 30.5873 198.54 28.949C193.09 24.9055 206.526 17.445 211.506 8.85303C213.136 6.03587 213.86 3.10101 212.713 0.118692C213.161 0.202221 213.588 0.329411 214.008 0.488873C217.529 1.91074 218.643 15.8599 211.735 25.5491Z" fill="#9A7279"/>
<path d="M106.492 33.5059C90.0293 30.3565 86.1776 9.18221 89.8851 6.14674C89.9458 6.09358 90.0179 6.03663 90.0882 5.98728C90.4071 7.28385 91.1304 9.11197 92.7706 11.1356C94.4354 13.1688 97.0305 15.3917 101.087 17.4496C108.557 21.2197 109.161 26.947 107.94 30.7305C107.58 31.8714 107.048 32.83 106.492 33.5059Z" fill="#9A7279"/>
<path d="M206.608 22.8564C206.608 22.8564 207.868 26.6113 206.188 29.886C203.758 30.5846 200.755 30.5865 198.54 28.9482C193.09 24.9047 206.526 17.4461 211.506 8.85221C211.449 11.4625 210.809 15.2611 208.083 18.5661C208.083 18.5661 211.606 17.3986 212.117 18.1105C212.597 18.8091 208.425 20.7796 208.189 20.8878C208.371 20.8555 210.463 20.4626 210.718 21.3719C210.98 22.323 206.608 22.8564 206.608 22.8564Z" fill="white"/>
<path d="M107.937 30.7333C97.8376 31.111 98.128 21.53 98.128 21.53C98.128 21.53 96.7745 23.305 95.7209 22.3938C94.7205 21.5167 96.634 20.1936 96.7973 20.0797C96.6853 20.0816 94.3958 20.1898 93.8206 19.514C93.2303 18.8173 95.6374 18.2819 95.6374 18.2819C92.8544 15.9963 92.6645 12.7349 92.769 11.1384C94.4338 13.1735 97.027 15.3964 101.086 17.4523C108.554 21.2244 109.159 26.9517 107.937 30.7333Z" fill="white"/>
<path d="M161.949 29.7871C160.99 31.1843 159.321 32.2189 157.626 31.9987C155.331 31.7045 153.896 29.415 153.009 27.2908C151.468 23.5871 150.58 19.6632 149.298 15.8703C148.402 13.2334 147.297 10.6156 145.703 8.3148C145.612 8.18192 145.515 8.03574 145.416 7.88957C151.413 8.04333 157.457 8.56728 163.3 9.37788C164.295 14.5243 164.39 19.8321 163.566 24.9995C163.297 26.6738 162.917 28.3861 161.949 29.7871Z" fill="#9A7279"/>
<path d="M173.142 19.2096C172.13 19.9804 170.587 20.1949 169.573 19.4014C168.552 18.6059 168.405 17.1537 168.271 15.8742C168.081 14.0214 167.756 12.1876 167.295 10.3899C167.261 10.2475 167.208 10.1032 167.16 9.95324C170.311 10.4582 173.379 11.041 176.333 11.6959C176.105 13.1804 175.731 14.6422 175.202 16.047C174.755 17.2372 174.167 18.4351 173.142 19.2096Z" fill="#9A7279"/>
<path d="M140.034 17.1332C139.424 18.0824 138.2 18.7374 137.127 18.3615C136.596 18.1773 136.171 17.7768 135.78 17.3762C133.507 15.0944 130.504 11.7438 129.156 8.3932C132.945 8.02302 136.86 7.83888 140.82 7.83129C140.97 9.84545 140.985 11.871 140.852 13.8795C140.774 15.0071 140.636 16.1803 140.034 17.1332Z" fill="#9A7279"/>
<path d="M221.331 62.457C219.372 62.9752 217.351 63.2922 215.34 63.5675C212.462 63.9472 209.212 64.1446 206.961 62.307C206.2 61.6957 205.609 60.8642 205.378 59.9284C204.888 57.973 206.067 55.9266 207.694 54.742C209.319 53.5499 211.323 53.0145 213.246 52.3976C215.336 51.7388 217.438 50.9169 219.23 49.6374C219.902 49.1628 220.39 48.5534 220.842 47.9402C221.798 52.6216 221.958 57.5136 221.331 62.457Z" fill="#9A7279"/>
<path d="M220.383 45.9048C218.881 46.5009 217.296 46.8692 215.62 46.8198C213.678 46.7553 210.982 46.4933 210.447 44.2058C210.299 43.6002 210.419 42.9737 210.688 42.4004C211.768 40.0711 214.464 39.4694 216.29 37.907C216.539 37.6868 216.782 37.4457 217.025 37.197C218.488 39.9724 219.603 42.8864 220.383 45.9048Z" fill="#9A7279"/>
<path d="M217.865 75.4082C216.174 74.9431 214.566 74.1819 213.137 73.1568C212.185 72.4828 211.28 71.6324 210.944 70.5294C210.602 69.4151 211.039 68.0122 212.127 67.6117C212.66 67.4161 213.254 67.4769 213.828 67.5072C215.921 67.6249 218.034 67.2699 219.961 66.4821C220.223 66.3777 220.483 66.2353 220.736 66.0892C220.559 66.9529 220.366 67.8167 220.145 68.6785C219.515 71.1635 218.742 73.3997 217.865 75.4082Z" fill="#9A7279"/>
<path d="M193.781 87.931C189.352 90.1217 182.864 90.152 178.494 87.7316C177.562 87.2134 176.717 86.566 175.984 85.7744C172.827 82.3175 171.514 76.8407 172.108 72.2695C172.113 72.1613 172.129 72.0569 172.142 71.9506C172.829 67.3471 176.049 63.5428 180.396 61.9007C185.484 59.9795 192.665 60.0877 196.561 64.3989C198.094 66.0998 199.194 68.3209 199.803 70.7356L199.812 70.7375C201.462 77.1711 199.712 84.9904 193.781 87.931Z" fill="white"/>
<path d="M193.796 87.9348C195.263 87.2039 196.537 86.1104 197.518 84.8044C198.507 83.5021 199.187 81.9872 199.627 80.4211C200.074 78.8549 200.261 77.2223 200.231 75.6011C200.203 73.9799 199.969 72.3663 199.531 70.8173L199.808 71.0451H199.798L199.586 71.0375L199.523 70.8154C199.094 69.3005 198.473 67.8426 197.628 66.5384C196.786 65.2266 195.73 64.0819 194.437 63.2846C191.846 61.6748 188.645 61.2173 185.595 61.502C182.527 61.7925 179.488 62.7398 177.147 64.6533C175.976 65.6101 174.991 66.7795 174.229 68.0856C173.859 68.7424 173.527 69.4258 173.292 70.1434C173.153 70.4984 173.073 70.8685 172.967 71.233C172.9 71.588 172.794 72.0019 172.768 72.3056L172.764 72.355C172.373 75.0051 172.587 77.79 173.404 80.385C173.814 81.6835 174.374 82.9364 175.101 84.0887C175.828 85.2448 176.733 86.2794 177.855 87.0634C180.105 88.6334 182.903 89.3585 185.669 89.4876C188.442 89.6186 191.273 89.1307 193.796 87.9348ZM193.796 87.9348C191.286 89.1744 188.454 89.6376 185.663 89.6091C184.264 89.5863 182.865 89.4079 181.502 89.0605C180.141 88.7207 178.806 88.2062 177.597 87.4431C176.384 86.6857 175.363 85.6283 174.548 84.4608C173.726 83.2933 173.073 82.0081 172.576 80.6679C171.585 77.9855 171.203 75.0791 171.481 72.1898L171.477 72.2392C171.828 68.7898 173.561 65.6538 176.188 63.4896C177.493 62.4152 178.996 61.5552 180.598 61.037C182.18 60.4997 183.82 60.1675 185.479 60.0441C188.771 59.8258 192.26 60.4219 195.045 62.3791C196.442 63.3397 197.541 64.6704 198.354 66.0942C199.181 67.5255 199.749 69.0784 200.113 70.6654L199.836 70.4357L199.846 70.4376L200.075 70.4566L200.121 70.6654C200.493 72.2885 200.649 73.9534 200.594 75.6049C200.533 77.2565 200.275 78.8986 199.789 80.4704C199.299 82.0404 198.553 83.5306 197.556 84.8348C196.56 86.1351 195.271 87.2191 193.796 87.9348Z" fill="#9A7279"/>
<path d="M184.379 85.605C188.047 86.3586 192.248 85.1987 194.628 82.2582C198.423 77.5711 197.311 69.8353 192.271 66.4714C189.565 64.6661 185.771 64.089 182.691 65.1502C174.466 67.9882 174.472 80.2269 181.516 84.5039C182.384 85.0317 183.358 85.3943 184.379 85.605Z" fill="#9A7279"/>
<path d="M182.296 78.8845C184.262 79.2754 186.514 78.6738 187.79 77.1487C189.824 74.7177 189.228 70.7055 186.526 68.9608C185.076 68.0245 183.042 67.7252 181.391 68.2756C176.982 69.7475 176.985 76.0952 180.761 78.3134C181.226 78.5872 181.748 78.7752 182.296 78.8845Z" fill="white"/>
<path d="M182.296 78.8845C184.262 79.2754 186.514 78.6738 187.79 77.1487C189.824 74.7177 189.228 70.7055 186.526 68.9608C185.076 68.0245 183.042 67.7252 181.391 68.2756C176.982 69.7475 176.985 76.0952 180.761 78.3134C181.226 78.5872 181.748 78.7752 182.296 78.8845Z" fill="white"/>
<path d="M190.954 71.9478C191.847 72.1254 192.871 71.852 193.451 71.1588C194.376 70.0538 194.105 68.2301 192.877 67.437C192.217 67.0114 191.293 66.8754 190.542 67.1255C188.538 67.7946 188.54 70.6799 190.256 71.6882C190.468 71.8126 190.705 71.8981 190.954 71.9478Z" fill="white"/>
<path d="M190.954 71.9478C191.847 72.1254 192.871 71.852 193.451 71.1588C194.376 70.0538 194.105 68.2301 192.877 67.437C192.217 67.0114 191.293 66.8754 190.542 67.1255C188.538 67.7946 188.54 70.6799 190.256 71.6882C190.468 71.8126 190.705 71.8981 190.954 71.9478Z" fill="white"/>
<mask id="mask4_986_7176" style="mask-type:luminance" maskUnits="userSpaceOnUse" x="172" y="60" width="28" height="13">
<path d="M172.133 60.7115H199.828V72.2725H172.133V60.7115Z" fill="white"/>
</mask>
<g mask="url(#mask4_986_7176)">
<g opacity="0.210007">
<path d="M199.83 70.74C183.956 62.1272 173.416 71.0912 172.135 72.272C172.14 72.1657 172.156 72.0594 172.169 71.953C172.856 67.3514 176.076 63.5471 180.423 61.9031C185.511 59.982 192.692 60.0921 196.588 64.4014C198.123 66.1042 199.221 68.3253 199.83 70.74Z" fill="#9A7279"/>
</g>
</g>
<path d="M128.608 88.5892C124.179 90.7799 117.691 90.8102 113.321 88.3898C112.389 87.8716 111.542 87.2242 110.811 86.4326C107.652 82.9757 106.339 77.499 106.935 72.9277C106.94 72.8195 106.954 72.7151 106.969 72.6088C107.654 68.0053 110.876 64.201 115.221 62.5589C120.311 60.6377 127.49 60.746 131.387 65.0571C132.921 66.758 134.019 68.9791 134.63 71.3938L134.639 71.3957C136.289 77.8293 134.539 85.6486 128.608 88.5892Z" fill="white"/>
<path d="M128.612 88.5954C130.078 87.8645 131.353 86.7711 132.333 85.465C133.324 84.1628 134.003 82.6479 134.444 81.0836C134.89 79.5156 135.076 77.883 135.048 76.2618C135.019 74.6406 134.786 73.027 134.347 71.4779L134.626 71.7057H134.619L134.402 71.7L134.338 71.476C133.909 69.9611 133.288 68.5032 132.445 67.199C131.602 65.8873 130.547 64.7426 129.252 63.9453C126.661 62.3354 123.462 61.8779 120.411 62.1627C117.342 62.4531 114.304 63.4004 111.962 65.314C110.79 66.2707 109.807 67.4401 109.046 68.7462C108.676 69.403 108.341 70.0864 108.106 70.804C107.969 71.159 107.89 71.5292 107.781 71.8937C107.717 72.2487 107.611 72.6625 107.584 72.9662L107.578 73.0156C107.187 75.6657 107.402 78.4506 108.22 81.0456C108.63 82.3441 109.19 83.597 109.917 84.7493C110.642 85.9054 111.548 86.94 112.67 87.7241C114.919 89.294 117.719 90.0192 120.483 90.1483C123.259 90.2793 126.089 89.7914 128.612 88.5954ZM128.612 88.5954C126.101 89.835 123.27 90.2982 120.48 90.2698C119.08 90.247 117.679 90.0685 116.316 89.7211C114.955 89.3813 113.623 88.8669 112.413 88.1037C111.2 87.3463 110.179 86.2889 109.363 85.1214C108.541 83.9539 107.888 82.6687 107.39 81.3285C106.401 78.6461 106.02 75.7378 106.297 72.8504L106.293 72.8998C106.642 69.4505 108.376 66.3144 111.005 64.1484C112.309 63.0758 113.813 62.2158 115.413 61.6976C116.996 61.1604 118.634 60.8281 120.294 60.7048C123.587 60.4864 127.076 61.0825 129.861 63.0397C131.258 64.0003 132.358 65.3311 133.17 66.7548C133.996 68.1862 134.565 69.739 134.928 71.3261L134.649 71.0964H134.658L134.89 71.1153L134.937 71.3261C135.31 72.9492 135.463 74.614 135.41 76.2656C135.347 77.9172 135.089 79.5592 134.603 81.1311C134.114 82.701 133.369 84.1912 132.373 85.4954C131.376 86.7977 130.085 87.8797 128.612 88.5954Z" fill="#9A7279"/>
<path d="M119.194 86.2627C122.864 87.0163 127.065 85.8564 129.445 82.9159C133.24 78.2288 132.128 70.493 127.088 67.1291C124.381 65.3238 120.586 64.7467 117.509 65.8079C109.283 68.6459 109.287 80.8846 116.334 85.1616C117.201 85.6894 118.175 86.052 119.194 86.2627Z" fill="#9A7279"/>
<path d="M123.291 79.884C125.258 80.2749 127.51 79.6733 128.786 78.1482C130.82 75.7172 130.224 71.705 127.522 69.9604C126.071 69.024 124.037 68.7247 122.387 69.2751C117.978 70.747 117.98 77.0947 121.758 79.3129C122.223 79.5867 122.745 79.7747 123.291 79.884Z" fill="white"/>
<path d="M123.291 79.884C125.258 80.2749 127.51 79.6733 128.786 78.1482C130.82 75.7172 130.224 71.705 127.522 69.9604C126.071 69.024 124.037 68.7247 122.387 69.2751C117.978 70.747 117.98 77.0947 121.758 79.3129C122.223 79.5867 122.745 79.7747 123.291 79.884Z" fill="white"/>
<path d="M115.949 72.9473C116.844 73.1249 117.867 72.8515 118.447 72.1583C119.372 71.0533 119.101 69.2296 117.873 68.4365C117.213 68.0109 116.288 67.8749 115.539 68.125C113.534 68.7941 113.535 71.6794 115.252 72.6877C115.464 72.8121 115.701 72.8976 115.949 72.9473Z" fill="white"/>
<path d="M115.949 72.9473C116.844 73.1249 117.867 72.8515 118.447 72.1583C119.372 71.0533 119.101 69.2296 117.873 68.4365C117.213 68.0109 116.288 67.8749 115.539 68.125C113.534 68.7941 113.535 71.6794 115.252 72.6877C115.464 72.8121 115.701 72.8976 115.949 72.9473Z" fill="white"/>
<mask id="mask5_986_7176" style="mask-type:luminance" maskUnits="userSpaceOnUse" x="106" y="61" width="29" height="12">
<path d="M106.939 61.3648H134.635V72.9258H106.939V61.3648Z" fill="white"/>
</mask>
<g mask="url(#mask5_986_7176)">
<g opacity="0.210007">
<path d="M134.637 71.3943C118.762 62.7814 108.223 71.7455 106.941 72.9263C106.947 72.82 106.96 72.7137 106.976 72.6073C107.661 68.0038 110.882 64.2014 115.228 62.5574C120.317 60.6363 127.497 60.7464 131.394 65.0557C132.93 66.7585 134.025 68.9796 134.637 71.3943Z" fill="#9A7279"/>
</g>
</g>
<path d="M152.835 70.0756C152.835 70.0756 149.357 66.763 147.618 67.6324C145.879 68.5019 149.464 72.3783 153.101 72.9839C153.101 72.9839 158.617 69.415 156.932 67.0155C155.246 64.614 152.835 70.0756 152.835 70.0756Z" fill="#9A7279"/>
<mask id="mask6_986_7176" style="mask-type:luminance" maskUnits="userSpaceOnUse" x="140" y="72" width="27" height="23">
<path d="M140.688 72.5657H166.997V94.4595H140.688V72.5657Z" fill="white"/>
</mask>
<g mask="url(#mask6_986_7176)">
<g opacity="0.479996">
<path d="M146.535 74.1048C144.411 74.9876 142.495 76.848 141.537 79.481C140.147 83.2967 140.344 87.83 143.082 90.7686C144.779 92.5929 146.956 93.4206 149.092 93.8155C153.181 94.5729 157.282 94.9906 161.152 93.1567C162.557 92.4904 163.909 91.5659 164.949 90.1801C166.544 88.0559 167.288 84.8742 166.901 81.8406C166.509 78.8071 165 75.9899 162.939 74.4598C160.402 72.5748 156.927 72.3261 154.157 72.7285C151.687 73.0873 148.87 73.1329 146.535 74.1048Z" fill="#9A7279"/>
</g>
</g>
<mask id="mask7_986_7176" style="mask-type:luminance" maskUnits="userSpaceOnUse" x="181" y="88" width="19" height="13">
<path d="M181.051 88.7601H199.824V100.16H181.051V88.7601Z" fill="white"/>
</mask>
<g mask="url(#mask7_986_7176)">
<g opacity="0.479996">
<path d="M183.278 91.0204C180.615 92.708 180.106 96.3605 183.041 98.3177C186.968 100.941 194.547 100.768 198.199 97.7596C201.284 95.2177 199.583 90.3218 196.335 89.3365C193.59 88.5051 190.646 88.6455 187.912 89.2948C186.642 89.5966 184.77 90.075 183.278 91.0204Z" fill="#EE7A97"/>
</g>
</g>
<mask id="mask8_986_7176" style="mask-type:luminance" maskUnits="userSpaceOnUse" x="107" y="90" width="21" height="13">
<path d="M107.707 90.3987H127.983V102.713H107.707V90.3987Z" fill="white"/>
</mask>
<g mask="url(#mask8_986_7176)">
<g opacity="0.479996">
<path d="M110.077 92.9471C107.215 94.7999 106.702 98.7409 109.889 100.816C114.159 103.593 122.343 103.314 126.261 100.024C129.572 97.2469 127.685 91.9903 124.167 90.969C121.192 90.1072 118.014 90.2951 115.07 91.0298C113.699 91.3715 111.681 91.9106 110.077 92.9471Z" fill="#EE7A97"/>
</g>
</g>
<path d="M97.4392 61.7628C95.9528 62.7025 94.1323 62.9056 92.3706 62.9967C89.6844 63.1296 86.966 63.048 84.3102 62.6474C83.2243 58.0857 82.9263 53.429 83.3154 48.8748C83.4027 48.9432 83.4863 49.0001 83.5774 49.0609C87.2868 51.5458 91.7024 52.6848 95.7876 54.3896C97.2418 54.9895 98.8003 55.819 99.33 57.2941C99.9241 58.9456 98.9142 60.8269 97.4392 61.7628Z" fill="#9A7279"/>
<path d="M95.2228 70.7118C93.9964 72.7374 91.8456 74.1023 89.5524 74.7629C89.4954 74.7838 89.4442 74.7952 89.3853 74.8047C87.5041 71.8053 86.0822 68.6654 85.0723 65.4496C86.7523 65.7267 88.4286 65.9109 90.213 65.7666C91.1793 65.6831 92.1531 65.5464 93.1213 65.6736C94.0819 65.797 95.0652 66.2469 95.5683 67.0727C96.2346 68.1775 95.8777 69.6089 95.2228 70.7118Z" fill="#9A7279"/>
<path d="M90.1661 48.886C89.2796 48.9335 88.412 48.6088 87.6204 48.2026C86.1815 47.4565 84.9115 46.4428 83.7383 45.3209C84.3533 41.4995 85.4354 37.7977 86.918 34.3389C87.0509 34.6825 87.1534 35.0318 87.2578 35.3602C88.2431 38.6045 89.6308 41.7178 91.3944 44.6166C91.9297 45.4936 92.5144 46.496 92.2182 47.4641C91.9525 48.3051 91.0564 48.8291 90.1661 48.886Z" fill="#9A7279"/>
<mask id="mask9_986_7176" style="mask-type:luminance" maskUnits="userSpaceOnUse" x="256" y="218" width="16" height="5">
<path d="M256.689 218.033H271.544V222.449H256.689V218.033Z" fill="white"/>
</mask>
<g mask="url(#mask9_986_7176)">
<g opacity="0.479996">
<path d="M256.688 219.864C257.775 219.71 258.861 219.556 259.937 219.384C261.008 219.219 262.096 219.012 263.074 218.679L263.841 218.421L263.525 219.188C263.29 219.76 263.119 220.439 263.176 220.975C263.212 221.244 263.315 221.411 263.489 221.506C263.664 221.616 263.975 221.62 264.222 221.595C264.74 221.523 265.223 221.117 265.6 220.616C265.974 220.113 266.297 219.515 266.513 218.921L266.838 218.034L267.197 218.892C267.379 219.327 267.62 219.786 267.92 220.162C268.222 220.54 268.596 220.859 269.036 220.957C269.471 221.052 269.961 220.935 270.386 220.656C270.597 220.519 270.792 220.346 270.99 220.181L271.54 219.619L271.1 220.28C270.921 220.477 270.745 220.686 270.542 220.866C270.137 221.219 269.566 221.502 268.958 221.413C268.353 221.331 267.854 220.963 267.468 220.559C267.083 220.141 266.77 219.695 266.525 219.169L267.206 219.141C266.98 219.843 266.684 220.487 266.253 221.098C265.822 221.683 265.213 222.279 264.351 222.429C263.928 222.469 263.51 222.472 263.079 222.231C262.639 221.996 262.396 221.481 262.365 221.073C262.299 220.23 262.561 219.555 262.857 218.873L263.307 219.38C262.749 219.555 262.195 219.629 261.642 219.703C261.09 219.771 260.539 219.818 259.989 219.855C258.888 219.919 257.787 219.921 256.688 219.864Z" fill="#9A7279"/>
</g>
</g>
<path d="M289.171 263.137C289.29 262.315 289.34 261.518 289.326 260.728C289.304 259.94 289.239 259.16 289.061 258.401C288.896 257.643 288.677 256.89 288.362 256.166C288.074 255.428 287.679 254.735 287.307 253.983C287.948 254.507 288.527 255.136 288.951 255.868C289.412 256.582 289.693 257.4 289.888 258.228C290.065 259.063 290.097 259.929 289.981 260.768C289.869 261.603 289.623 262.431 289.171 263.137Z" fill="#9A7279"/>
<mask id="mask10_986_7176" style="mask-type:luminance" maskUnits="userSpaceOnUse" x="91" y="112" width="14" height="12">
<path d="M91.6602 112.954H104.804V123.592H91.6602V112.954Z" fill="white"/>
</mask>
<g mask="url(#mask10_986_7176)">
<g opacity="0.479996">
<path d="M92 116.971C91.9336 117.801 91.9013 118.629 91.9298 119.451C91.9697 120.261 92.0532 121.112 92.3816 121.791C92.5449 122.12 92.8258 122.351 93.103 122.34C93.3744 122.344 93.6573 122.067 93.8775 121.767C94.3236 121.148 94.6217 120.364 94.8628 119.62L95.343 118.141L95.5689 119.694C95.7075 120.652 96.0492 121.695 96.6928 122.321C96.8503 122.48 97.0307 122.592 97.2205 122.682C97.3116 122.706 97.4407 122.763 97.4977 122.765C97.5489 122.775 97.5926 122.769 97.6552 122.737C97.9248 122.611 98.2172 122.15 98.4203 121.713C98.8398 120.806 99.1379 119.796 99.3884 118.784C99.6333 117.769 99.8535 116.736 100.024 115.707L100.486 112.953L100.77 115.726C100.86 116.592 101.012 117.484 101.255 118.319C101.376 118.739 101.537 119.143 101.752 119.498C101.955 119.844 102.272 120.153 102.578 120.18C102.876 120.225 103.195 119.887 103.421 119.534C103.654 119.172 103.851 118.769 104.011 118.351C104.341 117.518 104.586 116.643 104.803 115.762C104.704 116.666 104.537 117.564 104.277 118.443C104.151 118.885 103.986 119.32 103.764 119.741C103.658 119.954 103.508 120.153 103.329 120.339C103.14 120.508 102.876 120.688 102.562 120.667C101.944 120.628 101.56 120.195 101.283 119.806C101.004 119.399 100.807 118.963 100.651 118.52C100.332 117.632 100.136 116.732 100.022 115.798L100.769 115.815C100.62 116.882 100.434 117.93 100.186 118.976C99.9314 120.02 99.6542 121.064 99.1777 122.078C98.9119 122.568 98.6841 123.12 97.9931 123.49C97.8185 123.574 97.5869 123.616 97.38 123.578C97.175 123.547 97.0611 123.485 96.8978 123.433C96.6092 123.299 96.3397 123.12 96.1252 122.9C95.2747 121.993 94.9918 120.874 94.8476 119.762L95.5519 119.836C95.2557 120.654 94.9045 121.425 94.3483 122.135C94.0654 122.458 93.701 122.864 93.1087 122.868C92.5297 122.851 92.1424 122.397 91.9678 121.991C91.6071 121.144 91.6526 120.282 91.6697 119.449C91.7153 118.613 91.8235 117.784 92 116.971Z" fill="#9A7279"/>
</g>
</g>
<path d="M270.192 175.232C268.979 176.05 267.749 176.83 266.51 177.603C262.878 179.871 259.059 182.187 254.785 182.508C253.544 182.609 252.249 182.517 251.148 181.948C250.045 181.378 249.162 180.249 249.172 178.998C249.181 178.071 249.66 177.215 250.182 176.454C251.974 173.817 254.381 171.685 256.771 169.592C259.351 167.321 261.933 165.043 264.514 162.775C264.78 162.545 265.019 162.296 265.242 162.04C266.481 164.639 267.637 167.479 268.704 170.592C269.245 172.183 269.743 173.726 270.192 175.232Z" fill="#9A7279"/>
<path d="M274.277 196.109C274.205 196.128 274.131 196.137 274.057 196.154C269.922 196.937 265.67 196.992 261.507 196.413C259.992 196.21 258.229 195.686 257.769 194.226C257.446 193.18 257.999 192.012 258.834 191.295C259.671 190.579 260.734 190.211 261.782 189.871C265.539 188.612 269.482 187.289 272.633 184.818C273.488 188.952 274.01 192.709 274.277 196.109Z" fill="#9A7279"/>
<path d="M83.7893 128.903C83.3014 129.473 82.4851 129.638 81.7315 129.619C79.5806 129.583 77.6424 128.415 75.8503 127.221C74.5557 126.357 73.0484 125.467 71.6512 124.474C71.6151 124.448 71.579 124.419 71.543 124.4C72.9478 121.213 74.455 118.162 75.9984 115.288C76.025 115.315 76.0535 115.341 76.0724 115.37C78.8725 118.392 81.3366 121.718 83.3944 125.283C84.0455 126.405 84.634 127.91 83.7893 128.903Z" fill="#9A7279"/>
<path d="M82.305 151.73C81.4412 152.639 79.9529 152.41 78.7493 152.079C73.863 150.73 69.1304 148.837 64.6749 146.437C64.6199 146.42 64.5629 146.392 64.5098 146.346C65.4362 141.477 66.7878 136.744 68.4147 132.217C68.4508 132.262 68.4887 132.298 68.5229 132.346C72.7505 137.259 76.9839 142.176 81.2115 147.1C82.36 148.423 83.5085 150.462 82.305 151.73Z" fill="#9A7279"/>
<mask id="mask11_986_7176" style="mask-type:luminance" maskUnits="userSpaceOnUse" x="63" y="162" width="20" height="11">
<path d="M63.3457 162.727H82.2837V172.731H63.3457V162.727Z" fill="white"/>
</mask>
<g mask="url(#mask11_986_7176)">
<g opacity="0.479996">
<path d="M63.3496 162.953C65.2024 162.614 67.1216 162.674 68.9953 162.984C70.8728 163.278 72.7047 163.895 74.398 164.772C76.0838 165.66 77.6822 166.758 78.9807 168.153C79.6774 168.804 80.2336 169.579 80.8202 170.315C81.122 170.68 81.3308 171.111 81.5814 171.509C81.8263 171.912 82.0598 172.32 82.2895 172.726C81.103 171.268 79.9469 169.816 78.5327 168.626C77.1753 167.384 75.6377 166.361 74.0127 165.524C72.3991 164.664 70.6564 164.052 68.8662 163.618C68.4182 163.508 67.9645 163.428 67.5108 163.329C67.0552 163.261 66.5977 163.187 66.1383 163.134C65.2176 163.005 64.2893 162.957 63.3496 162.953Z" fill="#9A7279"/>
</g>
</g>
<path d="M101.799 100.145C104.341 98.6453 106.983 97.3791 109.656 96.1718C112.337 94.9853 115.046 93.8577 117.857 92.9673C115.317 94.4689 112.673 95.7351 110 96.9425C107.317 98.1271 104.61 99.2528 101.799 100.145Z" fill="#9A7279"/>
<path d="M99.0078 93.3823C101.736 92.5527 104.507 91.9756 107.29 91.4593C110.079 90.9695 112.877 90.5405 115.723 90.3677C112.995 91.1992 110.223 91.7763 107.44 92.2908C104.654 92.7805 101.853 93.2058 99.0078 93.3823Z" fill="#9A7279"/>
<path d="M99.4551 84.3166C102.268 84.7703 105.013 85.4708 107.738 86.232C110.458 87.016 113.161 87.8646 115.79 88.96C112.977 88.5082 110.234 87.8058 107.508 87.0445C104.789 86.2567 102.088 85.41 99.4551 84.3166Z" fill="#9A7279"/>
<path d="M211.905 88.8788C209.084 89.2793 206.253 89.4255 203.425 89.509C200.596 89.566 197.764 89.5603 194.926 89.2964C197.747 88.892 200.575 88.7459 203.404 88.6642C206.234 88.6092 209.067 88.6168 211.905 88.8788Z" fill="#9A7279"/>
<path d="M210.997 96.6533C208.21 96.0515 205.507 95.2087 202.825 94.3051C200.15 93.3787 197.498 92.3896 194.926 91.1576C197.713 91.7575 200.416 92.6022 203.098 93.5058C205.773 94.436 208.427 95.4232 210.997 96.6533Z" fill="#9A7279"/>
<path d="M209.645 80.0836C207.288 81.6858 204.812 83.0602 202.308 84.3777C199.791 85.6743 197.245 86.9139 194.578 87.9238C196.936 86.3216 199.411 84.9472 201.917 83.6297C204.434 82.3351 206.982 81.0954 209.645 80.0836Z" fill="#9A7279"/>
<mask id="mask12_986_7176" style="mask-type:luminance" maskUnits="userSpaceOnUse" x="131" y="97" width="47" height="4">
<path d="M131.869 97.7926H177.187V100.298H131.869V97.7926Z" fill="white"/>
</mask>
<g mask="url(#mask12_986_7176)">
<g opacity="0.479996">
<path d="M131.869 98.1613C139.47 98.2885 146.999 98.4631 154.536 98.4005C158.306 98.41 162.07 98.3169 165.842 98.2125C169.614 98.1157 173.381 97.9202 177.187 97.793C173.487 98.6492 169.728 99.3439 165.939 99.6895C162.156 100.099 158.349 100.274 154.545 100.299C146.944 100.301 139.314 99.7749 131.869 98.1613Z" fill="#9A7279"/>
</g>
</g>
<path d="M173.582 238.119C172.587 236.513 171.847 234.786 171.224 233.024C170.592 231.264 170.131 229.447 169.759 227.61C169.111 223.942 168.885 220.047 170.002 216.415C170.22 218.295 170.44 220.092 170.695 221.894C170.994 223.688 171.283 225.476 171.625 227.261C172.282 230.843 173.056 234.396 173.582 238.119Z" fill="#9A7279"/>
<path d="M160.578 237.841C159.832 236.493 159.365 235.036 159.027 233.561C158.678 232.082 158.519 230.565 158.462 229.042C158.416 226.018 158.919 222.839 160.578 220.23C160.503 221.772 160.389 223.211 160.353 224.667C160.341 226.117 160.303 227.556 160.358 229.003C160.406 231.903 160.599 234.789 160.578 237.841Z" fill="#9A7279"/>
<path d="M115.562 239.577C115.424 237.199 115.316 235.01 115.289 232.745C115.304 231.619 115.285 230.488 115.369 229.345C115.428 228.202 115.523 227.052 115.788 225.863C116.8 228.062 117.146 230.393 117.186 232.734C117.18 233.905 117.104 235.082 116.855 236.244C116.614 237.396 116.265 238.571 115.562 239.577Z" fill="#9A7279"/>
<path d="M128.828 243.011C128.952 240.513 129.474 238.225 129.977 235.932C130.523 233.633 131.081 231.446 131.704 229.037C132.175 230.211 132.296 231.479 132.285 232.711C132.287 233.954 132.078 235.165 131.826 236.359C131.537 237.546 131.169 238.708 130.677 239.824C130.191 240.94 129.616 242.028 128.828 243.011Z" fill="#9A7279"/>
<path d="M228.897 101.602C226.86 103.231 224.57 104.493 222.727 105.27C220.107 106.375 214.79 108.432 212.267 106.297C209.959 104.376 213.161 101.543 214.577 100.302C217.157 98.0503 219.931 95.9545 222.184 93.3557C222.532 92.9475 222.862 92.5413 223.154 92.1521C225.248 95.199 227.15 98.3616 228.897 101.602Z" fill="#9A7279"/>
<path d="M240.581 130.222C233.283 132.473 225.272 132.258 217.935 130.087C216.21 129.582 214.482 128.942 213.165 127.757C211.843 126.554 210.989 124.673 211.454 122.964C211.94 121.199 213.63 120.054 215.238 119.2C219.351 117.066 223.894 115.881 228.143 114.078C230.064 113.264 231.945 112.312 233.654 111.09C236.467 117.222 238.775 123.644 240.581 130.222Z" fill="#9A7279"/>
<path d="M245.119 153.522C242.733 153.697 240.307 153.562 237.921 153.269C234.546 152.861 230.975 152.009 228.704 149.486C227.753 148.438 227.074 146.944 227.539 145.606C228.237 143.626 230.779 143.199 232.877 143.043C236.37 142.792 239.88 142.462 243.316 141.841C244.072 145.703 244.654 149.602 245.119 153.522Z" fill="#9A7279"/>
<path d="M102.558 215.517C102.19 215.963 101.803 216.39 101.412 216.777C97.843 207.096 94.7581 195.085 92.332 182.123C93.7102 179.678 95.4377 176.709 97.4937 173.487C98.6972 188.255 100.385 204.224 102.538 215.458C102.538 215.477 102.538 215.498 102.558 215.517Z" fill="#FFDFC5"/>
<path d="M137.828 236.706C137.868 236.725 137.887 236.725 137.927 236.725V236.803C137.887 236.763 137.868 236.725 137.828 236.706Z" fill="#FFC48F"/>
<path d="M165.004 239.229C155.905 239.112 146.376 238.123 137.938 236.727C140.789 225.763 138.773 199.937 138.461 188.934C138.131 177.721 139.838 147.993 140.441 138.077C142.847 137.612 145.33 137.36 147.891 137.36C153.848 137.36 159.729 138.991 165.335 141.901C162.443 159.829 154.973 206.418 153.829 218.021C152.625 230.419 157.806 237.639 165.004 239.229Z" fill="#FFDFC5"/>
<path d="M206.311 234.551C195.638 237.52 182.969 239.033 170.104 239.227C178.331 235.852 192.747 206.144 199.557 183.074C206.33 199.314 209.318 217.728 206.311 234.551Z" fill="#FFC48F"/>
<mask id="mask13_986_7176" style="mask-type:luminance" maskUnits="userSpaceOnUse" x="95" y="134" width="46" height="110">
<path d="M95.0527 134.823H140.651V243.996H95.0527V134.823Z" fill="white"/>
</mask>
<g mask="url(#mask13_986_7176)">
<g opacity="0.479996">
<path d="M140.653 134.825L139.541 164.494C139.207 174.387 138.8 184.264 139.391 194.116C139.953 203.993 140.465 213.901 140.224 223.852C140.152 226.341 140.025 228.833 139.759 231.326C139.463 233.818 139.15 236.324 138.237 238.804C137.752 240.009 137.192 241.359 135.75 242.257C134.457 242.91 133.27 243.242 131.983 243.527C129.445 244.056 126.841 244.127 124.282 243.796C119.171 243.079 114.321 240.554 110.828 236.787C107.307 233.025 105.017 228.357 103.546 223.531C100.869 213.842 99.9125 203.963 98.7545 194.116C97.9117 184.243 96.9207 174.383 96.3398 164.498C95.8102 154.61 95.3849 144.715 95.0527 134.825C95.8159 144.698 96.4252 154.572 97.2681 164.43C98.037 174.295 99.1893 184.119 100.205 193.951L102.192 208.629C102.986 213.491 103.85 218.364 105.203 223.045C106.633 227.647 108.856 232.074 112.14 235.535C115.401 239.01 119.843 241.271 124.54 241.919C126.884 242.234 129.292 242.181 131.6 241.714C132.728 241.486 133.942 241.116 134.854 240.66C135.562 240.26 136.148 239.221 136.543 238.16C137.367 235.994 137.709 233.539 138.003 231.134C138.275 228.71 138.417 226.255 138.502 223.799C138.825 213.956 138.273 204.075 137.939 194.183C137.525 184.256 138.09 174.33 138.618 164.454C139.303 154.575 139.839 144.691 140.653 134.825Z" fill="#9A7279"/>
</g>
</g>
<mask id="mask14_986_7176" style="mask-type:luminance" maskUnits="userSpaceOnUse" x="152" y="134" width="51" height="107">
<path d="M152.719 134.821H202.082V240.461H152.719V134.821Z" fill="white"/>
</mask>
<g mask="url(#mask14_986_7176)">
<g opacity="0.479996">
<path d="M166.475 134.822C164.273 150.523 162.033 166.217 159.717 181.894C158.582 189.739 157.418 197.58 156.41 205.418C155.632 213.22 153.264 221.248 155.55 228.593C156.579 232.211 158.826 235.509 162.122 237.217C163.747 238.066 165.579 238.58 167.436 238.675C167.887 238.7 168.39 238.7 168.804 238.677C169.19 238.637 169.501 238.567 169.915 238.33C170.296 238.1 170.701 237.937 171.069 237.665L172.157 236.804C174.94 234.227 177.191 230.941 179.289 227.644C181.364 224.309 183.292 220.867 185.109 217.364C188.727 210.346 191.926 203.104 194.778 195.725L198.781 184.551C200.137 180.827 201.033 176.971 202.081 173.144C198.891 188.69 193.339 203.713 186.413 218.021C184.671 221.598 182.786 225.113 180.68 228.513C178.554 231.894 176.326 235.251 173.305 238.096L172.068 239.087C171.644 239.406 171.126 239.64 170.657 239.915C170.217 240.177 169.55 240.386 168.95 240.431C168.375 240.469 167.885 240.467 167.348 240.445C165.247 240.35 163.166 239.79 161.279 238.823C157.454 236.876 154.872 233.09 153.733 229.138C152.569 225.159 152.513 220.962 153.033 216.998L154.699 205.202C155.797 197.329 156.919 189.483 158.282 181.675L162.234 158.223C163.616 150.417 164.975 142.609 166.475 134.822Z" fill="#9A7279"/>
</g>
</g>
<path d="M169.91 196.309C167.758 196.93 165.43 196.755 163.198 196.328C161.121 195.941 159.065 195.495 156.988 195.049C157.434 192.118 157.901 189.052 158.366 185.948C160.014 186.472 161.664 186.977 163.314 187.539C164.963 188.103 166.594 188.722 168.185 189.479C170.882 190.739 174.975 194.834 169.91 196.309Z" fill="#9A7279"/>
<path d="M200.424 180.053C200.153 181.042 199.862 182.051 199.551 183.08C198.387 186.98 197.009 191.093 195.477 195.226C194.7 194.683 193.905 194.14 193.051 193.694C190.141 192.16 186.648 191.598 183.563 190.317C180.478 189.056 177.606 186.592 177.877 183.682C178.09 181.275 180.535 179.316 183.272 178.577C185.989 177.841 188.937 178.074 191.752 178.443C194.662 178.83 197.573 179.375 200.424 180.053Z" fill="#9A7279"/>
<path d="M182.423 159.929C182.463 161.326 181.396 162.549 180.134 163.131C178.873 163.712 177.436 163.769 176.058 163.828C171.286 164.043 166.532 164.236 161.758 164.333C162.361 160.453 162.942 156.747 163.485 153.351C165.758 153.37 168.066 153.622 170.336 153.875C173.634 154.243 176.992 154.805 179.843 156.474C181.123 157.25 182.383 158.435 182.423 159.929Z" fill="#9A7279"/>
<path d="M123.019 155.232C123.076 156.181 122.476 157.054 121.738 157.696C119.857 159.327 117.199 159.695 114.714 160.044C109.144 160.84 103.557 161.946 98.4147 164.255C97.8927 164.486 97.3497 164.739 96.8239 164.991C96.5335 160.877 96.281 156.959 96.0684 153.407C100.55 152.456 105.07 151.836 109.63 151.507C113.104 151.253 116.673 151.215 119.991 152.303C121.408 152.787 122.942 153.738 123.019 155.232Z" fill="#9A7279"/>
<path d="M138.871 168.195C138.677 172.792 138.522 177.256 138.444 181.098C136.95 181.234 135.456 181.234 133.962 181.234C131.304 181.253 128.665 181.253 126.025 181.272C124.047 181.272 122.01 181.272 120.204 180.458C118.401 179.644 116.907 177.779 117.178 175.82C117.507 173.55 119.874 172.231 122.01 171.397C127.365 169.339 133.109 168.254 138.871 168.195Z" fill="#9A7279"/>
<path d="M123.903 198.776C120.08 202.347 115.23 202.423 110.437 203.685C107.255 204.519 104.208 205.975 101.144 207.216C100.523 203.006 99.9595 198.446 99.4355 193.711C107.196 191.559 116.745 189.85 123.38 193.886C125.454 195.167 125.728 197.07 123.903 198.776Z" fill="#9A7279"/>
<mask id="mask15_986_7176" style="mask-type:luminance" maskUnits="userSpaceOnUse" x="203" y="158" width="16" height="19">
<path d="M203.752 158.841H218.609V176.146H203.752V158.841Z" fill="white"/>
</mask>
<g mask="url(#mask15_986_7176)">
<g opacity="0.479996">
<path d="M203.754 171.343C204.227 172.185 204.716 173.011 205.286 173.755C205.571 174.122 205.88 174.469 206.214 174.739C206.383 174.87 206.556 174.974 206.717 175.052C206.92 175.12 206.956 175.105 206.873 175.09C206.882 175.12 207.038 174.574 207.027 174.177C207.048 173.746 207.036 173.285 207.006 172.827C206.947 171.908 206.808 170.967 206.675 170.059L206.258 167.242L208.145 169.435C208.819 170.217 209.624 170.971 210.421 171.599C211.188 172.212 212.198 172.728 212.669 172.571C212.71 172.558 212.67 172.542 212.701 172.569C212.65 172.548 212.652 172.647 212.644 172.62C212.638 172.643 212.682 172.501 212.642 172.311C212.595 171.935 212.422 171.449 212.209 170.988C211.782 170.061 211.228 169.103 210.654 168.224L209.948 167.143L211.188 166.893C211.959 166.735 212.885 166.337 213.658 165.856C214.449 165.361 215.163 164.736 215.814 164.03C216.422 163.294 217.001 162.502 217.458 161.621C217.927 160.746 218.263 159.802 218.61 158.84C218.535 159.856 218.362 160.875 218.043 161.864C217.75 162.865 217.291 163.823 216.708 164.717C216.108 165.602 215.36 166.399 214.493 167.06C213.608 167.73 212.693 168.252 211.494 168.56L212.027 167.229C212.729 168.178 213.363 169.118 213.88 170.215C214.138 170.76 214.381 171.326 214.497 172.054C214.55 172.409 214.59 172.848 214.371 173.387C214.295 173.636 214.034 173.9 213.823 174.099C213.595 174.23 213.31 174.369 213.084 174.416C212.198 174.598 211.45 174.34 210.863 174.059C210.267 173.765 209.753 173.41 209.284 173.03C208.348 172.256 207.585 171.405 206.846 170.462L208.316 169.837C208.422 170.832 208.447 171.804 208.422 172.804C208.403 173.304 208.382 173.805 208.289 174.327C208.249 174.581 208.175 174.855 208.09 175.126C207.972 175.397 207.873 175.737 207.437 176.011C207.199 176.164 206.958 176.168 206.719 176.117C206.476 176.075 206.406 175.986 206.245 175.918C205.99 175.756 205.785 175.561 205.61 175.36C205.261 174.951 205.005 174.519 204.775 174.078C204.32 173.199 203.986 172.284 203.754 171.343Z" fill="#9A7279"/>
</g>
</g>
<path d="M58.5012 178.613C58.1709 179.7 57.104 180.437 55.9783 180.689C54.8715 180.942 53.7078 180.786 52.5631 180.63C48.9354 180.146 45.3057 179.679 41.659 179.195C41.6001 179.174 41.5413 179.174 41.4824 179.174C43.3846 176.245 45.5183 173.821 47.6938 171.822C47.7508 171.822 47.7888 171.841 47.8476 171.841C51.4374 172.365 55.1829 172.908 57.4913 175.334C58.3057 176.205 58.8505 177.468 58.5012 178.613Z" fill="#9A7279"/>
<path d="M49.11 194.894C49.0891 196.02 48.3905 197.067 47.4603 197.707C46.5472 198.368 45.4233 198.677 44.3356 198.949C41.1539 199.687 37.8755 199.978 34.635 200.249C34.5761 200.27 34.5363 200.27 34.4793 200.27H34.4395C34.5761 199.047 34.7508 197.766 34.9653 196.466C35.3317 194.216 35.8177 192.12 36.4194 190.159H36.6131C39.136 190.256 41.6589 190.587 43.7148 190.877C44.9184 191.052 46.1599 191.285 47.2078 191.925C48.2766 192.565 49.11 193.671 49.11 194.894Z" fill="#9A7279"/>
<path d="M41.5116 215.615C40.7731 216.43 39.7442 216.916 38.7172 217.303C37.4548 217.751 36.1734 218.099 34.8559 218.313C34.7971 218.332 34.7401 218.332 34.6623 218.332C34.2541 215.984 33.9827 213.345 33.9238 210.357C33.9827 210.338 34.0605 210.338 34.1175 210.338C35.5925 210.279 37.0675 210.357 38.3679 210.494C39.8999 210.647 41.6862 211.133 42.25 212.569C42.6563 213.598 42.25 214.801 41.5116 215.615Z" fill="#9A7279"/>
<path d="M143.586 85.8663C151.586 95.6268 154.597 85.7815 153.436 79.1477" stroke="#9A7279" stroke-width="1.27199" stroke-linecap="round"/>
<path d="M164.178 84.5598C156.833 94.9619 153.179 85.2595 153.902 78.4945" stroke="#9A7279" stroke-width="1.27199" stroke-linecap="round"/>
</svg>
