<svg width="382" height="478" viewBox="0 0 382 478" fill="none" xmlns="http://www.w3.org/2000/svg">
<path d="M216 89.6613C234.79 70.871 260.198 54.5483 286.85 50.0224C294.097 48.7917 329.36 42.6526 329.36 56.3202C329.36 62.8663 322.023 61.7031 318.154 59.6543C310.536 55.6213 304.859 51.7451 299.538 44.6508C291.325 33.7003 282.296 16.0267 294.352 4.6414C299.554 -0.272283 309.509 2.52266 314.356 6.12323C319.108 9.65333 322.271 14.1837 325.841 18.8114C328.742 22.5727 327.963 22.1909 330.193 17.9779C335.792 7.40336 353.607 -0.0250619 356.681 16.496C358.406 25.7655 355.354 33.8133 352.513 42.3354C351.446 45.5366 349.792 51.1013 347.512 53.6344C345.03 56.3923 343.686 51.9944 344.549 49.652C346.694 43.8283 349.592 41.3167 355.848 41.3167C361.505 41.3167 369.012 45.7162 369.369 52.1526C369.568 55.7235 370.471 54.8499 371.685 52.1526C372.626 50.06 374 43.3749 374 45.6695C374 46.478 373.955 53.1704 373.166 53.6344C370.358 55.2861 366.545 55.3167 363.535 56.3202" stroke="#EA5D80" stroke-width="2.60478" stroke-linecap="round"/>
<path d="M326.403 415.531L340.958 417.074C340.958 417.074 343.111 390.62 346.497 382.629C349.883 374.638 362.818 362.752 364.677 357.773C366.517 352.795 360.058 306.978 356.36 301.743C352.661 296.507 330.488 289.692 330.488 289.692L328.979 276.74L317.239 276.869L293.539 325.992L326.403 415.531Z" fill="#B4ECE3"/>
<path d="M252.45 294.045C252.45 294.045 288.074 290.665 297.919 283.427C307.763 276.189 323.606 276.74 323.606 276.74V294.045L342.872 300.145L351.447 327.903C351.447 327.903 354.023 357.663 348.447 362.862C342.89 368.079 335.18 380.443 335.18 385.146C335.18 389.867 334.757 414.226 328.335 415.512C321.913 416.798 287.228 413.602 279.536 407.08C271.826 400.559 238.87 382.041 235.448 380.828C231.988 379.616 252.45 294.045 252.45 294.045Z" fill="#DC5656"/>
<path d="M334.26 312.471C334.26 312.471 338.327 315.337 336.321 316.752C334.315 318.166 334.26 312.471 334.26 312.471Z" fill="#933433"/>
<path d="M310.781 306.684C310.781 306.684 307.193 310.12 306.181 307.879C305.187 305.656 310.781 306.684 310.781 306.684Z" fill="#933433"/>
<path d="M307.229 286.073C307.229 286.073 308.849 290.775 306.401 290.739C303.954 290.72 307.229 286.073 307.229 286.073Z" fill="#933433"/>
<path d="M319.466 333.616C319.466 333.616 321.453 329.06 323.238 330.732C325.041 332.403 319.466 333.616 319.466 333.616Z" fill="#933433"/>
<path d="M329.274 415.531C331.059 413.602 332.218 411.14 333.046 408.642C333.874 406.125 334.371 403.516 334.61 400.889C335.144 395.672 335.53 390.436 335.769 385.182L335.714 385.421C337.848 380.847 340.075 376.309 342.541 371.937C343.148 370.835 343.792 369.769 344.454 368.741C345.135 367.693 345.871 366.867 346.773 365.911C348.484 364.056 350.251 362.09 351.465 359.684C352.072 358.49 352.514 357.185 352.735 355.844C352.956 354.485 352.882 353.144 352.919 351.913L352.956 344.326L352.919 329.17V329.023L352.882 328.895C349.772 319.25 346.754 309.569 343.534 299.961L343.424 299.612L343.093 299.52L323.735 293.696L324.011 294.064L323.625 276.759L323.238 294.064V294.339L323.514 294.431L342.688 300.788L342.246 300.347C345.135 310.065 348.227 319.709 351.208 329.409L351.171 329.152L351.134 344.344L351.171 351.931C351.152 353.236 351.226 354.411 351.042 355.569C350.858 356.726 350.49 357.847 349.975 358.931C348.926 361.08 347.288 362.954 345.595 364.809C344.767 365.691 343.829 366.775 343.148 367.859C342.449 368.961 341.805 370.063 341.197 371.184C338.787 375.685 336.689 380.296 334.647 384.943L334.592 385.054V385.164C334.5 390.381 334.168 395.617 333.892 400.852C333.745 403.443 333.377 406.033 332.659 408.55C331.923 411.011 330.948 413.491 329.274 415.531Z" fill="white"/>
<path d="M170.18 435.628C170.18 420.95 194.782 409.046 225.125 409.046C255.468 409.046 280.07 420.95 280.07 435.628C280.07 441.929 275.525 447.734 267.943 452.29C272.857 454.917 275.874 458.389 275.874 462.21C275.874 470.404 262.166 477.036 245.237 477.036C228.326 477.036 214.599 470.404 214.599 462.21C214.599 462.045 214.636 461.88 214.655 461.714C189.316 459.363 170.18 448.579 170.18 435.628Z" fill="#DC5656"/>
<path d="M99.5754 281.884L62.1664 297.683L51.4386 316.715L43.7103 340.615L29.6704 343.407L69.3795 406.033L110.487 436.253L174.301 437.722L163.574 358.398L99.5754 281.884Z" fill="#DC5656"/>
<path d="M288.148 444.611C288.148 448.414 294.514 451.482 302.372 451.482C310.229 451.482 316.595 448.396 316.595 444.611C316.595 440.809 310.229 437.741 302.372 437.741C294.514 437.722 288.148 440.809 288.148 444.611Z" fill="#DC5656"/>
<path d="M15.8697 251.811C18.4826 253.906 20.9116 256.349 22.7149 259.343C28.5295 268.988 27.4439 281.406 27.1863 297.995C27.1127 302.257 27.0943 306.813 27.2783 311.645C27.3703 314.29 27.7935 317.266 28.4927 320.407C31.4001 333.285 39.4965 349.121 52.3403 359.482C58.431 364.405 65.5889 368.098 73.8141 369.659C78.8192 370.633 84.2106 370.798 89.9885 369.971C107.23 367.491 102.943 362.366 100.735 359.518C97.8089 355.771 93.043 354.558 93.043 354.558C93.043 354.558 73.5197 353.328 59.3694 343.132C59.0014 342.856 58.6518 342.617 58.3022 342.342C51.9723 337.584 47.6297 332.403 45.0167 326.212C42.1462 319.415 41.3182 311.387 42.1094 301.265C42.7902 292.576 44.0783 282.748 43.8207 273.195C43.5999 264.616 42.183 256.294 37.9692 249.276C36.1291 246.19 33.7738 243.379 30.7561 240.881C18.5011 230.74 9.30062 229.583 4.24037 232.32C2.25308 233.386 0.891397 235.057 0.228965 237.06C-1.55592 242.277 7.95734 245.4 15.8697 251.811Z" fill="#EC9846"/>
<path opacity="0.2" d="M15.8697 251.811C18.4826 253.906 20.9116 256.349 22.7149 259.343C28.5295 268.988 27.4439 281.406 27.1863 297.995C27.1127 302.257 27.0943 306.813 27.2783 311.645C27.3703 314.29 27.7935 317.266 28.4927 320.407C31.4001 333.285 39.4965 349.121 52.3403 359.482C58.431 364.405 65.5889 368.098 73.8141 369.659C78.8192 370.633 84.2106 370.798 89.9885 369.971C107.23 367.491 102.943 362.366 100.735 359.518C97.8089 355.771 93.043 354.558 93.043 354.558C93.043 354.558 73.5197 353.328 59.3694 343.132C59.0014 342.856 58.6518 342.617 58.3022 342.342C51.9723 337.584 47.6297 332.403 45.0167 326.212C42.1462 319.415 41.3182 311.387 42.1094 301.265C42.7902 292.576 44.0783 282.748 43.8207 273.195C43.5999 264.616 42.183 256.294 37.9692 249.276C36.1291 246.19 33.7738 243.379 30.7561 240.881C18.5011 230.74 9.30062 229.583 4.24037 232.32C2.25308 233.386 0.891397 235.057 0.228965 237.06C-1.55592 242.277 7.95734 245.4 15.8697 251.811Z" fill="#933433"/>
<path d="M15.8697 251.811C16.4034 246.521 16.1641 234.543 4.22196 232.302C2.23467 233.367 0.873017 235.039 0.210585 237.041C-1.5559 242.277 7.95735 245.4 15.8697 251.811Z" fill="#933433"/>
<path d="M33.1298 261.438C33.2402 266.6 39.3861 270.807 43.8207 273.176C43.5999 264.597 42.183 256.275 37.9692 249.258C35.9267 251.683 33.001 256.11 33.1298 261.438Z" fill="#933433"/>
<path d="M27.2967 311.645C27.3887 314.29 27.8119 317.266 28.5112 320.407C31.1057 318.221 34.8779 313.904 33.8842 307.934C32.9274 302.202 29.5048 299.318 27.2047 297.995C27.1311 302.257 27.1127 306.813 27.2967 311.645Z" fill="#933433"/>
<path d="M44.6303 340.946C48.3657 345.153 54.6036 343.738 58.3022 342.342C51.9723 337.584 47.6297 332.403 45.0167 326.212C43.0662 330.456 41.0973 336.941 44.6303 340.946Z" fill="#933433"/>
<path d="M52.3587 359.482C58.4494 364.405 65.6073 368.098 73.8325 369.659C71.3116 365.654 66.7114 359.886 60.2527 358.361C56.6645 357.516 54.1252 358.214 52.3587 359.482Z" fill="#933433"/>
<path d="M268.937 312.049C268.937 312.049 311.903 302.496 314.001 357.663C314.001 357.663 327.434 342.838 339.045 342.305C350.637 341.772 345.632 350.719 339.045 354.154C332.457 357.571 318.233 372.304 312.952 382.298C307.689 392.292 297.937 387.552 296.87 382.298C296.87 382.298 287.651 398.611 267.355 377.834C247.058 357.038 268.937 312.049 268.937 312.049Z" fill="#EC9846"/>
<path opacity="0.2" d="M268.937 312.049C268.937 312.049 311.903 302.496 314.001 357.663C314.001 357.663 327.434 342.838 339.045 342.305C350.637 341.772 345.632 350.719 339.045 354.154C332.457 357.571 318.233 372.304 312.952 382.298C307.689 392.292 297.937 387.552 296.87 382.298C296.87 382.298 287.651 398.611 267.355 377.834C247.058 357.038 268.937 312.049 268.937 312.049Z" fill="#933433"/>
<path d="M78.7088 326.617C78.8744 322.042 79.2424 317.689 79.8128 313.518C80.6409 307.327 81.8737 301.596 83.3458 296.342C84.7811 291.272 86.4372 286.605 88.2221 282.38C90.7982 276.263 93.6319 271.027 96.3368 266.673C99.9802 260.868 103.403 256.643 105.795 253.997C102.869 250.911 100.514 247.549 98.7106 243.93C96.5944 239.668 95.2144 235.094 94.5152 230.263C94.2943 228.885 94.1471 227.489 94.0367 226.056C93.9815 225.376 93.9631 224.696 93.9447 224.017V223.925C93.8159 219.773 94.0919 215.493 94.7912 211.084C94.828 210.753 94.8832 210.404 94.92 210.092C95.012 209.522 95.1224 208.953 95.2144 208.401C95.3064 208.052 95.3432 207.722 95.4536 207.354C96.2264 203.735 97.6249 200.3 99.5938 197.104C99.5938 197.104 99.5938 197.104 99.5754 197.104C99.833 196.626 108.279 181.25 110.818 173.901C113.413 166.443 114.94 156.853 119.356 156.541H119.375C123.349 156.266 132.495 164.716 134.519 174.453V174.471C136.635 173.846 138.824 173.258 141.106 172.707C141.437 172.615 141.787 172.542 142.155 172.468C145.486 171.679 148.963 170.999 152.625 170.411H152.644C154.134 170.172 155.68 169.933 157.225 169.731C163.942 168.813 171.21 168.151 179.012 167.784C179.27 167.784 179.509 167.766 179.748 167.747C180.613 167.71 181.478 167.674 182.324 167.674C184.606 167.6 186.814 167.619 188.93 167.674C188.948 167.674 188.948 167.674 188.948 167.674L189.243 167.38C190.439 166.131 191.985 164.312 192.169 164.091C194.542 161.318 195.941 157.662 198.02 154.686C201.019 150.332 205.73 147.154 211.361 148.201C211.71 148.274 212.042 148.403 212.354 148.623C213.09 149.248 213.734 150.295 214.268 151.71C216.182 156.743 216.292 166.057 214.415 171.715C214.379 171.807 214.342 171.954 214.305 172.046C219.623 173.975 224.057 176.437 227.756 179.321C231.491 182.205 234.491 185.493 236.938 189.039C237.288 189.535 237.619 190.049 237.932 190.545C239.22 192.566 240.324 194.66 241.299 196.828C241.354 196.92 241.391 197.03 241.409 197.122C241.906 198.206 242.348 199.326 242.771 200.429C242.973 200.943 243.139 201.439 243.323 201.953C244.206 204.562 244.942 207.207 245.55 209.853C245.605 210.147 245.66 210.441 245.715 210.716C245.789 211.01 245.844 211.322 245.899 211.616C246.194 213.013 246.378 214.409 246.525 215.768C246.543 215.823 246.543 215.878 246.562 215.97C246.764 217.642 246.856 219.295 246.893 220.894C246.911 221.61 246.911 222.345 246.893 223.061C246.672 234.708 242.734 243.508 240.066 248.174C243.912 249.625 251.346 253.042 258.541 259.619C261.926 262.76 265.275 266.581 268.128 271.266C269.195 272.974 270.188 274.83 271.09 276.777C272.783 280.451 273.813 283.648 274.384 286.458C275.212 290.61 275.028 293.825 274.513 296.176C273.74 299.74 271.936 300.769 271.936 300.769L270.796 302.037C268.992 302.9 267.023 303.378 265.018 303.415L263.638 303.433C263.638 303.433 290.025 320.701 284.615 357.663C279.205 394.643 255.228 409.578 225.603 416.982C225.603 416.982 225.474 417.864 225.125 419.223C224.113 423.301 221.224 431.623 214.452 433.166C205.454 435.187 201.792 428.445 201.792 428.445C201.792 428.445 169.333 431.054 137.96 420.932C133.065 419.352 128.17 417.441 123.46 415.163C119.007 413.032 114.701 410.57 110.653 407.741C105.758 404.324 101.213 400.356 97.2201 395.745C93.5583 391.539 90.375 386.817 87.762 381.49C85.6643 377.209 83.9531 372.543 82.6834 367.436C82.4258 366.407 82.1866 365.342 81.9842 364.276C80.2177 355.55 79.224 347.32 78.8192 339.605C78.5616 335.104 78.5432 330.768 78.7088 326.617Z" fill="#EC9846"/>
<path d="M116.007 183.913C119.651 180.607 124.067 178.292 127.674 176.786C131.464 175.224 134.335 174.526 134.482 174.489C132.458 164.753 123.331 156.302 119.338 156.578H119.32C118.749 158.837 118.105 161.556 119.816 167.38C119.982 167.949 120.111 168.519 120.221 169.052C121.804 177.171 116.909 183.16 116.007 183.913Z" fill="#933433"/>
<path d="M199.087 168.372C199.087 168.372 205.252 169.603 210.294 170.742C211.839 171.091 213.293 171.421 214.415 171.715C216.292 166.057 216.163 156.743 214.268 151.71C213.753 150.295 213.072 149.23 212.281 148.66C212.281 148.66 210.257 149.671 208.84 154.631C208.325 156.431 207.883 158.158 207.331 159.756C206.025 163.54 204.111 166.608 199.087 168.372Z" fill="#933433"/>
<path opacity="0.48" d="M155.661 252.969C159.286 255.1 160.151 259.95 156.361 262.687C151.282 266.343 141.235 266.434 136.212 262.577C131.979 259.325 133.985 252.73 138.236 251.279C141.842 250.048 145.743 250.121 149.405 250.874C151.116 251.223 153.619 251.775 155.661 252.969Z" fill="#C84A4A"/>
<path opacity="0.48" d="M216.219 246.227C213.477 248.909 213.771 253.391 217.727 254.989C223.027 257.12 231.97 255.008 235.558 250.507C238.594 246.704 235.374 241.285 231.289 240.936C227.83 240.642 224.37 241.542 221.297 243.012C219.862 243.692 217.746 244.72 216.219 246.227Z" fill="#C84A4A"/>
<path d="M157.207 169.75C162.138 173.424 166.058 179.302 169.168 183.73C170.879 186.155 172.461 188.671 173.952 191.225C175.074 193.154 176.97 194.991 179.343 195.138C182.324 195.303 184.808 193.209 186.096 190.692C187.716 187.532 187.513 183.95 186.722 180.588C185.6 175.83 183.06 171.421 179.73 167.766C179.49 167.784 179.233 167.784 178.994 167.802C171.192 168.188 163.923 168.831 157.207 169.75Z" fill="#933433"/>
<path d="M236.717 214.482C239.919 214.739 243.102 213.435 245.899 211.635C245.844 211.341 245.789 211.047 245.715 210.735C245.66 210.441 245.605 210.147 245.531 209.853C244.942 207.207 244.206 204.562 243.323 201.972C237.674 207.924 230.737 213.968 236.717 214.482Z" fill="#933433"/>
<path d="M238.539 222.547C240.71 223.612 243.894 223.539 246.874 223.061C246.893 222.345 246.893 221.628 246.874 220.894C246.838 219.295 246.746 217.642 246.543 215.952C246.525 215.878 246.525 215.823 246.525 215.75C240.508 217.973 234.711 220.673 238.539 222.547Z" fill="#933433"/>
<path d="M236.331 200.208C238.06 199.822 239.809 198.61 241.409 197.14C241.373 197.03 241.336 196.938 241.281 196.828C240.305 194.697 239.201 192.584 237.913 190.564C234.767 195.836 232.319 201.108 236.331 200.208Z" fill="#933433"/>
<path d="M142.118 172.505C143.443 173.681 144.915 175.004 145.982 175.996C149.35 179.155 152.975 183.638 155.404 183.95C160.446 184.593 162.028 179.596 158.366 174.949C156.692 172.836 154.502 171.385 152.625 170.448H152.607C148.927 171.036 145.449 171.715 142.118 172.505Z" fill="#933433"/>
<path d="M182.287 167.692C185.158 170.76 188.415 176.032 191.101 176.675C195.15 177.631 197.947 174.306 196.051 172.266C194.211 170.282 192.169 168.794 190.402 167.747C187.808 167.655 185.103 167.637 182.287 167.692Z" fill="#933433"/>
<path opacity="0.48" d="M242.513 243.251C241.759 244.739 241.005 246.227 240.177 247.678C239.772 248.413 239.349 249.129 238.888 249.809C238.428 250.489 237.95 251.187 237.38 251.664L237.232 251.793L237.251 251.995C237.324 252.693 237.361 253.428 237.288 254.126C237.232 254.787 236.993 255.559 236.607 255.651C236.423 255.706 236.312 255.688 236.128 255.449C235.963 255.21 235.852 254.898 235.742 254.567C235.558 253.906 235.466 253.171 235.411 252.473L235.264 250.691L234.564 252.344C234.27 253.061 233.902 253.777 233.515 254.438C233.129 255.1 232.687 255.761 232.172 256.275C231.915 256.533 231.62 256.735 231.344 256.771C231.05 256.827 230.792 256.771 230.7 256.569C230.442 256.092 230.571 255.192 230.774 254.512L231.031 253.612L230.295 254.163C229.246 254.953 228.106 255.688 226.965 256.367C225.824 257.047 224.609 257.653 223.34 258.094C224.665 257.819 225.916 257.286 227.149 256.716C228.363 256.128 229.522 255.43 230.663 254.677L230.185 254.328C230.038 254.732 229.946 255.136 229.89 255.559C229.854 255.981 229.817 256.459 230.056 256.955C230.185 257.194 230.424 257.433 230.7 257.506C230.829 257.561 230.976 257.58 231.105 257.58C231.234 257.598 231.363 257.598 231.491 257.561C232.025 257.469 232.411 257.176 232.724 256.882C233.368 256.294 233.828 255.596 234.251 254.879C234.675 254.163 235.043 253.446 235.374 252.693L234.546 252.546C234.601 253.318 234.711 254.071 234.932 254.842C235.061 255.228 235.19 255.614 235.448 255.981C235.521 256.073 235.613 256.165 235.687 256.257C235.797 256.331 235.908 256.422 236.036 256.477C236.312 256.588 236.625 256.569 236.883 256.477C237.416 256.294 237.692 255.816 237.821 255.412C237.987 254.989 238.042 254.585 238.079 254.2C238.134 253.41 238.097 252.656 237.968 251.903L237.84 252.234C238.502 251.591 238.944 250.874 239.385 250.14C239.809 249.405 240.195 248.652 240.563 247.898C241.299 246.374 241.961 244.83 242.513 243.251Z" fill="#933433"/>
<path d="M140.444 252.858C145.946 256 154.226 256.533 159.967 253.759C161.2 253.171 162.322 252.399 163.298 251.444C167.567 247.255 169.591 240.311 169.131 234.414C169.131 234.286 169.112 234.139 169.112 234.01C168.542 228.058 164.678 222.933 159.231 220.489C152.864 217.642 143.682 217.238 138.438 222.473C136.359 224.549 134.813 227.305 133.875 230.354H133.856C131.335 238.474 133.065 248.652 140.444 252.858Z" fill="white"/>
<path d="M140.444 252.858C143.553 254.622 147.142 255.449 150.711 255.614C152.496 255.688 154.3 255.559 156.066 255.21C157.833 254.861 159.562 254.31 161.163 253.41C162.764 252.509 164.126 251.223 165.23 249.791C166.352 248.358 167.254 246.759 167.971 245.069C169.388 241.707 170.051 238.033 169.885 234.341V234.396C169.664 230.005 167.695 225.89 164.512 222.951C162.93 221.481 161.108 220.269 159.102 219.479C157.133 218.671 155.072 218.12 152.956 217.826C148.779 217.275 144.271 217.752 140.591 220.048C138.751 221.169 137.242 222.786 136.12 224.549C134.96 226.313 134.132 228.26 133.562 230.263L133.893 230.024H133.875H133.617L133.543 230.263C132.955 232.32 132.642 234.433 132.605 236.564C132.568 238.676 132.789 240.807 133.304 242.865C133.819 244.922 134.666 246.888 135.862 248.633C137.021 250.342 138.604 251.83 140.444 252.858ZM140.444 252.858C138.622 251.811 137.058 250.305 135.899 248.56C134.721 246.815 133.948 244.83 133.488 242.791C133.028 240.752 132.881 238.64 133.028 236.564C133.157 234.488 133.562 232.43 134.224 230.446L133.893 230.685H133.911H134.169L134.261 230.428C134.905 228.517 135.788 226.68 136.948 225.064C138.107 223.429 139.542 222.033 141.253 221.096C142.965 220.14 144.878 219.589 146.829 219.332C148.779 219.075 150.785 219.13 152.754 219.442C156.673 220.048 160.501 221.518 163.371 224.182C164.089 224.843 164.733 225.578 165.322 226.35C165.892 227.14 166.426 227.966 166.849 228.83C167.272 229.711 167.659 230.612 167.898 231.548C168.045 232.008 168.119 232.504 168.229 232.981C168.284 233.441 168.395 233.973 168.413 234.378V234.433C168.726 237.868 168.266 241.414 167.051 244.684C166.444 246.319 165.635 247.88 164.623 249.313C163.61 250.746 162.378 252.013 160.887 252.932C157.888 254.787 154.263 255.504 150.711 255.449C147.16 255.43 143.572 254.585 140.444 252.858Z" fill="#933433"/>
<path d="M152.607 250.58C147.878 251.279 142.597 249.46 139.744 245.51C135.218 239.209 137.132 229.362 143.793 225.431C147.362 223.318 152.257 222.859 156.103 224.457C166.407 228.719 165.598 244.426 156.324 249.386C155.201 249.993 153.932 250.397 152.607 250.58Z" fill="#933433"/>
<path opacity="0.21" d="M133.893 230.354C154.723 220.489 167.585 232.798 169.149 234.396C169.149 234.267 169.131 234.12 169.131 233.992C168.56 228.04 164.696 222.914 159.249 220.471C152.883 217.624 143.701 217.219 138.456 222.455C136.377 224.531 134.831 227.305 133.893 230.354Z" fill="#933433"/>
<path d="M206.227 236.968C208.877 241.781 214.912 243.618 220.083 243.434C220.8 243.398 221.5 243.306 222.162 243.14C230.332 241.23 235.153 230.171 232.117 222.418C231.823 221.61 231.418 220.857 230.939 220.14C226.707 213.858 215.851 211.469 209.539 215.915C208.012 216.999 207.037 218.726 206.337 220.416C205.859 221.573 205.454 222.859 205.16 224.219C204.166 228.481 204.258 233.386 206.227 236.968Z" fill="white"/>
<path d="M206.227 236.968C206.705 237.813 207.276 238.603 207.957 239.301C208.637 239.981 209.392 240.605 210.238 241.101C211.894 242.112 213.734 242.828 215.648 243.214C216.605 243.416 217.562 243.563 218.556 243.618C219.531 243.692 220.524 243.71 221.5 243.563C223.45 243.251 225.364 242.479 226.965 241.285C230.222 238.915 232.375 235.259 233.35 231.383C233.81 229.418 233.994 227.378 233.736 225.339L233.442 223.833C233.313 223.337 233.147 222.859 233 222.363C232.687 221.39 232.191 220.434 231.602 219.589C229.173 216.154 225.327 214.115 221.408 213.343C219.439 212.957 217.396 212.902 215.391 213.178C213.403 213.472 211.453 214.133 209.778 215.254C208.913 215.768 208.177 216.54 207.607 217.348C207.037 218.175 206.595 219.056 206.227 219.975C205.491 221.794 205.049 223.704 204.773 225.633C204.497 227.562 204.424 229.509 204.626 231.438C204.792 233.349 205.288 235.278 206.227 236.968ZM206.227 236.968C204.405 233.514 204.313 229.418 204.976 225.67C205.325 223.778 205.896 221.922 206.705 220.195C207.515 218.487 208.601 216.852 210.238 215.989C213.477 214.096 217.488 213.931 221.076 214.794C222.88 215.217 224.628 215.933 226.192 216.889C227.756 217.844 229.154 219.075 230.148 220.563C230.663 221.298 231.087 222.088 231.381 222.933C231.51 223.374 231.675 223.796 231.786 224.237L232.062 225.578C232.319 227.378 232.246 229.252 231.878 231.071C231.16 234.69 229.357 238.235 226.431 240.605C224.996 241.799 223.248 242.626 221.408 243.03C220.488 243.214 219.531 243.251 218.556 243.232C217.599 243.214 216.642 243.14 215.685 242.975C213.79 242.644 211.931 242.038 210.257 241.046C209.429 240.55 208.674 239.944 207.975 239.283C207.294 238.584 206.724 237.795 206.227 236.968Z" fill="#933433"/>
<path d="M224.646 236.343C224.315 236.637 221.297 240.513 214.397 238.566C207.497 236.619 208.03 227.801 209.005 224.88C209.981 221.977 213.422 215.933 221.297 217.881C229.173 219.828 230.258 231.42 224.646 236.343Z" fill="#933433"/>
<path opacity="0.21" d="M205.141 224.219C214.25 218.689 226.045 220.747 232.117 222.418C231.823 221.61 231.418 220.857 230.939 220.14C226.707 213.858 215.851 211.469 209.539 215.915C208.012 216.999 207.037 218.726 206.337 220.416C205.841 221.573 205.436 222.859 205.141 224.219Z" fill="#933433"/>
<path d="M95.4352 207.391C115.032 218.23 121.141 205.168 113.192 203.111C107.874 201.733 102.924 198.885 99.6858 196.975C97.6617 200.208 96.2264 203.68 95.4352 207.391Z" fill="#933433"/>
<path d="M93.9263 223.943V224.017C93.9631 224.402 93.9999 224.751 94.0367 225.119C101.176 227.783 109.88 229.197 116.651 226.166C119.209 225.027 121.362 222.492 120.442 219.938C120.056 218.928 119.209 218.046 118.197 217.421C115.179 215.548 111.076 215.254 107.488 214.886C103.403 214.464 98.5633 212.737 94.7543 211.084C94.0735 215.511 93.7975 219.81 93.9263 223.943Z" fill="#933433"/>
<path d="M94.4967 230.299C95.2143 235.131 96.5944 239.705 98.7105 243.967C103.587 244.757 108.831 243.618 113.008 241.101C114.866 239.981 116.523 238.18 116.044 235.847C115.418 232.761 111.278 232.449 108.776 232.504C101.967 232.651 97.0912 231.273 94.4967 230.299Z" fill="#933433"/>
<path d="M246.819 248.964C243.783 247.935 240.692 247.164 237.564 246.447C234.454 245.767 231.307 245.143 228.124 244.775C231.16 245.804 234.251 246.576 237.38 247.292C240.508 247.972 243.636 248.596 246.819 248.964Z" fill="#933433"/>
<path d="M248.328 241.156C245.237 240.881 242.164 240.862 239.073 240.918C236 240.991 232.908 241.138 229.835 241.561C232.927 241.836 236 241.854 239.091 241.799C242.182 241.707 245.255 241.561 248.328 241.156Z" fill="#933433"/>
<path d="M245.899 231.585C243.01 232.687 240.232 234.029 237.49 235.425C234.748 236.839 232.062 238.327 229.467 240.054C232.356 238.952 235.135 237.611 237.876 236.215C240.618 234.782 243.323 233.312 245.899 231.585Z" fill="#933433"/>
<path d="M124.95 174.177C124.95 174.177 127.177 174.03 127.766 173.516C128.373 173.001 124.95 172.928 124.95 172.928C126.661 172.193 128.06 170.191 127.471 170.154C126.882 170.117 124.877 171.587 124.877 171.587C126.956 168.556 125.465 163.981 123.165 164.275C122.172 164.404 121.123 166.59 120.221 169.033C121.785 177.171 116.891 183.142 116.007 183.895C119.651 180.588 124.067 178.274 127.673 176.767C127.103 175.151 124.95 174.177 124.95 174.177Z" fill="white"/>
<path d="M210.294 170.742C209.981 168.905 208.03 166.351 207.865 166.131C208.012 166.186 209.594 166.865 210.33 166.443C211.103 166.002 208.472 164.973 208.472 164.973C208.472 164.973 210.496 165.139 210.662 164.532C210.827 163.945 208.766 164.091 208.766 164.091C210.22 163.21 212.851 159.26 211.048 158.231C209.87 157.552 208.306 158.801 207.331 159.756C206.024 163.54 204.111 166.608 199.087 168.353C199.087 168.372 205.252 169.603 210.294 170.742Z" fill="white"/>
<path d="M185.931 231.585C185.931 231.585 188.636 227.672 190.218 228.242C191.801 228.793 187.734 234.727 186.06 235.37C184.385 236.013 180.153 230.391 180.981 229.179C181.827 227.948 185.931 231.585 185.931 231.585Z" fill="#933433"/>
<path d="M193.733 235.314C196.658 235.755 199.547 237.317 201.406 239.944C204.111 243.765 204.957 248.762 202.179 252.638C200.467 255.045 197.891 256.477 195.26 257.433C190.237 259.251 185.103 260.721 179.73 259.674C177.779 259.288 175.829 258.608 174.173 257.359C171.633 255.43 169.904 252.142 169.664 248.743C169.425 245.345 170.658 241.891 172.921 239.723C175.7 237.041 180.061 235.921 183.686 235.682C186.924 235.461 190.513 234.818 193.733 235.314Z" fill="#DC5656"/>
<path d="M120.24 253.667C123.313 254.071 126.385 254.218 129.477 254.31C132.55 254.365 135.641 254.346 138.732 254.071C135.66 253.667 132.587 253.52 129.495 253.428C126.404 253.373 123.331 253.391 120.24 253.667Z" fill="#933433"/>
<path d="M122.669 244.096C125.245 245.804 127.95 247.292 130.691 248.725C133.433 250.121 136.212 251.462 139.1 252.565C136.524 250.838 133.819 249.368 131.078 247.935C128.336 246.557 125.557 245.216 122.669 244.096Z" fill="#933433"/>
<g opacity="0.48">
<path d="M190.034 268.529C185.379 268.602 180.834 268.878 176.289 268.97C174.007 269.025 171.744 269.006 169.48 268.97C167.217 268.878 164.935 268.767 162.617 268.529C166.904 270.421 171.707 270.862 176.325 270.807C180.962 270.66 185.618 270.035 190.034 268.529Z" fill="#933433"/>
</g>
<g opacity="0.48">
<path d="M152.644 307.456C154.999 307.915 157.207 308.062 159.415 308.283C160.519 308.356 161.623 308.503 162.746 308.577C163.868 308.668 164.972 308.815 166.187 308.871C164.31 307.327 161.918 306.666 159.581 306.446C158.403 306.372 157.225 306.354 156.066 306.519C154.888 306.684 153.729 306.942 152.644 307.456Z" fill="#933433"/>
</g>
<path d="M192.003 237.941C191.175 238.934 190.641 240.109 190.255 241.303C189.869 242.516 189.703 243.802 189.685 245.069C189.685 246.355 189.832 247.641 190.237 248.854C190.586 250.084 191.193 251.223 191.985 252.215C191.893 250.93 191.709 249.754 191.635 248.578C191.543 247.402 191.488 246.245 191.525 245.088C191.525 242.755 191.764 240.458 192.003 237.941Z" fill="#933433"/>
<path d="M181.165 238.162C181.018 240.936 181.073 243.526 180.907 246.116C180.834 247.402 180.705 248.67 180.484 249.956C180.245 251.223 179.914 252.454 179.454 253.777C180.539 252.895 181.331 251.664 181.864 250.342C182.398 249.019 182.619 247.623 182.729 246.227C182.803 244.83 182.711 243.434 182.453 242.075C182.214 240.734 181.827 239.393 181.165 238.162Z" fill="#933433"/>
<path d="M190.789 242.626C190.402 241.983 189.629 241.395 188.856 241.083C188.065 240.734 187.182 240.587 186.28 240.624C184.495 240.752 182.784 241.818 182.14 243.416C183.796 242.92 185.066 242.534 186.409 242.461C187.09 242.387 187.771 242.424 188.488 242.461C189.206 242.479 190.016 242.644 190.789 242.626Z" fill="#933433"/>
<path d="M177.908 284.052C179.398 286.458 180.374 288.865 181.183 291.4C181.607 292.649 181.919 293.954 182.251 295.258C182.582 296.581 182.858 297.903 183.281 299.281C183.631 297.903 183.759 296.47 183.686 295.056C183.631 293.641 183.355 292.227 182.95 290.849C182.49 289.49 181.901 288.167 181.055 286.973C180.208 285.797 179.196 284.713 177.908 284.052Z" fill="#933433"/>
<path d="M190.2 284.052C190.457 285.283 190.513 286.458 190.549 287.616C190.568 288.773 190.568 289.949 190.476 291.106C190.457 292.282 190.329 293.458 190.292 294.652C190.218 295.846 190.145 297.058 190.2 298.326C190.881 297.242 191.359 296.085 191.709 294.891C192.04 293.696 192.261 292.447 192.316 291.18C192.371 289.93 192.297 288.644 191.966 287.395C191.653 286.201 191.157 284.934 190.2 284.052Z" fill="#933433"/>
<path d="M221.113 306.85C221.96 304.333 223.229 302.276 224.757 300.347C225.493 299.355 226.357 298.473 227.186 297.518C227.627 297.058 228.069 296.617 228.51 296.121C228.97 295.662 229.43 295.203 229.854 294.67C228.566 295.056 227.351 295.662 226.247 296.434C225.143 297.205 224.149 298.142 223.303 299.208C222.475 300.291 221.776 301.486 221.371 302.808C220.948 304.113 220.764 305.527 221.113 306.85Z" fill="#933433"/>
<path d="M172.075 351.086C174.853 351.197 206.724 348.845 213.826 391.465C213.826 391.465 224.977 365.14 237.674 372.047C246.948 377.081 232.706 385.789 227.701 405.739C226.284 411.434 225.493 415.843 225.088 419.223C225.437 417.864 225.566 416.982 225.566 416.982C255.192 409.578 279.168 394.643 284.578 357.663C289.988 320.683 263.601 303.433 263.601 303.433C249.911 303.433 239.165 305.049 228.253 307.254C217.341 309.44 208.84 299.061 217.065 289.765C220.432 285.962 226.965 283.96 233.479 282.931C234.159 282.233 235.613 282.619 235.613 282.619C235.613 282.619 203.375 266.159 194.046 291.676C194.046 291.676 206.724 340.064 170.382 346.255C170.4 346.236 169.278 350.976 172.075 351.086Z" fill="#F4C390"/>
<g opacity="0.48">
<path d="M157.557 353.181C163.868 351.435 170.529 350.958 176.951 351.821C180.19 352.189 183.318 353.07 186.354 354.173C187.844 354.797 189.353 355.385 190.733 356.23C192.187 356.947 193.494 357.883 194.818 358.802C196.162 359.684 197.321 360.841 198.572 361.852C199.676 363.027 200.909 364.074 201.921 365.324C204.111 367.693 205.877 370.412 207.46 373.186C209.042 375.997 210.238 378.991 211.177 382.059C212.097 385.127 212.759 388.342 212.925 391.447L213.146 395.378L214.673 391.759C216.053 388.507 217.727 385.292 219.678 382.316C221.628 379.359 223.892 376.53 226.726 374.509C229.522 372.47 232.963 371.478 236.331 372.433C237.968 372.782 239.367 373.719 239.772 375.189C240.213 376.658 239.901 378.404 239.33 380.02C238.76 381.655 237.932 383.235 236.975 384.741C236.036 386.248 234.969 387.699 233.81 389.058C232.614 390.473 231.583 392.145 230.921 393.835C230.166 395.525 229.596 397.27 229.062 399.015C227.075 406.051 225.879 413.234 225.125 420.472C226.321 413.308 227.701 406.162 229.964 399.309C231.123 395.929 232.375 392.439 234.73 389.867C235.963 388.489 237.085 387.038 238.116 385.495C239.146 383.951 240.066 382.335 240.729 380.553C241.373 378.789 241.888 376.805 241.281 374.748C241.023 373.719 240.324 372.819 239.496 372.157C238.649 371.551 237.711 371.11 236.754 370.89C236.276 370.725 235.797 370.651 235.319 370.614C234.84 370.559 234.362 370.486 233.883 370.449L232.411 370.522C231.915 370.541 231.436 370.578 230.958 370.743L229.541 371.129C229.081 371.257 228.658 371.515 228.216 371.698C227.314 372.066 226.523 372.617 225.732 373.15C222.604 375.336 220.248 378.293 218.187 381.361C216.127 384.447 214.397 387.681 212.998 391.134L214.747 391.447C214.526 388.011 213.845 384.778 212.851 381.582C211.858 378.403 210.57 375.299 208.913 372.415C205.638 366.628 201.148 361.447 195.61 357.718C194.211 356.8 192.831 355.863 191.322 355.146C189.869 354.32 188.304 353.75 186.759 353.144C183.612 352.097 180.374 351.233 177.062 350.976C170.474 350.388 163.776 351.068 157.557 353.181Z" fill="#933433"/>
</g>
<g opacity="0.48">
<path d="M252.395 281.902C247.334 281.498 242.256 281.572 237.177 281.976C232.117 282.472 227.02 283.28 222.236 285.319C217.433 287.212 213.164 291.768 212.962 297.371C212.888 300.145 214.103 302.882 216.053 304.792C218.003 306.721 220.598 307.915 223.266 308.301C224.609 308.485 225.971 308.485 227.296 308.301C228.658 308.099 229.817 307.805 231.087 307.566C233.571 307.07 236.036 306.611 238.52 306.207C243.489 305.38 248.494 304.829 253.517 304.407C256.038 304.204 258.541 304.076 261.062 303.984C263.527 303.911 266.232 304.002 268.716 303.065C271.2 302.202 273.317 300.255 274.273 297.83C275.249 295.423 275.377 292.778 274.936 290.298C275.193 292.796 274.881 295.387 273.832 297.628C272.801 299.887 270.777 301.541 268.44 302.22C267.281 302.588 266.067 302.772 264.834 302.827C263.619 302.863 262.331 302.827 261.062 302.827C258.522 302.827 255.983 302.882 253.444 302.992C248.365 303.194 243.305 303.8 238.263 304.535C235.742 304.921 233.239 305.343 230.755 305.821C229.522 306.042 228.216 306.335 227.075 306.482C225.897 306.629 224.701 306.611 223.524 306.446C221.187 306.133 218.942 305.123 217.286 303.506C215.611 301.908 214.599 299.649 214.636 297.352C214.655 295.037 215.648 292.778 217.12 290.904C218.556 288.994 220.598 287.634 222.806 286.569C227.278 284.456 232.283 283.501 237.269 282.821C242.274 282.16 247.334 281.902 252.395 281.902Z" fill="#933433"/>
</g>
<g opacity="0.48">
<path d="M243.599 314.51C242.145 314.676 240.765 315.172 239.459 315.778C238.152 316.384 236.92 317.174 235.779 318.056C233.515 319.838 231.565 322.134 230.534 324.835C231.675 323.916 232.669 322.979 233.736 322.097C234.785 321.216 235.834 320.334 236.92 319.507C239.054 317.78 241.281 316.237 243.599 314.51Z" fill="#933433"/>
</g>
<g opacity="0.48">
<path d="M241.796 322.796C241.041 321.73 240.103 320.83 239.109 320.022C238.116 319.213 237.03 318.515 235.871 317.927C234.711 317.358 233.497 316.862 232.191 316.623C230.903 316.366 229.522 316.292 228.271 316.715C230.755 317.431 232.835 318.46 235.043 319.581C237.214 320.646 239.367 321.84 241.796 322.796Z" fill="#933433"/>
</g>
<path d="M88.222 282.398C94.1655 284.713 100.643 285.264 107.028 285.283C110.873 285.301 114.793 285.117 118.436 283.905C119.816 283.427 121.252 282.711 121.785 281.351C122.3 280.029 121.712 278.486 120.7 277.494C119.706 276.483 118.344 275.932 117.019 275.399C110.137 272.699 102.722 270.586 96.3368 266.673C93.6319 271.045 90.7797 276.281 88.222 282.398Z" fill="#933433"/>
<path d="M79.8128 313.518C80.4936 313.702 81.2113 313.849 81.8921 313.978C89.6389 315.392 97.7905 314.474 105.004 311.351C107.157 310.414 109.585 308.669 109.162 306.354C108.905 304.921 107.598 303.929 106.31 303.286C103.016 301.688 99.2441 301.486 95.6376 300.824C92.2702 300.236 88.9948 299.226 85.8851 297.811C85.0755 297.444 84.2106 296.93 83.3274 296.36C81.8737 301.614 80.6408 307.327 79.8128 313.518Z" fill="#933433"/>
<path d="M159.912 302.422C161.954 303.855 164.126 305.031 166.389 305.986C167.18 303.561 168.229 300.585 169.48 297.573C172.553 290.077 176.786 282.307 181.22 281.939C188.58 281.351 194.542 286.569 195.794 300.291C196.014 302.625 196.088 305.215 196.014 308.081L195.959 309.807C202.326 309.275 206.669 308.228 206.669 308.228C206.669 308.228 205.988 304.645 204.792 299.465C201.516 285.356 194.377 259.288 186.391 260.005C179.527 260.611 168.56 282.968 163.15 294.982C161.145 299.41 159.912 302.422 159.912 302.422Z" fill="#DC5656"/>
<g opacity="0.48">
<path d="M130.084 336.225C132.642 338.447 135.531 340.303 138.53 341.864C141.548 343.444 144.713 344.767 147.988 345.722C154.539 347.669 161.531 348.184 168.34 347.302C171.725 346.788 175.129 346.053 178.331 344.657C181.515 343.26 184.495 341.35 186.98 338.888C192.021 333.91 194.506 327.058 195.757 320.352C196.842 313.573 197.192 306.74 196.566 299.887C196.217 296.47 195.554 293.035 194.174 289.82C193.53 288.185 192.555 286.679 191.414 285.301C190.237 283.942 188.728 282.858 187.072 282.141C185.416 281.406 183.575 281.168 181.809 281.259L181.147 281.278L180.447 281.443C179.95 281.517 179.527 281.719 179.122 281.958C178.681 282.141 178.313 282.417 177.982 282.692C177.614 282.968 177.264 283.244 176.97 283.574C174.467 286.091 172.885 289.159 171.376 292.208C168.524 298.399 166.426 304.866 164.696 311.406C166.812 304.994 169.094 298.583 172.185 292.613C173.749 289.655 175.405 286.66 177.779 284.419C178.975 283.299 180.3 282.509 181.864 282.545C183.483 282.49 185.084 282.748 186.52 283.427C189.427 284.713 191.469 287.432 192.702 290.426C193.972 293.439 194.579 296.728 194.892 300.034C195.462 306.666 195.039 313.463 193.954 320.003C192.776 326.506 190.457 333.01 185.802 337.676C183.502 340.009 180.705 341.809 177.706 343.169C174.688 344.51 171.431 345.281 168.137 345.869C154.944 347.963 140.941 344.289 130.084 336.225Z" fill="#933433"/>
</g>
<path d="M78.8008 339.605C82.7938 340.193 87.0444 339.844 90.9638 338.851C93.9999 338.098 96.9809 336.996 99.5018 335.141C100.863 334.149 102.151 332.532 101.618 330.97C101.121 329.501 99.3914 328.968 97.8825 328.693C92.4358 327.774 86.8788 328.068 81.4137 327.296C80.5857 327.186 79.684 326.929 78.7272 326.635C78.5431 330.768 78.5616 335.104 78.8008 339.605Z" fill="#933433"/>
<path d="M82.665 367.418C83.9346 372.507 85.6459 377.191 87.7436 381.471C90.3381 380.498 92.7854 379.23 94.8463 378.11C100.238 375.189 105.04 371.184 108.886 366.371C111.058 363.652 111.481 359.555 107.304 358.563C105.335 358.086 103.274 358.673 101.379 359.372C94.9752 361.778 89.2157 365.434 82.665 367.418Z" fill="#933433"/>
<path d="M248.751 267.665C249.34 269.263 251.033 270.292 252.726 270.605C254.4 270.935 256.167 270.696 257.878 270.586C261.19 270.384 264.539 270.586 267.815 271.211C267.907 271.229 268.017 271.247 268.109 271.266C265.257 266.581 261.908 262.76 258.522 259.619C257.676 259.784 256.829 259.968 255.965 260.152C254.051 260.593 252.082 261.125 250.536 262.393C249.027 263.679 248.071 265.81 248.751 267.665Z" fill="#933433"/>
<path d="M261.558 289.379C263.012 290.849 265.036 291.639 266.895 292.429C269.268 293.458 271.587 294.615 273.869 295.827C274.071 295.938 274.292 296.048 274.476 296.176C274.991 293.825 275.175 290.61 274.347 286.458C271.348 285.136 268.054 284.456 264.779 284.456C263.38 284.474 260.988 284.364 260.289 285.871C259.755 287.083 260.749 288.571 261.558 289.379Z" fill="#933433"/>
<path d="M97.2017 395.727C101.195 400.338 105.74 404.306 110.634 407.723C112.824 404.324 114.388 400.522 116.302 396.976C117.921 393.945 120 389.205 118.068 385.88C116.21 382.629 113.045 382.794 109.861 384.282C105.85 386.138 101.802 390.106 100.183 392.071C99.4098 392.99 98.3425 394.257 97.2017 395.727Z" fill="#933433"/>
<path d="M123.441 415.145C128.17 417.423 133.047 419.315 137.941 420.913C138.935 416.596 138.99 411.618 138.622 407.264C138.125 401.44 134.924 395.947 129.495 402.671C128.502 403.902 127.085 406.253 125.797 409.046C124.913 410.938 124.085 413.051 123.441 415.145Z" fill="#933433"/>
<g opacity="0.48">
<path d="M340.112 353.548C339.854 352.391 339.137 351.344 338.18 350.572C337.223 349.782 335.972 349.323 334.72 349.213C333.451 349.157 332.218 349.433 331.132 349.929C330.599 350.186 330.102 350.517 329.623 350.848C329.182 351.233 328.74 351.619 328.372 352.078C328.961 351.987 329.494 351.821 330.028 351.656L331.611 351.288C332.641 351.105 333.635 350.976 334.61 351.05C336.505 351.178 338.327 352.042 340.112 353.548Z" fill="#933433"/>
</g>
<path d="M195.775 300.273C195.996 302.606 196.07 305.196 195.996 308.062L195.941 309.789C202.308 309.256 206.65 308.209 206.65 308.209C206.65 308.209 205.969 304.627 204.773 299.446C203.154 299.685 199.915 300.071 195.775 300.273Z" fill="#94DCBD"/>
<path d="M159.912 302.422C161.954 303.855 164.126 305.031 166.389 305.986C167.18 303.561 168.229 300.585 169.48 297.573C167.272 296.875 165.138 296.011 163.15 294.964C161.145 299.41 159.912 302.422 159.912 302.422Z" fill="#94DCBD"/>
<path d="M187.789 263.752C187.789 263.752 190.2 268.088 187.789 268.492C185.36 268.914 187.789 263.752 187.789 263.752Z" fill="#933433"/>
<path d="M178.975 274.352C178.975 274.352 181.386 278.688 178.975 279.092C176.565 279.496 178.975 274.352 178.975 274.352Z" fill="#933433"/>
<path d="M191.451 275.546C191.451 275.546 193.862 279.882 191.451 280.286C189.022 280.69 191.451 275.546 191.451 275.546Z" fill="#933433"/>
<path d="M264.135 435.15C264.135 435.15 266.122 430.595 267.907 432.266C269.692 433.938 264.135 435.15 264.135 435.15Z" fill="#933433"/>
<path d="M232.393 458.297C232.393 458.297 227.609 459.657 227.756 457.214C227.903 454.77 232.393 458.297 232.393 458.297Z" fill="#933433"/>
<path d="M245.678 428.225C245.678 428.225 250.279 430.154 248.623 431.954C246.966 433.773 245.678 428.225 245.678 428.225Z" fill="#933433"/>
<path d="M22.8069 347.118L47.7217 387.019L72.8941 427.306L159.912 448.01L206.669 444.152L232.209 428.702L235.024 428.592L232.099 413.987L199.161 423.448L180.668 402.065L139.1 416.431L113.983 381.471L101.747 388.379H88.222L65.8466 385.789L49.5618 358.416L29.652 343.407L22.8069 347.118Z" fill="#DC5656"/>
<path opacity="0.36" d="M171.486 416.835L199.161 435.15V423.448L180.668 402.065L171.486 416.835Z" fill="#933433"/>
<path opacity="0.36" d="M101.747 388.379L133.875 435.15L139.1 416.431L113.983 381.471L101.747 388.379Z" fill="#933433"/>
<path opacity="0.36" d="M22.8069 347.118L47.7401 387.019C51.6043 390.638 54.1436 393.008 54.1436 393.008L65.8466 385.789L49.5618 358.398L29.652 343.407L22.8069 347.118Z" fill="#933433"/>
<path d="M45.348 429.933C49.9114 436.473 55.3397 442.719 61.8904 448.396C65.4233 451.464 69.2323 454.348 73.4093 457.03C76.0774 458.757 78.9112 460.41 81.8737 461.898C83.9162 462.982 86.0139 463.992 88.2036 464.948C90.743 466.068 93.2639 467.079 95.8216 467.979C99.189 469.21 102.556 470.238 105.924 471.12C109.898 472.167 113.873 472.976 117.866 473.582C122.319 474.243 126.79 474.666 131.207 474.813C134.077 474.941 136.966 474.941 139.837 474.813C142.413 474.721 144.952 474.537 147.51 474.28C151.171 473.913 154.796 473.38 158.403 472.682C164.015 471.598 169.536 470.147 174.945 468.328C197.836 460.667 218.703 446.687 235.024 428.592C235.871 427.655 222.291 430.595 209.189 433.552C205.712 434.342 202.308 435.114 199.179 435.849L194.874 431.917L174.357 413.198C174.357 413.198 173.768 413.473 172.737 413.932C168.119 416.008 154.741 421.979 145.614 425.341C141.75 426.773 138.659 427.729 137.297 427.729C134.85 427.729 128.244 420.123 121.307 411.746C117.13 406.676 112.842 401.33 109.273 397.233C105.942 393.376 103.274 390.602 101.949 390.161C96.8704 388.416 90.8902 397.013 84.8915 395.488C84.4499 395.378 83.9714 395.249 83.4378 395.121C81.0641 394.515 77.9543 393.688 74.7158 393.008C69.0667 391.814 63.068 390.987 60.0319 392.255C57.6765 393.229 54.9532 390.032 52.1011 385.972C49.0649 381.655 45.8632 376.364 42.827 374.123C42.459 373.848 42.1278 373.627 41.7598 373.462C35.6507 370.467 22.8069 347.137 22.8069 347.137C22.8069 347.137 19.5315 392.898 45.348 429.933Z" fill="#94DCBD"/>
<path d="M45.348 429.933C49.9114 436.473 55.3397 442.719 61.8904 448.396C50.5738 422.603 50.6842 399.144 52.0827 385.954C49.0466 381.637 45.8448 376.346 42.8086 374.105C37.3436 394.864 41.0606 415.696 45.348 429.933Z" fill="#B4ECE3"/>
<path d="M73.4277 457.03C76.0958 458.757 78.9296 460.41 81.8921 461.898C79.9232 435.904 82.0209 408.899 83.4562 395.121C81.0825 394.515 77.9727 393.688 74.7342 393.008C72.3605 415.935 72.8941 443.178 73.4277 457.03Z" fill="#B4ECE3"/>
<path d="M95.8216 467.979C99.189 469.21 102.556 470.238 105.924 471.12C111.72 455.321 117.332 430.833 121.27 411.746C117.093 406.676 112.806 401.33 109.236 397.233L95.8216 467.979Z" fill="#B4ECE3"/>
<path d="M117.866 473.582C122.319 474.243 126.79 474.666 131.207 474.813C142.836 462.982 161.108 441.58 172.719 413.932C168.1 416.008 154.723 421.979 145.596 425.341C138.015 440.735 128.005 459.289 117.866 473.582Z" fill="#B4ECE3"/>
<path d="M147.51 474.28C151.171 473.913 154.796 473.38 158.403 472.682C164.015 471.598 169.536 470.147 174.945 468.328C187.476 457.324 200.799 443.73 209.171 433.552C205.693 434.342 202.289 435.114 199.161 435.849L194.855 431.917L147.51 474.28Z" fill="#B4ECE3"/>
<path d="M235.024 428.574L199.069 434.673L199.474 434.783L174.835 412.646L174.504 412.352L174.081 412.518L135.678 427.416L136.672 427.692C131.391 420.95 126.054 414.263 120.516 407.723C117.755 404.453 114.94 401.22 112.051 398.042C110.598 396.462 109.125 394.9 107.58 393.376C106.807 392.622 106.016 391.869 105.169 391.153C104.746 390.804 104.304 390.455 103.826 390.124C103.329 389.812 102.906 389.444 101.986 389.297L101.894 389.279L101.765 389.297C97.1649 390.234 93.6871 393.174 89.8229 394.551C88.8661 394.882 87.9092 395.066 87.0444 394.919L83.8794 394.294L77.5311 392.971C73.2621 392.145 69.0667 391.263 64.6321 390.914C64.0617 390.896 63.5096 390.859 62.8472 390.987C62.2768 391.116 61.688 391.318 61.1359 391.63C60.6207 391.924 60.0871 392.42 59.9767 392.384C59.8847 392.439 59.351 392.2 58.9462 391.943C58.155 391.483 57.4925 390.602 56.8117 389.812C56.1309 388.985 55.4685 388.14 54.806 387.295C52.1747 383.878 49.617 380.388 46.7648 377.099C46.0472 376.273 45.3112 375.483 44.5015 374.711C44.0967 374.325 43.6735 373.976 43.1951 373.645C42.9559 373.48 42.7167 373.333 42.4222 373.205C42.1646 373.058 41.7046 373.003 41.631 372.966C40.8397 372.598 40.0485 371.753 39.3309 371C38.6132 370.21 37.9324 369.384 37.27 368.538C32.0073 361.723 27.3887 354.411 22.7517 347.118C27.1127 354.577 31.5841 361.962 36.6996 368.961C37.3436 369.824 38.0244 370.688 38.7421 371.515C39.4965 372.323 40.1405 373.168 41.2998 373.774C41.723 373.921 41.815 373.903 42.0542 374.031C42.2566 374.123 42.459 374.27 42.6798 374.399C43.0847 374.693 43.4895 375.042 43.8575 375.409C44.6119 376.144 45.3296 376.934 46.0104 377.761C48.7705 381.031 51.2546 384.558 53.8492 388.03C54.4932 388.893 55.1556 389.757 55.8365 390.62C56.5357 391.447 57.1797 392.365 58.2286 393.063C58.7438 393.339 59.167 393.798 60.1791 393.725C61.1359 393.449 61.3384 393.008 61.78 392.824C62.1848 392.604 62.6264 392.457 63.1048 392.365C63.4912 392.273 64.0249 392.31 64.5401 392.328C68.7355 392.714 72.9861 393.688 77.1999 394.533L83.5298 395.874L86.7316 396.535C88.0196 396.756 89.2341 396.499 90.3197 396.131C94.5887 394.588 98.0297 391.759 102.041 391.006L101.82 391.024C101.968 391.043 102.464 391.281 102.851 391.575C103.256 391.851 103.66 392.181 104.047 392.512C104.838 393.192 105.592 393.908 106.347 394.662C107.856 396.15 109.291 397.711 110.726 399.273C113.578 402.432 116.357 405.666 119.099 408.936C124.582 415.475 129.992 422.089 135.273 428.794L135.678 429.309L136.267 429.07L174.559 413.914L173.805 413.785L198.848 435.499L199.032 435.646L199.253 435.61L235.024 428.574Z" fill="white"/>
</svg>
