<svg width="467" height="410" viewBox="0 0 467 410" fill="none" xmlns="http://www.w3.org/2000/svg">
<path d="M0 13.6895L8.60929 204.393L231.185 209.848L249.5 5.3916L0 13.6895Z" fill="#F8C794"/>
<path d="M117.282 31.7381C122.641 40.9837 92.973 48.8393 58.0294 47.4283C36.253 46.5437 18.4647 41.8262 15.1307 36.0766C9.79211 26.831 39.4393 18.9754 74.3828 20.3865C96.1592 21.271 113.948 25.9886 117.282 31.7381Z" stroke="#973433" stroke-miterlimit="10" stroke-linecap="round" stroke-linejoin="round"/>
<path d="M158.071 177.836C158.071 182.574 154.23 186.407 149.483 186.407C144.735 186.407 140.895 182.574 140.895 177.836C140.895 173.097 144.735 169.264 149.483 169.264C154.23 169.264 158.071 173.097 158.071 177.836Z" stroke="#973433" stroke-miterlimit="10" stroke-linecap="round" stroke-linejoin="round"/>
<path d="M192.4 124.468C202.34 124.468 210.399 116.425 210.399 106.503C210.399 96.5816 202.34 88.5386 192.4 88.5386C182.459 88.5386 174.4 96.5816 174.4 106.503C174.4 116.425 182.459 124.468 192.4 124.468Z" stroke="#973433" stroke-miterlimit="10" stroke-linecap="round" stroke-linejoin="round"/>
<path d="M105.254 117.16L110.571 138.157H153.787V112.885L105.254 117.16Z" stroke="#973433" stroke-miterlimit="10" stroke-linecap="round" stroke-linejoin="round"/>
<path d="M168.492 28.2631L176.658 52.8618H218.143V24.4722L168.492 28.2631Z" stroke="#973433" stroke-miterlimit="10" stroke-linecap="round" stroke-linejoin="round"/>
<path d="M130.576 138.157L144.524 169.264" stroke="#973433" stroke-miterlimit="10" stroke-linecap="round" stroke-linejoin="round"/>
<path d="M195.439 51.9353L191.43 88.5386" stroke="#973433" stroke-miterlimit="10" stroke-linecap="round" stroke-linejoin="round"/>
<path d="M71.4902 47.5966C71.4902 47.5966 73.4738 47.5756 76.7444 47.9757" stroke="#973433" stroke-linecap="round" stroke-linejoin="round"/>
<path d="M86.6406 50.0398C102.319 54.5889 125.572 67.6043 133.19 104.776" stroke="#973433" stroke-linecap="round" stroke-linejoin="round" stroke-dasharray="4.79 4.79"/>
<path d="M134.074 109.768C134.349 111.452 134.581 113.2 134.792 114.991" stroke="#973433" stroke-linecap="round" stroke-linejoin="round"/>
<path d="M134.584 164.63L144.966 170.212L145.092 157.259" stroke="#973433" stroke-miterlimit="10" stroke-linecap="round" stroke-linejoin="round"/>
<path d="M186.53 109.936C186.656 109.936 186.741 110 186.741 110.147C186.741 110.252 186.678 110.358 186.551 110.442C186.361 110.568 186.171 110.695 185.981 110.842C185.285 111.347 184.652 111.6 184.082 111.6C183.766 111.6 183.449 111.516 183.154 111.347C182.542 111.011 182.099 110.379 181.824 109.494C181.698 109.052 181.613 108.61 181.613 108.209C181.613 107.536 181.719 106.756 181.93 105.83C182.141 104.903 182.457 103.976 182.858 103.05C183.259 102.102 183.744 101.323 184.314 100.712C184.884 100.08 185.475 99.7642 186.108 99.7642C186.741 99.7642 187.268 100.017 187.712 100.543C188.134 101.07 188.366 101.596 188.366 102.144C188.366 102.228 188.302 102.291 188.239 102.376C188.176 102.439 188.091 102.481 188.028 102.481C187.965 102.481 187.901 102.46 187.859 102.418C187.796 102.355 187.775 102.228 187.754 102.039C187.69 101.533 187.5 101.133 187.205 100.838C186.91 100.522 186.53 100.375 186.087 100.375C185.644 100.375 185.179 100.67 184.673 101.259C183.998 102.039 183.428 103.134 182.943 104.566C182.457 105.998 182.225 107.114 182.225 107.957C182.225 108.799 182.373 109.473 182.647 110.042C183.006 110.716 183.491 111.053 184.145 111.053C184.631 111.053 185.179 110.821 185.812 110.379C185.981 110.252 186.129 110.147 186.234 110.084C186.382 109.979 186.467 109.936 186.53 109.936Z" stroke="#973433" stroke-width="0.3" stroke-miterlimit="10"/>
<path d="M192.901 99.8694C193.85 99.8694 194.462 100.375 194.779 101.386C194.821 101.428 194.821 101.491 194.821 101.575C194.821 101.66 194.779 101.723 194.715 101.786C194.652 101.849 194.568 101.87 194.504 101.87C194.378 101.87 194.314 101.786 194.293 101.638C194.23 101.28 194.082 100.986 193.85 100.754C193.597 100.501 193.302 100.375 192.901 100.375C192.521 100.375 192.225 100.501 192.036 100.775C191.846 101.049 191.74 101.344 191.74 101.702C191.74 102.06 191.782 102.418 191.888 102.797C191.993 103.176 192.099 103.555 192.247 103.913C192.394 104.292 192.542 104.671 192.711 105.029C192.88 105.408 193.027 105.787 193.175 106.167C193.513 107.051 193.681 107.83 193.681 108.525C193.681 109.22 193.492 109.873 193.091 110.442C192.584 111.2 191.803 111.579 190.706 111.579C189.883 111.579 189.166 111.368 188.554 110.968C187.942 110.568 187.646 109.978 187.646 109.22C187.646 108.462 187.879 107.809 188.343 107.262C188.512 107.051 188.723 106.861 188.955 106.651C189.039 106.588 189.102 106.546 189.187 106.546C189.356 106.546 189.419 106.609 189.419 106.735C189.419 106.798 189.398 106.862 189.356 106.925C188.955 107.283 188.68 107.599 188.554 107.83C188.343 108.252 188.237 108.652 188.237 109.052C188.237 109.431 188.301 109.747 188.448 109.978C188.575 110.21 188.765 110.4 188.997 110.568C189.44 110.884 190.031 111.031 190.748 111.031C191.466 111.031 192.057 110.758 192.5 110.189C192.88 109.705 193.069 109.136 193.069 108.441C193.069 107.746 192.732 106.651 192.078 105.156C191.424 103.66 191.086 102.607 191.086 102.018C191.086 101.428 191.234 100.922 191.508 100.501C191.782 100.08 192.31 99.8694 192.901 99.8694Z" stroke="#973433" stroke-width="0.3" stroke-miterlimit="10"/>
<path d="M199.7 99.8694C200.649 99.8694 201.261 100.375 201.578 101.386C201.62 101.428 201.62 101.491 201.62 101.575C201.62 101.66 201.577 101.723 201.514 101.786C201.451 101.849 201.367 101.87 201.303 101.87C201.177 101.87 201.113 101.786 201.092 101.638C201.029 101.28 200.881 100.986 200.649 100.754C200.396 100.501 200.1 100.375 199.7 100.375C199.32 100.375 199.024 100.501 198.834 100.775C198.644 101.049 198.539 101.344 198.539 101.702C198.539 102.06 198.581 102.418 198.687 102.797C198.792 103.176 198.898 103.555 199.045 103.913C199.193 104.292 199.341 104.671 199.51 105.029C199.678 105.408 199.826 105.787 199.974 106.167C200.311 107.051 200.48 107.83 200.48 108.525C200.48 109.22 200.29 109.873 199.889 110.442C199.383 111.2 198.602 111.579 197.505 111.579C196.682 111.579 195.965 111.368 195.353 110.968C194.741 110.568 194.445 109.978 194.445 109.22C194.445 108.462 194.677 107.809 195.142 107.262C195.31 107.051 195.521 106.861 195.754 106.651C195.838 106.588 195.901 106.546 195.986 106.546C196.154 106.546 196.218 106.609 196.218 106.735C196.218 106.798 196.197 106.862 196.155 106.925C195.754 107.283 195.479 107.599 195.353 107.83C195.142 108.252 195.036 108.652 195.036 109.052C195.036 109.431 195.099 109.747 195.247 109.978C195.374 110.21 195.564 110.4 195.796 110.568C196.239 110.884 196.83 111.031 197.547 111.031C198.265 111.031 198.855 110.758 199.299 110.189C199.678 109.705 199.868 109.136 199.868 108.441C199.868 107.746 199.531 106.651 198.877 105.156C198.222 103.66 197.885 102.607 197.885 102.018C197.885 101.428 198.033 100.922 198.307 100.501C198.581 100.08 199.13 99.8694 199.7 99.8694Z" stroke="#973433" stroke-width="0.3" stroke-miterlimit="10"/>
<path d="M41.5066 26.262C41.5488 26.2409 41.6121 26.2199 41.6543 26.2199C41.6965 26.2199 41.7598 26.2409 41.802 26.262C41.8442 26.2409 41.8865 26.2199 41.9498 26.2199C42.0553 26.2199 42.1397 26.283 42.1819 26.4305C41.9498 27.2939 41.6965 28.3891 41.4433 29.6949C41.1901 31.0006 41.0213 31.843 40.958 32.2221C40.8736 32.6012 40.7892 33.1067 40.6626 33.6964C40.536 34.3071 40.3672 34.9179 40.114 35.5918C39.8607 36.2447 39.5231 36.7712 39.1011 37.1924C38.5736 37.6557 37.9194 37.9085 37.1176 37.9085C36.3157 37.9085 35.6827 37.4451 35.2396 36.5185C35.0075 36.0341 34.8809 35.7182 34.8809 35.6129C34.8809 35.5076 34.9231 35.4023 34.9864 35.3391C35.0497 35.2548 35.113 35.2338 35.1763 35.2338C35.324 35.2338 35.4084 35.297 35.4295 35.4023C35.4928 35.6761 35.5983 35.9709 35.7671 36.2868C35.9359 36.6027 36.1258 36.8765 36.379 37.0871C36.6323 37.2977 36.9488 37.4241 37.3286 37.4241C37.7084 37.4241 38.0671 37.3188 38.3837 37.1082C38.7002 36.8976 38.9745 36.6027 39.2066 36.2447C39.5864 35.6339 39.9241 34.6651 40.1984 33.3383C40.2617 33.0435 40.325 32.7276 40.4094 32.3695C40.4938 32.0115 40.5782 31.6324 40.6415 31.2323C40.7259 30.8321 40.8103 30.432 40.8947 30.0318C40.9791 29.6317 41.0635 29.2315 41.1479 28.8524C41.2323 28.4733 41.3167 28.1153 41.38 27.7573C41.4433 27.4203 41.5277 27.1255 41.5699 26.8727C41.2956 27.0412 41.0002 27.1044 40.6837 27.1044C40.3672 27.1044 40.0085 27.0412 39.5653 26.9359C39.1222 26.8096 38.7635 26.7464 38.5103 26.7253C38.4048 26.6832 38.3415 26.62 38.3415 26.5358C38.3415 26.4515 38.3837 26.3673 38.447 26.3041C38.5103 26.2199 38.5947 26.1988 38.6791 26.1777C38.8901 26.1988 39.2066 26.262 39.6286 26.3883C40.0718 26.5147 40.4094 26.5568 40.6837 26.5568C40.9791 26.4936 41.2534 26.4094 41.5066 26.262Z" stroke="#973433" stroke-width="0.3" stroke-miterlimit="10"/>
<path d="M42.7705 37.7404C42.3063 37.7404 42.0742 37.4455 42.0742 36.8769C42.0742 36.3082 42.2852 35.5922 42.7284 34.7708C43.1715 33.9495 43.6779 33.2123 44.2476 32.6226C44.8385 32.0119 45.3027 31.717 45.6825 31.717C46.0623 31.717 46.2733 31.8855 46.3155 32.2014C46.3366 32.3067 46.3367 32.412 46.3578 32.5173C46.4 32.4963 46.4422 32.4752 46.4844 32.4752C46.6743 32.4752 46.7587 32.5595 46.7587 32.749V32.7911C46.7587 32.8122 46.7165 32.9807 46.611 33.3176C46.5055 33.6546 46.4 34.2232 46.2734 35.0235C46.1467 35.8239 46.0834 36.4978 46.0834 37.0454C46.1256 37.0664 46.1678 37.0875 46.21 37.1296C46.2523 37.1717 46.3156 37.2139 46.3789 37.256C46.4422 37.3192 46.4844 37.3823 46.4844 37.4666C46.4844 37.5508 46.4633 37.614 46.4 37.6772C46.3578 37.7404 46.2733 37.7825 46.1889 37.7825C45.999 37.7825 45.8091 37.6772 45.6614 37.4876C45.5137 37.2981 45.4293 37.0875 45.4293 36.8558C45.4293 36.3714 45.5559 35.529 45.8302 34.3496C45.4926 35.0446 45.0495 35.7186 44.5219 36.3504C43.9944 37.0032 43.6146 37.3823 43.4247 37.5298C43.2137 37.6561 43.0027 37.7404 42.7705 37.7404ZM42.665 36.8979C42.665 37.0454 42.7283 37.1086 42.855 37.1086C42.9394 37.1086 43.0238 37.0875 43.066 37.0243C43.8889 36.3293 44.6275 35.3605 45.2605 34.139C45.6192 33.444 45.8302 33.0228 45.8513 32.9175C45.8724 32.8122 45.8935 32.7279 45.8935 32.6437C45.8935 32.5595 45.8724 32.4963 45.8302 32.4331C45.788 32.3699 45.7458 32.3278 45.6614 32.3278C45.577 32.3278 45.4926 32.3699 45.3449 32.4331C45.0495 32.6016 44.6697 32.9386 44.2265 33.4861C43.7834 34.0126 43.4036 34.6023 43.1082 35.2342C42.8128 35.866 42.665 36.4346 42.665 36.8979Z" stroke="#973433" stroke-width="0.3" stroke-miterlimit="10"/>
<path d="M49.8616 29.6736C51.0011 29.7578 51.5498 30.4318 51.5498 31.7165C51.5498 33.0012 51.1066 34.4333 50.2204 36.0128C49.925 36.5393 49.5873 37.0448 49.2075 37.5292C49.0809 37.6977 48.9754 37.7608 48.891 37.7608C48.68 37.7608 48.5745 37.6766 48.5534 37.5081C48.4057 36.5183 48.3002 35.6127 48.2158 34.7913C48.1314 33.9699 48.0047 32.9801 47.8359 31.8007C47.857 31.7165 47.8992 31.6533 47.9836 31.5901C48.0469 31.5269 48.1103 31.5059 48.1736 31.5059C48.2791 31.5059 48.3635 31.569 48.4057 31.7165C48.4901 32.4957 48.5956 33.3171 48.7011 34.1595C48.8066 35.0019 48.9332 35.9075 49.0387 36.8763C49.6295 35.9707 50.0305 35.2336 50.2837 34.7071C50.769 33.6119 51.0011 32.6431 51.0011 31.8007C51.0011 30.9583 50.7479 30.4528 50.2626 30.2633C50.1149 30.2001 49.9883 30.179 49.8616 30.158C49.735 30.1369 49.6717 30.1159 49.6084 30.0948C49.5662 30.0737 49.5451 30.0316 49.5451 29.9474C49.524 29.7999 49.6295 29.6946 49.8616 29.6736Z" stroke="#973433" stroke-width="0.3" stroke-miterlimit="10"/>
<path d="M52.376 37.7404C51.9118 37.7404 51.6797 37.4455 51.6797 36.8769C51.6797 36.3082 51.8907 35.5922 52.3338 34.7708C52.777 33.9495 53.2834 33.2123 53.8531 32.6226C54.4439 32.0119 54.9082 31.717 55.288 31.717C55.6467 31.717 55.8788 31.8855 55.921 32.2014C55.9421 32.3067 55.9421 32.412 55.9632 32.5173C56.0054 32.4963 56.0476 32.4752 56.0898 32.4752C56.2798 32.4752 56.3642 32.5595 56.3642 32.749V32.7911C56.3642 32.8122 56.322 32.9807 56.2164 33.3176C56.1109 33.6546 56.0054 34.2232 55.8788 35.0235C55.7522 35.8239 55.6889 36.4978 55.6889 37.0454C55.7311 37.0664 55.7733 37.0875 55.8155 37.1296C55.8577 37.1507 55.921 37.2139 55.9843 37.256C56.0476 37.3192 56.0898 37.3823 56.0898 37.4666C56.0898 37.5508 56.0687 37.614 56.0054 37.6772C55.9421 37.7404 55.8788 37.7825 55.7944 37.7825C55.6045 37.7825 55.4357 37.6772 55.2669 37.4876C55.1192 37.2981 55.0348 37.0875 55.0348 36.8558C55.0348 36.3714 55.1614 35.529 55.4357 34.3496C55.0981 35.0446 54.655 35.7186 54.1274 36.3504C53.5999 37.0032 53.2201 37.3823 53.0302 37.5298C52.8403 37.6561 52.6081 37.7404 52.376 37.7404ZM52.2916 36.8979C52.2916 37.0454 52.3549 37.1086 52.4815 37.1086C52.5659 37.1086 52.6503 37.0875 52.6926 37.0243C53.5155 36.3293 54.2329 35.3605 54.8871 34.139C55.2458 33.444 55.4568 33.0228 55.4779 32.9175C55.499 32.8122 55.5201 32.7279 55.5201 32.6437C55.5201 32.5595 55.499 32.4963 55.4568 32.4331C55.4146 32.3699 55.3724 32.3278 55.288 32.3278C55.2247 32.3278 55.1192 32.3699 54.9715 32.4331C54.6761 32.6016 54.2962 32.9386 53.8531 33.4861C53.41 34.0126 53.0302 34.6023 52.7347 35.2342C52.4393 35.866 52.2916 36.4346 52.2916 36.8979Z" stroke="#973433" stroke-width="0.3" stroke-miterlimit="10"/>
<path d="M62.0596 26.1567C63.0092 26.1567 63.6211 26.6622 63.9376 27.6731C63.9587 27.7152 63.9799 27.7784 63.9799 27.8626C63.9799 27.9469 63.9376 28.0101 63.8743 28.0733C63.811 28.1364 63.7267 28.1575 63.6633 28.1575C63.5367 28.1575 63.4734 28.0733 63.4523 27.9258C63.389 27.5678 63.2413 27.2729 63.0092 27.0413C62.756 26.7886 62.4606 26.6622 62.0808 26.6622C61.7009 26.6622 61.4055 26.7886 61.2156 27.0623C61.0257 27.3361 60.9202 27.631 60.9202 27.989C60.9202 28.347 60.9624 28.7051 61.0679 29.0842C61.1523 29.4633 61.2789 29.8423 61.4266 30.2004C61.5743 30.5795 61.722 30.9586 61.8908 31.3166C62.0596 31.6957 62.2073 32.0748 62.3551 32.4539C62.6927 33.3384 62.8615 34.1176 62.8615 34.8126C62.8615 35.5076 62.6716 36.1605 62.2707 36.7292C61.7642 37.4873 60.9835 37.8664 59.9073 37.8664C59.0844 37.8664 58.3669 37.6558 57.755 37.2557C57.1431 36.8555 56.8477 36.2658 56.8477 35.5076C56.8477 34.7495 57.0798 34.0966 57.544 33.549C57.7128 33.3384 57.9027 33.1489 58.1559 32.9382C58.2403 32.8751 58.3036 32.8329 58.388 32.8329C58.5357 32.8329 58.6201 32.8961 58.6201 33.0225C58.6201 33.0857 58.5991 33.1489 58.578 33.212C58.177 33.5701 57.9027 33.886 57.7761 34.1176C57.5651 34.5389 57.4596 34.939 57.4596 35.3392C57.4596 35.7182 57.5229 36.0341 57.6706 36.2658C57.8183 36.4975 57.9871 36.687 58.2192 36.8555C58.6623 37.1714 59.2532 37.3188 59.9706 37.3188C60.6881 37.3188 61.2789 37.0451 61.722 36.4764C62.1018 35.992 62.2918 35.4234 62.2918 34.7284C62.2918 34.0334 61.9541 32.9382 61.3 31.4429C60.6459 29.9476 60.3082 28.8946 60.3082 28.3049C60.3082 27.7152 60.456 27.2098 60.7303 26.7886C61.0257 26.3673 61.4688 26.1567 62.0596 26.1567Z" stroke="#973433" stroke-width="0.3" stroke-miterlimit="10"/>
<path d="M64.7182 36.2234C64.7182 36.9394 64.9925 37.2974 65.52 37.2974C65.7732 37.2974 66.0264 37.1711 66.2586 36.9184C66.343 36.813 66.4274 36.7288 66.5118 36.6446C66.5962 36.5603 66.6595 36.5182 66.7439 36.5182C66.9127 36.5182 66.976 36.5814 66.976 36.7288C66.976 36.9815 66.8072 37.2343 66.4907 37.487C66.1742 37.7397 65.7943 37.8661 65.3934 37.8661C64.9925 37.8661 64.676 37.7187 64.4649 37.4238C64.2539 37.129 64.1484 36.792 64.1484 36.4129C64.1484 35.7179 64.275 35.0018 64.5494 34.2437C64.8237 33.4855 65.1613 32.8747 65.5833 32.3693C66.0053 31.8638 66.4696 31.6111 66.9549 31.6111C67.2925 31.6111 67.5246 31.7374 67.6512 31.9902C67.6723 32.0534 67.7145 32.1376 67.7567 32.2429C67.7989 32.3482 67.8412 32.4114 67.8834 32.4324C67.9045 32.4956 67.9255 32.5377 67.9255 32.622C67.9255 32.7062 67.8834 32.7694 67.8201 32.8326C67.7568 32.8958 67.6723 32.9168 67.5879 32.9168C67.4191 32.9168 67.3136 32.7905 67.2503 32.5377C67.2081 32.285 67.0815 32.1587 66.8494 32.1587C66.554 32.1587 66.2375 32.3903 65.8998 32.8537C65.5833 33.317 65.309 33.8646 65.0769 34.5174C64.8448 35.1703 64.7182 35.7179 64.7182 36.2234Z" stroke="#973433" stroke-width="0.3" stroke-miterlimit="10"/>
<path d="M68.3477 37.698L68.6219 36.2658C68.7697 35.5287 68.8541 35.0233 68.9174 34.7074C68.9596 34.3915 69.0229 34.0545 69.0862 33.6965C69.1495 33.3174 69.2761 32.7908 69.4871 32.1169C69.4871 32.0959 69.466 32.0748 69.466 32.0537V32.0116C69.466 31.8221 69.5504 31.6957 69.677 31.6115C69.7192 31.5904 69.7614 31.5693 69.8247 31.5693C69.9935 31.5693 70.0779 31.6957 70.0779 31.9274C70.0779 32.0748 70.0146 32.3275 69.9091 32.6855C69.8036 33.0436 69.6981 33.3805 69.6348 33.6965C69.6981 33.6122 69.7614 33.4858 69.8458 33.3595C69.9302 33.2331 70.0569 33.0225 70.2257 32.7698C70.3945 32.5171 70.6266 32.2643 70.9009 32.0327C71.1752 31.801 71.4495 31.6746 71.7238 31.6746C71.9981 31.6746 72.2092 31.7589 72.3569 31.9063C72.4202 31.9484 72.4413 32.0116 72.4413 32.0959C72.4413 32.1801 72.3991 32.2433 72.3358 32.3065C72.2725 32.3696 72.1881 32.3907 72.1248 32.3907C72.0403 32.3907 71.977 32.3696 71.9137 32.3275C71.8504 32.2854 71.766 32.2643 71.6816 32.2643C71.5972 32.2643 71.4495 32.3275 71.2596 32.4749C70.5 33.0225 69.888 34.0966 69.4027 35.6972C69.2761 36.1184 69.1917 36.4133 69.1706 36.5818C69.1495 36.7502 69.1284 36.8766 69.1073 36.9819C68.9807 37.6137 68.8119 37.9296 68.5586 37.9296C68.4109 37.9296 68.3477 37.8454 68.3477 37.698Z" stroke="#973433" stroke-width="0.3" stroke-miterlimit="10"/>
<path d="M73.6219 32.4115V32.2851C73.6219 32.2219 73.6007 32.0956 73.5374 31.8849C73.5374 31.8007 73.5796 31.6954 73.643 31.6112C73.7063 31.5269 73.7906 31.4848 73.8962 31.4848C74.0017 31.4848 74.065 31.548 74.1283 31.6743C74.1916 31.8007 74.2127 31.9271 74.2127 32.0745C74.2127 32.2219 74.0228 33.0854 73.664 34.6649C73.2842 36.2445 73.1154 37.0658 73.1154 37.1501C73.1154 37.2343 73.1576 37.2765 73.242 37.2765C73.2842 37.2765 73.3686 37.2343 73.453 37.129C73.5375 37.0237 73.6218 36.9816 73.7063 36.9816C73.8329 36.9816 73.8962 37.0658 73.8962 37.2343C73.8962 37.4028 73.7696 37.5292 73.5374 37.6555C73.2842 37.7819 73.1154 37.8451 73.0099 37.8451C72.7356 37.8451 72.5879 37.6345 72.5879 37.1922C72.5879 37.108 72.609 37.0027 72.6512 36.8974C72.6934 36.7921 72.7356 36.6236 72.7778 36.434C72.82 36.2445 72.8833 35.9707 72.9466 35.6337C73.0099 35.2968 73.0943 34.9387 73.1787 34.5807C73.2631 34.2227 73.3686 33.7804 73.4741 33.2539C73.5585 32.7274 73.6219 32.4536 73.6219 32.4115ZM74.4448 29.6736C74.6769 29.6736 74.8035 29.7789 74.8035 30.0106C74.8035 30.3475 74.6769 30.5371 74.4448 30.5792C74.3815 30.6003 74.2971 30.6002 74.2338 30.6002C74.1705 30.6002 74.065 30.5581 74.0017 30.4739C73.9173 30.3896 73.8751 30.3054 73.8751 30.179C73.8751 30.0527 73.9384 29.9474 74.065 29.821C74.1705 29.7368 74.2971 29.6736 74.4448 29.6736Z" stroke="#973433" stroke-width="0.3" stroke-miterlimit="10"/>
<path d="M76.702 33.2964C77.2717 32.2012 77.9048 31.6537 78.58 31.6537C78.9387 31.6537 79.192 31.759 79.3397 31.9696C79.4874 32.1802 79.5718 32.475 79.5718 32.8752C79.5718 33.6123 79.4663 34.3705 79.2553 35.1287C79.0443 35.8868 78.7277 36.5397 78.3057 37.0873C77.8837 37.6138 77.3773 37.8876 76.8075 37.8876C76.5965 37.8876 76.4066 37.8455 76.28 37.7402C76.1534 37.6349 76.0268 37.4874 75.9635 37.2768C75.7524 38.1824 75.5626 39.088 75.3938 39.9726C75.2249 40.8571 75.035 41.6785 74.824 42.3946C74.7396 42.563 74.6341 42.6262 74.4864 42.6262C74.3598 42.6262 74.2965 42.542 74.2754 42.3946C74.5286 41.3836 74.7396 40.478 74.9084 39.6567C75.0561 38.8353 75.1827 38.2246 75.2671 37.7823C75.3516 37.34 75.4782 36.7293 75.6259 35.9079C75.7736 35.0865 76.0268 33.8229 76.3855 32.0749V31.8011C76.3855 31.7168 76.4277 31.6537 76.491 31.5694C76.5754 31.5062 76.6598 31.4641 76.7442 31.4641C76.8286 31.4641 76.913 31.5062 76.9552 31.5694C76.9974 31.6326 77.0185 31.7168 77.0185 31.78C77.0185 31.8432 77.0185 31.9064 76.9974 31.9696C76.9763 32.0327 76.9763 32.0749 76.9552 32.1381C76.9341 32.1802 76.913 32.2434 76.913 32.2855C76.913 32.3276 76.8919 32.3908 76.8919 32.4118L76.702 33.2964ZM76.1956 36.3923C76.1956 37.003 76.4277 37.319 76.8919 37.319C77.3139 37.319 77.7149 37.0662 78.0736 36.5397C78.5378 35.8658 78.8332 34.9812 78.9809 33.865C79.0231 33.5491 79.0442 33.2543 79.0442 32.9805C79.0442 32.475 78.9177 32.2012 78.6644 32.2012C78.4112 32.2012 78.1158 32.3908 77.7782 32.7488C77.3139 33.2753 76.9341 33.8861 76.6387 34.6021C76.3222 35.2971 76.1956 35.9079 76.1956 36.3923Z" stroke="#973433" stroke-width="0.3" stroke-miterlimit="10"/>
<path d="M81.4719 32.2224C81.1343 32.2224 80.8389 32.2435 80.6068 32.2856C80.4379 32.2645 80.3535 32.2013 80.3535 32.075C80.3535 32.0118 80.3746 31.9276 80.4379 31.8644C80.5012 31.8012 80.5856 31.738 80.6701 31.738L81.5563 31.7591C81.5774 31.6748 81.5985 31.5695 81.5985 31.4642C81.6196 31.3589 81.6407 31.1904 81.704 30.9588C81.7462 30.7271 81.8095 30.5376 81.8939 30.348C81.9783 30.1795 82.0838 30.0742 82.2104 30.0742C82.337 30.0742 82.4003 30.1374 82.4003 30.2848V30.3691C82.2948 30.8535 82.1893 31.3168 82.1049 31.738H82.9701C83.2866 31.738 83.4765 31.7591 83.5398 31.8012C83.6031 31.8433 83.6453 31.9065 83.6453 31.9697C83.6453 32.096 83.5609 32.2013 83.3921 32.2435C83.3077 32.2645 83.1178 32.2856 82.8646 32.2856C82.5902 32.2856 82.3159 32.2856 81.9994 32.2435C81.915 32.6436 81.7462 33.3597 81.493 34.4338C81.2398 35.5078 81.1132 36.1818 81.1132 36.4977C81.1132 36.8136 81.1554 37.0032 81.2187 37.1085C81.2609 37.1716 81.3664 37.1927 81.4719 37.1927C81.5985 37.1927 81.704 37.1506 81.7884 37.0874C81.8728 37.0242 81.9572 36.94 82.0205 36.8557C82.0838 36.7715 82.1682 36.6872 82.2315 36.6241C82.2948 36.5609 82.3792 36.5188 82.4636 36.5188C82.6324 36.5188 82.7169 36.603 82.7169 36.7504C82.7169 36.8347 82.6324 36.961 82.4636 37.1506C82.2948 37.3401 82.1471 37.4875 81.9994 37.5928C81.8728 37.6981 81.6618 37.7403 81.3875 37.7403C81.1132 37.7403 80.9444 37.6982 80.8389 37.6139C80.6279 37.4454 80.5223 37.1506 80.5223 36.7504C80.5223 36.5398 80.5434 36.3082 80.5856 36.0344L80.6911 35.3604C80.7755 35.0235 80.8389 34.7286 80.9022 34.4759C80.9655 34.2232 81.0077 34.0125 81.0499 33.8019C81.0921 33.6124 81.1554 33.3597 81.2187 33.0648C81.3453 32.791 81.4086 32.4962 81.4719 32.2224Z" stroke="#973433" stroke-width="0.3" stroke-miterlimit="10"/>
<path d="M118.124 124.931C118.124 124.7 118.208 124.573 118.356 124.573C118.44 124.573 118.504 124.594 118.525 124.615C118.546 124.637 118.609 124.679 118.672 124.721C118.757 124.763 118.947 124.784 119.305 124.784C119.643 124.784 120.023 124.7 120.382 124.531C120.761 124.363 121.078 124.131 121.352 123.836C121.922 123.225 122.217 122.488 122.217 121.646C122.217 120.993 122.028 120.445 121.669 119.982C121.31 119.519 120.825 119.308 120.234 119.308C119.77 119.308 119.411 119.35 119.158 119.392L116.605 130.197C116.562 130.323 116.436 130.407 116.225 130.407C116.014 130.407 115.908 130.344 115.908 130.218C115.908 130.175 115.908 130.133 115.929 130.091C115.95 130.049 115.972 129.944 116.014 129.754C116.119 129.312 116.457 127.901 117.027 125.542C117.596 123.162 118.082 121.204 118.483 119.666C118.356 119.75 118.187 119.856 117.997 120.003C117.997 120.087 117.934 120.172 117.85 120.235C117.765 120.298 117.66 120.319 117.554 120.319L117.385 120.277C117.259 120.235 117.195 120.151 117.195 120.024C117.195 119.814 117.343 119.603 117.638 119.413C117.934 119.224 118.293 119.098 118.736 118.992C118.905 118.655 119.052 118.487 119.179 118.487C119.284 118.487 119.369 118.613 119.411 118.887C119.601 118.866 119.791 118.845 119.96 118.845C120.93 118.845 121.648 119.14 122.154 119.729C122.555 120.214 122.766 120.867 122.766 121.688C122.766 122.72 122.407 123.583 121.711 124.278C121.015 124.973 120.023 125.31 118.757 125.31C118.757 126.637 119.01 127.943 119.538 129.207C120.15 130.702 121.078 131.797 122.302 132.513C123.251 133.061 124.349 133.335 125.636 133.335C126.923 133.335 128.084 132.955 129.16 132.218C129.476 131.987 129.814 131.734 130.152 131.46C130.194 131.439 130.236 131.418 130.32 131.418C130.489 131.418 130.574 131.481 130.574 131.629C130.574 131.713 130.531 131.797 130.468 131.86C129.793 132.471 129.118 132.934 128.463 133.229C127.577 133.65 126.564 133.861 125.446 133.861C124.328 133.861 123.23 133.587 122.175 133.019C120.276 131.987 119.01 130.281 118.398 127.859C118.229 127.037 118.124 126.048 118.124 124.931Z" stroke="#973433" stroke-width="0.3" stroke-miterlimit="10"/>
<path d="M125.761 129.417C125.93 129.417 125.993 129.48 125.993 129.628C125.993 129.796 125.761 129.986 125.276 130.196C124.79 130.407 124.41 130.512 124.094 130.512C123.777 130.512 123.545 130.47 123.376 130.386C123.208 130.302 123.102 130.175 122.997 130.007C122.807 129.691 122.701 129.312 122.701 128.87C122.701 128.09 122.828 127.353 123.102 126.658C123.376 125.963 123.735 125.395 124.178 124.931C124.621 124.489 125.107 124.257 125.634 124.257C125.909 124.257 126.141 124.363 126.288 124.552C126.436 124.742 126.52 124.994 126.52 125.268C126.52 125.774 126.373 126.216 126.056 126.574C125.74 126.932 125.36 127.227 124.917 127.437C124.474 127.648 123.946 127.88 123.355 128.09L123.334 128.954C123.334 129.628 123.566 129.965 124.031 129.965C124.284 129.965 124.558 129.902 124.832 129.775C125.107 129.649 125.318 129.565 125.423 129.501C125.529 129.438 125.698 129.417 125.761 129.417ZM125.93 125.31C125.93 124.994 125.782 124.847 125.487 124.847C125.212 124.847 124.896 125.058 124.537 125.479C124.178 125.9 123.862 126.448 123.63 127.143C123.566 127.311 123.545 127.437 123.524 127.522C123.693 127.437 123.883 127.353 124.073 127.269C124.263 127.185 124.453 127.101 124.621 127.016C125.043 126.827 125.36 126.574 125.592 126.321C125.803 126.069 125.93 125.732 125.93 125.31Z" stroke="#973433" stroke-width="0.3" stroke-miterlimit="10"/>
<path d="M127.748 130.407C127.22 130.407 126.967 130.112 126.967 129.544C126.967 128.975 127.22 128.259 127.705 127.438C128.191 126.595 128.781 125.879 129.436 125.268C130.111 124.658 130.638 124.363 131.06 124.363C131.482 124.363 131.715 124.531 131.778 124.847C131.799 124.952 131.82 125.037 131.82 125.163C131.862 125.142 131.904 125.121 131.968 125.121C132.179 125.121 132.284 125.205 132.284 125.395V125.437C132.284 125.437 132.221 125.626 132.115 125.963C132.01 126.3 131.883 126.869 131.736 127.648C131.588 128.427 131.525 129.122 131.525 129.67C131.567 129.691 131.609 129.712 131.672 129.754C131.736 129.775 131.799 129.839 131.883 129.881C131.968 129.944 132.01 130.007 132.01 130.091C132.01 130.176 131.989 130.239 131.926 130.302C131.862 130.365 131.778 130.407 131.672 130.407C131.461 130.407 131.25 130.302 131.082 130.112C130.913 129.923 130.807 129.712 130.807 129.481C130.807 128.996 130.955 128.154 131.271 126.974C130.892 127.669 130.385 128.343 129.794 128.975C129.182 129.628 128.76 130.007 128.528 130.154C128.275 130.323 128.022 130.407 127.748 130.407ZM127.663 129.565C127.663 129.712 127.726 129.775 127.874 129.775C127.98 129.775 128.064 129.754 128.127 129.691C129.056 128.996 129.9 128.027 130.638 126.806C131.06 126.111 131.271 125.711 131.314 125.605C131.335 125.5 131.356 125.416 131.356 125.332C131.356 125.247 131.335 125.184 131.293 125.121C131.25 125.058 131.187 125.016 131.103 125.016C131.018 125.016 130.913 125.058 130.744 125.121C130.406 125.289 129.963 125.626 129.457 126.174C128.95 126.701 128.528 127.29 128.191 127.922C127.832 128.554 127.663 129.101 127.663 129.565Z" stroke="#973433" stroke-width="0.3" stroke-miterlimit="10"/>
<path d="M134.057 128.891C134.057 129.607 134.352 129.944 134.964 129.944C135.26 129.944 135.534 129.817 135.808 129.565C135.914 129.459 135.998 129.375 136.083 129.291C136.167 129.206 136.251 129.185 136.357 129.185C136.526 129.185 136.631 129.249 136.631 129.396C136.631 129.649 136.441 129.901 136.083 130.154C135.724 130.407 135.302 130.533 134.838 130.533C134.373 130.533 134.015 130.386 133.783 130.091C133.55 129.796 133.424 129.459 133.424 129.08C133.424 128.385 133.572 127.648 133.867 126.911C134.162 126.174 134.563 125.542 135.049 125.037C135.534 124.531 136.061 124.278 136.589 124.278C136.99 124.278 137.243 124.405 137.37 124.636C137.391 124.7 137.433 124.784 137.475 124.889C137.517 124.994 137.56 125.058 137.623 125.079C137.665 125.121 137.686 125.184 137.686 125.268C137.686 125.352 137.644 125.416 137.581 125.479C137.496 125.542 137.412 125.563 137.328 125.563C137.138 125.563 137.011 125.437 136.948 125.184C136.884 124.931 136.737 124.805 136.505 124.805C136.167 124.805 135.808 125.037 135.428 125.479C135.049 125.921 134.753 126.49 134.5 127.143C134.183 127.816 134.057 128.406 134.057 128.891Z" stroke="#973433" stroke-width="0.3" stroke-miterlimit="10"/>
<path d="M139.479 124.889C139.099 124.889 138.762 124.91 138.487 124.952C138.297 124.931 138.213 124.868 138.213 124.742C138.213 124.679 138.255 124.594 138.318 124.531C138.382 124.447 138.487 124.405 138.593 124.405L139.584 124.426C139.606 124.342 139.627 124.236 139.648 124.131C139.669 124.026 139.711 123.857 139.753 123.626C139.817 123.415 139.88 123.204 139.964 123.015C140.049 122.846 140.175 122.741 140.323 122.741C140.471 122.741 140.555 122.804 140.555 122.952V123.036C140.429 123.52 140.323 123.984 140.218 124.405H141.209C141.568 124.405 141.779 124.426 141.842 124.468C141.906 124.51 141.969 124.573 141.969 124.636C141.969 124.763 141.863 124.868 141.674 124.91C141.568 124.931 141.378 124.952 141.083 124.952C140.787 124.952 140.45 124.931 140.112 124.91C140.028 125.289 139.838 126.026 139.542 127.101C139.247 128.175 139.099 128.849 139.099 129.164C139.099 129.48 139.141 129.67 139.226 129.775C139.289 129.838 139.373 129.859 139.521 129.859C139.669 129.859 139.774 129.817 139.88 129.754C139.985 129.691 140.07 129.607 140.154 129.522C140.239 129.438 140.323 129.354 140.386 129.291C140.45 129.228 140.555 129.186 140.64 129.186C140.829 129.186 140.914 129.27 140.914 129.417C140.914 129.501 140.829 129.628 140.64 129.817C140.45 130.007 140.281 130.154 140.112 130.26C139.964 130.365 139.732 130.407 139.416 130.407C139.099 130.407 138.909 130.365 138.804 130.281C138.572 130.091 138.445 129.817 138.445 129.417C138.445 129.207 138.466 128.975 138.529 128.701L138.656 128.027C138.74 127.69 138.825 127.395 138.888 127.143C138.951 126.89 139.015 126.679 139.057 126.49C139.099 126.3 139.162 126.047 139.247 125.753C139.352 125.458 139.416 125.163 139.479 124.889Z" stroke="#973433" stroke-width="0.3" stroke-miterlimit="10"/>
<path d="M177.922 42.6056L177.943 42.711C177.943 42.7952 177.901 42.8794 177.837 42.9426C177.774 43.0058 177.711 43.0479 177.626 43.0479C177.457 43.0479 177.373 42.9216 177.373 42.6899C177.373 42.2266 177.858 41.7 178.808 41.1314C179.146 40.9419 179.399 40.8155 179.61 40.7313C179.821 40.647 180.032 40.5838 180.243 40.4785C180.454 40.3943 180.644 40.31 180.791 40.2679C180.939 40.2258 181.045 40.1837 181.087 40.1837C181.256 39.4887 181.382 38.7516 181.488 37.9934C181.593 37.2352 181.657 36.6455 181.699 36.1822C181.741 35.7188 181.804 35.2976 181.868 34.8554C181.889 34.6658 182.015 34.5605 182.226 34.5605C182.311 34.5605 182.374 34.5816 182.395 34.6026C182.416 34.6237 182.437 34.6869 182.437 34.7501C182.353 35.8663 182.1 37.6143 181.699 40.0152C182.923 39.6993 184.463 39.5097 186.32 39.4255C186.594 37.4458 186.742 36.3507 186.805 36.119C186.974 35.424 187.08 34.9607 187.08 34.7079C187.101 34.6237 187.143 34.5605 187.227 34.4973C187.291 34.4341 187.375 34.4131 187.438 34.4131C187.544 34.4131 187.607 34.4763 187.649 34.6237C187.628 34.8343 187.607 35.087 187.544 35.3398L187.396 35.9716C187.333 36.2664 187.248 36.7929 187.143 37.5301C187.037 38.2672 186.953 38.8779 186.89 39.3834L189.654 39.2991C189.781 39.3413 189.865 39.4044 189.865 39.5097C189.865 39.5729 189.844 39.6572 189.781 39.7204C189.717 39.7835 189.654 39.8257 189.57 39.8467C189.105 39.8678 188.662 39.8888 188.198 39.8888C187.734 39.8888 187.27 39.9099 186.805 39.9099C186.742 40.4785 186.636 41.1103 186.489 41.7843C186.341 42.4793 186.214 43.1532 186.088 43.8272C185.961 44.5011 185.898 45.1961 185.856 45.8911C185.835 45.9964 185.792 46.0596 185.729 46.1438C185.666 46.2281 185.581 46.2491 185.497 46.2491C185.37 46.2491 185.307 46.1649 185.286 45.9964C185.307 45.2803 185.391 44.5643 185.518 43.8903C185.645 43.1953 185.75 42.6478 185.835 42.2476C185.919 41.8475 186.003 41.4263 186.067 41.005L186.236 39.952C184.358 40.0363 182.796 40.2258 181.53 40.5628C181.277 41.5316 181.024 42.5003 180.749 43.4691C180.475 44.4169 180.222 45.3646 179.968 46.2912C179.884 46.4597 179.779 46.5229 179.631 46.5229C179.504 46.5229 179.441 46.4387 179.42 46.2912C179.652 45.3856 179.884 44.48 180.158 43.5534C180.433 42.6267 180.686 41.679 180.939 40.7313C179.905 41.0682 179.082 41.4684 178.47 41.9528C178.428 41.9738 178.386 42.016 178.323 42.0581C178.048 42.2476 177.922 42.4161 177.922 42.5425C177.922 42.5846 177.922 42.5846 177.922 42.6056Z" stroke="#973433" stroke-width="0.3" stroke-miterlimit="10"/>
<path d="M192.08 35.2767C191.152 35.2556 190.519 35.2345 190.16 35.2345C189.802 35.2345 189.443 35.2556 189.021 35.2767C188.852 35.2556 188.768 35.1924 188.768 35.0661C188.768 34.8344 188.979 34.7291 189.379 34.687C189.485 34.687 189.612 34.687 189.717 34.687L192.207 34.7291C192.313 34.3921 192.481 34.2236 192.671 34.2236C192.777 34.2236 192.861 34.2868 192.882 34.4342L192.903 34.687V34.7501C193.136 34.7501 193.325 34.7291 193.515 34.7291C193.684 34.708 193.853 34.708 194.001 34.687C194.148 34.687 194.38 34.6659 194.697 34.6448C194.992 34.6238 195.33 34.6238 195.71 34.6238H196.153C196.195 34.6238 196.259 34.6238 196.322 34.6027C196.47 34.6448 196.533 34.708 196.533 34.7923C196.533 35.045 196.343 35.1503 195.942 35.1503C195.436 35.1503 194.887 35.1714 194.296 35.2135C193.705 35.2556 193.178 35.2767 192.692 35.2767C192.566 35.9295 192.397 36.6667 192.207 37.5091C192.017 38.3304 191.722 39.6994 191.342 41.5738C190.962 43.4692 190.667 45.0277 190.456 46.2703C190.435 46.3756 190.392 46.4388 190.329 46.523C190.266 46.5862 190.202 46.6283 190.139 46.6283C190.013 46.6283 189.928 46.5441 189.907 46.3756C190.139 44.3959 190.688 41.6791 191.511 38.2041C191.637 37.6986 191.722 37.3195 191.785 37.0879C191.848 36.8562 191.891 36.6667 191.912 36.5403C191.933 36.4139 191.954 36.2876 191.975 36.1401C191.996 35.9927 192.017 35.8453 192.038 35.6979C192.059 35.5505 192.059 35.403 192.08 35.2767Z" stroke="#973433" stroke-width="0.3" stroke-miterlimit="10"/>
<path d="M204.149 34.8555C204.254 34.6659 204.381 34.5606 204.507 34.5606C204.634 34.5606 204.697 34.6238 204.697 34.7291C204.697 34.7291 204.697 34.7502 204.697 34.7712C204.444 38.7306 204.317 42.3741 204.296 45.7017C204.339 45.807 204.339 45.9123 204.296 45.9965C204.212 46.1861 204.085 46.2703 203.959 46.2703C203.811 46.2703 203.727 46.1439 203.705 45.8701C203.705 45.7859 203.705 45.5542 203.705 45.133C203.705 44.7118 203.705 44.1221 203.748 43.3639C203.769 42.6058 203.79 41.8265 203.832 41.0473C203.874 40.268 203.895 39.5098 203.917 38.7306C203.938 37.9514 203.98 37.1932 204.001 36.4561C203.6 37.3195 202.925 38.6464 201.954 40.4786C200.983 42.2898 200.329 43.5324 200.013 44.1853C199.928 44.3538 199.823 44.438 199.696 44.438C199.591 44.438 199.506 44.3748 199.464 44.2695C199.253 43.3429 198.937 41.9318 198.536 40.0785C198.135 38.2252 197.839 36.9194 197.671 36.1612C197.396 37.488 196.995 39.3203 196.404 41.637C195.835 43.9747 195.476 45.4279 195.349 46.0176C195.265 46.1861 195.16 46.2492 195.012 46.2492C194.885 46.2492 194.822 46.165 194.801 46.0176C195.054 44.6276 195.497 42.6689 196.109 40.1417C196.721 37.6144 197.143 35.8453 197.375 34.8344C197.396 34.7502 197.438 34.687 197.523 34.6238C197.607 34.5606 197.649 34.5396 197.713 34.5396C197.818 34.5396 197.903 34.6027 197.945 34.7291C198.282 36.1612 198.62 37.6986 198.958 39.3203C199.295 40.942 199.57 42.2267 199.802 43.1323C200.35 42.2056 200.836 41.3 201.3 40.3944C201.764 39.4888 202.228 38.5832 202.672 37.6986C203.115 36.8562 203.621 35.8874 204.149 34.8555Z" stroke="#973433" stroke-width="0.3" stroke-miterlimit="10"/>
<path d="M205.479 46.1437C205.437 46.1648 205.395 46.1648 205.352 46.1648C205.31 46.1648 205.268 46.1437 205.247 46.0805C205.205 46.0174 205.184 45.9331 205.184 45.8278C205.184 45.7225 205.247 45.554 205.352 45.3855C205.479 45.196 205.542 45.0275 205.606 44.838C205.648 44.6484 205.753 44.2693 205.922 43.6796C206.091 43.0899 206.239 42.416 206.386 41.6157C206.534 40.8365 206.745 39.7624 207.041 38.4566C207.336 37.1298 207.568 35.9715 207.779 34.9816C207.8 34.8974 207.842 34.8342 207.927 34.771C208.011 34.7078 208.074 34.6868 208.138 34.6868C208.243 34.6868 208.307 34.75 208.349 34.8974C208.159 35.6977 207.906 36.9192 207.589 38.583C207.252 40.2468 207.019 41.384 206.872 41.9737C206.724 42.5634 206.597 43.1742 206.471 43.7849C206.344 44.3957 206.196 44.9643 206.049 45.5119C206.914 45.6593 207.61 45.7225 208.159 45.7225H208.412L209.488 45.6804C209.636 45.6804 209.91 45.6593 210.29 45.6172C210.438 45.6593 210.501 45.7225 210.501 45.8278C210.501 45.891 210.48 45.9542 210.417 46.0384C210.353 46.1016 210.29 46.1437 210.206 46.1858C209.636 46.249 209.108 46.2701 208.581 46.2701L205.479 46.1437Z" stroke="#973433" stroke-width="0.3" stroke-miterlimit="10"/>
<path opacity="0.64" d="M234.454 0L257.18 21.4186L250.765 28.1369L226.879 5.47575L234.454 0Z" fill="#98E0C1"/>
<path d="M268.851 361.21C268.83 371.045 286.133 372.878 296.431 373.825C298.435 373.994 300.166 374.162 301.474 374.31C318.292 376.479 337.093 380.754 352.286 388.336C354.881 389.621 357.603 390.969 360.367 392.316C368.913 396.465 378.219 400.699 387.778 403.921C409.343 411.208 432.154 413.293 450.132 397.497C456.525 391.874 461.189 384.524 463.953 376.458C467.477 366.264 467.962 354.934 465.092 344.572C464.27 341.581 463.172 338.675 461.78 335.874C453.888 320.079 437.851 309.864 422.658 301.967L406.241 315.087C406.79 314.624 412.593 318.31 413.141 318.625C418.438 321.616 423.502 325.049 428.102 329.008C437.766 337.306 446.059 349.437 444.603 362.726C443.759 370.371 440.045 376.205 434.77 380.059C428.461 384.693 419.957 386.504 411.517 385.303C410.968 385.219 410.419 385.135 409.871 385.051C394.72 382.376 381.215 372.709 367.879 365.843C363.343 363.506 358.7 361.336 353.995 359.378C344.689 355.46 335.088 352.28 325.276 349.943C324.348 349.711 323.398 349.479 322.47 349.29C317.236 348.131 311.877 347.163 306.517 346.657C298.372 345.92 290.206 346.278 282.293 348.679C276.469 350.448 268.873 354.197 268.851 361.21Z" fill="#F09C46"/>
<path opacity="0.2" d="M268.851 361.21C268.83 371.045 286.133 372.878 296.431 373.825C298.435 373.994 300.166 374.162 301.474 374.31C318.292 376.479 337.093 380.754 352.286 388.336C354.881 389.621 357.603 390.969 360.367 392.316C368.913 396.465 378.219 400.699 387.778 403.921C409.343 411.208 432.154 413.293 450.132 397.497C456.525 391.874 461.189 384.524 463.953 376.458C467.477 366.264 467.962 354.934 465.092 344.572C464.27 341.581 463.172 338.675 461.78 335.874C453.888 320.079 437.851 309.864 422.658 301.967L406.241 315.087C406.79 314.624 412.593 318.31 413.141 318.625C418.438 321.616 423.502 325.049 428.102 329.008C437.766 337.306 446.059 349.437 444.603 362.726C443.759 370.371 440.045 376.205 434.77 380.059C428.461 384.693 419.957 386.504 411.517 385.303C410.968 385.219 410.419 385.135 409.871 385.051C394.72 382.376 381.215 372.709 367.879 365.843C363.343 363.506 358.7 361.336 353.995 359.378C344.689 355.46 335.088 352.28 325.276 349.943C324.348 349.711 323.398 349.479 322.47 349.29C317.236 348.131 311.877 347.163 306.517 346.657C298.372 345.92 290.206 346.278 282.293 348.679C276.469 350.448 268.873 354.197 268.851 361.21Z" fill="#973433"/>
<path d="M268.85 361.21C268.829 371.045 286.132 372.878 296.429 373.825C293.939 367.928 284.803 363.632 284.803 363.632C296.809 361.168 303.414 352.343 306.516 346.657C298.371 345.92 290.204 346.278 282.291 348.679C276.468 350.448 268.871 354.197 268.85 361.21Z" fill="#973433"/>
<path d="M325.297 349.922C325.592 356.303 327.681 364.222 335.911 365.464C344.731 366.791 350.745 362.642 354.016 359.357C344.731 355.461 335.109 352.259 325.297 349.922Z" fill="#973433"/>
<path d="M360.388 392.295C368.934 396.444 378.24 400.677 387.799 403.9C387.145 399.329 384.992 393.074 378.535 389.936C372.522 387.009 365.495 389.473 360.388 392.295Z" fill="#973433"/>
<path d="M409.913 385.051C413.965 390.4 420.4 396.676 427.026 393.938C433.019 391.453 434.601 385.198 434.812 380.081C428.503 384.714 419.999 386.525 411.559 385.325C411.01 385.219 410.462 385.135 409.913 385.051Z" fill="#973433"/>
<path d="M456.651 360.157C456.461 368.244 460.829 373.783 463.994 376.437C467.518 366.243 468.003 354.913 465.133 344.551C461.546 347.584 456.799 352.933 456.651 360.157Z" fill="#973433"/>
<path d="M233.527 154.374C233.527 154.374 212.32 174.761 206.053 183.733C206.053 183.733 189.678 165.979 183.939 162.588C178.199 159.197 174.654 162.588 174.654 162.588C174.654 162.588 164.547 159.745 161.825 168.738C161.825 168.738 155.558 171.454 157.457 183.712C159.377 195.969 188.581 232.741 215.591 228.107C242.621 223.516 233.527 154.374 233.527 154.374Z" fill="#F09C46"/>
<path opacity="0.2" d="M233.527 154.374C233.527 154.374 212.32 174.761 206.053 183.733C206.053 183.733 189.678 165.979 183.939 162.588C178.199 159.197 174.654 162.588 174.654 162.588C174.654 162.588 164.547 159.745 161.825 168.738C161.825 168.738 155.558 171.454 157.457 183.712C159.377 195.969 188.581 232.741 215.591 228.107C242.621 223.516 233.527 154.374 233.527 154.374Z" fill="#973433"/>
<path d="M164.756 176.34C165.579 176.783 166.191 177.583 166.402 178.51C166.507 178.952 166.507 179.415 166.317 179.815C166.085 180.279 165.6 180.573 165.115 180.721C164.608 180.847 164.081 180.847 163.574 180.847C163.131 180.847 162.667 180.826 162.224 180.721C161.781 180.616 161.359 180.363 161.105 180.005C160.915 179.71 160.831 179.352 160.789 178.994C160.578 176.656 162.582 175.182 164.756 176.34Z" fill="#F8C794"/>
<path d="M183.938 167.537C183.98 168.127 183.938 168.737 183.6 169.222C183.115 169.917 182.144 170.085 181.321 170.001C180.583 169.917 179.844 169.664 179.274 169.18C178.072 168.127 178.177 165.726 179.95 165.347C181.553 165.01 183.79 165.726 183.938 167.537Z" fill="#F8C794"/>
<path d="M176.174 174.887C179.339 174.361 182.968 175.056 185.69 176.509C186.682 177.035 187.632 177.878 188.18 178.889C188.539 179.542 188.687 180.342 188.497 181.058C188.159 182.259 186.978 182.954 185.838 183.227C184.635 183.522 182.42 182.975 181.702 184.154C179.972 187.018 177.187 189.651 173.81 187.208C169.527 184.112 168.852 177.12 174.57 175.266C175.077 175.098 175.625 174.972 176.174 174.887Z" fill="#F8C794"/>
<path d="M170.793 166.442C172.228 167.284 172.945 169.053 172.777 170.717C172.734 171.075 172.65 171.433 172.354 171.644C172.143 171.791 171.89 171.812 171.637 171.833C170.139 171.897 168.62 171.475 167.353 170.654C166.277 169.959 164.716 168.043 166.151 166.947C167.459 165.979 169.379 165.6 170.793 166.442Z" fill="#F8C794"/>
<g opacity="0.48">
<path d="M206.051 183.754C204.848 184.722 203.941 185.944 203.181 187.25C202.4 188.555 201.852 189.967 201.43 191.42C200.628 194.326 200.543 197.506 201.577 200.37C201.936 198.875 202.147 197.464 202.464 196.074C202.759 194.684 203.076 193.315 203.455 191.967C204.173 189.229 205.101 186.618 206.051 183.754Z" fill="#973433"/>
</g>
<path d="M218.188 241.944C222.873 261.489 234.162 279.285 244.417 287.73C272.967 311.255 317.301 318.331 327.429 319.679C328.801 319.847 329.539 319.932 329.539 319.932C328.864 320.016 328.189 320.1 327.535 320.163C325.509 320.416 323.547 320.648 321.648 320.9C303.163 323.175 291.241 325.113 291.895 331.515C292.401 336.548 342.221 337.328 355.789 336.78C369.357 336.233 365.622 328.082 365.622 328.082C365.622 328.082 375.477 330.041 388.813 329.704C394.531 329.556 400.861 328.967 407.339 327.64C414.05 326.25 420.908 324.038 427.343 320.627C431.121 318.626 434.729 316.225 438.084 313.34C442.916 309.17 447.242 304.01 450.702 297.607C453.087 293.185 455.049 288.172 456.484 282.507V282.486C457.729 277.663 458.552 272.377 458.953 266.564C459.016 265.532 459.08 264.521 459.101 263.51C459.27 259.34 459.122 255.318 458.742 251.464C458.172 245.714 457.054 240.238 455.471 235.079C453.994 230.256 452.116 225.664 449.901 221.326C446.904 215.429 443.275 209.974 439.266 204.983C435.953 200.834 432.344 197.001 428.567 193.421C424.326 189.398 419.874 185.755 415.337 182.406C409.893 178.405 404.364 174.887 398.983 171.813C394.404 169.201 389.931 166.905 385.732 164.926C379.824 162.125 374.464 159.934 370.138 158.313C363.597 155.849 359.398 154.69 359.165 154.627C359.165 154.627 291.452 116.107 246.042 143.802C227.557 155.069 217.977 177.688 215.593 201.571C214.179 215.282 215.171 229.35 218.188 241.944Z" fill="#F09C46"/>
<path d="M366.464 145.192C359.733 157.196 346.84 166.084 325.929 169.79C287.82 176.53 235.152 158.818 235.152 158.818C235.152 158.818 228.188 145.044 227.006 142.77C224.58 138.115 220.972 129.08 221.351 117.349C221.351 116.654 221.394 115.938 221.457 115.222C221.583 113.643 221.752 112.021 222.027 110.378C222.027 110.315 222.048 110.252 222.048 110.168C222.259 108.862 222.533 107.493 222.871 106.124C222.934 105.829 222.997 105.534 223.082 105.24C223.166 104.945 223.229 104.671 223.314 104.376C224.031 101.807 224.875 99.2374 225.888 96.7101C226.078 96.2046 226.289 95.7203 226.5 95.2148C226.964 94.1407 227.45 93.0877 227.998 92.0347C228.04 91.9504 228.083 91.8451 228.125 91.7398C229.18 89.6759 230.383 87.6541 231.754 85.7165C232.092 85.2532 232.429 84.7477 232.809 84.3054C237.979 77.545 245.322 71.9218 255.978 68.6574C262.541 66.6145 270.391 65.4983 279.759 65.5826C279.865 65.5826 279.97 65.5826 280.097 65.5826C280.477 65.5826 280.857 65.5826 281.237 65.6036C281.553 65.6036 281.891 65.6247 282.228 65.6247C284.022 65.6879 285.858 65.7721 287.757 65.9195C288.58 65.9617 289.424 66.0459 290.289 66.1301C290.521 66.1512 290.774 66.1933 291.006 66.1933C291.281 66.2144 291.555 66.2565 291.829 66.2776C292.483 66.3408 293.117 66.425 293.75 66.4882C294.087 66.5092 294.425 66.5514 294.762 66.5935C301.008 67.2885 306.874 68.152 312.361 69.1839C312.551 69.226 312.741 69.2682 312.931 69.2892C313.669 69.4367 314.408 69.563 315.146 69.7315C315.716 69.8579 316.307 69.9632 316.876 70.0895H316.898C317.594 70.237 318.269 70.3844 318.923 70.5318C321.772 71.1847 324.494 71.8586 327.111 72.6168C327.469 72.701 327.807 72.8063 328.144 72.9117C328.609 73.038 329.052 73.1854 329.474 73.3118C348.887 79.1877 361.695 87.8647 367.773 98.8162C369.608 102.102 370.853 105.598 371.444 109.304C371.507 109.641 371.55 109.978 371.613 110.315C371.676 110.884 371.761 111.453 371.824 112C371.866 112.337 371.887 112.653 371.929 112.969C372.373 117.349 372.457 121.604 372.119 125.689V125.774C372.077 126.448 371.993 127.122 371.929 127.796C371.761 129.207 371.529 130.576 371.275 131.923C370.347 136.662 368.764 141.106 366.464 145.192Z" fill="#F09C46"/>
<path d="M282.312 66.5095C281.954 66.699 276.109 69.6896 270.095 71.6483C268.027 72.3012 265.959 72.8487 264.06 73.1015C261 73.5227 258.405 73.2068 257.244 71.5009C256.738 70.7427 256.316 69.7949 255.999 68.6787C255.957 68.5734 255.915 68.4471 255.894 68.3207C254.332 62.6554 254.902 53.473 257.033 48.5869C257.624 47.218 258.32 46.2071 259.143 45.6806C259.46 45.47 259.776 45.3436 260.135 45.3015C265.748 44.5644 270.222 47.9341 272.986 52.3778C274.885 55.4316 276.088 59.0962 278.303 61.9393C278.472 62.15 279.907 64.0243 281.025 65.309L281.3 65.6039C281.743 66.1515 282.165 66.5306 282.312 66.5095Z" fill="#F09C46"/>
<path d="M367.922 99.006C367.394 98.8586 333.042 88.7074 334.033 77.9875C334.139 76.9556 334.308 75.9446 334.582 74.9548C337.051 65.4565 346.483 57.5588 350.408 58.0221H350.429C354.755 58.5486 355.81 68.068 357.983 75.5656C360.136 82.9368 367.69 98.5216 367.922 99.006Z" fill="#F09C46"/>
<path d="M352.348 85.1481C348.908 81.7152 344.667 79.209 341.185 77.5452C337.514 75.8183 334.728 74.9969 334.58 74.9548C337.049 65.4565 346.482 57.5588 350.406 58.0221H350.427C350.871 60.2756 351.377 62.9924 349.415 68.6366C349.225 69.1842 349.056 69.7318 348.929 70.2793C346.967 78.2192 351.504 84.3689 352.348 85.1481Z" fill="#973433"/>
<path d="M271.172 65.7515C271.172 65.7515 265.031 66.6571 260.009 67.5416C258.469 67.7943 257.013 68.0681 255.895 68.2998C254.333 62.6345 254.903 53.4521 257.034 48.566C257.625 47.1971 258.321 46.1862 259.144 45.6597C259.144 45.6597 261.086 46.7548 262.246 51.7041C262.668 53.5153 263.027 55.2422 263.491 56.8428C264.567 60.6548 266.298 63.7718 271.172 65.7515Z" fill="#973433"/>
<path opacity="0.48" d="M318.397 124.637C315.421 126.701 314.472 131.671 317.342 134.64C321.182 138.621 329.158 139.105 333.315 135.335C336.839 132.134 335.594 125.247 332.281 123.584C329.496 122.172 326.394 122.088 323.44 122.72C322.068 123.015 320.064 123.478 318.397 124.637Z" fill="#CC4A4A"/>
<path opacity="0.48" d="M253.931 113.622C255.872 116.339 255.133 120.972 251.736 122.699C247.178 124.995 240.109 122.973 237.683 118.381C235.615 114.506 238.843 108.862 242.219 108.42C245.068 108.041 247.79 108.925 250.153 110.378C251.251 111.052 252.854 112.105 253.931 113.622Z" fill="#CC4A4A"/>
<path d="M312.973 69.2892C311.918 70.5949 310.947 71.8796 310.018 73.059C308.225 75.3546 306.537 77.7555 304.954 80.2196C303.751 82.0519 301.768 83.7999 299.447 83.7999C296.514 83.842 294.15 81.6517 292.99 79.0823C291.555 75.9022 291.935 72.364 292.884 69.0786C293.138 68.194 293.454 67.3305 293.792 66.467C294.129 66.4881 294.467 66.5302 294.805 66.5723C301.05 67.2673 306.917 68.1308 312.403 69.1628C312.593 69.2049 312.804 69.247 312.973 69.2892Z" fill="#973433"/>
<path d="M231.797 109.388C228.632 109.494 225.551 108.041 222.892 106.124C222.955 105.829 223.04 105.534 223.124 105.24C223.188 104.966 223.272 104.671 223.356 104.376C224.074 101.807 224.918 99.2372 225.931 96.71C231.185 102.881 237.726 109.178 231.797 109.388Z" fill="#973433"/>
<path d="M229.603 117.245C227.408 118.192 224.264 117.961 221.352 117.35C221.373 116.655 221.415 115.939 221.458 115.223C221.563 113.643 221.753 112.022 222.027 110.379C222.049 110.316 222.049 110.253 222.07 110.189C227.894 112.632 233.485 115.581 229.603 117.245Z" fill="#973433"/>
<path d="M232.874 95.3204C231.186 94.8571 229.519 93.5935 228 92.035C228.042 91.9297 228.084 91.8454 228.148 91.7401C229.203 89.6762 230.405 87.6544 231.777 85.7168C234.626 91.0872 236.778 96.4156 232.874 95.3204Z" fill="#973433"/>
<path d="M329.516 73.3117C326.751 75.8601 324.029 78.4926 322.151 78.6401C317.467 79.0191 316.032 74.6807 318.965 70.5317C321.814 71.1846 324.536 71.8586 327.152 72.6167C327.511 72.701 327.849 72.8063 328.186 72.9116C328.629 73.0379 329.073 73.1854 329.516 73.3117Z" fill="#973433"/>
<path d="M291.871 66.2779C290.267 68.0259 288.685 69.4791 287.313 69.7318C283.578 70.4268 281.088 67.5836 282.27 65.625C284.064 65.6882 285.899 65.7724 287.799 65.9198C288.622 65.962 289.466 66.0462 290.331 66.1305C290.563 66.1515 290.816 66.1936 291.048 66.1936C291.322 66.2147 291.597 66.2568 291.871 66.2779Z" fill="#973433"/>
<path opacity="0.48" d="M224.664 137.463C225.361 138.958 226.036 140.474 226.796 141.927C227.154 142.665 227.555 143.381 227.956 144.097C228.378 144.792 228.821 145.487 229.349 145.992L229.496 146.14L229.454 146.371C229.349 147.045 229.285 147.782 229.328 148.456C229.349 149.109 229.56 149.846 229.897 149.931C230.045 149.973 230.108 149.973 230.298 149.762C230.467 149.551 230.594 149.257 230.699 148.941C230.91 148.309 231.037 147.593 231.121 146.919L231.396 144.876L232.113 146.792C232.366 147.509 232.683 148.225 233.041 148.899C233.4 149.572 233.78 150.246 234.265 150.752C234.497 151.005 234.772 151.215 235.025 151.278C235.299 151.342 235.51 151.299 235.616 151.131C235.89 150.71 235.806 149.825 235.658 149.13L235.405 148.077L236.207 148.772C237.198 149.615 238.275 150.394 239.372 151.131C240.469 151.868 241.609 152.521 242.854 153.026C241.566 152.711 240.342 152.121 239.161 151.51C237.979 150.878 236.861 150.141 235.785 149.341L236.354 148.962C236.481 149.383 236.565 149.783 236.608 150.204C236.629 150.626 236.65 151.11 236.375 151.594C236.228 151.826 235.975 152.058 235.679 152.142C235.531 152.184 235.405 152.205 235.278 152.205C235.152 152.205 235.025 152.205 234.877 152.163C234.329 152.037 233.97 151.721 233.653 151.426C233.02 150.794 232.598 150.099 232.219 149.362C231.839 148.646 231.501 147.909 231.227 147.129L232.197 147.003C232.113 147.782 231.965 148.498 231.712 149.257C231.564 149.636 231.417 150.015 231.121 150.373C231.037 150.457 230.952 150.562 230.847 150.647C230.72 150.731 230.615 150.815 230.467 150.857C230.172 150.962 229.834 150.92 229.581 150.815C229.032 150.583 228.779 150.078 228.652 149.678C228.526 149.257 228.505 148.856 228.484 148.477C228.484 147.698 228.547 146.961 228.716 146.203L228.842 146.582C228.209 145.908 227.808 145.171 227.429 144.413C227.049 143.676 226.711 142.917 226.373 142.138C225.698 140.601 225.129 139.063 224.664 137.463Z" fill="#973433"/>
<path d="M333.359 120.488C327.767 123.31 319.58 123.436 314.051 120.404C312.87 119.751 311.794 118.95 310.886 117.961C306.898 113.622 305.21 106.672 305.97 100.88C305.97 100.754 305.991 100.607 306.012 100.48C306.877 94.6254 310.928 89.7815 316.415 87.6333C322.83 85.1271 331.903 85.1903 336.841 90.6029C338.782 92.7511 340.175 95.5521 340.955 98.6059H340.977C343.044 106.735 340.85 116.676 333.359 120.488Z" fill="white"/>
<path d="M338.108 116.507C339.353 114.844 340.303 112.948 340.915 110.947C341.527 108.947 341.843 106.862 341.928 104.777C341.991 102.671 341.801 100.565 341.337 98.5006L341.273 98.2269L340.978 98.2058H340.957L341.337 98.5006C340.873 96.4999 340.155 94.5202 339.1 92.709C338.066 90.8978 336.673 89.234 334.901 88.0125C331.356 85.5484 326.904 84.8323 322.747 85.1693C320.637 85.3588 318.569 85.8011 316.564 86.4961C314.538 87.1701 312.66 88.3073 311.014 89.6763C307.723 92.4563 305.57 96.4367 305.127 100.796V100.733C304.79 104.377 305.275 108.062 306.52 111.453C307.153 113.138 307.976 114.759 309.01 116.255C310.044 117.729 311.331 119.077 312.871 120.025C314.412 120.993 316.1 121.625 317.83 122.046C319.56 122.468 321.333 122.678 323.105 122.699C326.629 122.699 330.216 122.067 333.361 120.488C335.239 119.561 336.863 118.171 338.108 116.507ZM323.105 122.552C319.603 122.425 316.058 121.52 313.209 119.54C311.795 118.55 310.656 117.245 309.748 115.791C308.841 114.338 308.124 112.759 307.617 111.116C306.604 107.83 306.33 104.334 306.815 100.986V100.923C306.857 100.544 306.984 100.017 307.068 99.5747C307.195 99.1114 307.301 98.6481 307.469 98.2058C307.765 97.3002 308.187 96.4367 308.651 95.5943C309.115 94.7519 309.685 93.9937 310.276 93.2355C310.888 92.5194 311.563 91.8244 312.302 91.2137C315.235 88.7707 319.054 87.507 322.915 87.0858C326.777 86.6646 330.828 87.2122 334.099 89.2129C335.745 90.2028 337.074 91.656 338.151 93.2987C339.227 94.9414 340.007 96.7947 340.556 98.6902L340.64 98.985H340.936H340.957L340.598 98.6902C341.696 102.607 341.864 106.883 340.746 110.884C340.197 112.864 339.353 114.802 338.087 116.465C336.863 118.129 335.26 119.54 333.403 120.488C330.195 122.025 326.608 122.678 323.105 122.552Z" fill="#973433"/>
<path d="M321.457 117.644C326.099 118.55 331.396 117.034 334.392 113.285C339.182 107.304 337.747 97.4893 331.374 93.2983C327.956 91.0448 323.166 90.3498 319.283 91.7398C308.902 95.4464 308.944 110.968 317.849 116.296C318.946 116.928 320.17 117.392 321.457 117.644Z" fill="#973433"/>
<path opacity="0.21" d="M340.934 98.6057C320.866 87.8648 307.573 99.3638 305.969 100.88C305.969 100.754 305.99 100.606 306.011 100.48C306.876 94.6252 310.928 89.7813 316.414 87.6331C322.829 85.1269 331.902 85.1901 336.84 90.6026C338.76 92.7508 340.153 95.5519 340.934 98.6057Z" fill="#973433"/>
<path d="M263.024 107.409C259.12 111.179 252.896 111.158 248.084 109.494C247.43 109.262 246.797 108.967 246.206 108.63C239.032 104.46 237.724 92.6242 242.83 86.2007C243.337 85.5268 243.949 84.916 244.603 84.3895C250.427 79.693 261.357 80.5776 266.042 86.6009C267.16 88.0751 267.582 89.9916 267.751 91.7818C267.877 93.0033 267.877 94.3512 267.751 95.7201C267.434 99.9954 265.936 104.608 263.024 107.409Z" fill="white"/>
<path d="M266.191 102.67C266.95 100.922 267.457 99.0476 267.752 97.1522C268.048 95.2567 268.195 93.3191 268.048 91.3815C267.9 89.4861 267.436 87.4011 266.064 85.8426C263.511 82.7256 259.565 81.0197 255.619 80.5775C251.652 80.1563 247.411 80.9566 244.077 83.526C243.275 84.1578 242.515 84.937 241.924 85.7794C241.629 86.2006 241.333 86.6219 241.059 87.0431L240.342 88.391C239.519 90.2653 239.076 92.2661 238.949 94.2458C238.738 98.2262 239.751 102.312 242.156 105.492C243.338 107.093 244.921 108.356 246.693 109.22C247.579 109.641 248.529 109.894 249.478 110.125C250.428 110.357 251.378 110.483 252.327 110.568C254.247 110.757 256.189 110.61 258.046 110.125C259.902 109.641 261.654 108.714 263.025 107.388C264.418 106.082 265.431 104.418 266.191 102.67ZM258.046 110.083C256.189 110.526 254.247 110.568 252.369 110.315C251.42 110.21 250.491 109.999 249.584 109.725C248.677 109.452 247.79 109.136 246.967 108.693C245.364 107.767 243.971 106.482 242.979 104.945C240.932 101.87 240.299 98.0156 240.679 94.4143C240.869 92.6031 241.333 90.834 242.093 89.2334L242.726 88.054C242.958 87.6749 243.233 87.3379 243.486 86.9588C244.013 86.2428 244.625 85.632 245.322 85.1055C248.065 82.9363 251.842 82.0938 255.471 82.3044C259.08 82.5151 262.793 83.7997 265.304 86.4955C266.592 87.7591 267.14 89.6125 267.414 91.4447C267.689 93.2981 267.689 95.2146 267.478 97.11C267.035 100.859 265.769 104.671 263.047 107.409C261.633 108.735 259.881 109.641 258.046 110.083Z" fill="#973433"/>
<path d="M245.827 101.491C246.059 101.849 247.769 106.398 254.859 106.567C261.949 106.735 263.995 98.2477 263.932 95.215C263.869 92.1823 262.35 85.5061 254.352 85.0427C246.355 84.5794 241.966 95.215 245.827 101.491Z" fill="#973433"/>
<path opacity="0.21" d="M267.773 95.699C260.788 87.8434 249.056 86.3692 242.831 86.2007C243.338 85.5268 243.95 84.916 244.604 84.3895C250.428 79.693 261.358 80.5776 266.043 86.6009C267.161 88.0751 267.583 89.9916 267.752 91.7818C267.878 93.0033 267.878 94.3301 267.773 95.699Z" fill="#973433"/>
<path d="M371.484 109.305C351.628 119.035 346.226 105.851 354.181 104.208C359.499 103.113 364.5 100.543 367.813 98.8164C369.649 102.123 370.894 105.619 371.484 109.305Z" fill="#973433"/>
<path d="M372.162 125.711V125.795C372.098 126.174 372.056 126.532 372.014 126.89C364.84 129.164 356.188 130.133 349.647 126.827C347.178 125.584 345.173 122.973 346.207 120.509C346.629 119.519 347.516 118.718 348.55 118.129C351.609 116.423 355.682 116.339 359.227 116.149C363.278 115.938 368.153 114.464 371.972 113.011C372.436 117.371 372.499 121.625 372.162 125.711Z" fill="#973433"/>
<path d="M371.299 131.924C370.37 136.662 368.767 141.106 366.467 145.192C361.613 145.739 356.507 144.349 352.498 141.675C350.704 140.474 349.164 138.621 349.755 136.346C350.535 133.335 354.629 133.229 357.098 133.398C363.808 133.903 368.703 132.766 371.299 131.924Z" fill="#973433"/>
<path d="M223.608 116.002C226.647 115.075 229.728 114.443 232.851 113.896C235.952 113.369 239.075 112.927 242.262 112.78C239.223 113.706 236.142 114.338 233.019 114.886C229.918 115.412 226.795 115.854 223.608 116.002Z" fill="#973433"/>
<path d="M222.51 108.231C225.57 108.062 228.609 108.167 231.647 108.378C234.686 108.61 237.703 108.904 240.721 109.536C237.661 109.726 234.622 109.599 231.584 109.389C228.545 109.157 225.507 108.841 222.51 108.231Z" fill="#973433"/>
<path d="M225.38 98.9219C228.208 100.101 230.888 101.554 233.525 103.071C236.142 104.608 238.737 106.209 241.164 108.083C238.337 106.904 235.657 105.451 233.019 103.934C230.381 102.397 227.807 100.796 225.38 98.9219Z" fill="#973433"/>
<path d="M344.011 75.1231C344.011 75.1231 341.817 74.8703 341.268 74.3228C340.698 73.7752 344.074 73.8805 344.074 73.8805C342.429 73.0802 341.141 71.0373 341.732 71.0373C342.323 71.0163 344.222 72.5747 344.222 72.5747C342.323 69.4788 344.011 65.0561 346.269 65.4563C347.24 65.6248 348.168 67.8361 348.949 70.3002C347.007 78.24 351.523 84.3687 352.367 85.169C348.928 81.7361 344.686 79.2299 341.205 77.5661C341.838 75.9655 344.011 75.1231 344.011 75.1231Z" fill="white"/>
<path d="M260.009 67.5414C260.41 65.7513 262.457 63.3293 262.626 63.1187C262.478 63.1608 260.874 63.7505 260.178 63.3082C259.44 62.8449 262.098 61.9393 262.098 61.9393C262.098 61.9393 260.094 62.0025 259.967 61.3917C259.819 60.802 261.845 61.0547 261.845 61.0547C260.452 60.107 258.047 56.1055 259.883 55.1578C261.086 54.547 262.563 55.8528 263.47 56.8426C264.567 60.6335 266.319 63.7505 271.172 65.7302C271.172 65.7513 265.031 66.6569 260.009 67.5414Z" fill="white"/>
<path d="M285.332 96.0363C285.332 96.0363 282.905 92.0138 281.302 92.4771C279.698 92.9404 283.348 99.0059 284.973 99.743C286.598 100.48 291.114 95.1939 290.354 93.9513C289.594 92.7088 285.332 96.0363 285.332 96.0363Z" fill="#973433"/>
<path d="M287.461 120.593C287.123 118.824 286.87 117.055 286.575 115.285L285.836 109.957C285.583 108.167 285.393 106.398 285.203 104.608C285.034 102.818 284.865 101.027 284.823 99.1952L285.794 99.3847C284.443 102.586 283.177 105.829 281.932 109.073C281.321 110.694 280.709 112.337 280.16 113.98C279.59 115.622 279.063 117.286 278.598 118.971C278.852 117.244 279.274 115.538 279.696 113.853C280.139 112.168 280.666 110.505 281.194 108.841C282.27 105.513 283.515 102.249 284.844 99.0267L285.773 96.7732L285.815 99.2373C285.836 100.985 286.005 102.775 286.132 104.566L286.575 109.915L287.039 115.285C287.187 117.012 287.355 118.781 287.461 120.593Z" fill="#973433"/>
<path opacity="0.48" d="M277.419 99.2371C274.507 99.4898 271.574 100.859 269.569 103.344C266.678 106.945 265.539 111.81 268.029 115.812C269.569 118.276 272.038 119.855 274.549 120.951C279.402 123.057 284.361 124.805 289.721 124.089C291.662 123.836 293.624 123.288 295.334 122.151C297.971 120.403 299.849 117.265 300.313 113.937C300.757 110.589 299.744 107.135 297.655 104.86C295.08 102.059 290.839 100.69 287.273 100.227C284.108 99.8058 280.605 98.9423 277.419 99.2371Z" fill="#973433"/>
<path d="M330.532 131.208C333.676 131.671 336.736 132.408 339.774 133.251C342.813 134.093 345.83 135.041 348.742 136.263C345.598 135.799 342.538 135.062 339.5 134.22C336.461 133.356 333.444 132.43 330.532 131.208Z" fill="#973433"/>
<path d="M350.621 128.617C347.561 128.933 344.523 128.933 341.484 128.87C338.446 128.765 335.407 128.596 332.369 128.112C335.428 127.796 338.467 127.796 341.505 127.859C344.544 127.964 347.604 128.133 350.621 128.617Z" fill="#973433"/>
<path d="M348.701 119.077C346.085 120.699 343.363 122.046 340.598 123.31C337.813 124.553 335.007 125.732 332.073 126.638C334.669 125.016 337.412 123.668 340.176 122.404C342.962 121.141 345.768 119.961 348.701 119.077Z" fill="#973433"/>
<path opacity="0.48" d="M322.784 171.223C324.24 170.633 325.696 170.085 327.11 169.454C328.545 168.843 329.98 168.253 331.33 167.537L332.217 167.074L331.837 168.021C331.668 168.422 331.541 168.864 331.457 169.264C331.373 169.664 331.415 170.127 331.541 170.233C331.584 170.296 331.731 170.338 331.837 170.338C331.9 170.338 332.048 170.275 332.196 170.149C332.491 169.917 332.765 169.559 332.997 169.18C333.483 168.443 333.905 167.621 334.285 166.779C334.643 165.958 335.002 165.073 335.234 164.252L335.677 162.63L336.205 164.231C336.416 164.883 336.711 165.557 337.049 166.147C337.386 166.737 337.872 167.242 338.252 167.137C338.695 167.074 339.18 166.505 339.497 165.915C339.834 165.305 340.108 164.631 340.298 163.978L340.383 163.683H340.657C342.303 163.662 344.012 163.409 345.637 163.009C346.46 162.819 347.262 162.588 348.064 162.293C348.865 161.998 349.625 161.64 350.385 161.261C348.992 162.251 347.409 162.967 345.764 163.514C344.118 164.02 342.43 164.357 340.657 164.483L341.037 164.188C340.847 164.947 340.615 165.663 340.235 166.358C340.045 166.716 339.834 167.053 339.56 167.369C339.286 167.684 338.885 168 338.378 168.085C338.125 168.127 337.851 168.106 337.576 168.021C337.323 167.937 337.133 167.79 336.964 167.642C336.627 167.347 336.395 167.011 336.184 166.674C335.762 166 335.466 165.305 335.213 164.546L336.184 164.504C335.909 165.473 335.551 166.337 335.15 167.2C334.749 168.064 334.327 168.906 333.757 169.727C333.462 170.127 333.166 170.528 332.723 170.865C332.512 171.033 332.217 171.202 331.816 171.223C331.457 171.223 331.119 171.117 330.845 170.822C330.36 170.191 330.529 169.601 330.613 169.117C330.718 168.611 330.887 168.169 331.119 167.706L331.605 168.19C330.17 168.843 328.693 169.39 327.216 169.875C325.802 170.359 324.304 170.844 322.784 171.223Z" fill="#973433"/>
<path d="M304.552 335.137C305.1 333.368 305.649 332.125 306.535 331.114C306.978 330.609 307.485 330.145 308.075 329.661C308.666 329.177 309.342 328.734 310.08 328.124C309.173 327.892 308.244 327.913 307.337 328.187C306.43 328.44 305.586 329.008 304.931 329.745C303.602 331.304 303.412 333.642 304.552 335.137Z" fill="#973433"/>
<path d="M218.187 241.944C222.871 261.488 234.16 279.285 244.416 287.73C272.965 311.255 318.797 318.331 328.926 319.679C327.66 313.234 323.925 296.618 324.389 291.9C324.389 291.9 294.911 281.328 278.621 271.913C262.33 262.499 267.163 197.843 242.833 191.441C232.325 188.682 222.618 192.726 215.591 201.592C214.178 215.282 215.169 229.35 218.187 241.944Z" fill="#F8C794"/>
<g opacity="0.48">
<path d="M381.381 223.832C380.347 222.4 379.186 221.052 377.899 219.81C376.591 218.609 375.156 217.43 373.362 216.903C372.476 216.587 371.442 216.65 370.535 217.03C369.649 217.324 368.783 218.335 368.889 219.43C368.952 220.484 369.438 221.326 369.923 222.105C370.45 222.884 371.02 223.579 371.695 224.232L372.328 223.348C370.64 222.4 368.91 221.537 367.116 220.799C365.323 220.062 363.487 219.367 361.461 219.115C360.47 218.988 359.309 218.967 358.212 219.62C357.916 219.767 357.705 219.978 357.494 220.21C357.262 220.399 357.114 220.736 356.967 221.073C356.735 221.747 356.882 222.59 357.22 223.074C357.853 224.148 358.718 224.717 359.562 225.285C360.427 225.833 361.271 226.296 362.221 226.696L362.495 224.99C352.852 226.128 344.032 230.951 337.448 237.88C330.78 244.83 326.982 253.97 325.02 263.152C323.965 267.764 323.564 272.482 323.289 277.179C323.205 281.875 323.289 286.572 323.711 291.247C324.492 300.598 326.307 309.801 328.649 318.836C326.876 309.675 325.547 300.429 325.02 291.163C324.492 281.896 324.914 272.566 326.876 263.573C327.889 259.088 329.303 254.686 331.308 250.579C333.312 246.472 335.866 242.639 338.967 239.291C345.108 232.635 353.675 227.939 362.622 226.781L365.893 226.359L362.896 225.096C361.293 224.422 359.436 223.495 358.613 222.295C358.381 222 358.423 221.789 358.444 221.579C358.507 221.389 358.739 221.031 359.035 220.905C359.562 220.547 360.448 220.441 361.314 220.547C363.086 220.694 364.901 221.326 366.652 221.979C368.404 222.653 370.134 223.453 371.801 224.317L375.093 226.043L372.434 223.453C371.273 222.316 369.965 220.905 369.733 219.388C369.649 218.651 370.092 218.04 370.851 217.682C371.569 217.345 372.392 217.24 373.215 217.472C374.861 217.872 376.338 218.946 377.667 220.062C378.996 221.2 380.241 222.463 381.381 223.832Z" fill="#973433"/>
</g>
<path d="M236.882 320.774C243.043 324.417 250.471 324.312 251.273 324.27C251.315 324.27 251.336 324.27 251.336 324.27L251.357 324.291C251.378 324.291 251.399 324.312 251.42 324.312C251.99 324.67 256.464 327.239 263.533 327.766H263.575C264.377 327.829 265.221 327.871 266.086 327.871C269.42 327.871 273.767 327.703 278.388 326.06C278.409 326.06 278.409 326.039 278.43 326.039C285.731 323.448 293.665 317.214 299.13 302.303C299.151 302.282 299.151 302.261 299.151 302.24C299.215 302.093 299.257 301.967 299.299 301.819C301.894 294.616 304.384 285.497 306.558 276.167C307.613 271.681 308.605 267.153 309.512 262.752C309.892 260.919 310.272 259.108 310.609 257.318C310.63 257.255 310.63 257.213 310.63 257.15C310.651 257.108 310.651 257.065 310.651 257.023C313.711 241.459 315.631 228.718 315.589 227.728C315.526 226.485 273.935 185.207 268.09 217.071C264.714 235.415 259.924 259.487 256.464 276.631C255.725 280.316 255.029 283.665 254.438 286.592C253.636 290.51 253.003 293.627 252.602 295.648C252.581 295.754 252.56 295.859 252.539 295.964C252.476 296.217 252.433 296.428 252.391 296.638C252.37 296.744 252.349 296.828 252.328 296.912C252.286 297.08 252.264 297.207 252.222 297.354C252.201 297.46 252.18 297.544 252.159 297.628C252.096 297.965 252.053 298.155 252.053 298.155C249.099 298.871 246.504 299.86 244.267 301.061C244.204 301.082 244.162 301.124 244.098 301.166C243.993 301.229 243.93 301.272 243.824 301.314C233.147 307.211 231.142 317.404 236.882 320.774Z" fill="#F09C46"/>
<g opacity="0.48">
<path d="M253.807 297.712C255.811 297.649 257.732 297.754 259.61 297.986C261.488 298.239 263.344 298.555 265.138 299.123C266.932 299.65 268.725 300.282 270.434 301.103C272.186 301.882 273.853 302.851 275.646 303.757C274.423 302.177 272.946 300.766 271.236 299.671C269.569 298.492 267.649 297.712 265.708 297.102C263.745 296.533 261.677 296.28 259.652 296.364C257.647 296.428 255.6 296.807 253.807 297.712Z" fill="#973433"/>
</g>
<g opacity="0.48">
<path d="M263.64 241.818L257.415 269.913C255.452 279.285 253.3 288.657 251.274 297.986L251.929 297.355C247.94 298.113 244.079 299.734 240.85 302.304C237.664 304.831 234.942 308.201 233.866 312.329C233.381 314.372 233.338 316.73 234.499 318.773C235.681 320.753 237.495 322.038 239.394 322.922C243.214 324.649 247.265 325.218 251.338 325.323L250.599 325.028L250.62 325.049L250.768 325.218L250.979 325.302C255.178 326.882 259.504 328.272 264.062 328.903C268.599 329.556 273.41 329.156 277.714 327.408C282.04 325.681 285.754 322.88 289.024 319.763C290.628 318.184 292.232 316.562 293.582 314.687C294.933 312.834 296.072 310.875 297.085 308.854C301.073 300.745 303.584 292.132 305.779 283.476C306.897 279.158 307.72 274.778 308.522 270.397C309.366 266.016 310.168 261.636 310.78 257.234V257.255L310.801 257.129V257.108L311.561 251.253L310.527 257.066V257.045L310.505 257.171V257.192C310.062 259.382 309.704 261.573 309.218 263.742L307.762 270.25C306.813 274.588 305.821 278.927 304.639 283.202C302.297 291.753 299.596 300.261 295.545 308.074C294.511 310.012 293.392 311.886 292.105 313.634C290.839 315.361 289.299 316.92 287.716 318.436C284.551 321.448 280.985 324.059 276.976 325.618C272.988 327.197 268.599 327.534 264.336 326.903C260.053 326.292 255.853 324.86 251.696 323.364L252.076 323.596L252.055 323.575L251.76 323.28H251.317C247.54 323.217 243.594 322.669 240.217 321.153C238.55 320.395 237.031 319.258 236.187 317.847C235.364 316.436 235.301 314.561 235.723 312.813C236.609 309.275 239.036 306.116 241.969 303.778C244.902 301.398 248.51 299.84 252.224 299.039L252.773 298.913L252.878 298.408C254.735 288.951 256.655 279.601 258.428 270.165L263.64 241.818Z" fill="#973433"/>
</g>
<path d="M258.552 325.281C258.32 322.627 258.7 320.374 259.67 318.352C260.177 317.341 260.831 316.393 261.548 315.425L262.73 314.014C263.152 313.55 263.595 313.087 263.996 312.539C263.342 312.687 262.73 312.939 262.097 313.192C261.527 313.529 260.915 313.845 260.388 314.266C259.312 315.088 258.404 316.183 257.75 317.446C257.159 318.731 256.864 320.163 257.012 321.574C257.138 322.943 257.624 324.291 258.552 325.281Z" fill="#973433"/>
<path d="M244.939 322.122C244.897 320.858 244.918 319.721 244.981 318.605C245.066 317.489 245.15 316.393 245.403 315.319C245.614 314.245 245.867 313.171 246.205 312.097C246.522 311.002 246.944 309.928 247.281 308.706C245.192 310.096 243.821 312.434 243.335 314.919C243.103 316.183 243.103 317.467 243.356 318.71C243.61 319.974 244.095 321.174 244.939 322.122Z" fill="#973433"/>
<g opacity="0.48">
<path d="M236.016 206.71C234.729 206.162 233.358 205.804 231.902 205.657C231.184 205.593 230.425 205.614 229.644 205.867C228.884 206.099 228.061 206.71 227.766 207.636C227.597 208.1 227.618 208.71 227.829 209.153C228.019 209.637 228.336 209.974 228.652 210.269C229.285 210.837 229.96 211.196 230.657 211.49C232.049 212.08 233.4 212.459 234.856 212.712L234.877 210.711C233.653 210.901 232.514 211.174 231.332 211.638C230.741 211.891 230.171 212.185 229.623 212.67C229.074 213.133 228.526 213.87 228.462 214.797C228.357 215.66 228.758 216.65 229.454 217.177C230.129 217.724 230.826 217.872 231.48 217.977C232.788 218.167 233.949 218.082 235.172 217.872L234.181 216.819C234.012 217.893 234.033 218.841 234.096 219.83C234.181 220.82 234.35 221.789 234.603 222.716C235.151 224.59 235.953 226.359 237.072 227.897C236.396 226.127 235.869 224.337 235.679 222.505C235.552 221.599 235.531 220.694 235.573 219.788C235.594 218.904 235.7 217.956 235.89 217.198L236.185 216.039L234.898 216.166C233.885 216.25 232.767 216.271 231.838 216.082C231.374 215.997 230.952 215.808 230.741 215.618C230.53 215.45 230.488 215.26 230.509 215.007C230.488 214.565 231.248 213.976 232.176 213.596C233.083 213.196 234.16 212.922 235.151 212.754L241.334 211.722L235.172 210.732C233.906 210.522 232.535 210.269 231.332 209.827C230.129 209.426 228.926 208.71 229.159 208.058C229.264 207.152 230.615 206.625 231.923 206.52C233.231 206.373 234.624 206.499 236.016 206.71Z" fill="#973433"/>
</g>
<path d="M254.46 286.614C254.482 286.614 254.503 286.614 254.524 286.593C257.204 286.129 259.82 285.308 262.521 285.182C267.965 284.929 274 288.235 279.318 286.024C280.436 285.561 281.407 284.634 281.597 283.433C282.166 279.748 276.216 277.41 273.536 276.631C268.05 275.009 262.099 275.051 256.592 276.631C256.549 276.652 256.507 276.652 256.465 276.652C255.727 280.338 255.051 283.686 254.46 286.614Z" fill="#973433"/>
<path d="M283.642 265.069C285.267 266.606 287.525 267.238 289.656 267.933C293.539 269.196 297.295 270.881 300.819 272.903C302.739 273.998 304.596 275.22 306.558 276.189C306.664 276.252 306.769 276.294 306.896 276.357C308.014 271.429 308.943 266.796 309.66 262.857C309.597 262.836 309.555 262.794 309.512 262.773C307.466 261.678 305.356 260.709 303.182 259.909C297.865 257.929 292.104 256.96 286.449 257.676C285.162 257.845 283.811 258.14 282.925 259.066C281.385 260.688 282.039 263.51 283.642 265.069Z" fill="#973433"/>
<path d="M362.432 182.869C363.635 184.006 365.492 184.238 367.075 183.817C368.678 183.395 370.071 182.427 371.379 181.416C376.971 177.119 382.289 171.391 385.707 164.989C379.799 162.187 374.439 159.997 370.113 158.375C369.86 158.86 369.628 159.344 369.417 159.808C367.18 164.609 364.922 169.39 362.665 174.192C361.356 176.993 360.175 180.721 362.432 182.869Z" fill="#973433"/>
<path d="M394.277 194.537C394.34 194.516 394.403 194.516 394.445 194.516C402.422 193.041 408.9 187.439 415.314 182.448C409.87 178.446 404.342 174.929 398.961 171.854C394.994 175.182 391.196 179.12 388.516 183.48C385.034 189.145 385.752 196.032 394.277 194.537Z" fill="#973433"/>
<path d="M422.952 207.194C424.239 207.889 425.759 207.973 427.215 207.931C431.35 207.763 435.402 206.562 439.242 205.025C435.929 200.876 432.321 197.043 428.544 193.463C426.75 194.832 425.083 196.348 423.606 197.612C422.509 198.559 421.369 199.549 420.779 200.876C419.766 203.108 420.779 206.036 422.952 207.194Z" fill="#973433"/>
<path d="M431.287 237.605C439.432 238.006 447.535 236.974 455.469 235.099C453.992 230.276 452.114 225.685 449.898 221.347C446.015 222.252 442.175 223.347 438.377 224.485C437.111 224.864 435.739 225.18 434.368 225.538C431.223 226.338 427.383 227.454 424.999 229.771C419.977 234.657 427.278 237.416 431.287 237.605Z" fill="#973433"/>
<path d="M440.806 258.519C441.629 259.361 442.726 259.845 443.823 260.267C448.698 262.183 453.868 263.152 459.101 263.552C459.27 259.382 459.122 255.36 458.742 251.505C453.593 251.484 448.36 251.885 443.549 252.98C442.093 253.317 440.447 253.906 439.92 255.317C439.519 256.391 439.983 257.676 440.806 258.519Z" fill="#973433"/>
<path d="M431.667 287.709C437.006 292.595 443.631 296.027 450.679 297.67C453.064 293.247 455.026 288.235 456.461 282.57V282.549C449.645 280.632 442.956 277.873 435.803 277.578C433.018 277.473 429.62 278.147 428.671 280.801C427.763 283.286 429.705 285.897 431.667 287.709Z" fill="#973433"/>
<path d="M421.285 312.371C422.952 315.34 424.936 318.225 427.342 320.668C431.119 318.668 434.727 316.267 438.082 313.381C437.555 312.939 437.006 312.497 436.478 312.055C434.136 310.075 431.942 307.906 429.726 305.758C428.924 304.957 428.101 304.157 427.278 303.378C426.35 302.493 425.4 301.588 424.197 301.229C422.805 300.808 421.222 301.166 420.167 302.177C417.318 304.873 419.766 309.654 421.285 312.371Z" fill="#973433"/>
<path d="M385.329 316.393C386.279 320.879 387.249 325.428 388.79 329.724C394.508 329.577 400.838 328.987 407.316 327.66C406.831 326.776 406.304 325.912 405.839 325.091C403.413 320.689 401.007 316.309 398.559 311.928C396.66 308.474 394.719 304.999 391.934 302.24C390.963 301.292 389.802 300.408 388.452 300.387C385.941 300.366 384.485 303.251 384.211 305.736C383.852 309.295 384.59 312.876 385.329 316.393Z" fill="#973433"/>
<path d="M270.328 179.099L260.917 187.06L251.632 185.059L247.286 167.642L256.612 161.724L266.657 165.263L270.328 179.099Z" fill="#E05656"/>
<path d="M325.506 167.642C325.506 167.642 270.073 165.978 259.565 162.503L268.554 184.912C268.575 184.912 311.284 176.761 325.506 167.642Z" fill="white"/>
<path d="M259.586 162.504L249.816 178.847C249.816 178.847 239.498 167.811 231.606 154.458C231.606 154.437 238.632 157.007 259.586 162.504Z" fill="white"/>
<path d="M258.805 182.448L266.465 224.359L248.402 237.774L239.73 218.546L253.804 179.858L258.805 182.448Z" fill="#E05656"/>
<path d="M163.956 93.7827L181.66 222.926" stroke="#973433" stroke-miterlimit="10" stroke-linecap="round" stroke-linejoin="round"/>
</svg>
