<svg width="448" height="369" viewBox="0 0 448 369" fill="none" xmlns="http://www.w3.org/2000/svg">
<g clip-path="url(#clip0_916_1239)" filter="url(#filter0_d_916_1239)">
<path d="M443.825 304.508C443.584 308.734 442.904 312.96 441.741 317.033C439.766 324.061 436.342 330.63 431.208 335.973C422.649 344.841 410.58 350.205 398.423 351.694C395.483 352.066 392.52 352.198 389.558 352.132C383.413 352.023 377.291 351.015 371.432 349.176C370.861 349.001 370.269 348.804 369.698 348.607C369.303 348.475 368.908 348.344 368.513 348.191C357.234 344.052 348.786 334.725 337.463 330.718C336.651 330.433 335.861 330.192 335.027 329.951C324.033 326.93 312.161 328.769 301.299 331.418L308.475 313.004C308.804 312.128 315.299 311.843 316.089 311.778C319.842 311.384 323.616 311.252 327.39 311.449C329.892 311.581 332.394 311.843 334.851 312.259C340.403 313.201 345.626 315.237 350.563 317.821C355.259 320.273 359.736 323.229 364.059 326.251C368.601 329.426 372.749 331.813 378.191 333.236C383.677 334.681 389.404 334.966 395.044 334.484C399.542 334.09 403.821 333.17 407.64 331.528H407.662C412.555 329.448 416.725 326.229 419.665 321.456C420.367 320.339 420.982 319.135 421.552 317.821C425.305 309.019 425.37 298.881 424.273 289.509C424.032 287.407 423.725 285.283 423.33 283.203C422.869 280.729 422.32 278.277 421.662 275.846C420.74 272.474 420.082 268.774 420.214 265.271C420.323 262.03 421.267 258.68 423.461 256.293C425.897 253.644 430.198 252.199 433.204 254.541C436.145 256.797 437.22 260.782 438.274 264.132C438.822 265.884 439.349 267.679 439.854 269.453C442.092 277.686 443.518 286.137 443.869 294.633C444.045 297.917 444.023 301.202 443.825 304.508Z" fill="#F09C46"/>
<path opacity="0.2" d="M443.825 304.508C443.584 308.734 442.904 312.96 441.741 317.033C439.766 324.061 436.342 330.63 431.208 335.973C422.649 344.841 410.58 350.205 398.423 351.694C395.483 352.066 392.52 352.198 389.558 352.132C383.413 352.023 377.291 351.015 371.432 349.176C370.861 349.001 370.269 348.804 369.698 348.607C369.303 348.475 368.908 348.344 368.513 348.191C357.234 344.052 348.786 334.725 337.463 330.718C336.651 330.433 335.861 330.192 335.027 329.951C324.033 326.93 312.161 328.769 301.299 331.418L308.475 313.004C308.804 312.128 315.299 311.843 316.089 311.778C319.842 311.384 323.616 311.252 327.39 311.449C329.892 311.581 332.394 311.843 334.851 312.259C340.403 313.201 345.626 315.237 350.563 317.821C355.259 320.273 359.736 323.229 364.059 326.251C368.601 329.426 372.749 331.813 378.191 333.236C383.677 334.681 389.404 334.966 395.044 334.484C399.542 334.09 403.821 333.17 407.64 331.528H407.662C412.555 329.448 416.725 326.229 419.665 321.456C420.367 320.339 420.982 319.135 421.552 317.821C425.305 309.019 425.37 298.881 424.273 289.509C424.032 287.407 423.725 285.283 423.33 283.203C422.869 280.729 422.32 278.277 421.662 275.846C420.74 272.474 420.082 268.774 420.214 265.271C420.323 262.03 421.267 258.68 423.461 256.293C425.897 253.644 430.198 252.199 433.204 254.541C436.145 256.797 437.22 260.782 438.274 264.132C438.822 265.884 439.349 267.679 439.854 269.453C442.092 277.686 443.518 286.137 443.869 294.633C444.045 297.917 444.023 301.202 443.825 304.508Z" fill="#973433"/>
<path d="M431.362 262.928C431.91 268.621 428.86 280.379 423.33 283.16C422.869 280.685 422.321 278.233 421.662 275.803C420.741 272.431 420.082 268.73 420.214 265.227C420.324 261.986 421.267 258.636 423.462 256.249C425.898 253.6 430.199 252.155 433.205 254.498C436.145 256.753 437.221 260.738 438.274 264.088C438.823 265.84 439.349 267.635 439.854 269.409C434.149 268.84 431.362 262.928 431.362 262.928Z" fill="#973433"/>
<path d="M443.826 304.508C443.585 308.734 442.904 312.96 441.741 317.033C440.271 315.785 439.02 314.011 438.252 311.559C435.531 303.019 440.776 297.195 443.892 294.611C444.045 297.918 444.023 301.202 443.826 304.508Z" fill="#973433"/>
<path d="M418.523 333.958C414.925 335.294 410.668 333.389 407.705 331.528C412.599 329.448 416.768 326.229 419.708 321.456C421.157 325.419 422.912 332.316 418.523 333.958Z" fill="#973433"/>
<path d="M389.58 352.132C383.436 352.023 377.313 351.015 371.454 349.176C370.884 349.001 370.291 348.804 369.721 348.607C373.034 345.848 377.994 342.52 382.448 342.739C386.574 342.914 388.593 347.775 389.58 352.132Z" fill="#973433"/>
<path d="M350.628 317.821C347.864 320.361 343.804 322.704 338.844 321.609C332.678 320.208 329.145 314.975 327.434 311.471C329.935 311.603 332.437 311.865 334.895 312.281C340.446 313.201 345.669 315.237 350.628 317.821Z" fill="#973433"/>
<path d="M157.63 119.487C157.63 119.487 107.905 145.324 92.5878 177.402C77.2489 209.479 144.222 179.197 144.222 179.197L157.63 119.487Z" fill="#F09C46"/>
<path opacity="0.2" d="M157.63 119.487C157.63 119.487 107.905 145.324 92.5878 177.402C77.2489 209.479 144.222 179.197 144.222 179.197L157.63 119.487Z" fill="#973433"/>
<path d="M337.506 196.473C337.462 195.948 337.44 195.4 337.418 194.853C337.374 194.24 337.352 193.649 337.308 193.057C336.979 188.262 336.408 183.533 335.596 178.869C335.509 178.19 335.377 177.511 335.245 176.854C334.016 170.22 332.327 163.739 330.154 157.498C329.891 156.732 329.628 155.987 329.342 155.221C327.675 150.732 325.766 146.375 323.549 142.215C323.527 142.149 323.505 142.105 323.483 142.04C322.035 139.237 320.455 136.5 318.765 133.894C318.765 133.872 318.743 133.851 318.721 133.829C316.878 130.96 314.859 128.179 312.731 125.552C312.511 125.311 312.314 125.048 312.094 124.786C308.123 120.012 303.734 115.655 298.84 111.845C298.314 111.429 297.787 111.013 297.26 110.597C302.571 105.342 306.257 99.4737 308.561 93.1677C310.361 88.2411 311.304 83.0736 311.48 77.6872C311.524 76.1544 311.524 74.5998 311.48 73.0233C311.436 72.2788 311.392 71.5125 311.326 70.768L311.304 70.6804C310.953 66.1261 310.097 61.4622 308.803 56.7108C308.693 56.3604 308.605 56.0101 308.496 55.6598C308.32 55.0467 308.144 54.4336 307.969 53.8205C307.859 53.4483 307.728 53.0979 307.596 52.7257C307.333 51.9593 307.069 51.193 306.74 50.4704C305.467 47.383 303.756 44.4928 301.627 41.8434C301.627 41.8434 291.445 25.6622 287.758 17.9329C284.006 10.0941 281.131 -0.218941 276.26 -0.0218762H276.238C271.827 0.175188 262.874 10.5539 261.864 21.48C261.864 21.5676 261.864 21.6771 261.843 21.7647C259.1 21.2611 256.247 20.8013 253.284 20.4509C252.889 20.4071 252.494 20.3633 252.099 20.3195C248.369 19.8816 244.463 19.5532 240.359 19.3561C238.692 19.2904 236.98 19.2247 235.246 19.181C227.763 19.0058 219.732 19.181 211.152 19.7502C210.867 19.7502 210.603 19.7721 210.34 19.794C209.374 19.8597 208.431 19.9254 207.509 20.013C205.007 20.232 202.594 20.5166 200.268 20.8451L199.916 20.5823C198.446 19.3561 196.537 17.5606 196.318 17.3417C193.377 14.5828 191.38 10.7729 188.747 7.75122C184.907 3.37201 179.377 0.459837 173.32 2.27721C172.947 2.38669 172.596 2.58375 172.289 2.8684C171.499 3.59097 170.906 4.83904 170.49 6.43746C169.041 12.1961 170.051 22.3997 172.816 28.3773C172.859 28.5087 172.925 28.64 172.991 28.7495C161.865 34.2673 154.756 41.7996 150.279 50.142C149.972 50.7113 149.687 51.3243 149.379 51.9155C148.238 54.2803 147.273 56.7327 146.461 59.185C146.439 59.2945 146.395 59.4259 146.373 59.5354C145.956 60.7834 145.605 62.0315 145.298 63.3015C145.144 63.8708 145.012 64.462 144.881 65.0313C144.222 68.0091 143.762 70.987 143.433 73.943C143.411 74.2714 143.367 74.5998 143.345 74.9283C143.301 75.2786 143.279 75.6071 143.257 75.9355C143.125 77.512 143.081 79.0447 143.081 80.5337V80.7526C143.081 82.6357 143.169 84.4312 143.323 86.2047C143.389 87.0149 143.498 87.8031 143.586 88.5695C145.298 101.554 150.893 110.838 154.405 115.545C156.116 117.845 157.323 119.049 157.323 119.049C157.323 119.049 157.718 119.18 158.42 119.399C83.9861 187.999 133.645 293.823 133.645 293.823L167.527 292.816L226.008 319.748L241.171 355.898C241.742 357.124 250.168 357.234 251.639 357.037C251.704 357.015 252.999 356.687 253.021 356.687C266.385 355.022 277.928 350.052 287.78 342.695C291.906 339.608 295.746 336.126 299.323 332.251C299.323 332.251 299.477 332.163 299.696 332.053C300.31 331.703 301.539 331.002 302 330.455C302.11 330.324 312.38 315.281 316.593 307.026C316.681 306.829 316.812 306.632 316.9 306.435C320.323 299.713 323.264 292.531 325.787 285.108C325.985 284.605 326.161 284.079 326.314 283.576C328.618 276.613 330.571 269.431 332.107 262.139C332.195 261.767 332.283 261.395 332.349 261.023C333.512 255.505 334.477 249.965 335.245 244.382C335.355 243.703 335.443 243.024 335.531 242.345C336.803 232.799 337.484 223.274 337.703 214.056C337.725 213.465 337.747 212.873 337.747 212.282C337.835 206.939 337.747 201.641 337.506 196.473Z" fill="#F09C46"/>
<path d="M282.119 29.6035C277.708 26.4286 272.595 24.436 268.447 23.2536C264.102 22.0056 260.855 21.6114 260.701 21.5895C261.711 10.6634 270.664 0.28468 275.075 0.087616H275.096C275.996 2.49618 277.049 5.38646 275.886 11.9772C275.777 12.634 275.711 13.2471 275.645 13.8602C274.943 22.9471 281.043 28.8809 282.119 29.6035Z" fill="#973433"/>
<path d="M189.164 22.8376C189.164 22.8376 182.559 24.9615 177.182 26.8227C175.537 27.392 173.979 27.9394 172.794 28.3992C170.051 22.4216 169.019 12.218 170.467 6.45934C170.862 4.86093 171.477 3.61286 172.267 2.89029C172.267 2.89029 174.615 3.74423 176.787 8.99928C177.577 10.9042 178.28 12.7435 179.07 14.4295C180.979 18.4365 183.458 21.5457 189.164 22.8376Z" fill="#973433"/>
<path opacity="0.48" d="M247.579 117.1C244.2 119.64 243.892 124.567 247.974 126.888C253.46 129.975 263.51 128.924 268.097 124.523C271.959 120.8 269.216 114.429 264.783 113.465C261.053 112.655 257.147 113.159 253.57 114.319C251.924 114.823 249.488 115.677 247.579 117.1Z" fill="#CC4A4A"/>
<path opacity="0.48" d="M179.992 107.75C183.415 110.4 183.656 115.458 179.421 117.757C173.76 120.822 163.468 119.574 158.881 114.998C154.997 111.122 157.916 104.641 162.458 103.743C166.299 102.977 170.27 103.546 173.913 104.794C175.603 105.364 178.082 106.261 179.992 107.75Z" fill="#CC4A4A"/>
<path d="M235.247 19.2028C230.31 23.8229 226.733 30.7639 223.88 35.9971C222.322 38.8655 220.896 41.8214 219.579 44.7993C218.592 47.0327 216.726 49.3099 214.159 49.7478C210.911 50.2952 207.927 48.3246 206.193 45.7189C204.021 42.4564 203.823 38.5151 204.262 34.7271C204.899 29.3845 207.137 24.2389 210.319 19.8378C210.582 19.8159 210.867 19.794 211.131 19.794C219.733 19.2028 227.764 19.0058 235.247 19.2028Z" fill="#973433"/>
<path d="M153.681 77.9937C150.214 78.6725 146.549 77.6215 143.279 76.0012C143.301 75.6727 143.323 75.3443 143.367 74.9939C143.389 74.6655 143.411 74.3371 143.455 74.0086C143.784 71.0526 144.245 68.0529 144.903 65.0969C151.816 70.9213 160.176 76.7018 153.681 77.9937Z" fill="#973433"/>
<path d="M152.67 87.0586C150.41 88.4819 146.921 88.7884 143.607 88.6571C143.497 87.8907 143.41 87.1024 143.344 86.2923C143.19 84.5406 143.08 82.7232 143.102 80.8402C143.102 80.7745 143.102 80.7088 143.102 80.6212C149.971 82.2634 156.642 84.5187 152.67 87.0586Z" fill="#973433"/>
<path d="M152.32 62.3162C150.367 62.0972 148.304 61.0024 146.373 59.5792C146.395 59.4697 146.439 59.3383 146.483 59.2288C147.295 56.7765 148.238 54.3241 149.401 51.9594C153.483 57.3239 156.84 62.7979 152.32 62.3162Z" fill="#973433"/>
<path d="M252.099 20.3414C250.805 21.7866 249.356 23.4069 248.303 24.6331C245.011 28.5087 241.588 33.8732 238.977 34.5082C233.535 35.8438 231.187 30.5669 234.632 25.0272C236.212 22.5092 238.428 20.648 240.381 19.378H240.403C244.463 19.5751 248.369 19.9035 252.099 20.3414Z" fill="#973433"/>
<path d="M207.509 20.0349C204.744 23.7353 201.825 29.9319 198.973 30.961C194.65 32.5157 191.182 29.2094 193.004 26.7351C194.759 24.3484 196.822 22.4654 198.621 21.0859C201.452 20.6699 204.393 20.3196 207.509 20.0349Z" fill="#973433"/>
<path d="M267.79 108.517C262.15 112.633 253.131 114.232 246.504 111.911C245.078 111.407 243.761 110.706 242.554 109.787C237.376 105.714 234.281 98.3789 234.04 91.8539C234.018 91.7006 234.018 91.5474 234.018 91.3941C233.908 84.8034 237.507 78.7163 243.147 75.3662C249.774 71.4687 259.78 69.8922 266.188 74.9721C268.712 76.9865 270.752 79.8111 272.157 83.0517H272.179C275.953 91.6569 275.339 102.999 267.79 108.517Z" fill="white"/>
<path d="M267.789 108.517C264.585 110.838 260.767 112.173 256.883 112.808C254.93 113.115 252.933 113.203 250.958 113.027C248.983 112.874 247.008 112.48 245.143 111.692C243.278 110.903 241.61 109.677 240.227 108.232C238.823 106.787 237.616 105.145 236.629 103.393C234.654 99.8897 233.447 95.9266 233.161 91.8539V91.9196C232.854 87.0587 234.5 82.2853 237.638 78.6287C239.196 76.8113 241.061 75.2567 243.168 74.14C245.231 73.0014 247.447 72.1475 249.707 71.5563C254.228 70.4396 259.253 70.4177 263.598 72.4759C265.77 73.4831 267.614 75.0815 269.084 76.877C270.576 78.6725 271.717 80.7088 272.595 82.8327L272.156 82.57H272.178L272.507 82.5481L272.617 82.8327C273.517 85.0223 274.109 87.2995 274.416 89.6205C274.723 91.9415 274.723 94.3063 274.416 96.6053C274.109 98.9044 273.407 101.16 272.332 103.218C271.212 105.342 269.676 107.159 267.789 108.517ZM267.789 108.517C269.654 107.137 271.169 105.298 272.244 103.24C273.319 101.182 273.912 98.9044 274.153 96.6272C274.416 94.3282 274.285 92.0072 273.868 89.7519C273.451 87.4966 272.749 85.2851 271.783 83.2269L272.222 83.4896H272.2L271.893 83.5334L271.761 83.2488C270.817 81.2343 269.611 79.3513 268.14 77.731C266.67 76.0888 264.936 74.7531 262.94 73.9429C258.946 72.3226 254.381 72.454 250.19 73.5926C245.977 74.7531 241.983 76.8113 239.196 80.0519C238.494 80.8621 237.879 81.7379 237.331 82.6576C236.804 83.5991 236.321 84.5406 235.97 85.5478C235.619 86.5551 235.312 87.5842 235.158 88.6352C235.049 89.1607 235.027 89.6862 234.961 90.2336C234.961 90.7372 234.895 91.3503 234.939 91.7663V91.832C235.005 95.62 235.948 99.4299 237.682 102.868C238.538 104.575 239.613 106.196 240.886 107.641C242.159 109.086 243.651 110.312 245.406 111.144C248.895 112.808 252.977 113.159 256.861 112.655C260.745 112.173 264.563 110.794 267.789 108.517Z" fill="#973433"/>
<path d="M254.161 107.531C259.428 107.707 265.002 105.079 267.635 100.393C271.826 92.9268 268.491 82.3948 260.701 78.9134C256.531 77.0303 251.111 77.1398 247.095 79.3732C236.321 85.307 239.174 102.408 249.948 106.699C251.265 107.203 252.691 107.488 254.161 107.531Z" fill="#973433"/>
<path opacity="0.21" d="M272.157 83.0736C248.106 74.8626 235.532 89.9052 234.04 91.8539C234.018 91.7006 234.018 91.5474 234.018 91.3941C233.908 84.8034 237.507 78.7163 243.147 75.3662C249.774 71.4687 259.78 69.8922 266.188 74.9721C268.712 77.0084 270.752 79.833 272.157 83.0736Z" fill="#973433"/>
<path d="M189.318 93.8245C187.014 99.4299 180.628 102.167 174.945 102.605C174.155 102.649 173.387 102.649 172.619 102.539C163.424 101.466 156.775 89.9489 159.145 81.081C159.364 80.1614 159.716 79.2856 160.154 78.4316C164.017 71.0307 175.603 67.0676 183.086 71.1621C184.885 72.1693 186.18 73.9429 187.168 75.6946C187.848 76.8989 188.44 78.2564 188.923 79.7235C190.503 84.2779 191.03 89.6643 189.318 93.8245Z" fill="white"/>
<path d="M189.318 93.8245C188.506 95.7952 187.145 97.525 185.456 98.8387C183.766 100.152 181.835 101.16 179.794 101.817C178.763 102.145 177.731 102.43 176.678 102.627C175.625 102.824 174.528 102.977 173.43 102.933C171.236 102.824 169.064 102.233 167.132 101.116C163.248 98.9263 160.418 95.204 158.86 91.0437C158.113 88.9417 157.653 86.7083 157.675 84.453L157.806 82.7451C157.894 82.1758 158.004 81.6284 158.113 81.0591C158.355 79.9424 158.772 78.8257 159.298 77.8185C161.559 73.724 165.531 71.0089 169.766 69.6732C174.001 68.3594 178.785 68.3375 182.801 70.3958C184.885 71.3592 186.29 73.286 187.299 75.1691C188.33 77.0741 189.033 79.1323 189.581 81.1905C190.13 83.2706 190.437 85.3946 190.437 87.5404C190.415 89.6862 190.13 91.832 189.318 93.8245ZM189.318 93.8245C190.876 89.8176 190.481 85.3289 189.252 81.3C188.616 79.2637 187.76 77.3149 186.663 75.5413C185.565 73.7678 184.161 72.1256 182.274 71.403C178.499 69.7389 174.111 70.0892 170.314 71.4687C168.383 72.1474 166.584 73.1547 165.004 74.3808C163.424 75.607 162.063 77.1397 161.142 78.8476C160.681 79.7016 160.308 80.5993 160.11 81.5846C160.023 82.0664 159.891 82.5481 159.825 83.0517L159.693 84.5406C159.628 86.5332 159.935 88.5695 160.571 90.4963C161.8 94.35 164.192 98.0067 167.659 100.262C169.371 101.401 171.368 102.079 173.43 102.32C174.462 102.408 175.515 102.342 176.568 102.211C177.622 102.079 178.653 101.882 179.684 101.576C181.725 100.985 183.678 100.087 185.39 98.8168C187.08 97.4812 188.462 95.7733 189.318 93.8245Z" fill="#973433"/>
<path d="M169.042 95.4011C169.437 95.6638 173.234 99.5394 180.541 96.5834C187.87 93.6056 186.181 83.9932 184.754 80.9278C183.328 77.8623 178.807 71.6877 170.403 74.775C162.042 77.8842 162.283 90.7153 169.042 95.4011Z" fill="#973433"/>
<path opacity="0.21" d="M188.923 79.7235C178.258 74.7969 165.596 78.5192 159.145 81.081C159.364 80.1614 159.715 79.2856 160.154 78.4316C164.016 71.0307 175.603 67.0676 183.085 71.1621C184.885 72.1693 186.18 73.9429 187.167 75.6946C187.825 76.8989 188.418 78.2783 188.923 79.7235Z" fill="#973433"/>
<path d="M306.739 50.4923C287.604 63.2139 279.858 50.1857 288.131 47.0327C292.739 45.2591 296.974 42.4564 300.178 40.1355C300.683 40.7048 301.187 41.2741 301.648 41.8653C303.755 44.5366 305.466 47.405 306.739 50.4923Z" fill="#973433"/>
<path d="M311.283 70.7024V70.7899C311.283 71.206 311.305 71.622 311.305 72.0161C303.8 75.826 294.452 78.4535 286.661 75.9574C283.721 75.0159 281.044 72.5197 281.746 69.6076C282.031 68.4471 282.865 67.3961 283.897 66.5859C286.969 64.1554 291.423 63.3234 295.307 62.4913C299.718 61.5279 304.831 59.0318 308.781 56.7546C310.076 61.4841 310.91 66.1699 311.283 70.7024Z" fill="#973433"/>
<path d="M311.459 77.731C311.283 83.1174 310.339 88.2848 308.54 93.2115C303.295 94.6785 297.414 94.0654 292.521 91.8539C290.326 90.8467 288.308 89.095 288.549 86.4894C288.856 83.0298 293.355 82.1759 296.098 81.9131C303.559 81.2562 308.737 79.1323 311.459 77.731Z" fill="#973433"/>
<path d="M144.223 116.64C147.405 115.086 150.696 113.859 154.032 112.699C157.367 111.56 160.725 110.509 164.192 109.765C161.01 111.32 157.718 112.546 154.383 113.706C151.047 114.823 147.69 115.874 144.223 116.64Z" fill="#973433"/>
<path d="M141.611 109.371C144.947 108.648 148.326 108.232 151.706 107.904C155.085 107.619 158.486 107.4 161.91 107.51C158.574 108.232 155.195 108.648 151.815 108.977C148.414 109.261 145.035 109.48 141.611 109.371Z" fill="#973433"/>
<path d="M142.643 98.5979C145.978 99.4081 149.182 100.525 152.364 101.729C155.524 102.955 158.684 104.247 161.69 105.845C158.355 105.035 155.151 103.919 151.969 102.714C148.809 101.488 145.671 100.196 142.643 98.5979Z" fill="#973433"/>
<path d="M271.125 20.0568C271.125 20.0568 268.668 20.1663 267.965 19.6846C267.241 19.2029 270.972 18.6773 270.972 18.6773C269.019 18.0862 267.241 16.0717 267.878 15.9622C268.514 15.8309 270.884 17.2103 270.884 17.2103C268.229 14.1449 269.282 8.95551 271.849 8.9993C272.947 9.02119 274.373 11.2765 275.668 13.8383C274.966 22.9252 281.066 28.8809 282.119 29.6035C277.709 26.4285 272.596 24.436 268.448 23.2536C268.887 21.3706 271.125 20.0568 271.125 20.0568Z" fill="white"/>
<path d="M177.204 26.8227C177.335 24.7645 179.135 21.7428 179.288 21.48C179.135 21.5676 177.489 22.4873 176.633 22.1369C175.734 21.7647 178.498 20.2977 178.498 20.2977C178.498 20.2977 176.304 20.7137 176.041 20.0787C175.777 19.4437 178.06 19.378 178.06 19.378C176.348 18.5898 172.991 14.6047 174.834 13.2471C176.041 12.3713 177.906 13.5318 179.091 14.4733C181 18.4584 183.458 21.5676 189.185 22.8814C189.163 22.8376 182.58 24.9615 177.204 26.8227Z" fill="white"/>
<path d="M208.782 97.5688C208.782 97.5688 205.622 93.3866 203.888 94.0873C202.177 94.788 206.939 101.094 208.804 101.729C210.691 102.364 215.08 95.9485 214.092 94.6566C213.127 93.3866 208.782 97.5688 208.782 97.5688Z" fill="#973433"/>
<path d="M214.048 124.589C213.477 122.662 212.973 120.735 212.446 118.786L210.998 112.94C210.515 110.991 210.098 109.042 209.681 107.072C209.286 105.101 208.891 103.152 208.628 101.116L209.681 101.225C208.562 104.926 207.531 108.692 206.543 112.436C206.06 114.319 205.578 116.202 205.161 118.085C204.722 119.968 204.349 121.873 204.02 123.8C204.107 121.852 204.371 119.925 204.656 117.998C204.963 116.071 205.358 114.166 205.753 112.261C206.565 108.451 207.553 104.685 208.65 100.941L209.374 98.4446L209.681 101.05C209.922 102.999 210.296 104.97 210.669 106.918L211.81 112.808L212.951 118.698C213.324 120.625 213.719 122.596 214.048 124.589Z" fill="#973433"/>
<path opacity="0.48" d="M200.376 102.058C197.173 102.692 194.057 104.532 192.147 107.532C189.361 111.867 188.658 117.407 191.906 121.545C193.925 124.107 196.821 125.574 199.762 126.493C205.38 128.267 211.107 129.625 216.988 128.223C219.117 127.72 221.223 126.866 223.001 125.399C225.722 123.165 227.455 119.465 227.565 115.699C227.675 111.933 226.139 108.21 223.549 105.933C220.367 103.109 215.496 102.101 211.48 101.992C207.881 101.904 203.887 101.357 200.376 102.058Z" fill="#973433"/>
<path d="M260.438 119.706C263.97 119.662 267.482 119.946 270.993 120.297C274.482 120.691 277.971 121.173 281.438 121.961C277.883 122.005 274.394 121.72 270.883 121.37C267.372 120.976 263.883 120.494 260.438 119.706Z" fill="#973433"/>
<path d="M282.382 113.224C279.069 114.1 275.711 114.648 272.354 115.107C268.975 115.545 265.595 115.896 262.172 115.94C265.485 115.064 268.843 114.516 272.2 114.056C275.58 113.619 278.959 113.268 282.382 113.224Z" fill="#973433"/>
<path d="M278.277 104.4C275.688 106.634 272.923 108.604 270.092 110.509C267.261 112.37 264.387 114.188 261.314 115.721C263.904 113.487 266.669 111.517 269.5 109.612C272.33 107.729 275.205 105.933 278.277 104.4Z" fill="#973433"/>
<path d="M234.94 69.5856C234.94 69.9141 234.984 70.2644 235.203 70.4833C235.357 70.6366 235.598 70.7242 235.817 70.768C237.507 71.0964 239.197 70.4177 240.777 69.717C241.611 69.3448 242.445 68.9725 243.147 68.4032C243.849 67.8339 244.398 67.0238 244.507 66.126C244.836 63.1044 241.062 60.9148 238.495 62.3161C236.234 63.5204 234.918 67.2865 234.94 69.5856Z" fill="#973433"/>
<path d="M187.803 69.4105C188.11 69.52 188.439 69.6076 188.747 69.4543C188.966 69.3448 189.098 69.1477 189.207 68.9507C190.085 67.4836 189.997 65.6444 189.888 63.9584C189.822 63.0606 189.734 62.141 189.427 61.2871C189.12 60.4331 188.549 59.6449 187.737 59.2507C184.972 57.937 181.659 60.7616 182.119 63.6299C182.492 66.148 185.609 68.6441 187.803 69.4105Z" fill="#973433"/>
<path d="M139.021 310.004C130.397 330.433 107.773 328.791 107.773 328.791C107.773 328.791 110.143 335.316 101.519 339.192C97.3059 341.075 92.939 341.118 87.8919 338.578C82.5814 335.929 76.5249 330.433 69.0639 321.237C54.4711 303.282 27.6994 305.056 16.9687 304.158C11.8119 303.72 6.32587 299.275 4.5484 294.239C2.63927 288.787 5.03117 282.678 16.9687 280.313C39.8783 275.781 83.92 296.735 83.92 296.735C66.65 254.279 90.1741 221.478 90.1741 221.478C135.445 233.521 147.646 289.597 139.021 310.004Z" fill="#F09C46"/>
<path opacity="0.2" d="M139.021 310.004C130.397 330.433 107.773 328.791 107.773 328.791C107.773 328.791 110.143 335.316 101.519 339.192C97.3059 341.075 92.939 341.118 87.8919 338.578C82.5814 335.929 76.5249 330.433 69.0639 321.237C54.4711 303.282 27.6994 305.056 16.9687 304.158C11.8119 303.72 6.32587 299.275 4.5484 294.239C2.63927 288.787 5.03117 282.678 16.9687 280.313C39.8783 275.781 83.92 296.735 83.92 296.735C66.65 254.279 90.1741 221.478 90.1741 221.478C135.445 233.521 147.646 289.597 139.021 310.004Z" fill="#973433"/>
<path opacity="0.48" d="M83.9648 296.713C85.8301 298.421 87.1906 300.304 88.595 302.165C89.9556 304.07 91.2283 305.888 92.5889 308.012C90.1311 307.245 88.2659 305.406 86.8176 303.457C85.4132 301.443 84.294 299.231 83.9648 296.713Z" fill="#973433"/>
<path opacity="0.2" d="M87.9138 338.557C82.6033 335.907 76.5468 330.411 69.0858 321.215C54.493 303.26 27.7213 305.034 16.9906 304.136C11.8338 303.698 6.34778 299.253 4.57031 294.217C6.76472 292.181 11.0657 289.619 18.9217 289.488C32.0443 289.291 57.7846 296.516 72.7724 308.012C86.7069 318.675 102.309 333.302 87.9138 338.557Z" fill="#973433"/>
<path d="M16.2673 289.619C16.026 288.743 16.1137 287.911 16.3112 287.101C16.5087 286.291 16.9037 285.524 17.3865 284.824C17.9351 284.145 18.5934 283.554 19.4053 283.16C20.2173 282.787 21.1609 282.656 21.9947 282.919C21.3364 283.554 20.8536 284.035 20.3928 284.539C19.9539 285.086 19.537 285.568 19.142 286.116C18.3081 287.232 17.5182 288.393 16.2673 289.619Z" fill="#973433"/>
<path d="M17.1446 292.093C16.7058 292.312 16.3108 292.75 16.2669 293.232C16.223 293.692 16.4644 294.108 16.7716 294.458C17.1008 294.852 17.5177 295.181 18.0005 295.378C19.4268 295.969 23.0915 295.859 22.4551 293.538C21.9065 291.436 18.7905 291.261 17.1446 292.093Z" fill="#F8C794"/>
<path d="M9.68321 296.451C9.5296 298.553 11.7898 299.691 13.5673 300.041C14.467 300.217 15.5423 300.085 16.3542 299.669C16.7931 299.428 17.1881 299.034 17.2978 298.553C17.4733 297.764 16.9028 296.998 16.2664 296.472C14.9498 295.356 9.90265 293.21 9.68321 296.451Z" fill="#F8C794"/>
<path d="M35.1603 295.991C32.5051 295.596 29.8279 295.487 27.2604 295.969C25.3732 296.341 21.0722 297.677 20.743 299.998C20.6333 300.742 21.16 301.465 21.8183 301.859C22.4766 302.231 23.2447 302.341 23.9908 302.45C29.1257 303.085 34.3045 303.348 39.3955 304.333C45.079 305.45 50.7406 307.026 55.9413 309.588C61.4492 312.303 66.0355 316.201 70.3146 320.536C71.368 321.609 72.5529 323.448 73.9793 324.039C74.8351 324.39 75.8884 323.93 76.4151 323.164C76.9417 322.397 77.0515 321.412 76.9856 320.47C76.5467 313.091 69.766 309.041 63.9509 305.888C57.2799 302.275 50.1481 299.494 42.7749 297.655C40.361 297.042 37.7716 296.385 35.1603 295.991Z" fill="#F8C794"/>
<path d="M97.7004 268.708C101.628 283.269 110.735 295.881 123.002 304.705C135.203 313.464 148.918 320.646 162.743 324.937C175.097 328.769 190.809 330.499 202.725 324.346C214.311 318.368 221.64 304.005 225.546 292.246C232.942 269.913 241.478 242.17 239.569 218.763C238.098 200.765 231.296 182.066 220.302 167.658C212.929 157.98 203.295 149.331 190.721 147.12C189.448 143.769 189.887 140.354 185.411 140.485C182.361 140.573 183.436 146.703 183.436 146.703C183.436 146.703 181.197 140.507 177.906 140.332C174.614 140.135 177.357 147.01 177.357 147.01C176.019 143.66 150.476 150.032 148.15 150.754C126.074 157.586 113.588 177.336 105.622 197.656C96.691 220.427 91.205 244.272 97.6565 268.489C97.6785 268.533 97.6785 268.621 97.7004 268.708Z" fill="#F8C794"/>
<path opacity="0.48" d="M259.342 127.413C261.141 127.085 262.919 126.734 264.652 126.274C266.386 125.815 268.141 125.289 269.721 124.523L271.367 123.713L270.27 125.202C270.007 125.552 269.765 126.012 269.765 126.318C269.787 126.472 269.787 126.45 269.853 126.493C269.897 126.537 270.204 126.603 270.27 126.581C270.445 126.581 270.862 126.274 271.148 125.924C271.455 125.574 271.718 125.18 271.982 124.764C272.508 123.932 272.969 123.056 273.386 122.136C273.803 121.238 274.198 120.275 274.461 119.399L275.032 117.428L275.624 119.399C275.866 120.187 276.195 120.998 276.59 121.698C276.985 122.399 277.555 123.034 277.994 122.902C278.521 122.859 279.113 122.18 279.508 121.479C279.925 120.779 280.254 119.968 280.54 119.18L280.671 118.808L281.044 118.83C282.01 118.896 283.085 118.786 284.095 118.589C285.104 118.392 286.114 118.085 287.079 117.691C288.045 117.297 289.01 116.859 289.888 116.29C290.788 115.742 291.643 115.108 292.477 114.451C291.731 115.217 290.963 115.94 290.085 116.575C289.23 117.231 288.286 117.757 287.342 118.261C286.355 118.72 285.345 119.093 284.27 119.355C283.195 119.618 282.142 119.793 280.979 119.793L281.483 119.443C281.242 120.341 280.935 121.195 280.474 122.027C280.254 122.443 279.991 122.837 279.64 123.209C279.289 123.581 278.828 123.932 278.192 124.041C277.885 124.085 277.555 124.063 277.248 123.932C276.941 123.822 276.721 123.647 276.524 123.45C276.129 123.078 275.844 122.684 275.602 122.268C275.12 121.435 274.79 120.603 274.483 119.706L275.668 119.684C275.361 120.757 274.944 121.676 274.505 122.618C274.066 123.559 273.583 124.479 272.991 125.355C272.706 125.793 272.377 126.231 272.004 126.647C271.609 127.019 271.214 127.523 270.358 127.61C270.116 127.61 269.985 127.588 269.809 127.544C269.655 127.501 269.48 127.435 269.304 127.325C268.931 127.107 268.712 126.537 268.8 126.187C268.931 125.464 269.261 125.048 269.634 124.588L270.16 125.267C268.427 125.99 266.649 126.428 264.85 126.756C262.963 127.107 261.163 127.325 259.342 127.413Z" fill="#973433"/>
<path opacity="0.48" d="M157.631 119.487C159.277 120.822 160.922 122.136 162.612 123.384C163.446 124.019 164.302 124.61 165.18 125.18C166.057 125.727 166.979 126.274 167.857 126.537L168.098 126.603L168.186 126.866C168.471 127.698 168.8 128.574 169.239 129.318C169.634 130.062 170.293 130.785 170.753 130.697C170.973 130.676 171.039 130.632 171.148 130.26C171.214 129.931 171.192 129.493 171.148 129.077C171.039 128.223 170.753 127.347 170.468 126.515L169.634 124.151L171.456 125.858C172.158 126.515 172.926 127.172 173.716 127.742C174.506 128.311 175.34 128.858 176.196 129.165C176.612 129.318 177.051 129.406 177.359 129.318C177.71 129.23 177.951 129.055 177.973 128.793C178.039 128.136 177.424 127.172 176.854 126.493L175.998 125.486L177.249 125.793C178.873 126.187 180.54 126.45 182.208 126.669C183.876 126.888 185.566 126.953 187.255 126.844C185.588 127.216 183.876 127.238 182.164 127.194C180.453 127.128 178.763 126.931 177.073 126.647L177.49 125.924C177.863 126.318 178.192 126.734 178.478 127.194C178.741 127.676 179.026 128.179 179.004 128.902C178.982 129.252 178.807 129.668 178.522 129.909C178.39 130.041 178.236 130.15 178.083 130.216C177.929 130.303 177.775 130.369 177.622 130.391C176.942 130.566 176.349 130.413 175.822 130.238C174.769 129.887 173.869 129.318 173.014 128.705C172.158 128.092 171.368 127.457 170.6 126.734L171.587 126.077C171.938 126.997 172.18 127.917 172.311 128.924C172.377 129.427 172.399 129.931 172.289 130.522C172.246 130.676 172.202 130.829 172.136 130.982C172.048 131.135 171.96 131.289 171.829 131.42C171.543 131.705 171.17 131.858 170.819 131.858C170.095 131.902 169.503 131.486 169.151 131.092C168.778 130.697 168.515 130.26 168.274 129.822C167.813 128.946 167.484 128.048 167.22 127.107L167.55 127.457C166.452 127.041 165.575 126.428 164.697 125.815C163.841 125.18 163.007 124.523 162.195 123.822C160.637 122.465 159.079 121.019 157.631 119.487Z" fill="#973433"/>
<path d="M257.717 350.249C237.002 367 208.146 346.264 208.146 346.264C182.603 368.248 160.856 362.971 160.681 347.687C160.637 345.432 161.098 342.936 162.085 340.264C169.7 319.726 175.251 269.08 178.389 264.176C178.389 264.154 178.411 264.154 178.411 264.154C181.549 259.227 191.249 257.3 196.932 269.628C202.923 282.568 197.985 305.778 197.678 307.18C214.685 257.979 240.798 239.849 256.049 240.419C271.322 240.988 276.918 272.08 276.918 272.08C276.918 272.08 278.432 333.499 257.717 350.249Z" fill="#F09C46"/>
<path opacity="0.48" d="M197.436 307.639C198.314 308.603 199.082 309.632 199.828 310.727C200.574 311.8 201.211 312.938 201.671 314.208C201.847 314.865 202.088 315.522 201.957 316.332C201.759 317.164 201.233 317.799 200.443 318.106C199.631 318.368 198.819 318.215 198.182 317.952C197.502 317.668 196.932 317.339 196.361 316.88L197.305 316.245C198.138 318.828 198.928 321.412 199.214 324.171C199.236 324.872 199.323 325.572 199.082 326.382C198.907 326.798 198.709 327.28 198.029 327.477C197.348 327.609 196.888 327.214 196.624 326.952C195.593 325.769 195.198 324.499 194.715 323.186L195.527 323.12C195.176 324.521 194.781 325.901 194.232 327.214C193.706 328.55 193.091 329.842 192.367 331.046C192.894 329.733 193.377 328.397 193.75 327.039C194.123 325.682 194.474 324.302 194.715 322.945L194.957 321.521L195.527 322.879C196.032 324.061 196.646 325.331 197.414 326.163C197.612 326.361 197.787 326.404 197.787 326.382C197.787 326.404 197.831 326.339 197.897 326.273L198.007 326.01C198.138 325.528 198.095 324.85 198.051 324.237C197.919 322.967 197.612 321.675 197.305 320.383C196.997 319.091 196.624 317.821 196.207 316.573L195.571 314.602L197.151 315.938C198.007 316.661 199.236 317.339 200.135 317.077C200.552 316.967 200.991 316.507 201.101 316.091C201.233 315.61 201.101 314.975 200.969 314.405C200.64 313.223 200.048 312.062 199.455 310.924C198.819 309.829 198.138 308.734 197.436 307.639Z" fill="#973433"/>
<path opacity="0.48" d="M208.145 346.264C209.637 343.965 211.239 341.841 212.797 339.673L215.123 336.433L217.405 333.104C216.769 335.776 215.364 338.206 213.784 340.418C212.972 341.513 212.116 342.564 211.173 343.549C210.251 344.512 209.264 345.454 208.145 346.264Z" fill="#973433"/>
<path d="M242.993 203.524C242.4 203.677 214.948 209.611 198.6 224.96C182.274 240.309 188.572 251.564 195.045 252.089C195.045 252.089 197.986 257.213 204.766 256.337C204.766 256.337 210.384 263.147 219.315 262.446C228.246 261.745 238.363 251.848 238.363 251.848L256.554 255.133L264.827 226.186L242.993 203.524Z" fill="#F09C46"/>
<path opacity="0.48" d="M205.073 256.337C204.897 254.454 205.161 252.505 205.797 250.688C206.411 248.87 207.377 247.141 208.672 245.674C209.966 244.25 211.48 242.937 213.236 242.105C214.07 241.601 215.013 241.338 215.891 240.988C216.813 240.725 217.756 240.528 218.678 240.375C217.822 240.813 216.944 241.119 216.133 241.557C215.321 242.039 214.465 242.389 213.741 242.937L212.6 243.703L211.546 244.579C211.173 244.842 210.866 245.17 210.559 245.498C210.252 245.827 209.9 246.112 209.637 246.484C208.43 247.819 207.487 249.396 206.719 251.06C205.95 252.702 205.38 254.476 205.073 256.337Z" fill="#973433"/>
<path opacity="0.48" d="M195.044 252.089C194.188 248.914 194.32 245.498 195.264 242.302C195.746 240.703 196.514 239.192 197.502 237.835C198.467 236.455 199.828 235.404 201.232 234.594C200.113 235.798 199.082 237.003 198.292 238.36C197.524 239.718 196.844 241.141 196.427 242.652C195.966 244.141 195.659 245.695 195.417 247.272C195.242 248.849 195.088 250.447 195.044 252.089Z" fill="#973433"/>
<path opacity="0.48" d="M335.464 218.347C331.294 226.624 325.523 234.156 318.348 240.134C317.514 240.944 316.504 241.557 315.583 242.28C314.639 242.958 313.739 243.725 312.73 244.294L309.745 246.133C308.758 246.747 307.683 247.228 306.651 247.776C304.611 248.914 302.416 249.724 300.266 250.666C298.049 251.41 295.877 252.286 293.617 252.856C289.14 254.169 284.51 255.023 279.88 255.571C277.554 255.877 275.227 256.009 272.901 256.162C270.575 256.206 268.227 256.315 265.901 256.249C256.685 256.03 247.49 254.87 238.559 252.505C236.408 254.826 234.038 256.862 231.449 258.636C228.728 260.432 225.788 261.964 222.518 262.643C219.27 263.366 215.891 263.169 212.709 262.249C209.659 261.285 206.806 259.578 204.787 256.928C203.909 256.906 203.032 256.862 202.132 256.753C201.474 256.665 200.837 256.556 200.179 256.381C199.85 256.293 199.52 256.206 199.191 256.096C198.248 255.79 197.304 255.352 196.47 254.739C196.053 254.432 195.658 254.082 195.329 253.666C195.044 253.337 194.803 252.987 194.605 252.549C192.301 251.892 190.392 250.184 189.317 248.104C188.197 245.936 187.956 243.418 188.263 241.054C189.009 236.302 191.511 232.12 194.495 228.573C197.502 225.004 201.057 221.982 204.721 219.136C208.474 216.377 212.511 214.056 216.725 212.085C217.712 211.625 218.722 211.165 219.731 210.749C227.236 207.509 235.07 205.144 242.992 203.283C251.989 201.181 261.117 199.67 270.312 198.772C261.139 199.801 252.033 201.487 243.101 203.743C235.531 205.691 228.048 207.969 220.916 211.078C219.621 211.625 218.348 212.238 217.076 212.83C212.928 214.822 208.956 217.143 205.314 219.902C201.715 222.727 198.248 225.77 195.307 229.252C192.411 232.711 190.041 236.784 189.36 241.207C189.097 243.396 189.317 245.674 190.326 247.579C191.291 249.484 193.069 250.994 195.154 251.498L195.439 251.586L195.571 251.914C195.812 252.571 196.448 253.315 197.151 253.797C197.853 254.323 198.687 254.717 199.564 254.979C200.069 255.155 200.596 255.286 201.144 255.374C201.517 255.461 201.89 255.505 202.264 255.549C203.185 255.658 204.129 255.702 205.072 255.702H205.38L205.577 255.965C207.311 258.395 210.119 260.147 213.038 261.023C216 261.877 219.248 262.03 222.255 261.395C225.305 260.76 228.157 259.293 230.791 257.585C233.38 255.833 235.838 253.731 237.923 251.432L238.164 251.17L238.537 251.257C247.424 253.688 256.685 254.892 265.923 255.133C270.553 255.22 275.184 255.067 279.792 254.563C284.378 254.082 288.964 253.272 293.419 252.023C295.657 251.476 297.83 250.644 300.024 249.921C302.153 249.002 304.325 248.235 306.366 247.119C310.535 245.126 314.398 242.542 318.062 239.718C325.26 233.959 331.163 226.58 335.464 218.347Z" fill="#973433"/>
<path d="M323.55 142.259C317.998 146.922 311.327 150.119 304.502 152.594C297.458 155.155 289.997 157.498 282.449 157.739C277.95 157.892 269.326 157.082 267.395 152.024C264.169 143.463 281.044 141.098 285.938 139.412C293.464 136.828 300.662 133.281 307.333 128.902C308.781 127.96 310.756 126.165 312.095 124.851C312.314 125.092 312.512 125.355 312.731 125.618C314.86 128.245 316.879 131.026 318.722 133.894C318.744 133.916 318.766 133.938 318.766 133.96C320.456 136.588 322.036 139.303 323.484 142.105C323.506 142.149 323.528 142.193 323.55 142.259Z" fill="#973433"/>
<path d="M268.799 255.724C261.689 255.746 255.282 255.089 250.191 254.323C250.981 251.651 251.244 248.761 250.871 246.112C250.344 242.214 248.501 238.579 248.018 234.682C247.887 233.74 247.865 232.777 248.216 231.901C250.52 225.945 257.52 231.682 260.153 234.31C265.793 239.915 268.953 247.863 268.799 255.724Z" fill="#973433"/>
<path d="M275.184 216.092C273.56 218.588 269.874 218.632 267.087 217.625C261.842 215.72 257.98 211.319 253.372 208.166C249.904 205.779 246.306 204.4 242.531 203.633C251.002 201.531 258.704 200.261 263.839 199.561C267.526 201.619 270.795 204.4 273.407 207.684C275.272 210.114 276.83 213.53 275.184 216.092Z" fill="#973433"/>
<path d="M335.597 178.891C329.013 182.525 321.07 184.189 314.816 180.927C307.947 177.336 317.602 167.658 321.114 164.987C324.032 162.797 326.863 160.476 329.606 158.089C329.803 157.914 329.957 157.739 330.154 157.542C332.327 163.782 334.017 170.264 335.245 176.898C335.377 177.555 335.487 178.212 335.597 178.891Z" fill="#973433"/>
<path d="M337.748 212.37C337.748 212.961 337.726 213.552 337.704 214.143C332.02 216.18 325.942 217.253 320.171 215.698C319.051 215.391 317.91 214.953 317.12 214.078C315.167 211.866 316.747 208.319 318.92 206.37C323.374 202.341 329.606 199.845 334.654 196.561C335.487 196.013 336.409 195.422 337.375 194.875C337.397 195.4 337.441 195.948 337.462 196.495C337.748 201.641 337.835 206.939 337.748 212.37Z" fill="#973433"/>
<path opacity="0.48" d="M273.121 309.763C273.714 307.53 274.284 305.297 274.789 303.063C275.316 300.83 275.776 298.574 276.193 296.319C277.027 291.809 277.686 287.254 277.949 282.678C278.103 280.401 278.19 278.102 278.124 275.824C278.059 273.547 277.817 271.27 277.51 269.015C277.181 266.759 276.588 264.548 275.776 262.424C274.986 260.278 273.867 258.264 272.463 256.425C274.087 258.067 275.338 260.081 276.325 262.183C277.291 264.307 277.971 266.562 278.432 268.84C279.353 273.416 279.419 278.124 279.156 282.744C278.783 287.364 278.124 291.962 277.093 296.494C276.062 301.005 274.811 305.45 273.121 309.763Z" fill="#973433"/>
<path d="M335.266 244.469C334.498 250.031 333.533 255.593 332.37 261.11C332.304 261.483 332.216 261.855 332.128 262.227C329.605 262.774 327.015 263.037 324.448 262.818C322.473 262.643 320.454 262.139 318.874 260.935C317.272 259.709 316.197 257.716 316.526 255.746C316.921 253.337 319.181 251.695 321.332 250.491C325.765 248.038 330.548 246.331 335.266 244.469Z" fill="#973433"/>
<path d="M325.788 285.196C323.264 292.619 320.346 299.801 316.901 306.523C313.916 305.866 311.042 304.771 308.386 303.282C306.016 301.99 303.734 300.326 302.439 297.961C301.145 295.575 301.057 292.422 302.856 290.385C304.941 288.021 308.562 288.064 311.744 287.999C316.923 287.867 321.421 286.772 325.788 285.196Z" fill="#973433"/>
<path d="M302.461 330.105C298.05 335.338 293.53 339.564 287.275 343.177C282.711 340.374 278.937 335.447 277.488 330.28C276.874 328.112 276.655 325.747 277.423 323.645C278.213 321.543 280.166 319.77 282.426 319.726C284.137 319.682 285.717 320.624 287.166 321.543C290.721 323.821 294.122 326.361 297.874 328.265C299.367 328.966 300.881 329.623 302.461 330.105Z" fill="#973433"/>
<path opacity="0.48" d="M239.832 167.724C240.425 169.453 241.258 171.139 242.553 172.388C243.168 172.979 244.023 173.482 244.726 173.636C245.384 173.658 245.976 172.847 246.371 172.103C247.183 170.526 247.622 168.753 248.061 167.001C248.478 165.228 248.807 163.432 249.092 161.637L249.97 155.944L250.277 161.702C250.343 162.928 250.519 164.177 250.76 165.359C251.023 166.541 251.397 167.746 252.055 168.643C252.384 169.059 252.823 169.388 253.196 169.41C253.547 169.453 253.964 169.191 254.293 168.731C254.951 167.833 255.368 166.607 255.676 165.446L256.597 165.578C256.4 167.461 256.531 169.453 257.146 171.249C257.453 172.147 257.914 173.001 258.572 173.701C259.231 174.402 260.108 174.906 261.052 175.19C260.086 175.015 259.121 174.599 258.353 173.92C257.585 173.241 256.992 172.388 256.597 171.446C256.18 170.504 255.961 169.519 255.807 168.512C255.676 167.505 255.61 166.497 255.676 165.468L256.597 165.6C256.334 166.914 256.005 168.162 255.193 169.366C254.798 169.913 254.096 170.592 253.13 170.526C252.23 170.461 251.572 169.913 251.133 169.344C250.255 168.183 249.882 166.87 249.575 165.6C249.29 164.308 249.136 163.038 249.07 161.724L250.255 161.79C249.97 163.629 249.575 165.446 249.092 167.242C248.61 169.037 248.039 170.833 247.052 172.497C246.81 172.913 246.525 173.307 246.152 173.679C245.801 174.03 245.252 174.358 244.638 174.292C243.541 174.03 242.816 173.439 242.158 172.716C240.929 171.293 240.205 169.519 239.832 167.724Z" fill="#973433"/>
<path opacity="0.2" d="M189.537 314.646C180.079 342.038 174.263 355.548 160.702 347.665C160.658 345.41 161.119 342.914 162.106 340.243C169.721 319.704 175.273 269.059 178.411 264.154C178.411 264.132 178.433 264.132 178.433 264.132C180.913 263.234 184.27 262.796 187.496 264.986C193.728 269.19 199.192 286.707 189.537 314.646Z" fill="#973433"/>
<path d="M178.632 288.677C177.885 289.969 177.578 291.48 177.315 292.947C175.472 302.888 174.111 312.938 171.5 322.704C170.446 326.645 169.174 330.543 168.142 334.506C167.901 335.447 167.681 336.542 168.274 337.33C168.735 337.965 169.613 338.206 170.402 338.075C171.192 337.944 171.873 337.506 172.487 337.002C174.001 335.754 175.142 334.09 176.086 332.36C177.205 330.324 178.061 328.156 178.917 325.988C182.625 316.573 186.158 306.939 187.277 296.888C187.629 293.801 187.541 289.86 185.368 287.342C183.415 285.086 179.926 286.466 178.632 288.677Z" fill="#F8C794"/>
<path d="M188.222 280.269C188.244 280.882 188.397 281.539 188.814 281.999C189.165 282.393 189.648 282.634 190.131 282.853C190.921 283.225 191.82 283.576 192.61 283.225C194.476 282.371 194.169 278.518 192.83 277.313C190.657 275.365 188.09 277.905 188.222 280.269Z" fill="#F8C794"/>
<path d="M181.155 272.168C181.111 273.022 181.221 273.941 181.682 274.664C182.406 275.824 183.942 276.306 185.259 275.978C186.576 275.649 187.651 274.62 188.243 273.394C188.638 272.562 188.858 271.599 188.551 270.723C188.09 269.387 186.027 267.92 184.601 267.942C182.275 267.986 181.221 270.197 181.155 272.168Z" fill="#F8C794"/>
<path d="M176.943 280.51C177.14 280.707 177.404 280.839 177.667 280.904C179.817 281.517 183.021 278.627 180.366 277.182C178.523 276.175 175.253 278.737 176.943 280.51Z" fill="#F8C794"/>
<path opacity="0.48" d="M139.372 266.65L138.626 267.373C138.034 265.511 137.529 263.628 137.134 261.723C136.936 260.76 136.783 259.797 136.717 258.811C136.651 257.826 136.629 256.819 136.892 255.79C137.046 255.286 137.287 254.695 137.88 254.388C138.143 254.235 138.494 254.169 138.758 254.191C139.043 254.191 139.306 254.191 139.57 254.301C140.623 254.607 141.369 255.395 141.94 256.206C143.059 257.848 143.761 259.665 144.244 261.548C143.563 259.753 142.73 257.979 141.545 256.534C140.952 255.833 140.228 255.198 139.394 255.001C139.197 254.936 138.977 254.936 138.78 254.957C138.56 254.936 138.407 255.001 138.253 255.089C137.968 255.242 137.792 255.614 137.682 256.03C137.353 257.76 137.814 259.709 138.165 261.548C138.582 263.409 139.109 265.249 139.701 267.044L140.074 268.161L138.955 267.767C137.66 267.307 136.3 266.935 134.961 266.716C134.281 266.606 133.623 266.54 132.986 266.562C132.372 266.562 131.758 266.847 131.67 267.044C131.538 267.175 131.911 267.854 132.35 268.292C132.789 268.774 133.316 269.212 133.864 269.65C134.961 270.504 136.146 271.248 137.331 271.971L138.911 272.912H137.068C135.839 272.912 134.566 273.022 133.381 273.306C132.218 273.591 130.946 274.117 130.726 275.168C130.616 275.693 130.748 276.284 131.165 276.635C131.582 277.007 132.196 277.204 132.811 277.291C134.04 277.467 135.334 277.401 136.585 277.204C135.356 277.532 134.062 277.751 132.767 277.642C132.131 277.576 131.428 277.467 130.858 277.029C130.265 276.591 129.98 275.781 130.112 275.058C130.221 274.292 130.77 273.701 131.341 273.328C131.911 272.934 132.547 272.693 133.184 272.518C134.457 272.146 135.751 271.971 137.09 271.905L136.849 272.847C135.576 272.146 134.369 271.38 133.206 270.526C132.635 270.088 132.065 269.628 131.538 269.08C131.275 268.796 131.033 268.511 130.814 268.139C130.616 267.789 130.375 267.263 130.616 266.628C130.726 266.322 130.924 266.124 131.121 265.993C131.319 265.818 131.516 265.73 131.736 265.643C132.152 265.468 132.569 265.402 132.942 265.38C133.732 265.336 134.479 265.402 135.203 265.511" fill="#973433"/>
<path d="M220.917 211.078C219.623 211.625 218.35 212.238 217.077 212.83C212.93 214.822 208.958 217.143 205.315 219.902C201.716 222.727 198.249 225.77 195.309 229.252C192.412 232.711 190.042 236.784 189.362 241.207C189.098 243.396 189.318 245.674 190.327 247.579C191.293 249.484 193.07 250.994 195.155 251.498L195.44 251.586L195.572 251.914C195.813 252.571 196.45 253.315 197.152 253.797C197.854 254.323 198.688 254.717 199.566 254.979C200.07 255.155 200.597 255.286 201.146 255.374L200.18 256.359L196.011 260.563L61.9766 215.807L99.3692 177.402L219.71 210.749L220.917 211.078Z" fill="#E05656"/>
<path d="M196.011 260.541L174.023 187.277L35.2266 148.981L61.9764 215.807L196.011 260.541Z" fill="#E05656"/>
<path d="M103.758 210.487C103.802 210.837 92.3035 201.422 94.4101 194.678C96.5387 187.934 111.483 190.101 111.483 190.101C111.483 190.101 102.31 197.743 103.758 210.487Z" fill="white"/>
<path d="M136.06 216.158C136.06 216.158 132.614 206.764 136.586 197.634C136.586 197.634 127.348 199.582 124.824 206.83C124.824 206.852 128.621 214.647 136.06 216.158Z" fill="white"/>
<path d="M121.861 208.516C104.635 208.516 100.685 197.086 100.642 196.955C100.444 196.386 100.773 195.773 101.344 195.575C101.914 195.4 102.529 195.707 102.726 196.276C102.902 196.824 107.466 209.567 129.849 205.56C130.442 205.451 131.012 205.845 131.122 206.436C131.232 207.027 130.837 207.596 130.244 207.706C127.128 208.275 124.363 208.516 121.861 208.516Z" fill="white"/>
<path d="M121.665 216.42C121.292 216.42 120.919 216.223 120.722 215.895C120.7 215.851 118.308 211.844 116.047 207.268L115.74 206.655L116.157 206.107C116.311 205.91 119.953 201.137 123.618 199.254C124.145 198.969 124.825 199.188 125.088 199.714C125.374 200.261 125.154 200.918 124.628 201.181C122.082 202.495 119.361 205.626 118.33 206.874C120.458 211.1 122.587 214.691 122.609 214.713C122.916 215.238 122.74 215.895 122.236 216.223C122.06 216.377 121.863 216.42 121.665 216.42Z" fill="white"/>
<path d="M102.068 196.32C101.651 197.327 100.51 197.831 99.4783 197.415C98.4689 196.999 97.9641 195.86 98.3811 194.831C98.798 193.824 99.9391 193.32 100.97 193.736C101.98 194.152 102.485 195.313 102.068 196.32Z" fill="#E05656"/>
<path d="M113.304 215.764C112.931 215.764 112.58 215.588 112.383 215.26C112.229 215.041 108.828 209.611 107.314 204.378L107.16 203.874L107.467 203.436C107.599 203.261 110.627 199.013 114.511 196.101C114.994 195.729 115.696 195.838 116.048 196.32C116.421 196.802 116.311 197.48 115.828 197.853C112.909 200.042 110.43 203.152 109.574 204.268C111.066 209.063 114.182 214.034 114.226 214.078C114.555 214.581 114.402 215.26 113.897 215.588C113.699 215.72 113.502 215.764 113.304 215.764Z" fill="white"/>
<path d="M35.2266 148.981L39.1107 146.572L175.559 183.664L199.609 256.972L196.011 260.541L171.85 186.861L35.2266 148.981Z" fill="#973433"/>
<path opacity="0.45" d="M55.2613 182.306C55.3491 182.635 44.4648 155.484 44.4648 155.484C44.4648 155.484 73.2115 163.476 72.7946 163.432C72.3777 163.366 51.2675 166.3 55.2613 182.306Z" fill="white"/>
<path d="M351.419 66.98C351.265 66.98 351.09 66.9362 350.958 66.8705C350.388 66.564 336.98 59.2726 334.873 51.2587C334.303 49.0472 334.61 46.9889 335.817 45.1059C337.66 42.2375 339.898 40.7048 342.488 40.5077C346.372 40.2231 349.861 43.1352 351.441 44.6899C352.999 43.1352 356.488 40.2231 360.394 40.5077C362.983 40.7048 365.222 42.2375 367.065 45.1059C368.272 46.9889 368.579 49.0472 368.009 51.2587C365.902 59.2507 352.494 66.564 351.924 66.8705C351.748 66.9362 351.573 66.98 351.419 66.98ZM343.014 42.4127C342.883 42.4127 342.751 42.4127 342.619 42.4346C340.688 42.5659 338.955 43.814 337.463 46.135C336.541 47.5582 336.321 49.091 336.76 50.777C338.45 57.1925 349.049 63.5642 351.419 64.9218C353.789 63.5642 364.41 57.1925 366.078 50.777C366.516 49.0691 366.297 47.5582 365.375 46.135C363.883 43.814 362.15 42.5659 360.218 42.4346C356.312 42.1499 352.582 46.2664 352.165 46.7481C351.989 46.967 351.704 47.0765 351.419 47.0765C351.134 47.0765 350.87 46.9451 350.673 46.7481C350.278 46.2664 346.767 42.4127 343.014 42.4127Z" fill="#E05656"/>
<path d="M192.346 273.547C192.631 272.868 193.136 272.387 193.728 272.08C194.321 271.752 195.023 271.598 195.747 271.642C196.471 271.708 197.217 271.993 197.744 272.518C198.293 273 198.578 273.701 198.578 274.423C197.854 274.248 197.349 274.073 196.866 274.007C196.405 273.941 196.01 273.854 195.571 273.854C194.716 273.722 193.75 273.744 192.346 273.547Z" fill="#973433"/>
<path d="M341.236 149.419L348.697 144.908L349.114 136.215L355.851 141.908L364.321 139.697L361.03 147.711L365.88 155.046L357.102 154.323L351.594 161.067L349.487 152.594L341.236 149.419Z" fill="white"/>
<path d="M376.039 160.038L379.682 160.367L381.986 157.542L382.842 161.133L386.243 162.491L383.127 164.374L382.929 168.052L380.165 165.622L376.61 166.541L378.014 163.147L376.039 160.038Z" fill="white"/>
<path d="M35.4248 246.528C35.2712 246.528 35.0956 246.484 34.9639 246.418C34.3934 246.112 20.9856 238.82 18.879 230.806C18.3084 228.595 18.6156 226.536 19.8225 224.653C21.6658 221.785 23.9041 220.252 26.4935 220.055C30.3776 219.771 33.8667 222.683 35.4467 224.237C37.0047 222.683 40.4938 219.771 44.3999 220.055C46.9893 220.252 49.2276 221.785 51.0709 224.653C52.2778 226.536 52.585 228.595 52.0145 230.806C49.9078 238.798 36.5 246.112 35.9295 246.418C35.7539 246.484 35.5784 246.528 35.4248 246.528ZM27.0202 221.96C26.8885 221.96 26.7569 221.96 26.6252 221.982C24.6941 222.113 22.9605 223.362 21.4684 225.683C20.5467 227.106 20.3273 228.639 20.7661 230.325C22.4558 236.74 33.0548 243.112 35.4248 244.469C37.7947 243.112 48.4156 236.74 50.0834 230.325C50.5223 228.617 50.3028 227.106 49.3812 225.683C47.889 223.362 46.1554 222.113 44.2243 221.982C40.3183 221.697 36.5878 225.814 36.1709 226.296C35.9953 226.515 35.71 226.624 35.4248 226.624C35.1395 226.624 34.8762 226.493 34.6787 226.296C34.2837 225.814 30.7726 221.96 27.0202 221.96Z" fill="#E05656"/>
</g>
<defs>
<filter id="filter0_d_916_1239" x="0" y="3.05176e-05" width="448" height="369" filterUnits="userSpaceOnUse" color-interpolation-filters="sRGB">
<feFlood flood-opacity="0" result="BackgroundImageFix"/>
<feColorMatrix in="SourceAlpha" type="matrix" values="0 0 0 0 0 0 0 0 0 0 0 0 0 0 0 0 0 0 127 0" result="hardAlpha"/>
<feOffset dy="4"/>
<feGaussianBlur stdDeviation="2"/>
<feComposite in2="hardAlpha" operator="out"/>
<feColorMatrix type="matrix" values="0 0 0 0 0 0 0 0 0 0 0 0 0 0 0 0 0 0 0.25 0"/>
<feBlend mode="normal" in2="BackgroundImageFix" result="effect1_dropShadow_916_1239"/>
<feBlend mode="normal" in="SourceGraphic" in2="effect1_dropShadow_916_1239" result="shape"/>
</filter>
<clipPath id="clip0_916_1239">
<rect width="440" height="361" fill="white" transform="translate(4 3.05176e-05)"/>
</clipPath>
</defs>
</svg>
