<svg width="656" height="523" viewBox="0 0 656 523" fill="none" xmlns="http://www.w3.org/2000/svg">
<path d="M77.6217 249.996C77.6217 249.996 68.7572 254.466 66.4455 255.911C65.2473 256.656 142.541 408.54 147.57 413.097C182.351 392.597 259.932 349.902 274.651 372.247L310.426 363.646C310.426 363.646 341.155 322.934 410.646 342.767C467.892 359.11 398.523 276.248 398.523 276.248L77.6217 249.996Z" fill="#DC5656"/>
<path opacity="0.62" d="M87.5916 263.856L79.1467 254.649L75.6201 263.418L72.8992 258.331L81.8869 213.752L95.2072 212.394L100.448 214.105L109.156 259.908C108.465 259.43 84.1579 236.196 84.1579 236.196L81.8863 242.395L87.5171 253.697L79.7518 246.956L87.5916 263.856Z" fill="#D16262"/>
<path d="M421.212 336.141C419.198 335.376 344.712 312.112 307.147 354.287L279.309 362.031C279.309 362.031 265.305 326.606 148.053 398.494L75.6081 263.436L72.8873 258.349L81.8749 213.77L95.1952 212.411L309.594 191.974L395.866 309.825L421.212 336.141Z" fill="white"/>
<path d="M104.597 188.072L96.9559 172.097C96.9559 172.097 101.3 167.753 106.992 168.7L113.481 180.544L104.597 188.072Z" fill="#DC5656"/>
<path d="M123.061 185.496L108.954 156.696C108.954 156.696 113.376 151.75 117.992 153.265L130.987 180.298L123.061 185.496Z" fill="#8DD5B6"/>
<path d="M151.338 183.674L137.853 154.963C137.853 154.963 142.428 150.779 147.789 153.152L159.513 178.648L151.338 183.674Z" fill="#E59146"/>
<path d="M294.802 349.048L213.419 171.284C213.419 171.284 138.153 120.543 78.4606 215.633L147.048 369.523C147.066 369.535 239.795 287.759 294.802 349.048Z" fill="#EFA8A8"/>
<path opacity="0.62" d="M293.479 358.503C290.984 355.516 288.14 352.917 285.253 350.42C282.311 347.963 279.265 345.696 276.077 343.595C272.865 341.528 269.567 339.587 266.164 337.834C262.755 336.052 259.272 334.454 255.717 332.807C257.606 333.223 259.5 333.746 261.376 334.257C263.201 334.917 265.1 335.47 266.874 336.278C270.504 337.741 273.94 339.673 277.277 341.747C280.529 343.946 283.651 346.37 286.419 349.152C289.175 351.953 291.704 355.043 293.479 358.503Z" fill="#D16262"/>
<path opacity="0.62" d="M296.581 357.395C299.857 352.208 304.138 347.767 308.87 343.85C311.268 341.939 313.801 340.175 316.508 338.689C319.203 337.22 322.096 336.072 325.088 335.387C322.411 336.868 319.881 338.477 317.409 340.153C314.978 341.883 312.589 343.668 310.263 345.55C305.582 349.318 301.153 353.367 296.581 357.395Z" fill="#D16262"/>
<path opacity="0.62" d="M288.078 359.411C285.785 357.798 283.443 356.255 281.04 354.801C278.673 353.294 276.288 351.853 273.841 350.5C268.965 347.807 264.04 345.185 258.896 343.068C253.777 340.915 248.532 339.096 243.134 337.8C240.42 337.287 237.697 336.636 234.929 336.505C232.167 336.063 229.386 336.291 226.551 336.218C229.311 335.793 232.144 335.338 234.997 335.423C236.421 335.411 237.851 335.43 239.253 335.639C240.662 335.801 242.079 335.915 243.499 336.137C249.125 337.065 254.555 338.881 259.8 341.042C265.025 343.268 270.015 345.987 274.758 349.061C279.442 352.146 284.031 355.481 288.078 359.411Z" fill="#D16262"/>
<path d="M113.386 261.681L115.921 267.111C115.921 267.111 173.501 220.309 236.772 237.306L233.91 230.074C233.91 230.074 174.104 213.376 113.386 261.681Z" fill="#D16262"/>
<path d="M120.017 273.544L122.552 278.975C122.552 278.975 180.132 232.173 243.403 249.17L240.541 241.938C240.541 241.938 180.748 225.222 120.017 273.544Z" fill="#D16262"/>
<path d="M107.589 246.904L110.125 252.335C110.125 252.335 167.704 205.533 230.975 222.53L228.114 215.298C228.114 215.298 168.32 198.582 107.589 246.904Z" fill="#D16262"/>
<path d="M102.424 234.06L104.959 239.491C104.959 239.491 162.539 192.689 225.81 209.686L222.949 202.454C222.936 202.472 163.142 185.756 102.424 234.06Z" fill="#D16262"/>
<path d="M294.802 349.049C294.802 349.049 350.563 296.236 416.314 323.745L307.23 173.455C307.23 173.455 256.148 127.144 213.438 171.297L294.802 349.049Z" fill="#EFA8A8"/>
<path d="M519.389 397.701C509.099 406.54 500.73 410.066 493.322 411.107C485.768 412.205 479.237 410.729 472.734 409.666C467.96 408.908 463.213 408.378 458.069 409.254C450.428 410.554 443.636 415.251 437.654 419.799C428.7 426.596 421.565 433.077 416.21 427.4C415.188 426.3 414.595 424.996 414.376 423.532C414.322 423.232 414.31 422.908 414.298 422.585C414.285 422.262 414.273 421.938 414.304 421.591C414.349 420.389 414.599 419.118 415.06 417.809C418.026 408.941 429.164 398.117 442.611 394.719C446.747 393.671 451.085 393.314 455.496 393.952C456.66 394.127 457.853 394.297 459.059 394.45C477.539 397.004 497.764 397.984 513.558 383.505C518.218 379.274 522.483 373.72 526.191 366.469C526.228 366.416 526.247 366.35 526.272 366.315C529.441 360.108 531.353 353.975 532.398 348.108C532.466 347.631 532.577 347.13 532.627 346.64C532.714 346.174 532.777 345.667 532.827 345.177C532.946 344.209 533.048 343.229 533.125 342.285C533.414 338.836 533.384 335.507 533.202 332.361C533.146 331.798 533.12 331.229 533.052 330.683C532.758 327.433 532.25 324.378 531.643 321.542C531.556 321.062 531.456 320.599 531.332 320.172C531.093 319.192 530.835 318.2 530.583 317.238C528.096 308.139 524.68 302.125 524.135 301.17C524.071 301.073 524.065 301.043 524.065 301.043L532.089 293.733C538.262 303.835 542.177 314.737 543.929 325.769C544.246 327.773 544.498 329.759 544.684 331.725C544.773 332.733 544.827 333.715 544.899 334.71C544.947 335.399 544.982 336.106 544.982 336.789C545.001 337.064 545.007 337.358 545.014 337.651C545.019 337.681 544.989 337.687 544.989 337.687C544.999 338.166 545.045 338.591 545.037 339.058L545.024 339.076C545.016 339.543 545.02 339.992 545.011 340.458C544.943 344.612 544.593 348.754 543.916 352.801C543.916 352.801 543.916 352.801 543.933 352.813C543.71 354.234 543.452 355.63 543.151 357.05C543.151 357.05 543.169 357.062 543.157 357.08C543.006 357.789 542.831 358.535 542.651 359.25C538.948 374.145 531.1 387.641 519.389 397.701Z" fill="#E59146"/>
<path opacity="0.2" d="M519.392 397.886C509.12 406.738 500.763 410.246 493.36 411.317C485.717 412.432 479.127 410.888 472.534 409.842C467.82 409.073 463.114 408.598 458.048 409.475C450.455 410.782 443.699 415.425 437.772 419.933C428.746 426.758 421.573 433.292 416.213 427.586C415.156 426.461 414.534 425.085 414.359 423.52C414.305 423.22 414.293 422.896 414.28 422.573C414.268 422.249 414.256 421.926 414.286 421.579C414.362 420.371 414.654 419.077 415.115 417.768C418.194 408.926 429.307 398.215 442.639 394.869C446.762 393.839 451.089 393.499 455.469 394.143C456.633 394.318 457.796 394.494 458.985 394.634C477.56 397.202 497.857 398.153 513.715 383.507C518.284 379.293 522.494 373.78 526.177 366.642C526.208 366.559 526.257 366.488 526.289 366.405C529.458 360.198 531.394 354.029 532.38 348.096C532.479 347.613 532.56 347.117 532.61 346.628C532.696 346.162 532.759 345.654 532.81 345.164C532.929 344.197 533.031 343.217 533.108 342.272C533.397 338.823 533.367 335.495 533.184 332.349C533.129 331.785 533.103 331.216 533.035 330.67C532.74 327.421 532.233 324.366 531.626 321.53C531.526 321.067 531.427 320.605 531.315 320.16C531.076 319.18 530.818 318.188 530.566 317.226C527.828 307.428 524.056 301.246 524.056 301.246L524.135 301.17L532.08 293.937C538.225 303.966 542.116 314.825 543.912 325.756C544.229 327.761 544.481 329.747 544.667 331.713C544.756 332.72 544.81 333.703 544.882 334.698C544.93 335.387 544.965 336.094 544.964 336.776C544.983 337.052 544.99 337.345 544.997 337.639C545.002 337.669 544.972 337.674 544.972 337.674C544.982 338.153 545.028 338.579 545.019 339.046L545.007 339.064C544.999 339.53 545.003 339.979 544.994 340.446C544.961 344.624 544.611 348.766 543.934 352.813C543.711 354.234 543.44 355.648 543.134 357.037C543.134 357.037 543.152 357.049 543.139 357.067C542.989 357.777 542.814 358.522 542.634 359.237C538.995 374.23 531.17 387.768 519.392 397.886Z" fill="#8B3433"/>
<path d="M437.771 419.933C428.745 426.758 421.572 433.292 416.212 427.586C415.155 426.46 414.534 425.085 414.358 423.52C414.304 423.219 414.292 422.896 414.28 422.573C414.267 422.249 414.255 421.926 414.285 421.579C414.331 420.377 414.581 419.106 415.042 417.797C415.072 417.791 415.102 417.786 415.114 417.768C421.119 415.913 430.376 414.551 437.636 419.787C437.677 419.842 437.73 419.878 437.771 419.933Z" fill="#8B3433"/>
<path d="M451.136 404.191C446.129 403.429 443.688 398.09 442.657 394.882C442.616 394.827 442.605 394.767 442.612 394.719C446.748 393.671 451.086 393.314 455.497 393.952C456.661 394.127 457.854 394.297 459.06 394.45C459.059 394.527 459.04 394.593 459.033 394.641C458.146 398.726 456.029 404.927 451.136 404.191Z" fill="#8B3433"/>
<path d="M493.36 411.317C485.717 412.432 479.127 410.888 472.533 409.842C472.583 409.771 472.637 409.73 472.704 409.671C475.325 407.022 479.999 403.642 486.149 404.723C490.521 405.492 492.469 408.285 493.31 411.125C493.321 411.185 493.332 411.245 493.36 411.317Z" fill="#8B3433"/>
<path d="M513.739 383.55C513.673 383.531 513.613 383.542 513.553 383.553C518.213 379.322 522.477 373.768 526.186 366.517C526.223 366.464 526.242 366.398 526.266 366.363C526.272 366.393 526.295 366.435 526.301 366.465C527.632 369.96 528.947 375.333 526.812 379.29C524.385 383.779 517.533 383.866 513.739 383.55Z" fill="#8B3433"/>
<path d="M543.931 352.891C543.914 352.878 543.914 352.878 543.931 352.891C543.896 352.866 543.896 352.866 543.896 352.866C541.441 350.956 539.287 348.31 539.827 345.218C540.289 342.467 542.532 339.871 544.97 337.752C544.979 338.231 545.025 338.657 545.017 339.124L545.005 339.141C544.996 339.608 545 340.057 544.992 340.524C544.958 344.701 544.609 348.844 543.931 352.891Z" fill="#8B3433"/>
<path d="M380.053 305.126C380.053 305.126 360.141 338.624 397.728 365.065C397.728 365.065 372.011 382.625 377.707 399.327C383.402 416.029 395.673 380.497 407.341 377.889C419.008 375.281 429.951 371.332 426.069 357.959C426.069 357.959 470.191 354.768 469.594 319.411C468.998 284.054 380.053 305.126 380.053 305.126Z" fill="#E59146"/>
<path opacity="0.2" d="M379.951 305.16C379.951 305.16 360.039 338.658 397.626 365.099C397.626 365.099 371.909 382.659 377.605 399.362C383.3 416.064 395.571 380.532 407.239 377.923C418.906 375.315 429.849 371.366 425.967 357.993C425.967 357.993 470.089 354.802 469.492 319.445C468.925 284.083 379.951 305.16 379.951 305.16Z" fill="#8B3433"/>
<path d="M387.376 399.72C387.376 399.72 383.437 395.445 386.454 389.079Z" fill="#8B3433"/>
<path d="M253.582 177.112C253.582 177.112 227.536 174.728 200.625 183.822C173.732 192.928 174.771 214.992 184.859 221.976C194.948 228.96 244.108 217.469 267.896 228.267C291.697 239.047 294.152 192.387 294.152 192.387L253.582 177.112Z" fill="#E59146"/>
<path opacity="0.2" d="M253.641 177.102C253.641 177.102 227.595 174.717 200.684 183.811C173.774 192.905 174.83 214.981 184.919 221.965C195.008 228.95 244.167 217.458 267.956 228.256C291.756 239.036 294.211 192.376 294.211 192.376L253.641 177.102Z" fill="#8B3433"/>
<path d="M183.356 220.699C183.905 219.111 184.727 217.658 185.661 216.309C186.589 214.93 187.683 213.692 188.9 212.54C190.123 211.417 191.465 210.351 192.992 209.623C194.501 208.882 196.216 208.337 197.906 208.509C196.379 209.237 195.131 210.132 193.905 211.069C192.697 212.018 191.523 213.069 190.385 214.145C188.068 216.243 185.908 218.528 183.356 220.699Z" fill="#8B3433"/>
<path d="M178.556 205.168C179.106 203.842 179.965 202.678 180.923 201.635C181.881 200.591 183.01 199.719 184.202 198.943C186.617 197.464 189.565 196.538 192.404 197.06C191.112 197.714 189.9 198.214 188.746 198.859C187.591 199.504 186.444 200.101 185.348 200.812C183.11 202.151 181 203.683 178.556 205.168Z" fill="#8B3433"/>
<path d="M546.723 273.542C548.775 268.267 550.172 262.461 550.577 256.23C551.074 249.565 550.431 242.424 548.317 234.87C547.008 230.131 545.085 225.255 542.518 220.249C542.206 219.639 541.871 218.987 541.523 218.353C538.76 213.289 535.479 208.708 531.791 204.527C528.015 200.206 523.824 196.333 519.381 192.864C512.891 187.766 505.865 183.48 498.808 179.96C493.637 177.351 488.454 175.102 483.413 173.214C461.221 164.808 442.093 162.698 442.093 162.698C436.594 156.737 430.796 152.382 425.14 149.149C424.968 149.056 424.796 148.964 424.624 148.871C418.51 145.504 412.598 143.512 407.432 142.298C407.366 142.279 407.318 142.272 407.253 142.253C400.15 140.617 394.503 140.515 391.725 140.587C390.492 140.626 389.838 140.699 389.838 140.699C388.019 136.053 385.804 131.789 383.473 127.996C381.879 125.448 380.24 123.08 378.59 120.993C375.674 117.136 372.839 114.07 370.598 111.889C367.894 109.203 366.101 107.778 366.101 107.778C366.101 107.778 365.53 108.564 364.588 110.039C364.588 110.039 364.588 110.039 364.576 110.056C356.854 104.238 345.895 100.064 331.767 97.7398C331.433 97.6922 331.093 97.6146 330.747 97.5847C327.585 97.0758 324.271 96.672 320.788 96.3611L320.77 96.3488C319.336 96.2226 317.89 96.1141 316.414 96.0111C310.013 95.5964 303.182 95.4618 295.819 95.6413C295.586 95.6373 295.328 95.6689 295.112 95.6771C294.31 95.6994 293.478 95.727 292.711 95.7738C290.543 95.8745 288.494 96.031 286.498 96.2244C286.114 96.2478 285.749 96.2834 285.401 96.3313C285.293 96.3355 285.173 96.3574 285.095 96.3561C276.221 97.3538 268.921 99.3361 262.925 102.011C253.226 106.323 246.909 112.53 242.781 119.517C242.497 120.003 242.23 120.501 241.964 121C240.881 122.98 239.983 125.036 239.227 127.112C239.183 127.213 239.158 127.327 239.126 127.41C238.742 128.457 238.394 129.528 238.076 130.594C237.935 131.101 237.794 131.607 237.666 132.096C237.004 134.605 236.504 137.146 236.123 139.666C236.082 139.952 236.041 140.239 236.012 140.508C235.971 140.794 235.93 141.081 235.889 141.368C235.733 142.73 235.614 144.039 235.579 145.301C235.56 145.366 235.553 145.414 235.582 145.487C235.505 147.113 235.507 148.664 235.593 150.168C235.611 150.862 235.67 151.534 235.73 152.205C236.732 163.374 241.381 171.397 243.984 175.667C252.534 189.725 281.399 205.35 281.399 205.35C281.399 205.35 302.415 201.285 334.01 191.942L333.998 191.96C331.105 214.741 332.677 240.088 343.79 265.293C344.428 266.758 345.085 268.158 345.767 269.523C377.837 336.173 437.404 318.628 447.206 315.228C448.08 314.913 448.574 314.73 448.574 314.73C450.483 315.685 453.234 317.773 456.563 320.314L456.616 320.351C464.16 326.124 474.553 334.107 484.707 336.148C486.925 336.581 489.427 335.846 491.191 334.284C500.827 325.858 511.267 317.938 520.735 309.187C531.598 299.064 541.182 287.873 546.723 273.542Z" fill="#E59146"/>
<path d="M438.89 311.781C441.793 312.741 444.543 313.883 447.177 315.155C437.41 318.58 377.838 336.095 345.755 269.462C356.428 272.572 377.209 275.59 394.215 259.929C403.402 263.821 420.786 269.738 438.427 267.669C438.839 273.704 440.44 279.538 443.301 284.459C443.301 284.459 423.352 278.761 416.204 286.624C415.221 287.703 414.441 288.791 413.907 289.865C410.425 296.827 416.158 304.156 438.89 311.781Z" fill="#EDBC89"/>
<path opacity="0.48" d="M330.245 175.973C331.4 174.987 332.554 174.001 333.686 172.973C334.805 171.963 335.954 170.947 336.997 169.857L337.662 169.162L337.608 170.149C337.577 170.574 337.593 171.005 337.669 171.425C337.727 171.833 337.894 172.237 338.06 172.3C338.113 172.337 338.269 172.339 338.371 172.305C338.444 172.276 338.565 172.177 338.646 172.022C338.837 171.708 338.964 171.298 339.091 170.887C339.31 170.04 339.445 169.163 339.515 168.266C339.603 167.382 339.637 166.46 339.58 165.633L339.484 163.992L340.466 165.301C340.875 165.847 341.344 166.382 341.851 166.786C342.346 167.207 342.963 167.529 343.284 167.331C343.67 167.152 343.933 166.468 344.047 165.812C344.16 165.155 344.203 164.449 344.186 163.755L344.179 163.461L344.426 163.37C345.938 162.815 347.429 162.062 348.804 161.176C349.5 160.739 350.172 160.259 350.822 159.738C351.472 159.216 352.063 158.628 352.654 158.039C351.672 159.381 350.442 160.551 349.108 161.57C347.737 162.564 346.292 163.402 344.694 164.081L344.935 163.696C345.011 164.457 345.004 165.187 344.894 165.952C344.839 166.334 344.755 166.721 344.592 167.108C344.43 167.494 344.177 167.897 343.712 168.152C343.5 168.268 343.235 168.348 342.954 168.337C342.703 168.321 342.459 168.257 342.275 168.182C341.871 168.007 341.552 167.786 341.258 167.53C340.656 167.035 340.169 166.488 339.702 165.875L340.587 165.543C340.641 166.526 340.571 167.422 340.495 168.367C340.4 169.299 340.27 170.206 340.002 171.124C339.868 171.582 339.704 172.046 339.415 172.502C339.267 172.715 339.065 172.969 338.704 173.113C338.367 173.221 338.026 173.221 337.682 173.036C337.044 172.594 337 172.012 336.913 171.532C336.868 171.028 336.877 170.562 336.927 170.072L337.539 170.363C336.412 171.422 335.24 172.395 334.027 173.314C332.736 174.232 331.505 175.139 330.245 175.973Z" fill="#8B3433"/>
<path d="M193.644 276.759C193.631 266.511 216.84 250.68 222.445 240.462C222.445 240.462 222.445 240.462 222.457 240.444C222.934 239.566 223.278 238.728 223.46 237.935C224.318 234.46 226.9 231.942 229.931 230.102C229.944 230.085 229.961 230.097 229.961 230.097C230.802 229.602 231.696 229.145 232.54 228.758C234.32 227.969 236.132 227.359 237.726 226.913C238.333 226.756 238.91 226.604 239.427 226.463C239.517 226.447 239.589 226.418 239.679 226.402C241.116 226.031 242.202 225.864 242.628 225.818C242.778 225.79 242.85 225.762 242.85 225.762L242.925 225.919L269.022 280.058C269.022 280.058 268.95 280.087 268.775 280.149C268.775 280.149 268.69 280.196 268.498 280.246L267.612 280.578C267.455 280.654 267.263 280.704 267.046 280.79C266.058 281.157 264.638 281.617 262.959 282.109C262.303 282.337 261.611 282.541 260.902 282.733C260.342 282.897 259.795 283.043 259.206 283.212C258.899 283.315 258.598 283.37 258.274 283.46C257.372 283.702 256.422 283.937 255.485 284.154C249.423 285.523 242.905 286.262 239.668 284.231C239.366 284.101 239.142 283.893 238.924 283.716C233.913 279.171 193.654 287.845 193.644 276.759Z" fill="#DC5656"/>
<path opacity="0.48" d="M193.428 276.845C193.387 266.447 217.356 250.276 222.47 240.085C222.836 239.367 223.087 238.701 223.243 238.021C224.108 234.498 226.8 231.899 229.932 230.103C229.944 230.085 229.962 230.097 229.962 230.097C230.802 229.603 231.696 229.145 232.541 228.758C234.32 227.969 236.132 227.359 237.726 226.913C238.333 226.756 238.91 226.604 239.427 226.464C239.517 226.447 239.59 226.419 239.68 226.402C241.452 226.001 242.651 225.86 242.651 225.86L268.733 280.173C268.733 280.173 268.648 280.219 268.456 280.27L267.57 280.602C267.413 280.677 267.221 280.728 267.004 280.814C266.016 281.18 264.596 281.64 262.917 282.133C262.261 282.361 261.569 282.564 260.86 282.756C260.3 282.92 259.753 283.066 259.164 283.236C258.857 283.338 258.556 283.393 258.232 283.483C257.318 283.743 256.38 283.96 255.443 284.178C249.819 285.482 243.833 286.248 240.293 284.769C239.663 284.543 239.107 284.21 238.677 283.808C233.667 279.263 193.443 287.961 193.428 276.845Z" fill="#C04A4A"/>
<path opacity="0.49" d="M240.322 284.763C240.061 284.609 239.843 284.432 239.655 284.249C224.769 272.185 222.541 251.346 222.449 240.492C222.449 240.492 222.449 240.492 222.461 240.474C222.457 240.366 222.46 240.21 222.486 240.097C222.852 239.379 223.103 238.713 223.259 238.033C224.124 234.51 226.816 231.911 229.948 230.114C229.96 230.097 229.978 230.109 229.978 230.109C230.819 229.614 231.712 229.157 232.557 228.77C234.336 227.981 236.149 227.371 237.742 226.925C238.349 226.768 238.927 226.616 239.444 226.476C239.534 226.459 239.606 226.43 239.696 226.414C241.133 226.043 242.219 225.876 242.645 225.83L242.942 225.931L269.021 280.058C269.021 280.058 268.948 280.086 268.774 280.149C268.774 280.149 268.689 280.196 268.497 280.246L267.611 280.578C267.454 280.653 267.262 280.704 267.045 280.79C266.057 281.156 264.637 281.617 262.958 282.109C262.302 282.337 261.61 282.541 260.901 282.732C260.341 282.896 259.794 283.043 259.205 283.212C258.898 283.315 258.597 283.369 258.273 283.46C257.358 283.719 256.421 283.937 255.484 284.154C249.859 285.459 243.844 286.23 240.322 284.763Z" fill="#8B3433"/>
<path d="M261.432 285.411C261.432 285.411 222.943 268.191 242.361 218.283C242.361 218.283 261.179 211.673 288.941 202.144C291.422 201.289 293.987 200.387 296.606 199.522C308.34 195.49 320.075 191.459 331.833 187.469C344.729 183.086 357.648 178.746 370.58 174.387C383.649 170.019 396.718 165.652 409.816 161.356C422.023 157.362 434.265 153.393 446.511 149.532C456.863 146.249 467.224 143.026 477.631 139.965C485.091 137.752 492.574 135.581 500.152 133.765C502.454 133.206 504.528 132.673 506.5 132.779C508.365 132.888 510.094 133.612 511.806 135.533C516.815 141.179 520.875 148.007 523.885 154.948C529.171 167.166 531.058 180.654 529.295 193.847C529.24 194.229 529.173 194.629 529.118 195.011C528.987 195.996 528.618 196.87 528.125 197.658C527.332 198.841 526.197 199.762 524.794 200.235C503.495 207.359 393.464 244.077 318.989 268.496C315.883 269.497 312.807 270.492 309.81 271.488C289.558 277.972 272.522 282.955 261.432 285.411Z" fill="#DC5656"/>
<path d="M309.78 271.494C303.898 267.185 281.726 247.687 288.924 202.132C291.405 201.277 293.958 200.392 296.589 199.509C294.799 213.839 293.21 249.967 318.959 268.502C315.854 269.502 312.778 270.497 309.78 271.494Z" fill="#8B3433"/>
<path opacity="0.49" d="M528.084 197.681C504.387 183.796 504.238 143.814 506.471 132.784C508.336 132.894 510.064 133.618 511.777 135.538C516.785 141.185 520.845 148.012 523.856 154.953C529.141 167.171 531.029 180.66 529.266 193.852C529.211 194.235 529.144 194.634 529.089 195.017C528.958 196.002 528.607 196.888 528.084 197.681Z" fill="#8B3433"/>
<path opacity="0.49" d="M387.256 220.429C351.391 232.985 320.348 237.591 317.958 230.738C315.551 223.873 342.695 208.115 378.59 195.553C414.455 182.997 445.497 178.391 447.887 185.244C450.265 192.114 423.121 207.872 387.256 220.429Z" fill="#8B3433"/>
<path d="M287.587 96.9252C287.271 97.1533 282.092 100.656 276.613 103.191C274.737 104.044 272.827 104.796 271.065 105.257C268.209 106.01 265.744 106.01 264.436 104.527C263.868 103.871 263.357 103.018 262.921 101.981C262.869 101.866 262.817 101.752 262.783 101.649C260.662 96.4534 260.144 87.6932 261.602 82.8216C261.991 81.4635 262.561 80.4137 263.259 79.8211C263.527 79.5862 263.823 79.4237 264.165 79.3457C269.395 78.0044 274.021 80.6813 277.128 84.5653C279.27 87.2297 280.838 90.5727 283.253 93.0322C283.441 93.215 285.004 94.822 286.21 95.9201L286.505 96.1765C287.011 96.658 287.454 96.9649 287.587 96.9252Z" fill="#E59146"/>
<path d="M372.339 117.899C371.826 117.806 338.144 112.131 337.85 101.872C337.826 100.884 337.88 99.8972 338.029 98.9241C339.285 89.6075 347.302 81.0589 351.066 81.0394C355.236 81.0388 357.302 89.9512 360.219 96.801C363.119 103.561 372.06 117.469 372.339 117.899Z" fill="#E59146"/>
<path d="M356.004 106.564C352.37 103.706 348.072 101.807 344.574 100.646C340.91 99.4223 338.16 98.9623 338.017 98.9419C339.273 89.6253 347.29 81.0767 351.054 81.0572C351.728 83.1518 352.521 85.6435 351.319 91.2438C351.202 91.7925 351.114 92.3357 351.051 92.8434C350.134 100.609 355.125 105.902 356.004 106.564Z" fill="#8B3433"/>
<path d="M276.942 97.4855C276.942 97.4855 271.241 99.0522 266.584 100.475C265.158 100.906 263.823 101.32 262.769 101.667C260.649 96.4709 260.13 87.7107 261.588 82.8392C261.977 81.481 262.547 80.4312 263.246 79.8386C263.246 79.8386 265.223 80.6565 266.889 85.2223C267.487 86.8966 268.021 88.474 268.646 89.9572C270.128 93.4244 272.131 96.1762 276.942 97.4855Z" fill="#8B3433"/>
<path opacity="0.48" d="M317.409 175.802C314.326 178.551 313.953 184.279 317.592 187.244C322.451 191.212 331.532 190.673 335.724 185.83C339.262 181.742 336.904 174.124 332.957 172.704C329.621 171.497 326.097 171.814 322.858 172.932C321.341 173.457 319.13 174.263 317.409 175.802Z" fill="#C04A4A"/>
<path opacity="0.48" d="M265.403 166.552C267.788 169.699 267.439 175.811 263.868 178.695C259.108 182.54 251.196 181.316 248.093 175.833C245.477 171.239 248.462 163.329 252.116 162.105C255.198 161.062 258.257 161.683 260.965 163.112C262.216 163.768 264.064 164.811 265.403 166.552Z" fill="#C04A4A"/>
<path d="M316.397 95.9988C312.014 99.7908 308.708 105.589 306.105 109.956C304.662 112.343 303.343 114.817 302.125 117.334C301.193 119.21 299.532 121.079 297.307 121.376C294.518 121.73 292.037 119.933 290.66 117.641C288.917 114.78 288.888 111.374 289.407 108.162C290.147 103.607 292.217 99.291 295.119 95.6294C295.335 95.6211 295.58 95.6073 295.814 95.6113C303.147 95.4373 310.008 95.5664 316.397 95.9988Z" fill="#8B3433"/>
<path d="M244.66 143.397C241.672 143.848 238.591 142.844 235.853 141.343C235.895 141.056 235.923 140.787 235.977 140.483C236.005 140.214 236.046 139.927 236.088 139.641C236.468 137.121 236.968 134.58 237.63 132.071C243.34 137.31 250.271 142.529 244.66 143.397Z" fill="#8B3433"/>
<path d="M243.486 151.116C241.508 152.268 238.508 152.396 235.688 152.15C235.628 151.479 235.569 150.808 235.551 150.113C235.477 148.591 235.463 147.059 235.527 145.45C235.547 145.384 235.536 145.324 235.525 145.264C241.347 146.932 246.98 149.099 243.486 151.116Z" fill="#8B3433"/>
<path d="M244.083 129.949C242.424 129.693 240.707 128.688 239.109 127.398C239.122 127.302 239.166 127.201 239.21 127.1C239.983 125.036 240.894 122.963 241.959 120.969C245.254 125.719 247.908 130.523 244.083 129.949Z" fill="#8B3433"/>
<path d="M330.73 97.5724C329.565 98.7617 328.273 100.098 327.339 101.106C324.385 104.312 321.271 108.772 319.013 109.23C314.317 110.18 312.503 105.564 315.638 100.96C317.07 98.8535 319.029 97.3486 320.735 96.3243C324.236 96.6474 327.55 97.0512 330.73 97.5724Z" fill="#8B3433"/>
<path d="M292.689 95.7316C290.192 98.8076 287.49 103.999 285.01 104.777C281.255 105.958 278.424 103 280.071 100.963C281.662 98.9672 283.479 97.4419 285.078 96.3439C287.495 96.0739 290.03 95.8598 292.689 95.7316Z" fill="#8B3433"/>
<path opacity="0.48" d="M241.115 170.872C241.934 172.226 242.736 173.569 243.61 174.883C244.041 175.549 244.484 176.197 244.951 176.809C245.419 177.422 245.934 178.041 246.507 178.464L246.649 178.562L246.652 178.748C246.634 179.418 246.651 180.113 246.753 180.761C246.85 181.379 247.118 182.09 247.488 182.162C247.667 182.207 247.769 182.173 247.929 181.942C248.058 181.717 248.172 181.402 248.225 181.097C248.356 180.453 248.387 179.765 248.392 179.113L248.411 177.419L249.18 178.923C249.515 179.575 249.88 180.222 250.3 180.827C250.72 181.433 251.153 182.021 251.683 182.467C251.942 182.699 252.22 182.865 252.489 182.894C252.758 182.923 253.01 182.861 253.08 182.647C253.304 182.172 253.109 181.354 252.869 180.716L252.579 179.885L253.301 180.358C254.354 181.034 255.456 181.64 256.582 182.21C257.709 182.78 258.879 183.249 260.088 183.586C258.817 183.415 257.609 182.999 256.427 182.548C255.239 182.067 254.112 181.497 252.987 180.849L253.418 180.492C253.579 180.865 253.692 181.233 253.78 181.635C253.851 182.025 253.915 182.463 253.709 182.951C253.597 183.188 253.389 183.412 253.142 183.504C253.015 183.573 252.895 183.595 252.775 183.617C252.655 183.639 252.547 183.643 252.404 183.623C251.914 183.573 251.512 183.32 251.205 183.082C250.556 182.58 250.083 181.937 249.628 181.307C249.184 180.659 248.789 180.017 248.431 179.323L249.218 179.133C249.228 179.875 249.168 180.569 249.023 181.308C248.933 181.666 248.83 182.041 248.602 182.409C248.541 182.497 248.467 182.604 248.388 182.68C248.279 182.762 248.188 182.856 248.073 182.908C247.814 183.018 247.508 183.042 247.276 182.961C246.77 182.82 246.473 182.378 246.317 182.034C246.157 181.66 246.074 181.288 246.008 180.928C245.908 180.202 245.902 179.489 245.97 178.748L246.102 179.05C245.442 178.488 244.969 177.845 244.508 177.185C244.047 176.524 243.646 175.853 243.24 175.152C242.482 173.708 241.765 172.319 241.115 170.872Z" fill="#8B3433"/>
<path d="M334.179 170.294C329.219 173.634 321.469 174.674 315.902 172.448C314.714 171.967 313.607 171.332 312.617 170.489C308.338 166.818 305.958 160.444 305.999 154.854C305.989 154.716 305.997 154.591 305.988 154.453C306.125 148.799 309.424 143.731 314.367 141.062C320.161 137.959 328.741 136.968 334.021 141.541C336.1 143.349 337.749 145.855 338.829 148.651C341.77 156.148 340.842 165.823 334.179 170.294Z" fill="white"/>
<path d="M334.179 170.294C331.357 172.173 328.065 173.177 324.725 173.569C323.053 173.75 321.347 173.75 319.669 173.56C317.991 173.37 316.317 172.946 314.757 172.207C313.197 171.468 311.834 170.367 310.702 169.085C309.571 167.803 308.597 166.367 307.823 164.834C306.274 161.767 305.408 158.358 305.333 154.867L305.327 154.914C305.258 150.771 306.826 146.763 309.602 143.776C310.975 142.285 312.637 141.02 314.448 140.147C316.254 139.244 318.15 138.588 320.108 138.185C323.994 137.383 328.257 137.552 331.873 139.451C333.687 140.392 335.2 141.807 336.368 143.377C337.572 144.972 338.48 146.729 339.141 148.578L338.809 148.375L339.055 148.361L339.141 148.578C339.825 150.47 340.262 152.452 340.436 154.437C340.609 156.421 340.543 158.449 340.202 160.419C339.844 162.376 339.182 164.28 338.193 166.011C337.229 167.706 335.856 169.197 334.179 170.294ZM334.179 170.294C335.838 169.185 337.176 167.67 338.164 165.939C339.153 164.208 339.75 162.284 340.048 160.338C340.347 158.392 340.341 156.392 340.065 154.442C339.789 152.492 339.285 150.568 338.539 148.766L338.871 148.969L338.643 148.995L338.539 148.766C337.817 147.005 336.865 145.349 335.653 143.88C334.459 142.423 333.027 141.195 331.335 140.418C329.674 139.635 327.82 139.244 325.973 139.147C324.108 139.037 322.25 139.221 320.423 139.663C316.776 140.498 313.275 142.145 310.768 144.819C310.145 145.491 309.582 146.23 309.083 146.987C308.603 147.757 308.145 148.57 307.807 149.438C307.462 150.276 307.159 151.169 306.981 152.069C306.878 152.523 306.821 152.983 306.748 153.43C306.721 153.885 306.658 154.392 306.664 154.764L306.657 154.811C306.593 158.049 307.257 161.37 308.621 164.363C309.312 165.865 310.16 167.292 311.197 168.561C312.233 169.83 313.475 170.952 314.933 171.725C317.879 173.266 321.336 173.69 324.65 173.412C328.048 173.164 331.363 172.126 334.179 170.294Z" fill="#8B3433"/>
<path d="M322.606 168.977C327.1 169.305 331.954 167.257 334.346 163.347C338.192 157.11 335.717 147.993 329.218 144.727C325.724 142.992 321.113 142.871 317.587 144.631C308.192 149.337 309.991 164.051 319.02 168.096C320.148 168.588 321.363 168.878 322.606 168.977Z" fill="#8B3433"/>
<path opacity="0.21" d="M338.845 148.663C318.625 140.781 307.361 153.225 306.009 154.836C306 154.698 306.008 154.573 305.999 154.435C306.136 148.781 309.435 143.713 314.377 141.044C320.172 137.94 328.752 136.95 334.031 141.523C336.134 143.373 337.765 145.867 338.845 148.663Z" fill="#8B3433"/>
<path d="M271.472 158.466C269.317 163.17 263.75 165.302 258.882 165.476C258.218 165.489 257.56 165.454 256.904 165.341C249.094 164.082 243.842 154.014 246.185 146.5C246.402 145.731 246.733 144.989 247.147 144.277C250.705 138.077 260.739 135.1 266.972 138.864C268.488 139.781 269.513 141.331 270.275 142.883C270.806 143.933 271.27 145.12 271.624 146.39C272.839 150.355 273.085 154.962 271.472 158.466Z" fill="white"/>
<path d="M271.472 158.466C271.08 159.298 270.599 160.068 270.012 160.764C269.408 161.448 268.75 162.095 267.992 162.621C266.513 163.697 264.824 164.47 263.055 164.979C262.171 165.233 261.276 165.427 260.352 165.549C259.446 165.683 258.499 165.763 257.573 165.699C255.715 165.542 253.883 164.93 252.274 163.921C249.072 161.915 246.786 158.625 245.636 155.02C245.076 153.215 244.776 151.3 244.858 149.362L245.016 147.922C245.102 147.457 245.231 146.968 245.347 146.497C245.579 145.555 245.985 144.629 246.467 143.781C248.502 140.386 252 138.213 255.632 137.209C257.466 136.72 259.384 136.525 261.267 136.647C263.155 136.799 265.025 137.28 266.672 138.236C267.538 138.652 268.267 139.341 268.865 140.069C269.462 140.798 269.938 141.626 270.336 142.453C271.149 144.119 271.686 145.882 272.073 147.672C272.459 149.462 272.654 151.303 272.597 153.128C272.576 154.977 272.256 156.804 271.472 158.466ZM271.472 158.466C272.951 155.08 272.781 151.234 271.886 147.753C271.427 145.991 270.776 144.28 269.888 142.72C269.018 141.173 267.884 139.705 266.299 139.002C263.132 137.439 259.354 137.554 256.056 138.605C254.383 139.127 252.789 139.914 251.389 140.914C249.989 141.914 248.758 143.161 247.906 144.619C247.48 145.348 247.137 146.109 246.9 146.943C246.803 147.348 246.676 147.759 246.597 148.177L246.425 149.449C246.304 151.177 246.494 152.91 246.972 154.606C247.875 157.962 249.822 161.173 252.705 163.222C254.147 164.246 255.816 164.903 257.588 165.185C258.478 165.302 259.37 165.263 260.287 165.189C261.186 165.103 262.08 164.986 262.969 164.762C264.736 164.331 266.437 163.618 267.939 162.584C268.684 162.076 269.36 161.441 269.965 160.757C270.581 160.055 271.062 159.285 271.472 158.466Z" fill="#8B3433"/>
<path d="M254.132 159.116C254.457 159.367 257.548 162.82 263.908 160.528C270.268 158.236 269.172 149.969 268.065 147.287C266.959 144.604 263.323 139.172 256.058 141.521C248.794 143.869 248.536 154.848 254.132 159.116Z" fill="#8B3433"/>
<path opacity="0.21" d="M271.654 146.384C262.743 141.79 251.797 144.53 246.203 146.512C246.42 145.743 246.75 145.001 247.164 144.29C250.722 138.089 260.757 135.112 266.99 138.876C268.505 139.794 269.53 141.344 270.292 142.895C270.824 143.946 271.287 145.133 271.654 146.384Z" fill="#8B3433"/>
<path d="M238.394 175.787C241.173 174.614 244.027 173.675 246.908 172.808C249.778 171.959 252.688 171.165 255.672 170.605C252.893 171.779 250.039 172.718 247.158 173.585C244.258 174.439 241.365 175.245 238.394 175.787Z" fill="#8B3433"/>
<path d="M236.46 168.541C239.352 168.076 242.241 167.844 245.128 167.69C248.032 167.548 250.936 167.484 253.852 167.665C250.978 168.143 248.071 168.362 245.185 168.517C242.28 168.659 239.377 168.723 236.46 168.541Z" fill="#8B3433"/>
<path d="M238.102 159.387C240.893 160.243 243.585 161.318 246.269 162.442C248.929 163.6 251.552 164.812 254.093 166.257C251.302 165.401 248.599 164.343 245.926 163.202C243.267 162.043 240.644 160.831 238.102 159.387Z" fill="#8B3433"/>
<path d="M346.961 97.9932C346.961 97.9932 344.855 98.0051 344.276 97.5523C343.668 97.1049 346.887 96.8127 346.887 96.8127C345.233 96.2457 343.793 94.4613 344.352 94.3751C344.91 94.2888 346.891 95.5558 346.891 95.5558C344.756 92.8436 345.834 88.4444 348.01 88.5594C348.949 88.6054 350.086 90.6001 351.081 92.8379C350.146 100.592 355.137 105.885 356.016 106.546C352.382 103.689 348.084 101.789 344.586 100.628C344.997 99.0491 346.961 97.9932 346.961 97.9932Z" fill="white"/>
<path d="M266.586 100.475C266.779 98.7189 268.416 96.2029 268.564 95.9899C268.437 96.0596 266.988 96.789 266.276 96.4536C265.528 96.0937 267.924 94.9434 267.924 94.9434C267.924 94.9434 266.022 95.2282 265.829 94.6742C265.635 94.1202 267.562 94.1411 267.562 94.1411C266.127 93.4103 263.408 89.874 265.038 88.7705C266.103 88.0645 267.658 89.1146 268.618 89.963C270.1 93.4302 272.09 96.1998 276.932 97.5036C276.944 97.4858 271.243 99.0525 266.586 100.475Z" fill="white"/>
<path opacity="0.48" d="M279.988 156.774C277.278 157.392 274.663 159.048 273.09 161.661C270.814 165.441 270.34 170.179 273.204 173.658C274.972 175.801 277.482 176.988 280.018 177.719C284.858 179.101 289.775 180.143 294.754 178.785C296.558 178.301 298.355 177.524 299.827 176.232C302.088 174.253 303.492 171.051 303.496 167.825C303.501 164.598 302.109 161.456 299.84 159.544C297.045 157.215 292.876 156.456 289.453 156.475C286.396 156.459 282.968 156.107 279.988 156.774Z" fill="#C04A4A"/>
<path d="M287.055 152.741C287.055 152.741 284.251 149.251 282.798 149.872C281.345 150.494 285.563 155.804 287.188 156.298C288.813 156.793 292.42 151.204 291.542 150.123C290.681 149.055 287.055 152.741 287.055 152.741Z" fill="#8B3433"/>
<path d="M292.169 175.736C291.642 174.111 291.187 172.457 290.702 170.808L289.337 165.847C288.883 164.193 288.5 162.51 288.105 160.845C287.722 159.163 287.328 157.498 287.06 155.763L287.86 155.819C286.965 159.006 286.189 162.249 285.443 165.487C285.084 167.103 284.714 168.737 284.403 170.36C284.063 171.988 283.8 173.618 283.591 175.284C283.615 173.62 283.824 171.954 284.021 170.305C284.249 168.651 284.541 167.016 284.846 165.363C285.139 163.728 285.51 162.094 285.88 160.46C286.25 158.826 286.656 157.217 287.075 155.59L287.576 153.653L287.875 155.646C288.115 157.308 288.48 158.978 288.845 160.649L289.969 165.654L291.094 170.659L292.169 175.736Z" fill="#8B3433"/>
<path d="M334.066 177.882C337.08 178 340.065 178.386 343.043 178.82C346.009 179.271 348.973 179.801 351.903 180.569C348.89 180.452 345.905 180.066 342.927 179.632C339.961 179.18 336.997 178.651 334.066 177.882Z" fill="#8B3433"/>
<path d="M352.252 173.434C349.399 174.032 346.515 174.372 343.62 174.651C340.737 174.913 337.825 175.103 334.918 175.06C337.771 174.462 340.655 174.122 343.551 173.842C346.433 173.58 349.327 173.378 352.252 173.434Z" fill="#8B3433"/>
<path d="M348.107 164.684C345.795 166.47 343.368 168.045 340.887 169.583C338.4 171.09 335.885 172.526 333.242 173.768C335.554 171.982 337.982 170.407 340.463 168.869C342.937 167.379 345.464 165.926 348.107 164.684Z" fill="#8B3433"/>
<path opacity="0.48" d="M314.479 176.584C314.479 176.584 326.076 170.856 337.9 173.213Z" fill="#C04A4A"/>
<path opacity="0.48" d="M266.943 170.69C266.943 170.69 263.319 164.217 246.931 162.507Z" fill="#C04A4A"/>
<path d="M384.688 266.721C383.558 267.672 382.417 268.562 381.212 269.356C381.116 269.079 381.001 268.789 380.832 268.541C370.921 272.628 360.907 272.469 353.14 271.187C352.964 271.327 352.8 271.45 352.606 271.579C351.273 271.155 349.923 270.719 348.632 270.272C327.118 262.781 312.242 250.513 312.242 250.513C312.242 250.513 297.65 254.352 295.067 239.936C292.437 225.513 320.585 207.851 343.209 220.179C344.399 220.846 345.62 221.507 346.811 222.174C352.736 225.436 358.649 228.715 364.382 231.686L364.399 231.699C379.303 239.418 392.884 244.881 401.954 241.63C401.949 241.6 396.04 257.068 384.688 266.721Z" fill="#E59146"/>
<path d="M297.912 245.109C298.735 243.578 299.943 242.288 301.262 241.179C302.592 240.053 304.11 239.187 305.702 238.478C307.318 237.811 309.049 237.356 310.781 237.242C312.519 237.08 314.286 237.331 315.921 237.886C314.221 238.258 312.614 238.458 311.073 238.941C309.522 239.363 308.011 239.84 306.564 240.492C303.609 241.728 300.846 243.333 297.912 245.109Z" fill="#8B3433"/>
<path d="M299.081 228.38C299.892 227.209 301.051 226.331 302.308 225.652C303.547 224.961 304.943 224.536 306.364 224.338C307.786 224.141 309.251 224.184 310.639 224.567C312.027 224.872 313.331 225.565 314.405 226.439C312.969 226.391 311.686 226.237 310.405 226.269C309.13 226.253 307.872 226.327 306.636 226.522C304.16 226.803 301.747 227.522 299.081 228.38Z" fill="#8B3433"/>
<path d="M358.09 243.844C354.468 245.249 350.266 242.681 348.521 239.215C346.759 235.737 346.838 231.644 346.908 227.755C346.972 225.882 346.976 224.021 346.806 222.144C352.731 225.406 358.644 228.685 364.377 231.656L364.394 231.669C364.219 233.096 363.918 234.516 363.582 235.911C362.71 239.14 361.217 242.623 358.09 243.844Z" fill="#8B3433"/>
<path d="M380.832 268.541C370.921 272.628 360.908 272.469 353.14 271.187C357.115 268.399 360.79 264.721 365.399 263.291C369.611 261.98 374.425 262.793 377.981 265.386C379.157 266.226 380.202 267.291 380.832 268.541Z" fill="#8B3433"/>
<path opacity="0.48" d="M338.627 266.917L341.447 267.845L344.336 268.558L347.208 269.26C348.154 269.522 349.114 269.765 350.081 269.884C353.926 270.656 357.84 270.95 361.735 270.969C365.631 270.987 369.497 270.592 373.288 269.777C377.096 268.974 380.705 267.587 384.217 265.923L383.883 266.217C383.969 266.093 384.206 265.863 384.524 265.821C384.842 265.778 384.996 265.859 385.186 265.964L384.235 265.936C387.193 264.466 390.014 262.664 392.613 260.578C393.894 259.522 395.206 258.461 396.423 257.309C397.641 256.156 398.818 254.949 399.971 253.7C398.095 256.523 395.888 259.143 393.398 261.489C390.873 263.81 388.137 265.907 385.127 267.603L384.176 267.575C384.365 267.68 384.502 267.748 384.82 267.706C385.107 267.669 385.363 267.451 385.431 267.315L385.097 267.608C383.268 268.469 381.497 269.474 379.593 270.178C377.69 270.882 375.734 271.471 373.77 271.922C369.804 272.8 365.747 273.168 361.705 273.021C357.668 272.904 353.676 272.268 349.794 271.208C347.826 270.791 345.974 269.981 344.089 269.332L341.295 268.291C340.388 267.821 339.511 267.345 338.627 266.917Z" fill="#8B3433"/>
<path d="M548.317 234.87C547.989 235.116 547.686 235.326 547.353 235.542C546.009 236.423 544.601 237.207 543.141 237.876C541.414 238.703 539.589 239.408 537.699 239.334C535.797 239.277 533.829 238.256 533.125 236.508C532.615 235.236 532.82 233.803 533.245 232.47C533.999 230.13 535.373 227.957 537.21 226.288C539.473 224.232 540.944 222.599 542.518 220.249C545.085 225.255 547.008 230.131 548.317 234.87Z" fill="#8B3433"/>
<path d="M546.736 273.524C546.628 273.528 546.538 273.544 546.443 273.531C542.11 273.576 537.684 271.825 534.828 268.562C533.925 267.517 533.152 266.246 533.135 264.869C533.14 263.612 533.795 262.438 534.65 261.507C538.616 257.217 545.311 257.966 550.613 256.255C550.172 262.461 548.775 268.267 546.736 273.524Z" fill="#8B3433"/>
<path d="M378.572 120.98C377.657 121.922 376.613 122.748 375.51 123.508C374.378 124.273 373.199 124.953 371.985 125.531C370.446 126.277 368.82 126.883 367.103 126.824C365.399 126.747 363.644 125.873 362.99 124.317C362.295 122.707 362.892 120.784 363.953 119.366C365.031 117.959 366.48 116.889 367.742 115.635C368.253 115.123 368.73 114.587 369.134 114.079C369.715 113.352 370.189 112.63 370.58 111.877C372.808 114.076 375.643 117.141 378.572 120.98Z" fill="#8B3433"/>
<path d="M387.793 149.601C385.888 152.088 383.005 153.978 379.878 154.176C379.435 154.211 378.998 154.197 378.539 154.141C375.857 153.886 373.265 152.25 372.294 149.713C371.408 147.393 371.947 144.721 373.111 142.508C374.276 140.295 375.985 138.433 377.563 136.532C377.918 136.095 378.285 135.641 378.622 135.192C380.393 132.899 382.021 130.509 383.443 128.001C385.786 131.776 387.984 136.028 389.808 140.704C389.808 140.704 390.462 140.631 391.695 140.593C391.675 140.736 391.642 140.897 391.586 141.016C390.825 144.085 389.729 147.108 387.793 149.601Z" fill="#8B3433"/>
<path d="M419.778 156.175C419.028 156.916 418.197 157.548 417.275 157.934C415.895 158.449 414.474 158.305 413.255 157.829C408.919 156.061 407.373 150.528 407.336 145.277C407.315 144.475 407.31 143.421 407.384 142.291C412.532 143.493 418.474 145.48 424.576 148.864C423.439 151.568 421.908 154.158 419.778 156.175Z" fill="#8B3433"/>
<path d="M431.775 291.942C431.528 291.01 431.301 290.013 431.415 289.015C431.481 288.01 431.822 286.987 432.401 286.075C432.998 285.175 433.872 284.442 434.855 284.046C435.832 283.619 436.91 283.578 437.899 283.816C437.073 284.478 436.347 284.921 435.756 285.51C435.16 286.068 434.623 286.616 434.234 287.291C433.792 287.93 433.443 288.66 433.071 289.426C432.668 290.198 432.412 291.097 431.775 291.942Z" fill="#8B3433"/>
<path d="M475.849 332.615C466.232 327.375 454.415 317.015 438.879 311.799C433.693 310.046 429.38 308.321 425.874 306.603C425.307 305.527 424.978 304.223 425.938 303.365C426.376 302.96 426.991 302.755 427.621 302.64C431.488 301.904 435.573 303.656 439.128 304.961C445.894 307.387 452.433 310.444 458.639 314.058C464.554 317.523 470.934 321.415 475.594 326.505C476.304 327.259 476.948 328.072 477.253 329.071C477.681 330.575 477.001 331.784 475.849 332.615Z" fill="#EDBC89"/>
<path d="M436.867 296.255C436.819 296.248 436.771 296.241 436.723 296.235C435.26 296.114 433.772 297.316 434.968 298.695C436.228 300.171 438.635 301.732 440.68 301.127C441.24 300.963 441.619 300.49 441.57 299.879C441.53 299.483 441.339 299.115 441.123 298.782C440.476 297.861 439.663 297.141 438.624 296.71C438.059 296.503 437.452 296.319 436.867 296.255Z" fill="#EDBC89"/>
<path d="M421.179 293.192C421.131 293.185 421.053 293.184 421.005 293.177C419.356 293.059 417.674 294.389 418.998 295.962C420.434 297.639 423.155 299.391 425.465 298.706C426.115 298.526 426.531 298 426.466 297.299C426.432 296.855 426.218 296.444 425.95 296.075C425.202 295.032 424.295 294.221 423.12 293.722C422.514 293.46 421.842 293.257 421.179 293.192Z" fill="#EDBC89"/>
<path opacity="0.2" d="M489.833 334.919C485.665 336.811 481.081 335.476 475.861 332.597C466.244 327.357 454.427 316.997 438.891 311.781C433.705 310.028 429.392 308.303 425.886 306.585C414.029 300.791 411.221 295.224 413.879 289.871C422.211 288.708 437.659 290.45 461.366 307.466C479.278 320.312 486.862 329.134 489.833 334.919Z" fill="#8B3433"/>
<path opacity="0.48" d="M503.926 236.326C496.093 231.009 487.35 226.741 478.023 225.325C473.38 224.605 468.616 224.667 464.113 225.83C459.623 226.974 455.476 229.327 452.075 232.46C445.253 238.79 441.291 247.809 439.852 256.973C438.46 266.143 439.57 275.943 444.196 283.924L445.461 286.112L442.977 285.495C437.842 284.198 432.423 283.387 427.178 283.615C424.566 283.75 421.949 284.196 419.685 285.307C419.171 285.633 418.586 285.91 418.112 286.291C417.662 286.715 417.183 287.066 416.755 287.531C415.906 288.493 415.146 289.515 414.653 290.644C413.554 292.876 413.82 295.371 415.219 297.442C416.618 299.513 418.693 301.212 420.881 302.674C425.341 305.552 430.347 307.679 435.393 309.596C437.919 310.531 440.524 311.39 443.06 312.463C445.608 313.518 448.088 314.71 450.494 316.008C455.336 318.599 459.925 321.592 464.418 324.65C468.923 327.69 473.298 330.955 478.131 333.408C480.545 334.581 483.13 335.582 485.829 335.587C488.526 335.669 491.168 334.505 493.158 332.653C491.244 334.584 488.617 335.916 485.828 335.928C483.051 336 480.369 335.062 477.87 333.936C472.891 331.618 468.37 328.488 463.809 325.567C459.255 322.598 454.67 319.713 449.837 317.26C447.43 316.039 444.978 314.92 442.471 313.919C439.982 312.931 437.387 312.133 434.789 311.226C429.622 309.408 424.545 307.232 419.817 304.248C417.506 302.7 415.233 300.944 413.548 298.491C412.793 297.233 412.088 295.826 412.003 294.244C411.881 292.716 412.131 291.104 412.82 289.769C413.407 288.39 414.29 287.19 415.243 286.117C415.737 285.592 416.344 285.094 416.892 284.607C417.474 284.144 418.144 283.82 418.786 283.424C421.43 282.104 424.305 281.627 427.097 281.459C432.733 281.16 438.205 282.008 443.607 283.411L442.388 284.982C437.51 276.381 436.467 266.181 437.979 256.647C439.508 247.126 443.716 237.752 451.061 231.233C454.692 227.997 459.115 225.624 463.844 224.514C468.573 223.404 473.504 223.404 478.239 224.293C487.684 226.106 496.363 230.618 503.926 236.326Z" fill="#8B3433"/>
</svg>
