<svg width="297" height="269" viewBox="0 0 297 269" fill="none" xmlns="http://www.w3.org/2000/svg">
<path d="M296.511 107.298C296.008 109.787 295.253 112.237 294.286 114.593C294.153 114.926 294.008 115.259 293.862 115.592C293.703 115.978 293.531 116.35 293.345 116.723C293.133 117.149 292.908 117.589 292.683 118.028C290.855 121.582 288.563 124.897 286.006 127.919C283.556 130.822 280.787 133.497 277.687 135.721L274.574 122.741C274.574 122.741 274.64 122.714 274.733 122.661C275.448 122.195 278.601 120.091 281.25 116.457C281.966 115.472 282.668 114.367 283.238 113.142C283.344 112.942 283.436 112.756 283.529 112.543C283.622 112.33 283.714 112.117 283.807 111.891C283.86 111.758 283.913 111.611 283.966 111.465C284.814 109.335 285.344 106.885 285.278 104.156C285.251 102.545 284.986 100.828 284.483 99.0038C281.674 88.9259 273.024 82.0964 267.871 73.1502C265.248 68.5972 263.552 63.5116 264.016 57.1747C264.029 57.0416 264.029 56.9218 264.042 56.802C264.373 52.6617 265.234 48.9607 266.466 45.7656C266.639 45.3529 266.798 44.9402 266.97 44.5541C267.142 44.1547 267.314 43.7553 267.5 43.3826C267.54 43.316 267.566 43.2494 267.619 43.1829C269.381 39.6283 271.62 36.7927 274.031 34.7292C277.872 31.4409 282.112 30.1363 285.476 31.0149C289.252 31.9867 288.073 36.1803 286.417 39.6816C286.258 40.041 286.059 40.4005 285.887 40.7466C285.794 40.9197 285.702 41.0794 285.622 41.2525C285.463 41.5188 285.317 41.7983 285.158 42.0646C285.092 42.1977 285.013 42.3309 284.946 42.4507C284.642 42.9699 284.39 43.3959 284.178 43.742C282.946 45.8987 281.529 48.0288 280.336 50.2121C280.204 50.4517 280.071 50.6913 279.952 50.9443C279.807 51.2105 279.661 51.5034 279.528 51.7963C279.396 52.0759 279.277 52.3554 279.144 52.635C278.257 54.6053 277.647 56.6688 277.594 58.932C277.448 65.1491 279.899 70.4477 283.145 75.3601C285.556 79.0078 288.391 82.4559 290.934 85.9305C291.464 86.6494 291.968 87.3683 292.431 88.1005C296.18 93.9316 297.916 100.162 296.511 107.298Z" fill="#FFBF6D"/>
<mask id="mask0_986_7175" style="mask-type:luminance" maskUnits="userSpaceOnUse" x="263" y="30" width="34" height="106">
<path d="M263.93 30.7481H296.987V135.48H263.93V30.7481Z" fill="white"/>
</mask>
<g mask="url(#mask0_986_7175)">
<g opacity="0.199997">
<path d="M296.498 107.297C295.994 109.787 295.239 112.236 294.272 114.593C294.14 114.925 293.994 115.258 293.848 115.591C293.689 115.977 293.517 116.35 293.332 116.723C293.12 117.149 292.894 117.588 292.669 118.027C290.854 121.489 288.602 124.737 286.112 127.679C283.661 130.595 280.892 133.257 277.792 135.48L274.719 122.66C275.434 122.194 278.587 120.091 281.237 116.456C281.952 115.471 282.654 114.366 283.224 113.141C283.33 112.942 283.423 112.755 283.515 112.542C283.608 112.329 283.701 112.116 283.794 111.89C283.847 111.757 283.9 111.61 283.952 111.464C284.8 109.334 285.33 106.884 285.264 104.155C285.237 102.544 284.973 100.827 284.469 99.0032C281.661 88.9253 273.01 82.0958 267.857 73.1496C265.234 68.5966 263.538 63.511 264.002 57.1741C264.015 57.041 264.015 56.9212 264.029 56.8014C264.36 52.661 265.221 48.9601 266.453 45.765C266.625 45.3523 266.784 44.9396 266.956 44.5535C267.128 44.1541 267.301 43.7547 267.486 43.382C267.526 43.3154 267.552 43.2488 267.605 43.1823C269.367 39.6277 271.606 36.7921 274.017 34.7286C277.859 31.4403 282.098 30.1357 285.463 31.0143C289.238 31.9861 288.059 36.1797 286.403 39.681C286.244 40.0404 286.046 40.3999 285.873 40.746C285.781 40.9191 285.688 41.0788 285.608 41.2519C285.449 41.5182 285.304 41.7977 285.145 42.064C285.079 42.1971 284.999 42.3303 284.933 42.4501C284.628 42.9693 284.376 43.3953 284.164 43.7414C282.932 45.8981 281.515 48.0282 280.323 50.2115C280.19 50.4511 280.058 50.6907 279.939 50.9437C279.793 51.2099 279.647 51.5028 279.515 51.7957C279.382 52.0753 279.263 52.3548 279.13 52.6344C278.243 54.6047 277.634 56.6682 277.581 58.9314C277.435 65.1485 279.886 70.4471 283.131 75.3595C285.542 79.0072 288.377 82.4553 290.921 85.9299C291.45 86.6488 291.954 87.3677 292.418 88.0999C296.167 93.931 297.902 100.161 296.498 107.297Z" fill="#9A7279"/>
</g>
</g>
<path d="M286.424 39.6787C286.265 40.0382 286.066 40.3976 285.894 40.7437C285.801 40.9168 285.708 41.0766 285.629 41.2496C285.47 41.5159 285.324 41.7955 285.165 42.0617C285.099 42.1948 285.02 42.328 284.953 42.4478C284.649 42.967 284.397 43.393 284.185 43.7391C282.953 45.8958 281.535 48.0259 280.343 50.2092C280.211 50.4488 280.078 50.6885 279.959 50.9414C275.388 49.6367 274.368 40.9834 274.037 34.7263C277.879 31.438 282.118 30.1334 285.483 31.012C289.259 31.9839 288.08 36.1774 286.424 39.6787Z" fill="#9A7279"/>
<path d="M267.871 73.1484C265.248 68.5954 263.552 63.5099 264.016 57.173C264.029 57.0399 264.029 56.92 264.042 56.8002C265.937 57.9584 268.838 60.1151 270.481 63.6564C272.017 66.9446 269.885 70.7122 267.871 73.1484Z" fill="#9A7279"/>
<path d="M292.434 88.0992C291.096 88.8581 289.268 88.9379 286.857 87.3005C282.353 84.2651 282.578 78.5672 283.147 75.3588C285.559 79.0065 288.394 82.4546 290.937 85.9292C291.467 86.6481 291.971 87.367 292.434 88.0992Z" fill="#9A7279"/>
<path d="M288.084 115.018C286.137 117.334 283.408 117.148 281.262 116.455C281.977 115.47 282.679 114.365 283.249 113.14C283.355 112.941 283.448 112.754 283.54 112.541C283.633 112.328 283.726 112.115 283.819 111.889C283.872 111.756 283.925 111.609 283.978 111.463C284.825 109.333 285.355 106.883 285.289 104.154C287.581 107.15 290.548 112.102 288.084 115.018Z" fill="#9A7279"/>
<path d="M279.728 140.628C279.369 135.073 278.181 129.395 275.998 123.675C274.506 119.746 272.544 115.788 270.058 111.832C268.73 109.722 267.307 107.75 265.775 105.889C262.195 101.488 258.134 97.7534 253.865 94.5729C249.527 91.3246 244.982 88.6594 240.547 86.4787C235.766 84.1183 231.097 82.3278 226.938 80.9805C217.792 77.9957 211.147 77.1624 211.147 77.1624C201.841 58.7813 183.122 52.6121 176.002 50.8774C175.961 50.5286 175.921 50.1785 175.867 49.827C175.713 48.6874 175.476 47.5226 175.165 46.367C174.955 45.515 174.697 44.6749 174.403 43.8256C173.58 41.4293 172.508 39.1155 171.204 36.9495C170.614 35.9683 169.978 35.0164 169.307 34.0979C168.517 33.0328 167.674 32.0051 166.763 31.0466C163.618 27.6571 159.782 24.9426 155.431 23.1853C147.297 19.901 138.163 19.3951 129.464 20.6292C127.589 20.8915 125.741 21.2416 123.925 21.6556C123.37 21.7821 122.814 21.9086 122.257 22.0337C121.46 22.2334 120.668 22.4225 119.886 22.6168C119.503 22.7127 119.105 22.8112 118.742 22.9204C113.775 24.1957 109.271 25.6522 104.665 27.7623C104.342 27.8967 104.024 28.0471 103.705 28.1976C102.989 28.5317 102.267 28.8779 101.553 29.256C99.8695 30.1053 98.1725 31.0452 96.4093 32.1102C95.2514 32.8145 94.0698 33.5587 92.8921 34.3628C85.2232 39.5628 77.4802 46.801 73.9683 55.2986C73.1019 57.3714 72.4912 59.5494 72.1097 61.7873C71.7746 63.6604 71.6116 65.5735 71.6037 67.4852C71.5878 68.8272 71.662 70.1851 71.7997 71.527C72.0647 74.0764 72.5985 76.5992 73.3894 79.0035C73.5643 79.5507 73.7656 80.1018 73.9789 80.6317C74.3287 81.5716 74.7194 82.4689 75.1593 83.3528C75.9872 85.1181 76.9662 86.7969 78.079 88.3758C80.4092 91.7 83.3249 94.6062 86.7162 96.7989C87.6621 97.4139 88.6715 97.9691 89.7101 98.4936C85.0669 120.943 94.4725 129.367 94.4725 129.367L111.396 139.447L125.862 148.056C125.862 148.056 135.174 202.592 179.743 215.45C224.327 228.306 251.074 202.592 251.074 202.592C251.074 202.592 250.148 208.146 249.789 214.839C249.292 224.391 249.955 236.275 256.103 237.65C266.576 239.996 256.67 216.269 264.378 205.717C269.435 198.815 261.271 190.222 261.271 190.222C272.461 177.392 280.985 159.787 279.728 140.628Z" fill="#FFBF6D"/>
<path d="M142.228 188.514C142.228 188.514 141.131 227.352 196.497 241.4C196.497 241.4 187.613 267.263 198.142 268.944C205.011 270.043 200.061 254.621 204.173 249.112C208.283 243.603 208.557 238.094 205.817 234.239C205.817 234.239 226.1 226.25 217.054 207.52C208.009 188.79 142.228 188.514 142.228 188.514Z" fill="#FFBF6D"/>
<mask id="mask1_986_7175" style="mask-type:luminance" maskUnits="userSpaceOnUse" x="142" y="188" width="78" height="81">
<path d="M142.359 188.514H219.512V269H142.359V188.514Z" fill="white"/>
</mask>
<g mask="url(#mask1_986_7175)">
<g opacity="0.199997">
<path d="M142.365 188.514C142.365 188.514 141.268 227.352 196.635 241.4C196.635 241.4 187.75 267.263 198.279 268.944C205.148 270.043 200.197 254.621 204.309 249.112C208.421 243.603 208.694 238.094 205.953 234.239C205.953 234.239 226.236 226.25 217.191 207.52C208.147 188.79 142.365 188.514 142.365 188.514Z" fill="#9A7279"/>
</g>
</g>
<path d="M201.364 265.805C200.633 265.618 199.986 265.239 199.406 264.786C198.819 264.336 198.321 263.778 197.886 263.173C197.466 262.558 197.13 261.876 196.934 261.151C196.714 260.437 196.677 259.662 196.801 258.929C197.197 259.577 197.481 260.191 197.843 260.767C198.195 261.342 198.531 261.912 198.925 262.45C199.672 263.56 200.509 264.589 201.364 265.805Z" fill="#9A7279"/>
<path d="M251.001 198.916C251.001 198.916 250.739 200.583 250.434 203.193C246.123 206.913 220.33 227.157 179.753 215.452C135.183 202.596 125.871 148.059 125.871 148.059L111.406 139.45C112.07 136.729 113.175 134.216 114.791 131.995C114.791 131.995 133.111 105.463 168.507 118.889C197.506 129.871 193.338 154.133 219.308 163.331C221.505 173.662 228.964 187.462 251.001 198.916Z" fill="#FFDFC5"/>
<mask id="mask2_986_7175" style="mask-type:luminance" maskUnits="userSpaceOnUse" x="115" y="56" width="28" height="27">
<path d="M115.824 56.7332H142.515V82.5469H115.824V56.7332Z" fill="white"/>
</mask>
<g mask="url(#mask2_986_7175)">
<g opacity="0.479996">
<path d="M125.268 58.1937C122.807 59.3213 120.898 61.1851 119.046 63.4882C116.776 66.3092 115.155 69.9051 116.093 73.5781C116.517 75.2369 117.409 76.7359 118.507 78.0312C127.273 88.3753 141.482 78.7355 142.381 71.1551C142.882 66.9336 142.017 61.924 138.65 59.0031C135.061 55.8906 129.318 56.3392 125.268 58.1937Z" fill="#9A7279"/>
</g>
</g>
<path d="M156.293 55.4112C153.695 58.7394 148.737 61.145 144.515 60.8668C143.613 60.8069 142.731 60.6152 141.885 60.269C138.216 58.7421 135.229 54.9678 134.031 51.195C133.997 51.1111 133.969 51.0232 133.941 50.9354C132.802 47.1053 133.892 42.9676 136.626 40.0934C139.827 36.7332 145.364 34.1811 149.907 36.1008C151.699 36.861 153.342 38.1843 154.684 39.8364L154.69 39.8338C158.282 44.2283 159.771 50.9474 156.293 55.4112Z" fill="white"/>
<path d="M156.294 55.411C157.155 54.3007 157.734 52.9827 158.012 51.6102C158.3 50.2349 158.272 48.8105 158.047 47.4339C157.822 46.0534 157.377 44.7154 156.768 43.464C156.163 42.2113 155.4 41.0384 154.502 39.9907L154.781 40.0626L154.773 40.0666L154.614 40.1331L154.494 39.992C153.621 38.9709 152.618 38.0616 151.496 37.3534C150.375 36.6385 149.145 36.1326 147.857 35.9862C146.571 35.8224 145.258 35.9715 143.998 36.3057C142.737 36.6412 141.522 37.1777 140.4 37.8633C138.149 39.2239 136.166 41.089 135.076 43.4427C134.803 44.0311 134.587 44.6435 134.416 45.2679C134.267 45.8976 134.141 46.5353 134.094 47.1836C134.051 47.8293 134.043 48.483 134.125 49.1273C134.146 49.4521 134.222 49.769 134.271 50.0912C134.35 50.392 134.419 50.7501 134.509 51.0004L134.522 51.0377C135.182 53.2343 136.353 55.3125 137.915 57.0298C138.698 57.8885 139.58 58.658 140.556 59.2864C141.531 59.9214 142.603 60.398 143.749 60.5964C146.051 60.9944 148.466 60.5245 150.634 59.6045C152.808 58.6833 154.8 57.2641 156.294 55.411ZM156.294 55.411C154.822 57.2894 152.823 58.6939 150.672 59.6937C149.59 60.189 148.45 60.5644 147.278 60.7934C146.107 61.0264 144.896 61.1142 143.693 60.9598C142.488 60.8094 141.325 60.3567 140.282 59.7443C139.232 59.1346 138.273 58.3744 137.412 57.5158C135.695 55.7917 134.362 53.683 133.541 51.3532L133.555 51.3905C132.588 48.6081 132.77 45.5648 133.983 42.9342C134.585 41.6282 135.412 40.4114 136.444 39.4196C137.457 38.4198 138.588 37.5571 139.812 36.8488C142.247 35.4576 145.141 34.6283 147.989 35.1182C149.41 35.3498 150.734 35.9755 151.874 36.7836C153.025 37.589 154.022 38.5862 154.874 39.6818L154.595 39.6073L154.603 39.6046L154.775 39.542L154.881 39.6778C155.756 40.8028 156.477 42.0395 157.035 43.3415C157.586 44.6462 157.982 46.0161 158.179 47.4139C158.373 48.8118 158.342 50.2416 158.052 51.6181C157.759 52.9947 157.166 54.3087 156.294 55.411Z" fill="#9A7279"/>
<path d="M148.24 57.0575C151.321 56.296 154.119 53.8531 154.879 50.6926C156.089 45.6563 152.439 40.0543 147.363 39.2901C144.637 38.8801 141.522 39.824 139.549 41.7796C134.276 47.0049 138.708 56.5157 145.651 57.2532C146.505 57.3437 147.382 57.2692 148.24 57.0575Z" fill="#9A7279"/>
<path d="M144.543 52.8838C146.094 52.5051 147.502 51.2901 147.885 49.7182C148.493 47.2133 146.657 44.427 144.102 44.0469C142.73 43.843 141.162 44.3124 140.17 45.2851C137.516 47.884 139.746 52.6144 143.241 52.9812C143.671 53.0262 144.112 52.9891 144.543 52.8838Z" fill="white"/>
<path d="M144.543 52.8838C146.094 52.5051 147.502 51.2901 147.885 49.7182C148.493 47.2133 146.657 44.427 144.102 44.0469C142.73 43.843 141.162 44.3124 140.17 45.2851C137.516 47.884 139.746 52.6144 143.241 52.9812C143.671 53.0262 144.112 52.9891 144.543 52.8838Z" fill="white"/>
<path d="M146.465 43.9484C147.154 43.78 147.78 43.24 147.95 42.5414C148.22 41.4281 147.404 40.1898 146.269 40.0209C145.659 39.9302 144.962 40.1389 144.521 40.5712C143.342 41.7262 144.333 43.8286 145.886 43.9916C146.077 44.0116 146.273 43.9952 146.465 43.9484Z" fill="white"/>
<path d="M146.465 43.9484C147.154 43.78 147.78 43.24 147.95 42.5414C148.22 41.4281 147.404 40.1898 146.269 40.0209C145.659 39.9302 144.962 40.1389 144.521 40.5712C143.342 41.7262 144.333 43.8286 145.886 43.9916C146.077 44.0116 146.273 43.9952 146.465 43.9484Z" fill="white"/>
<mask id="mask3_986_7175" style="mask-type:luminance" maskUnits="userSpaceOnUse" x="133" y="35" width="22" height="17">
<path d="M133.49 35.4448H154.68V51.1992H133.49V35.4448Z" fill="white"/>
</mask>
<g mask="url(#mask3_986_7175)">
<g opacity="0.210007">
<path d="M154.682 39.8407C139.409 38.9753 134.582 49.8107 134.028 51.1992C133.994 51.114 133.966 51.0262 133.939 50.9396C132.8 47.1095 133.889 42.9705 136.623 40.0976C139.824 36.7374 145.363 34.1854 149.904 36.1051C151.697 36.8639 153.34 38.1885 154.682 39.8407Z" fill="#9A7279"/>
</g>
</g>
<path d="M109.752 79.0264C107.153 82.3546 102.196 84.7603 97.9741 84.482C97.0719 84.4221 96.1896 84.2304 95.3445 83.8843C91.675 82.3573 88.6877 78.5831 87.4888 74.8102C87.4557 74.7263 87.4279 74.6385 87.4001 74.5506C86.2608 70.7205 87.351 66.5829 90.084 63.7086C93.2858 60.3484 98.8232 57.7964 103.366 59.7161C105.158 60.4762 106.801 61.7995 108.143 63.4517L108.149 63.449C111.741 67.8436 113.23 74.5639 109.752 79.0264Z" fill="white"/>
<path d="M109.754 79.0282C110.615 77.9179 111.194 76.5999 111.472 75.2273C111.76 73.8521 111.732 72.4276 111.505 71.0511C111.281 69.6706 110.836 68.3326 110.228 67.0812C109.621 65.8285 108.86 64.6556 107.962 63.6065L108.245 63.6784L108.238 63.6811L108.078 63.753L107.954 63.6092C107.079 62.5894 106.078 61.6788 104.956 60.9706C103.835 60.257 102.604 59.7498 101.317 59.6034C100.03 59.4396 98.7175 59.5887 97.4577 59.9229C96.1966 60.2583 94.9818 60.7949 93.8598 61.4805C91.609 62.841 89.6246 64.7048 88.5357 67.0599C88.2628 67.647 88.0468 68.2607 87.8759 68.8851C87.7262 69.5148 87.6004 70.1525 87.554 70.8008C87.5103 71.4465 87.5024 72.1002 87.5845 72.7445C87.6057 73.0693 87.6812 73.3862 87.7315 73.7083C87.8097 74.0106 87.8786 74.366 87.9673 74.6176L87.9806 74.6549C88.6416 76.8515 89.8127 78.9283 91.3746 80.647C92.1575 81.5057 93.0397 82.2752 94.0161 82.9036C94.9911 83.5386 96.0628 84.0152 97.2087 84.2149C99.5111 84.6116 101.926 84.1417 104.093 83.2217C106.267 82.3005 108.26 80.8813 109.754 79.0282ZM109.754 79.0282C108.282 80.908 106.283 82.3111 104.132 83.3123C103.049 83.8062 101.91 84.1816 100.738 84.4106C99.5667 84.6435 98.3559 84.7314 97.153 84.577C95.9475 84.4265 94.7844 83.9739 93.7419 83.3615C92.6913 82.7518 91.7309 81.9916 90.8712 81.1329C89.1543 79.4089 87.8216 77.2988 87.0003 74.9704L87.0135 75.0077C86.0478 72.2253 86.228 69.182 87.4428 66.5513C88.0442 65.2467 88.8721 64.0286 89.9041 63.0367C90.9162 62.0369 92.0475 61.1743 93.2716 60.466C95.7064 59.0748 98.601 58.2454 101.449 58.7354C102.869 58.967 104.194 59.5927 105.333 60.3995C106.484 61.2062 107.481 62.2034 108.334 63.2977L108.049 63.2271L108.056 63.2245L108.232 63.1552L108.34 63.295C109.215 64.42 109.937 65.6554 110.494 66.9587C111.045 68.2634 111.442 69.6333 111.639 71.0311C111.832 72.429 111.802 73.8588 111.512 75.2353C111.219 76.6119 110.626 77.9272 109.754 79.0282Z" fill="#9A7279"/>
<path d="M101.697 80.6747C104.778 79.9132 107.576 77.4703 108.335 74.3098C109.546 69.2735 105.896 63.6715 100.82 62.9073C98.0932 62.4973 94.9786 63.4411 93.006 65.3968C87.7333 70.6221 92.1647 80.1328 99.1079 80.8704C99.9624 80.9609 100.838 80.8863 101.697 80.6747Z" fill="#9A7279"/>
<path d="M102.54 74.8838C104.09 74.5051 105.499 73.2901 105.881 71.7182C106.49 69.2133 104.653 66.427 102.098 66.0469C100.726 65.843 99.1586 66.3124 98.1659 67.2851C95.5123 69.884 97.7425 74.6144 101.237 74.9812C101.667 75.0262 102.108 74.9891 102.54 74.8838Z" fill="white"/>
<path d="M102.54 74.8838C104.09 74.5051 105.499 73.2901 105.881 71.7182C106.49 69.2133 104.653 66.427 102.098 66.0469C100.726 65.843 99.1586 66.3124 98.1659 67.2851C95.5123 69.884 97.7425 74.6144 101.237 74.9812C101.667 75.0262 102.108 74.9891 102.54 74.8838Z" fill="white"/>
<path d="M94.461 70.9484C95.1502 70.78 95.7761 70.24 95.9459 69.5414C96.2167 68.4281 95.4003 67.1898 94.2648 67.0209C93.655 66.9302 92.9583 67.1389 92.5171 67.5712C91.3377 68.7262 92.3289 70.8286 93.8819 70.9916C94.0731 71.0116 94.2689 70.9952 94.461 70.9484Z" fill="white"/>
<path d="M94.461 70.9484C95.1502 70.78 95.7761 70.24 95.9459 69.5414C96.2167 68.4281 95.4003 67.1898 94.2648 67.0209C93.655 66.9302 92.9583 67.1389 92.5171 67.5712C91.3377 68.7262 92.3289 70.8286 93.8819 70.9916C94.0731 71.0116 94.2689 70.9952 94.461 70.9484Z" fill="white"/>
<mask id="mask4_986_7175" style="mask-type:luminance" maskUnits="userSpaceOnUse" x="86" y="59" width="23" height="16">
<path d="M86.9531 59.0561H108.143V74.8105H86.9531V59.0561Z" fill="white"/>
</mask>
<g mask="url(#mask4_986_7175)">
<g opacity="0.210007">
<path d="M108.142 63.452C92.8703 62.5867 88.0428 73.422 87.489 74.8105C87.4546 74.7253 87.4268 74.6375 87.4003 74.5496C86.261 70.7208 87.3499 66.5819 90.0843 63.7089C93.285 60.3474 98.8239 57.7967 103.365 59.7164C105.158 60.4752 106.802 61.7985 108.142 63.452Z" fill="#9A7279"/>
</g>
</g>
<path d="M123.989 55.9012C123.989 55.9012 120.475 54.7203 119.551 55.9158C118.626 57.1113 122.398 58.6543 125.131 57.8675C125.131 57.8675 127.8 53.5035 125.836 52.3693C123.871 51.235 123.989 55.9012 123.989 55.9012Z" fill="#9A7279"/>
<path d="M150.633 18.5951C150.633 18.5951 150.635 18.6004 150.633 18.6098C150.662 19.5017 150.635 20.395 150.53 21.291C150.533 21.2976 150.528 21.3003 150.525 21.3083C150.321 23.1002 149.822 24.9081 148.965 26.6787C143.145 38.6909 126.393 25.6603 126.393 25.6603C126.393 25.6603 132.262 20.9768 133.255 14.5972C134.146 8.80082 136.181 3.94295 139.265 2.34008C139.578 2.17633 139.896 2.05385 140.229 1.958C143.048 1.16855 150.291 9.29872 150.633 18.5951Z" fill="#FFBF6D"/>
<path d="M150.631 18.5985C150.631 18.5985 150.632 18.6051 150.627 18.6131C150.652 18.7529 150.787 19.9151 150.525 21.2903C150.526 21.297 150.522 21.305 150.524 21.3116C150.377 22.0811 149.942 23.029 149.285 23.9249C148.131 25.5118 146.299 26.9377 144.175 26.9723C138.945 27.0481 143.637 16.0397 142.633 8.33956C142.303 5.81544 141.364 3.65076 139.262 2.34344C139.573 2.18102 139.894 2.05854 140.226 1.9587C143.044 1.17057 150.288 9.30341 150.631 18.5985Z" fill="#9A7279"/>
<path d="M146.225 19.36C146.225 19.36 148.762 21.092 149.277 23.9249C148.122 25.5118 146.29 26.9377 144.166 26.9723C138.936 27.0481 143.628 16.0397 142.625 8.33956C143.818 9.98636 145.214 12.6503 145.108 15.9958C145.108 15.9958 146.708 13.5995 147.355 13.7978C147.978 14.0042 146.357 17.2086 146.265 17.387C146.36 17.2805 147.453 16.0437 148.036 16.4884C148.643 16.9543 146.225 19.36 146.225 19.36Z" fill="white"/>
<path d="M82.2518 54.1327C82.0729 54.1061 81.8954 54.0781 81.7219 54.0395C69.0217 51.6645 66.0742 35.1538 68.9369 32.7642C68.9846 32.7229 69.0402 32.6776 69.0946 32.639C72.0288 30.3825 77.5636 31.4063 83.2427 34.1687C89.0291 36.9737 96.2025 34.7744 96.2025 34.7744C96.2025 34.7744 95.3931 56.1389 82.2518 54.1327Z" fill="#FFBF6D"/>
<path d="M81.7184 54.0391C69.015 51.6614 66.0647 35.1521 68.9302 32.7651C68.9779 32.7225 69.0335 32.6785 69.0865 32.6386C69.3329 33.6491 69.888 35.0735 71.1532 36.6445C72.4343 38.2234 74.4347 39.9474 77.5651 41.5316C83.3253 44.4391 83.785 48.9069 82.8378 51.8651C82.5596 52.757 82.1476 53.5092 81.7184 54.0391Z" fill="#9A7279"/>
<path d="M82.8317 51.8655C75.0353 52.2089 75.2711 44.7298 75.2711 44.7298C75.2711 44.7298 74.2245 46.121 73.4138 45.4154C72.6414 44.7338 74.1186 43.694 74.2457 43.6035C74.1596 43.6062 72.391 43.702 71.9499 43.1762C71.4942 42.6357 73.3528 42.2056 73.3528 42.2056C71.2054 40.435 71.0636 37.8909 71.1457 36.6449C72.4281 38.2238 74.4272 39.9465 77.5577 41.532C83.3179 44.4396 83.7776 48.9074 82.8317 51.8655Z" fill="white"/>
<path d="M160.418 79.3613C161.121 78.7037 161.825 78.046 162.514 77.3737C163.197 76.6988 163.877 76.0131 164.501 75.2969L164.775 74.9814L164.808 75.4101C164.849 75.9439 164.973 76.5257 165.268 76.9291C165.415 77.1288 165.61 77.2566 165.831 77.2792C165.957 77.3018 166.015 77.2819 166.067 77.2446C166.117 77.202 166.168 77.1128 166.197 76.9983C166.305 76.5257 166.226 75.9399 166.145 75.3954C166.055 74.8429 165.925 74.2838 165.773 73.7473L165.574 73.047L166.189 73.4411C166.591 73.6994 167.031 73.9363 167.471 74.1214C167.903 74.2971 168.398 74.4502 168.75 74.365C168.838 74.341 168.816 74.3304 168.82 74.3397C168.817 74.3331 168.826 74.2545 168.783 74.1626C168.714 73.9803 168.588 73.7766 168.446 73.5862C168.164 73.2041 167.83 72.8314 167.494 72.4866L167.271 72.2589L167.502 72.0446C168.581 71.0394 169.575 69.8999 170.436 68.6897C171.281 67.4676 172.009 66.1496 172.373 64.7212L172.548 64.0382L172.789 64.6959C173.001 65.275 173.288 65.898 173.727 66.2814C173.782 66.324 173.839 66.3653 173.899 66.3919C173.943 66.4185 173.931 66.4012 173.927 66.4106C173.924 66.4066 173.931 66.4132 173.949 66.3959C174.024 66.3427 174.107 66.1909 174.168 66.0551C174.295 65.7702 174.394 65.4574 174.486 65.1458C174.844 63.8891 175.07 62.5884 175.302 61.2918C175.192 62.6057 175.024 63.9144 174.747 65.2137C174.673 65.5386 174.595 65.8634 174.462 66.1842C174.389 66.344 174.336 66.5064 174.156 66.6662C174.114 66.7074 174.043 66.7407 173.96 66.7554C173.875 66.7594 173.781 66.7314 173.753 66.7114C173.663 66.6728 173.584 66.6209 173.508 66.5663C172.937 66.0924 172.647 65.472 172.381 64.841L172.795 64.8143C172.632 65.5772 172.372 66.3107 172.051 67.0136C171.708 67.7059 171.314 68.3676 170.885 69.0039C170.009 70.266 169.022 71.4269 167.906 72.4945L167.915 72.0512C168.286 72.4213 168.629 72.7967 168.938 73.2307C169.091 73.4464 169.237 73.6741 169.344 73.9643C169.395 74.1041 169.446 74.2865 169.383 74.5234C169.302 74.775 169.045 74.9122 168.89 74.9375C168.241 75.0599 167.737 74.8336 167.251 74.6472C166.769 74.4369 166.324 74.1893 165.884 73.9004L166.3 73.5929C166.454 74.164 166.578 74.7298 166.667 75.3129C166.744 75.8986 166.83 76.4844 166.658 77.1354C166.607 77.2965 166.527 77.4789 166.349 77.616C166.169 77.7558 165.917 77.7651 165.766 77.7265C165.415 77.6786 165.106 77.4429 164.929 77.174C164.571 76.6229 164.485 76.0211 164.456 75.4181L164.765 75.5312C164.102 76.2501 163.379 76.8918 162.65 77.5228C161.92 78.1552 161.178 78.7702 160.418 79.3613Z" fill="#9A7279"/>
<path d="M96.1797 100.725C96.4804 101.317 96.8142 101.891 97.1759 102.442C97.5442 102.983 97.9522 103.522 98.4622 103.887C98.7179 104.072 98.9974 104.162 99.261 104.092C99.526 104.032 99.7074 103.796 99.8134 103.518C100.023 102.952 100.023 102.272 99.9618 101.652L99.885 100.851L100.375 101.493C100.804 102.051 101.292 102.583 101.798 103.075C102.311 103.55 102.867 104.011 103.482 104.254C103.786 104.393 104.098 104.423 104.392 104.39C104.7 104.35 104.949 104.21 105.099 103.976C105.408 103.501 105.364 102.735 105.209 102.112L105.099 101.667L105.547 101.723C106.868 101.89 108.237 101.928 109.587 101.887C110.942 101.846 112.288 101.685 113.626 101.473C114.967 101.264 116.282 100.914 117.565 100.472C118.868 100.069 120.082 99.4402 121.291 98.7999C120.155 99.5587 118.953 100.25 117.669 100.754C116.391 101.261 115.066 101.667 113.712 101.938C112.364 102.228 110.988 102.377 109.61 102.448C108.228 102.508 106.856 102.49 105.461 102.333L105.8 101.946C105.895 102.341 105.94 102.714 105.927 103.116C105.911 103.51 105.834 103.935 105.583 104.309C105.335 104.689 104.883 104.916 104.476 104.957C104.058 105.006 103.626 104.937 103.272 104.772C102.542 104.466 101.97 103.965 101.432 103.457C100.9 102.936 100.436 102.368 100.004 101.759L100.418 101.601C100.453 102.296 100.436 102.987 100.161 103.666C100.025 103.992 99.7445 104.343 99.3405 104.419C98.9537 104.51 98.5483 104.346 98.2926 104.121C97.7495 103.672 97.3839 103.1 97.0434 102.526C96.7096 101.947 96.4234 101.344 96.1797 100.725Z" fill="#9A7279"/>
<path d="M154.619 61.7618C156.62 61.3159 158.639 61.0563 160.661 60.8432C162.687 60.6475 164.717 60.4984 166.765 60.5371C164.766 60.9844 162.747 61.244 160.722 61.4556C158.698 61.65 156.667 61.7991 154.619 61.7618Z" fill="#9A7279"/>
<path d="M166.112 55.4786C164.342 56.3692 162.51 57.0841 160.662 57.7551C158.809 58.4088 156.939 59.0185 155.008 59.4512C156.776 58.5592 158.609 57.8443 160.457 57.1747C162.311 56.521 164.181 55.9126 166.112 55.4786Z" fill="#9A7279"/>
<path d="M162.717 50.1442C161.516 51.7257 160.184 53.1782 158.818 54.5973C157.44 56.0032 156.028 57.377 154.48 58.6191C155.679 57.0362 157.013 55.5851 158.379 54.166C159.758 52.7601 161.172 51.3876 162.717 50.1442Z" fill="#9A7279"/>
<path d="M102.798 91.0706C101.127 92.3713 99.3584 93.5055 97.5647 94.6012C95.7603 95.6782 93.9334 96.7153 92.0059 97.5859C93.6751 96.2839 95.4437 95.1483 97.2388 94.0554C99.0431 92.9783 100.871 91.9426 102.798 91.0706Z" fill="#9A7279"/>
<path d="M89.4434 93C91.306 92.1613 93.2256 91.5063 95.1585 90.8966C97.098 90.3055 99.0507 89.761 101.062 89.4015C99.1991 90.2416 97.2795 90.8966 95.3453 91.505C93.4058 92.0947 91.4531 92.6392 89.4434 93Z" fill="#9A7279"/>
<path d="M88.9863 86.4837C91.0265 86.5542 93.0375 86.8138 95.0393 87.12C97.0397 87.4462 99.0322 87.8203 100.996 88.3848C98.9553 88.3169 96.9443 88.0573 94.9412 87.7484C92.9421 87.4222 90.9497 87.0482 88.9863 86.4837Z" fill="#9A7279"/>
<mask id="mask5_986_7175" style="mask-type:luminance" maskUnits="userSpaceOnUse" x="100" y="83" width="16" height="15">
<path d="M100.707 83.8031H115.219V97.377H100.707V83.8031Z" fill="white"/>
</mask>
<g mask="url(#mask5_986_7175)">
<g opacity="0.479996">
<path d="M114.229 91.8206C114.645 91.2002 114.99 90.5213 115.139 89.7877C115.62 87.422 113.84 85.0031 111.574 84.1963C109.309 83.3909 106.759 83.9114 104.593 84.9605C103.823 85.3332 103.073 85.7792 102.488 86.4049C101.819 87.1212 101.397 88.0384 101.112 88.9783C100.689 90.3762 100.545 91.8912 100.935 93.2983C101.123 93.98 101.433 94.6243 101.825 95.2127C105.186 100.245 111.83 95.3991 114.229 91.8206Z" fill="#FC5555"/>
</g>
</g>
<mask id="mask6_986_7175" style="mask-type:luminance" maskUnits="userSpaceOnUse" x="150" y="56" width="15" height="15">
<path d="M150.082 56.2777H164.321V70.2109H150.082V56.2777Z" fill="white"/>
</mask>
<g mask="url(#mask6_986_7175)">
<g opacity="0.479996">
<path d="M150.801 62.7066C150.45 63.3656 150.176 64.0779 150.101 64.8221C149.862 67.225 151.878 69.4496 154.212 70.0207C156.548 70.5919 159.033 69.8117 161.081 68.5483C161.809 68.0984 162.511 67.5778 163.029 66.8962C163.622 66.1147 163.949 65.1589 164.138 64.195C164.418 62.7626 164.406 61.2409 163.877 59.8803C163.621 59.2213 163.247 58.6103 162.798 58.0671C158.946 53.4036 152.827 58.9031 150.801 62.7066Z" fill="#FC5555"/>
</g>
</g>
<path d="M118.756 22.922C119.433 28.4109 120.143 35.6118 119.713 38.0161C119.433 39.6004 118.895 41.3736 117.439 42.0153C116.431 42.4613 115.24 42.2137 114.301 41.6319C113.372 41.0568 112.653 40.1915 111.96 39.3301C110.194 37.1388 107.25 32.0879 104.678 27.7652C109.285 25.6538 113.79 24.1974 118.756 22.922Z" fill="#9A7279"/>
<path d="M129.474 20.6307C129.304 21.6371 129.09 22.6276 128.838 23.6101C128.558 24.7017 128.214 25.808 127.469 26.6601C127.043 27.1367 126.488 27.5307 125.85 27.6066C124.86 27.7104 123.908 27.0368 123.413 26.1728C122.842 25.2063 122.381 23.5741 122.266 22.0352C122.822 21.91 123.378 21.7836 123.935 21.6571C125.751 21.243 127.598 20.8929 129.474 20.6307Z" fill="#9A7279"/>
<path d="M101.56 29.2573C101.871 30.1453 102.043 31.0998 102.149 32.0264C102.269 32.9756 102.359 33.9488 102.164 34.8834C101.971 35.8179 101.463 36.7365 100.643 37.2171C99.2905 38.0079 97.5617 37.4328 96.1998 36.654C95.348 36.1561 93.904 35.3533 92.8984 34.3628C94.0762 33.5601 95.2579 32.8159 96.4157 32.1116C98.179 31.0453 99.8761 30.1067 101.56 29.2573Z" fill="#9A7279"/>
<path d="M82.9705 74.236C82.9176 74.7658 82.6102 75.2344 82.275 75.6551C80.6111 77.7705 77.2819 79.9019 73.9885 80.6328C73.7752 80.103 73.5738 79.5518 73.399 79.0046C72.6081 76.6003 72.0742 74.0776 71.8105 71.5281C72.1139 71.5375 72.4093 71.5561 72.7127 71.5654C74.8841 71.6586 77.0448 71.7465 79.2055 71.8343C80.0388 71.8689 80.8986 71.9076 81.6511 72.2723C82.4102 72.6264 83.0315 73.4013 82.9705 74.236Z" fill="#9A7279"/>
<path d="M76.0527 65.9487C74.8048 66.9751 73.2084 67.3306 71.6094 67.4863C71.6173 65.5746 71.7803 63.6629 72.1154 61.7884C73.1739 62.0227 74.2152 62.4434 75.1638 62.9187C76.4104 63.5257 77.4172 64.8264 76.0527 65.9487Z" fill="#9A7279"/>
<path d="M82.4318 82.5233C82.8107 82.7922 82.926 83.3447 82.8121 83.7933C82.6928 84.2526 82.3921 84.64 82.0861 84.9955C80.9441 86.3441 79.5902 87.473 78.0826 88.377C76.9711 86.798 75.9907 85.1193 75.1641 83.3553C75.2952 83.3247 75.4158 83.2888 75.5469 83.2595C77.4891 82.8002 79.455 82.3276 81.4555 82.3129C81.792 82.3143 82.147 82.3289 82.4318 82.5233Z" fill="#9A7279"/>
<path d="M171.22 36.9514C172.525 39.1174 173.597 41.4312 174.419 43.8275C174.713 44.6769 174.972 45.5169 175.181 46.3676C169.84 47.7029 164.123 47.7854 164.034 44.4865C164.014 43.938 164.265 43.3363 164.575 42.7998C165.535 41.113 166.875 39.7631 168.397 38.6555C169.292 38.0125 170.249 37.4493 171.22 36.9514Z" fill="#9A7279"/>
<path d="M166.776 31.0464C167.688 32.0063 168.53 33.0327 169.319 34.0977C168.53 34.4838 167.727 34.8486 166.919 35.1961C166.401 35.4171 165.867 35.6434 165.298 35.6767C165.063 35.6966 164.804 35.6593 164.6 35.5156C164.111 35.1774 164.233 34.4239 164.49 33.8821C165.019 32.7505 165.858 31.8598 166.776 31.0464Z" fill="#9A7279"/>
<path d="M112.845 57.4004L111.695 56.8719C111.736 56.7827 115.874 47.9735 127.615 49.0452L127.5 50.3113C116.692 49.3221 112.998 57.0702 112.845 57.4004Z" fill="#EA5D80"/>
<path d="M169.527 162.609C165.99 167.232 122.775 242.346 114.983 240.93C107.191 239.5 28.1915 209.953 22.886 203.554C17.5672 197.138 -2.27197 154.417 0.214549 148.016C2.68782 141.602 55.118 90.7031 57.5913 89.6328C60.0778 88.5651 69.6384 88.9259 73.5358 90.7031C73.7702 90.8136 74.0458 91.008 74.3637 91.2996C79.2268 95.6169 92.6556 119.179 92.6556 119.179L161.735 138.048C161.735 138.048 163.102 140.464 164.747 143.81C167.814 150.071 171.835 159.596 169.527 162.609Z" fill="#F39D90"/>
<path d="M169.558 162.687C166.021 167.31 122.806 242.423 115.014 241.008C107.222 239.578 28.2228 210.031 22.9172 203.63C17.5984 197.216 -2.24072 154.495 0.245799 148.094C2.71907 141.68 55.1493 90.7797 57.6225 89.7107C60.1091 88.6417 69.6696 89.0038 73.5657 90.7797C73.8015 90.8916 74.077 91.0859 74.395 91.3775C71.8396 91.2803 66.7407 92.2242 59.4056 98.6942C48.4633 108.358 10.6489 146.345 9.32285 152.357C7.9968 158.355 25.5839 195.009 31.5518 198.674C37.5211 202.34 98.8773 228.012 111.808 226.012C123.542 216.794 160.109 165.006 164.777 143.887C167.845 150.149 171.866 159.674 169.558 162.687Z" fill="#EA5D80"/>
<path d="M212.276 107.834C212.276 107.834 211.53 110.223 209.553 113.652C208.103 116.179 205.975 119.261 202.992 122.371C202.992 122.385 202.977 122.399 202.964 122.413C201.914 123.482 200.781 124.565 199.537 125.606C197.3 127.523 194.702 129.355 191.704 130.979C191.676 130.993 191.663 131.007 191.648 131.021C191.179 131.27 190.696 131.521 190.212 131.771C188.485 132.631 186.938 133.562 185.528 134.533C178.772 139.129 175.277 144.558 171.532 148.32C168.521 151.361 168.606 151.037 161.732 152.803C161.826 153.299 159.789 153.309 159.775 153.295C159.292 153.267 158.21 153.352 157.685 153.269C145.499 151.325 141.249 135.477 160.701 118.289C160.77 118.233 160.839 118.164 160.908 118.123C164.514 114.957 168.949 111.75 174.324 108.543C174.351 108.529 174.517 108.501 174.807 108.487C174.822 108.473 174.822 108.487 174.822 108.487C177.253 108.334 187.933 108.167 197.272 108.029C205.271 107.918 212.276 107.834 212.276 107.834Z" fill="#FFBF6D"/>
<path d="M212.759 81.4821C214.664 84.7025 215.625 88.4408 215.832 92.1857C216.053 95.9439 215.493 99.7221 214.481 103.338C213.453 106.96 211.943 110.434 210.093 113.706C209.096 115.3 208.126 116.905 207.064 118.468C205.951 119.999 204.699 121.426 203.346 122.745L203.505 122.373C203.516 122.515 203.373 122.753 203.319 122.787L203.276 122.824L203.193 122.899L203.023 123.048L202.687 123.344L202.012 123.938L200.657 125.12C199.779 125.948 198.783 126.595 197.821 127.296L192.02 131.452L191.956 131.489C191.992 131.476 192.025 131.452 192.049 131.424L191.963 131.495L187.982 134.284C186.647 135.202 185.333 136.146 184.093 137.171C182.845 138.187 181.645 139.256 180.517 140.394C179.406 141.533 178.317 142.772 177.191 143.951C174.948 146.331 172.525 148.64 169.632 150.346C166.725 152 163.561 153.153 160.2 153.477L160.564 153.306L160.536 153.333C160.505 153.333 160.497 153.448 160.134 153.49C159.771 153.448 159.763 153.333 159.732 153.333L159.704 153.306L160.173 153.477C158.153 153.622 156.065 153.43 154.147 152.649C152.229 151.883 150.556 150.504 149.411 148.789C148.253 147.076 147.592 145.087 147.293 143.081C147.016 141.063 147.138 139.03 147.451 137.05C147.632 136.062 147.836 135.081 148.14 134.127C148.385 133.16 148.767 132.212 149.178 131.299C150.033 129.48 151.132 127.806 152.342 126.233C154.812 123.101 157.631 120.398 160.759 117.873L160.723 117.9C165.137 114.345 169.858 111.204 174.788 108.453L174.78 108.459C174.78 108.459 174.786 108.451 174.802 108.445C174.834 108.429 174.87 108.481 174.858 108.486L174.801 108.454L176.603 107.473L174.839 108.519L174.783 108.487C174.772 108.486 174.802 108.53 174.826 108.518C174.837 108.514 174.834 108.514 174.834 108.514L174.825 108.521C170.012 111.457 165.368 114.684 161.093 118.346L161.057 118.372C158.164 120.858 155.301 123.633 152.976 126.722C151.82 128.277 150.782 129.922 149.994 131.674C149.617 132.56 149.273 133.444 149.051 134.389C148.773 135.315 148.594 136.261 148.436 137.21C148.165 139.111 148.1 141.04 148.359 142.926C148.65 144.8 149.275 146.623 150.327 148.16C151.371 149.699 152.856 150.907 154.574 151.584C156.292 152.272 158.193 152.444 160.067 152.3L160.316 152.281L160.536 152.47C160.536 152.47 160.539 152.473 160.52 152.456C160.495 152.46 160.491 152.349 160.134 152.308C159.777 152.349 159.773 152.46 159.747 152.456C159.73 152.473 159.732 152.47 159.732 152.47L159.907 152.319L160.097 152.3C163.207 151.991 166.29 150.854 169.007 149.279C171.725 147.658 174.057 145.415 176.293 143.089C177.42 141.92 178.488 140.716 179.658 139.532C180.827 138.363 182.066 137.271 183.347 136.241C184.624 135.198 185.958 134.252 187.307 133.334L191.334 130.547L191.248 130.617C191.307 130.561 191.377 130.511 191.449 130.47L191.387 130.507L197.16 126.42C198.116 125.731 199.115 125.09 199.97 124.291L201.302 123.147L201.971 122.579L202.306 122.294L202.473 122.152L202.557 122.081L202.599 122.045C202.57 122.052 202.444 122.258 202.476 122.37L202.636 121.996C203.972 120.738 205.209 119.375 206.312 117.908C207.371 116.406 208.358 114.831 209.365 113.283C211.238 110.093 212.782 106.699 213.854 103.153C214.923 99.6116 215.595 95.9173 215.473 92.2017C215.362 88.5007 214.53 84.7744 212.759 81.4821Z" fill="#9A7279"/>
<path d="M165.289 151.15C164.342 150.278 163.794 149.022 163.499 147.757C163.198 146.478 163.217 145.148 163.393 143.863C163.571 142.572 163.992 141.341 164.502 140.171C164.777 139.593 165.091 139.037 165.405 138.489C165.77 137.964 166.13 137.442 166.535 136.955C166.375 137.579 166.168 138.168 165.968 138.753L165.425 140.519C165.126 141.701 164.783 142.86 164.642 144.049C164.458 145.227 164.388 146.418 164.47 147.608C164.573 148.793 164.783 149.988 165.289 151.15Z" fill="#9A7279"/>
<path d="M153.044 150.316C152.514 149.226 152.192 148.061 151.966 146.88C151.738 145.698 151.632 144.491 151.658 143.275C151.713 142.062 151.841 140.838 152.233 139.666C152.615 138.501 153.207 137.376 154.083 136.539C153.214 138.782 152.978 141.004 152.922 143.307C152.872 144.452 152.919 145.608 152.942 146.773L153.044 150.316Z" fill="#9A7279"/>
<path d="M19.5012 158.057L29.1201 175.224C30.0156 176.821 32.2173 177.04 33.3976 175.64C43.1278 164.106 78.6266 121.778 78.5948 120.239C78.5338 117.233 72.0692 101.176 69.7694 100.196C68.7083 99.7436 27.5291 146.281 19.8191 155.024C19.0773 155.864 18.9528 157.078 19.5012 158.057Z" fill="#EA5D80"/>
<path d="M119.955 196.588C119.669 198.256 109.082 211.862 106.629 212.859C104.186 213.87 86.6464 208.253 85.0342 207.691C83.4339 207.132 80.2108 198.128 80.6242 195.278L80.6374 195.204C80.6586 195.078 80.7116 194.921 80.8056 194.746C82.5397 191.176 96.6627 178.067 97.5873 177.215C97.6178 177.182 97.6324 177.173 97.6324 177.173C97.6324 177.173 115.877 183.065 118.262 184.094C118.288 184.099 118.297 184.114 118.322 184.118C120.443 185.062 120.242 194.92 119.955 196.588Z" fill="#FC5555"/>
<path d="M118.256 184.092C115.577 187.293 105.606 199.096 103.174 200.482C100.813 201.828 85.6195 196.373 80.7988 194.743C82.5329 191.173 96.6559 178.066 97.5805 177.214C97.611 177.18 97.6256 177.17 97.6256 177.17C97.6256 177.17 115.87 183.063 118.256 184.092Z" fill="white"/>
<path d="M85.6214 182.678C85.3353 184.346 74.748 197.952 72.2946 198.949C69.8505 199.96 52.3124 194.342 50.7002 193.781C49.0999 193.222 45.8769 184.218 46.2902 181.368L46.3034 181.293C46.3246 181.168 46.3776 181.011 46.4717 180.835C48.2057 177.266 62.3287 164.158 63.2533 163.305C63.2838 163.272 63.2984 163.262 63.2984 163.262C63.2984 163.262 81.5426 169.156 83.9284 170.185C83.9536 170.189 83.9642 170.204 83.988 170.208C86.1089 171.151 85.9076 181.01 85.6214 182.678Z" fill="#FC5555"/>
<path d="M83.9294 170.184C81.2508 173.385 71.2796 185.188 68.8474 186.574C66.488 187.92 51.2934 182.465 46.4727 180.834C48.2067 177.265 61.5176 164.252 63.2543 163.305C63.2848 163.272 63.2994 163.261 63.2994 163.261C63.2994 163.261 81.5436 169.155 83.9294 170.184Z" fill="white"/>
<path d="M148.983 159.939C148.697 161.608 138.109 175.213 135.656 176.21C133.212 177.222 115.674 171.604 114.062 171.042C112.461 170.483 109.238 161.48 109.651 158.629L109.665 158.555C109.686 158.43 109.738 158.273 109.832 158.097C111.567 154.528 125.69 141.42 126.615 140.567C126.645 140.535 126.66 140.524 126.66 140.524C126.66 140.524 144.904 146.418 147.29 147.447C147.315 147.451 147.324 147.465 147.349 147.469C149.47 148.413 149.269 158.273 148.983 159.939Z" fill="#FC5555"/>
<path d="M147.29 147.446C144.612 150.646 134.64 162.449 132.208 163.835C129.847 165.181 114.653 159.727 109.832 158.096C111.567 154.527 125.69 141.419 126.615 140.567C126.646 140.534 126.66 140.523 126.66 140.523C126.66 140.523 144.904 146.417 147.29 147.446Z" fill="white"/>
<path d="M112.684 146.447C112.398 148.115 101.811 161.721 99.3571 162.718C96.913 163.73 79.3749 158.112 77.7627 157.55C76.1624 156.991 72.9394 147.988 73.3527 145.137L73.3659 145.063C73.3871 144.938 73.4401 144.78 73.5328 144.605C75.2682 141.036 89.3912 127.928 90.3158 127.074C90.3463 127.042 90.3609 127.032 90.3609 127.032C90.3609 127.032 108.605 132.925 110.991 133.954C111.016 133.958 111.027 133.973 111.051 133.977C113.171 134.921 112.97 144.779 112.684 146.447Z" fill="#FC5555"/>
<path d="M110.985 133.956C108.307 137.156 98.3356 148.959 95.9034 150.345C93.5427 151.691 78.3494 146.237 73.5273 144.606C75.2627 141.037 89.3857 127.929 90.3104 127.077C90.3408 127.044 90.3554 127.033 90.3554 127.033C90.3554 127.033 108.6 132.927 110.985 133.956Z" fill="white"/>
<path d="M249.629 225.016C249.33 222.851 249.208 220.662 249.169 218.475C249.136 216.288 249.153 214.096 249.271 211.91C249.489 207.536 249.923 203.186 250.469 198.829L250.751 199.39C245.95 196.904 241.312 194.063 237.026 190.724C232.718 187.415 228.921 183.424 225.735 179C224.192 176.752 222.769 174.409 221.652 171.913C220.551 169.412 219.684 166.809 219.102 164.144C218.503 161.483 218.229 158.752 218.279 156.032C218.343 153.32 218.642 150.591 219.469 148.014C218.266 153.286 218.581 158.793 219.854 163.967C221.137 169.165 223.573 174.003 226.657 178.338C229.795 182.649 233.602 186.442 237.787 189.751C241.967 193.075 246.515 195.928 251.243 198.436L251.579 198.615L251.525 198.997C251.217 201.147 250.869 203.292 250.612 205.458C250.35 207.618 250.123 209.786 249.944 211.956C249.579 216.294 249.356 220.654 249.629 225.016Z" fill="#9A7279"/>
<path d="M199.536 125.608C197.299 127.524 194.701 129.357 191.703 130.981C191.675 130.996 191.661 131.009 191.647 131.023C189.7 132.329 187.751 133.647 185.886 135.035C185.761 134.869 185.651 134.702 185.527 134.536C184.712 133.355 183.911 132.148 182.901 131.162C180.913 129.232 177.928 127.733 177.872 124.79C177.831 123.026 179.005 121.457 180.429 120.721C181.837 120 183.455 119.972 185.015 120.082C190.113 120.471 195.101 122.388 199.384 125.511C199.44 125.539 199.495 125.58 199.536 125.608Z" fill="#9A7279"/>
<path d="M214.439 102.309C213.376 106.308 211.676 110.168 209.632 113.68C209.617 113.68 209.591 113.666 209.563 113.653C209.217 113.528 208.871 113.375 208.526 113.236C204.713 111.653 200.982 109.862 197.279 108.03C196.755 107.779 196.243 107.516 195.719 107.266C195.276 107.043 194.806 106.808 194.503 106.406C193.757 105.432 194.295 104.003 195.083 103.087C196.506 101.393 198.62 100.435 200.776 99.9901C204.547 99.2126 210.364 99.8796 214.439 102.309Z" fill="#9A7279"/>
<path d="M213.773 83.3433C212.626 83.3713 211.075 83.3832 209.942 83.563C208.283 83.8266 206.695 84.3964 205.064 84.7571C203.42 85.1179 201.679 85.2577 200.119 84.6466C198.557 84.0356 197.259 82.5219 197.314 80.8418C197.383 79.1764 198.681 77.8291 200.008 76.816C201.873 75.3716 205.278 73.7088 208.525 72.681C211.346 76.5378 212.475 80.316 213.773 83.3433Z" fill="#9A7279"/>
<path d="M240.561 86.4813C240.602 88.2719 240.423 90.0771 240.243 91.8543C240.022 94.0763 239.8 96.2982 239.58 98.5055C239.4 100.38 239.207 102.281 238.35 103.948C237.494 105.613 235.822 106.988 233.957 106.905C232.423 106.85 231.055 105.822 230.239 104.516C229.425 103.212 229.079 101.657 228.859 100.13C228.264 95.8389 228.541 91.4656 228.154 87.1482C227.961 85.0368 227.6 82.968 226.951 80.983C231.11 82.3303 235.78 84.1209 240.561 86.4813Z" fill="#9A7279"/>
<path d="M265.776 105.892C264.56 111.001 261.742 115.722 257.763 119.151C256.105 120.594 253.756 121.844 251.808 120.831C250.468 120.136 249.805 118.512 249.791 116.999C249.777 115.485 250.301 114.014 250.799 112.584C252.871 106.628 254.156 100.823 253.866 94.5757C258.136 97.7548 262.198 101.49 265.776 105.892Z" fill="#9A7279"/>
<path d="M279.737 140.631C277.568 142.103 275.136 143.158 272.566 143.685C270.99 143.991 269.32 144.116 267.814 143.588C266.294 143.06 264.953 141.741 264.788 140.131C264.594 138.214 265.976 136.549 267.247 135.091C270.341 131.55 273.408 127.719 276.006 123.678C278.189 129.399 279.378 135.077 279.737 140.631Z" fill="#9A7279"/>
<path d="M209.562 25.4576C207.598 25.7172 205.642 26.0088 203.693 26.3403C203.31 24.3766 202.868 22.4223 202.332 20.484C201.883 18.8598 200.623 17.2409 198.775 18.3379C197.474 19.1101 197.286 20.9858 197.318 22.3424C197.341 23.2837 197.505 25.2167 197.799 27.5092C195.609 28.0137 193.435 28.5995 191.284 29.3037C189.682 29.8283 188.113 31.2061 189.266 33.1179C190.077 34.4638 191.951 34.6036 193.3 34.5264C194.291 34.4705 196.383 34.2095 198.832 33.7862C199.652 37.7388 200.785 41.2414 202.185 41.6741C205.198 42.606 205.585 40.5877 205.43 38.9569C205.227 36.8149 204.991 34.6781 204.708 32.5507C208.583 31.5643 211.991 30.2676 212.373 28.7885C213.201 25.5854 211.179 25.2433 209.562 25.4576Z" fill="#FFBF6D"/>
<path d="M240.717 4.75366C237.819 3.13614 234.847 1.65309 231.756 0.380377C230.122 -0.293255 227.934 -0.261304 227.565 2.05381C227.304 3.68463 228.709 5.0745 229.84 5.93318C232.558 7.99801 246.152 16.3572 248.977 14.3602C251.803 12.362 250.417 10.7085 248.979 9.77661C246.27 8.02064 243.529 6.32325 240.717 4.75366Z" fill="#F39D90"/>
<path d="M149.917 233.06C148.194 233.287 146.481 233.554 144.772 233.845C144.436 232.119 144.048 230.403 143.577 228.698C143.184 227.275 142.079 225.855 140.459 226.817C139.318 227.494 139.153 229.139 139.18 230.328C139.2 231.153 139.343 232.848 139.602 234.858C137.682 235.302 135.776 235.816 133.889 236.432C132.485 236.893 131.109 238.1 132.119 239.777C132.831 240.957 134.474 241.079 135.657 241.012C136.526 240.962 138.36 240.735 140.508 240.363C141.227 243.829 142.22 246.9 143.448 247.279C146.091 248.097 146.428 246.326 146.293 244.898C146.116 243.019 145.894 241.149 145.645 239.284C149.049 238.418 152.047 237.28 152.382 235.981C153.107 233.173 151.334 232.872 149.917 233.06Z" fill="#FFBF6D"/>
<path d="M242.19 46.3307C239.251 46.987 236.343 47.7791 233.482 48.7869C231.967 49.3194 230.502 50.6654 231.639 52.4613C232.44 53.726 234.228 53.8192 235.51 53.718C238.594 53.4744 252.837 50.921 253.559 47.8523C254.28 44.7851 252.348 44.5002 250.811 44.7385C247.919 45.1871 245.04 45.6943 242.19 46.3307Z" fill="#FC5555"/>
<path d="M238.498 38.7999C237.954 39.0729 237.523 39.5867 237.395 40.1845C237.274 40.745 237.42 41.336 237.675 41.8486C238.285 43.0747 239.554 43.9427 240.912 44.0639C241.561 44.1211 242.242 44.0106 242.786 43.6512C243.332 43.2917 243.718 42.6607 243.689 42.0057C243.67 41.5917 243.494 41.2016 243.286 40.8421C242.369 39.2539 240.347 37.8734 238.498 38.7999Z" fill="#FC5555"/>
<path d="M240.985 58.0561C240.793 58.6365 240.849 59.3048 241.18 59.8187C241.49 60.3007 242.008 60.6148 242.55 60.7959C243.844 61.2286 245.352 60.9397 246.397 60.0597C246.896 59.639 247.299 59.0772 247.432 58.4368C247.564 57.7952 247.392 57.0736 246.911 56.633C246.606 56.3534 246.206 56.2029 245.807 56.0964C244.041 55.6252 241.64 56.0858 240.985 58.0561Z" fill="#FC5555"/>
<path d="M260.03 235.553C259.283 235.428 258.605 235.115 257.977 234.729C257.345 234.345 256.783 233.851 256.274 233.303C255.787 232.734 255.365 232.093 255.085 231.387C254.804 230.682 254.682 229.901 254.788 229.156C255.2 229.798 255.55 230.369 255.951 230.912C256.366 231.442 256.767 231.965 257.219 232.46C258.104 233.471 259.067 234.41 260.03 235.553Z" fill="#9A7279"/>
<path d="M177.135 185.115C178.057 184.094 179.315 183.424 180.596 182.937C181.889 182.447 183.258 182.208 184.625 182.093C185.996 181.992 187.369 182.088 188.712 182.298C189.384 182.405 190.043 182.584 190.699 182.742C191.346 182.955 191.988 183.172 192.612 183.438C191.926 183.446 191.261 183.395 190.599 183.357L188.618 183.286C187.305 183.279 186.004 183.242 184.714 183.361C183.422 183.443 182.141 183.615 180.875 183.885C179.613 184.175 178.355 184.529 177.135 185.115Z" fill="#9A7279"/>
<path d="M183.657 187.859C183.321 186.798 183.191 185.697 183.158 184.596C183.116 183.493 183.215 182.384 183.43 181.288C183.668 180.199 183.995 179.106 184.591 178.128C185.164 177.153 185.975 176.263 186.996 175.814C185.638 177.551 185.084 179.492 184.668 181.542C184.232 183.585 184.031 185.684 183.657 187.859Z" fill="#9A7279"/>
<path d="M99.1464 51.6782C89.2427 51.6782 81.1857 59.7751 81.1857 69.7278C81.1857 79.6806 89.2427 87.7774 99.1464 87.7774C109.05 87.7774 117.107 79.6806 117.107 69.7278C117.107 59.7751 109.05 51.6782 99.1464 51.6782ZM99.1464 89.0488C88.5459 89.0488 79.9219 80.3808 79.9219 69.7278C79.9219 59.0749 88.5459 50.4082 99.1464 50.4082C109.747 50.4082 118.371 59.0749 118.371 69.7278C118.371 80.3808 109.747 89.0488 99.1464 89.0488Z" fill="#EA5D80"/>
<path d="M146.06 30.6503C136.157 30.6503 128.1 38.7472 128.1 48.6999C128.1 58.6526 136.157 66.7495 146.06 66.7495C155.964 66.7495 164.022 58.6526 164.022 48.6999C164.022 38.7472 155.964 30.6503 146.06 30.6503ZM146.06 68.0195C135.46 68.0195 126.836 59.3528 126.836 48.6999C126.836 38.0469 135.46 29.3802 146.06 29.3802C156.661 29.3802 165.286 38.0469 165.286 48.6999C165.286 59.3528 156.661 68.0195 146.06 68.0195Z" fill="#EA5D80"/>
<path d="M118.095 67.9015C129.046 74.172 128.352 63.9 124.905 58.1146" stroke="#9A7279" stroke-width="1.27199" stroke-linecap="round"/>
<path d="M136.87 59.345C133.713 71.6814 126.842 63.9171 125.107 57.3387" stroke="#9A7279" stroke-width="1.27199" stroke-linecap="round"/>
</svg>
