<svg width="498" height="441" viewBox="0 0 498 441" fill="none" xmlns="http://www.w3.org/2000/svg">
<g clip-path="url(#clip0_986_4241)">
<path d="M415.554 181.292C412.985 178.381 410.303 175.535 407.797 172.568C407.347 172.017 407.102 170.876 407.349 170.225C408.893 165.978 410.672 161.841 412.172 157.581C412.602 156.334 413.065 155.765 414.402 155.597C419.119 155.044 423.821 154.368 428.517 153.714C429.287 153.61 430.04 153.477 431.36 153.281C431.024 146.234 430.714 139.267 430.379 132.126C424.634 131.782 419.406 131.385 414.169 131.201C412.321 131.136 411.437 130.684 410.729 128.773C409.309 124.878 407.33 121.193 405.679 117.356C405.431 116.764 405.516 115.735 405.888 115.237C408.705 111.33 411.5 107.418 414.555 103.695C416.013 101.91 415.838 100.692 414.258 99.2646C413.662 98.7224 413.243 97.9647 412.756 97.2843C410.057 94.7684 407.352 92.2748 404.654 89.7589C404.27 89.5843 403.874 89.4544 403.537 89.1966C400.11 86.6291 400.841 86.8487 397.838 89.4863C394.181 92.6896 390.556 95.9495 387.41 98.7638C381.678 96.678 376.335 94.7445 370.798 92.7349C369.997 86.9746 369.195 80.951 368.355 74.8931C361.195 74.0266 354.265 74.5362 347.26 75.8623C346.942 81.514 346.614 87.0199 346.332 92.5378C346.282 93.5283 346.088 94.0739 344.982 94.5424C340.682 96.3065 336.402 98.1718 332.221 100.207C331.012 100.791 330.381 100.646 329.452 99.9189C325.561 96.9403 321.619 94.0672 317.722 91.1108C316.748 90.3718 316.045 90.231 314.954 91.0862C310.104 94.9022 306.266 99.5867 302.785 104.63C302.091 105.615 302.495 106.25 303.2 107.012C306.397 110.522 309.504 114.104 312.73 117.598C313.655 118.61 313.828 119.302 313.245 120.676C311.176 125.452 309.385 130.351 307.336 135.586C302.095 136.309 296.141 137.105 290.203 137.928C289.281 145.21 289.483 152.221 290.975 159.242C297.157 159.56 303.149 159.874 308.597 160.163C310.847 164.71 312.832 168.995 315.095 173.139C315.943 174.705 315.915 175.701 314.805 177.077C311.892 180.719 309.111 184.492 306.336 188.242C305.78 188.978 304.87 189.785 305.985 190.801C310.517 194.956 315.049 199.11 319.609 203.249C320.57 204.128 321.386 203.94 322.336 203.071C325.888 199.815 329.571 196.691 333.045 193.367C334.395 192.079 335.417 192.281 336.948 192.907C340.722 194.444 344.559 195.926 348.492 197.052C350.182 197.528 350.687 198.142 350.867 199.792C351.445 205.134 352.225 210.434 352.929 215.667C357.153 216.775 369.566 216.156 374.365 214.67C374.63 209.219 374.957 203.713 375.122 198.187C375.156 196.81 375.685 196.354 376.904 195.82C380.777 194.133 384.531 192.175 388.394 190.437C389.043 190.157 390.202 190.204 390.745 190.589C394.25 193.13 397.653 195.786 401.055 198.443C402.953 199.931 403.722 200.544 404.697 200.208L418.045 185.832C418.392 184.539 417.628 183.641 415.554 181.292ZM383.649 166.72C371.717 179.562 351.618 180.296 338.764 168.366C325.91 156.435 325.168 136.349 337.101 123.506C349.034 110.664 369.133 109.93 381.987 121.86C394.841 133.79 395.582 153.877 383.649 166.72Z" fill="#98E0C1"/>
<path d="M386.396 385.102C383.381 386.087 380.248 386.801 377.078 387.291C366.936 388.9 356.162 388.308 345.735 387.498C341.022 387.143 336.343 386.75 331.825 386.472C322.116 385.926 312.278 385.68 302.612 386.58C294.474 387.316 286.456 388.849 278.787 391.67C264.549 396.867 245.075 386.701 258.938 372.009C259.948 370.918 261.155 369.807 262.558 368.677C271.011 361.858 282.073 359.229 294.595 358.831C303.96 358.519 314.133 359.476 324.691 360.871C334.136 362.135 343.9 363.724 353.617 365.132C369.278 367.392 384.225 363.031 396.114 353.834C401.031 350.036 405.401 345.422 409.07 340.118C411.367 336.814 413.313 333.391 414.912 329.923L414.918 329.901C422.74 312.849 421.875 294.116 408.846 278.912C403.705 272.921 397.564 267.809 391.03 263.357C390.061 262.691 382.664 259.227 382.475 258.148C378.872 237.223 394.419 241.604 394.419 241.604C407.181 247.988 419.074 256.72 427.669 267.939C432.535 274.239 436.323 281.35 438.662 289.315C439.681 292.743 440.396 296.234 440.848 299.725C445.64 336.029 421.366 373.771 386.396 385.102Z" fill="#F09C46"/>
<path opacity="0.2" d="M386.396 385.102C383.381 386.087 380.248 386.801 377.078 387.291C366.936 388.9 356.162 388.308 345.735 387.498C341.022 387.143 336.343 386.75 331.825 386.472C322.116 385.926 312.278 385.68 302.612 386.58C294.474 387.316 286.456 388.849 278.787 391.67C264.549 396.867 245.075 386.701 258.938 372.009C259.948 370.918 261.155 369.807 262.558 368.677C271.011 361.858 282.073 359.229 294.595 358.831C303.96 358.519 314.133 359.476 324.691 360.871C334.136 362.135 343.9 363.724 353.617 365.132C369.278 367.392 384.225 363.031 396.114 353.834C401.031 350.036 405.401 345.422 409.07 340.118C411.367 336.814 413.313 333.391 414.912 329.923L414.918 329.901C422.74 312.849 421.875 294.116 408.846 278.912C403.705 272.921 397.564 267.809 391.03 263.357C390.061 262.691 382.664 259.227 382.475 258.148C378.872 237.223 394.419 241.604 394.419 241.604C407.181 247.988 419.074 256.72 427.669 267.939C432.535 274.239 436.323 281.35 438.662 289.315C439.681 292.743 440.396 296.234 440.848 299.725C445.64 336.029 421.366 373.771 386.396 385.102Z" fill="#973433"/>
<path d="M302.612 386.58C294.473 387.316 286.456 388.849 278.787 391.67C264.549 396.867 245.074 386.701 258.938 372.009C260.903 374.138 264.879 379.386 264.556 386.662C264.585 386.646 286.174 368.742 302.612 386.58Z" fill="#973433"/>
<path d="M311.001 371.521C303.465 369.383 297.703 363.034 294.611 358.859C303.976 358.548 314.149 359.505 324.707 360.899C322.518 366.48 318.253 373.56 311.001 371.521Z" fill="#973433"/>
<path d="M377.078 387.291C366.935 388.9 356.162 388.308 345.734 387.498C348.813 381.988 354.417 375.004 363.104 374.63C371.757 374.296 375.477 381.483 377.078 387.291Z" fill="#973433"/>
<path d="M416.863 350.764C412.143 357.22 401.788 355.426 396.115 353.834C401.031 350.036 405.401 345.422 409.071 340.119C411.368 336.814 413.313 333.391 414.912 329.923C417.69 335.09 421.468 344.468 416.863 350.764Z" fill="#973433"/>
<path d="M440.864 299.754C436.917 300.202 432.669 298.825 429.328 293.172C423.284 282.876 425.736 272.92 427.679 267.99C432.545 274.29 436.333 281.4 438.672 289.366C439.669 292.788 440.412 296.262 440.864 299.754Z" fill="#973433"/>
<path d="M287.264 285.847C287.264 285.847 279.347 299.144 283.74 311.676C283.74 311.676 245.595 351.725 257.126 358.329C268.65 364.955 276.042 334.067 293.434 330.576C303.039 328.656 302.628 317.334 302.628 317.334C302.628 317.334 341.208 329.489 366.672 312.216C392.141 294.921 401.643 269.547 396.327 241.804C390.972 214.027 287.264 285.847 287.264 285.847Z" fill="#F09C46"/>
<path opacity="0.2" d="M287.264 285.847C287.264 285.847 279.347 299.144 283.74 311.676C283.74 311.676 245.595 351.725 257.126 358.329C268.65 364.955 276.042 334.067 293.434 330.576C303.039 328.656 302.628 317.334 302.628 317.334C302.628 317.334 341.208 329.489 366.672 312.216C392.141 294.921 401.643 269.547 396.327 241.804C390.972 214.027 287.264 285.847 287.264 285.847Z" fill="#973433"/>
<path d="M260.424 358.878C260.094 357.786 260.079 356.682 260.175 355.608C260.272 354.534 260.53 353.48 260.901 352.456C261.315 351.443 261.819 350.455 262.529 349.593C263.238 348.732 264.114 347.962 265.196 347.583L263.073 353.277C262.319 355.107 261.627 356.977 260.424 358.878Z" fill="#973433"/>
<path d="M400.546 225.342C401.257 214.298 399.998 202.391 396.007 189.967C393.306 181.57 389.375 172.939 383.922 164.187C380.298 158.34 375.997 152.43 370.984 146.497C369.896 145.202 368.764 143.894 367.58 142.597C363.305 137.842 358.989 133.506 354.677 129.602C346.842 122.507 338.979 116.767 331.227 112.132C324.107 107.905 317.111 104.644 310.27 102.142C300.839 98.6825 291.754 96.7022 283.285 95.7238C275.783 94.885 268.768 94.8219 262.388 95.24C255.448 95.6991 249.266 96.7199 244.096 97.8923C233.193 100.373 226.679 103.528 226.679 103.528C194.388 91.9118 172.903 99.5172 158.873 112.061C154.276 116.183 150.472 120.829 147.357 125.492C137.757 139.892 134.672 154.531 134.672 154.531L152.549 179.497L148.016 186.864C144.729 183.951 142.71 182.382 142.71 182.382C142.71 182.382 131.204 168.901 108.44 172.53C105.563 173.002 102.496 173.734 99.2608 174.828C98.1338 175.195 97.0231 175.591 95.9288 176.015C94.3833 176.604 92.8928 177.257 91.4411 177.943C85.4418 180.782 80.0787 184.461 75.5051 188.853C74.8272 189.508 74.1777 190.146 73.5445 190.813C70.7255 193.835 68.2605 197.142 66.2104 200.776C63.6817 205.214 61.7508 210.099 60.5533 215.372C59.3629 215.172 58.1828 215.024 56.9788 214.964C56.9565 214.958 56.9565 214.958 56.9565 214.958C41.1247 214.23 26.2824 225.432 27.215 230.343C27.323 230.922 27.4817 231.49 27.7193 232.032C30.0041 237.521 37.9548 241.683 47.6844 244.027C55.2535 245.864 61.0012 251.731 63.7319 255.02C64.6204 257.864 65.631 260.788 66.7248 263.758C66.7679 263.865 66.8049 263.995 66.848 264.102C68.12 267.479 69.508 270.958 71.0195 274.423C71.159 274.795 71.3209 275.173 71.4887 275.529C72.1464 277.091 72.8934 278.678 73.6241 280.236C73.9657 280.925 74.279 281.631 74.6206 282.32C77.5017 288.351 80.7415 294.382 84.2598 300.177C84.4396 300.489 84.6194 300.8 84.8214 301.117C85.8689 302.832 86.9388 304.553 88.0429 306.235C90.9123 310.613 93.9247 314.815 97.0759 318.767C99.9416 322.355 102.918 325.71 105.966 328.798C108.454 332.19 111 336.792 111.62 341.978C112.909 352.698 116.544 361.632 122.499 363.778C122.605 363.83 122.716 363.86 122.828 363.89C126.596 365.091 136.163 358.045 140.826 347.605C145.923 348.134 151.256 347.961 156.573 347.043C161.53 346.22 166.463 344.769 171.172 342.732C172.634 342.096 174.063 341.403 175.482 340.66C180.876 337.85 185.88 334.171 190.202 329.736C191.098 328.805 191.954 327.839 192.767 326.861C195.643 323.449 198.15 319.626 200.171 315.387C200.397 314.898 200.624 314.409 200.829 313.914C200.829 313.914 207.409 312.833 207.326 310.109C220.086 321.943 250.861 348.141 288.21 322.22C296.29 316.617 301.523 310.656 304.76 304.735C316.371 307.201 329.181 306.259 342.894 301.949C348.41 300.2 354.064 297.938 359.844 295.112C359.98 295.053 360.093 294.988 360.228 294.929C367.636 291.296 376.105 283.884 383.371 273.64C387.003 268.565 390.3 262.779 393.056 256.419C397.072 247.144 399.853 236.678 400.546 225.342ZM203.252 307.368C203.33 307.078 203.414 306.766 203.491 306.476C203.823 306.756 204.165 307.087 204.529 307.424C204.115 307.361 203.668 307.336 203.252 307.368Z" fill="#F09C46"/>
<path d="M168.388 280.983C174.604 284.656 179.763 292.541 180.22 299.763C180.306 301.316 180.185 302.837 179.801 304.36C178.044 310.917 172.325 316.818 166.218 319.7C166.077 319.782 165.941 319.841 165.806 319.9C159.583 322.679 152.347 321.744 146.887 317.747C140.493 313.046 134.94 304.219 137.188 296.097C138.071 292.891 139.949 289.809 142.431 287.151C149.039 280.077 160.069 276.053 168.388 280.983Z" fill="white"/>
<path d="M168.388 280.983C171.895 283.07 174.708 286.143 176.876 289.568C177.946 291.289 178.834 293.152 179.491 295.074C180.143 297.017 180.58 299.046 180.573 301.124C180.589 303.208 180.078 305.294 179.284 307.185C178.484 309.098 177.423 310.917 176.168 312.565C173.63 315.877 170.362 318.611 166.62 320.525L166.676 320.492C162.172 322.751 156.976 323.128 152.231 321.641C149.889 320.918 147.639 319.765 145.731 318.226C143.811 316.732 142.103 314.983 140.633 313.06C137.738 309.224 135.687 304.467 135.887 299.525C135.973 297.062 136.736 294.661 137.853 292.546C138.976 290.409 140.442 288.507 142.09 286.821L142.019 287.352L141.862 287.047L142.09 286.821C143.8 285.08 145.731 283.589 147.808 282.353C149.88 281.139 152.126 280.164 154.452 279.52C156.777 278.876 159.191 278.614 161.581 278.801C163.966 279.009 166.33 279.738 168.388 280.983ZM168.388 280.983C166.324 279.761 163.97 279.082 161.58 278.896C159.19 278.71 156.796 279.072 154.526 279.779C152.239 280.457 150.086 281.529 148.108 282.84C146.13 284.15 144.328 285.699 142.758 287.454L142.828 286.923L142.991 287.206L142.758 287.454C141.221 289.17 139.923 291.069 138.992 293.114C138.033 295.176 137.47 297.368 137.5 299.575C137.578 304.018 139.547 308.275 142.341 311.772C145.13 315.292 148.724 318.216 152.911 319.553C153.97 319.884 155.031 320.121 156.138 320.274C157.235 320.376 158.337 320.457 159.431 320.391C160.525 320.326 161.637 320.194 162.69 319.926C163.224 319.806 163.754 319.613 164.272 319.465C164.758 319.261 165.361 319.064 165.751 318.858L165.807 318.825C169.371 317.222 172.606 314.79 175.161 311.77C176.431 310.245 177.546 308.584 178.382 306.8C179.248 305 179.806 303.094 179.884 301.107C180.046 297.111 178.722 293.123 176.69 289.638C174.68 286.159 171.839 283.103 168.388 280.983Z" fill="#973433"/>
<path d="M172.958 294.279C170.992 289.21 166.23 285.018 160.72 284.426C151.931 283.482 143.288 290.919 143.114 299.693C143.024 304.402 145.322 309.487 149.062 312.402C159.076 320.2 174.144 310.565 173.85 298.63C173.835 297.167 173.512 295.694 172.958 294.279Z" fill="#973433"/>
<path opacity="0.21" d="M142.432 287.151C144.356 313.268 163.758 319.065 166.219 319.7C166.077 319.782 165.942 319.841 165.806 319.9C159.584 322.679 152.347 321.744 146.888 317.748C140.493 313.046 134.94 304.22 137.188 296.097C138.055 292.863 139.933 289.781 142.432 287.151Z" fill="#973433"/>
<path d="M131.78 297.181C131.555 296.858 131.303 296.551 130.929 296.427C130.466 296.279 129.981 296.484 129.563 296.707C127.594 297.805 126.034 299.61 125.27 301.748C125.082 302.271 124.938 302.806 125.008 303.351C125.092 304.019 125.457 304.618 125.841 305.151C126.471 306.014 127.22 306.788 128.136 307.296C133.833 310.496 133.755 300.077 131.78 297.181Z" fill="#973433"/>
<path d="M56.968 214.913C56.968 214.913 56.968 214.913 56.9903 214.919C57.2374 214.89 59.2169 214.823 61.5321 215.467L61.5544 215.473C62.8429 215.842 64.3809 216.708 65.8173 217.954C68.3422 220.136 70.5117 223.466 70.2773 227.109C69.652 236.049 51.6191 226.484 38.4158 227.105C34.0802 227.306 30.2644 228.602 27.7471 232.015C27.5155 231.451 27.3509 230.905 27.2205 230.321C26.2939 225.387 41.1363 214.185 56.968 214.913Z" fill="#973433"/>
<path d="M141.619 325.897C149.931 346.387 128.967 365.797 122.884 363.857C122.773 363.827 122.661 363.797 122.556 363.745C123.782 362.472 125.308 360.347 126.393 357.1C127.468 353.802 128.114 349.338 127.491 343.362C126.34 332.392 132.332 327.616 137.449 326.286C138.997 325.864 140.456 325.776 141.619 325.897Z" fill="#973433"/>
<path d="M57.6548 222.531C57.6548 222.531 60.9511 218.442 65.8347 217.982C68.3596 220.164 70.5291 223.495 70.2946 227.137C69.6693 236.077 51.6365 226.512 38.4332 227.134C41.4057 225.325 46.1241 223.338 51.7849 223.994C51.7849 223.994 47.9408 220.932 48.3735 219.853C48.8166 218.824 54.0313 222.038 54.3198 222.211C54.1548 222.024 52.2102 219.997 53.0327 219.07C53.9014 218.059 57.6548 222.531 57.6548 222.531Z" fill="white"/>
<path d="M137.449 326.286C145.141 337.215 134.182 343.745 134.182 343.745C134.182 343.745 137.154 343.991 136.889 345.785C136.613 347.528 133.769 346.359 133.513 346.243C133.601 346.362 135.359 348.817 135.009 349.942C134.654 351.09 132.321 348.816 132.321 348.816C131.749 353.539 128.243 356.09 126.372 357.094C127.446 353.796 128.093 349.332 127.469 343.356C126.34 332.393 132.327 327.638 137.449 326.286Z" fill="white"/>
<path d="M74.6836 282.265C78.0929 279.808 81.7934 277.692 85.6662 276.004C87.7493 275.104 89.9483 274.307 92.2 274.385C94.4577 274.44 96.8379 275.556 97.7957 277.605C99.1115 280.372 97.5842 283.572 95.8329 286.091C92.7789 290.436 89.0111 294.231 85.7029 298.365C85.2394 298.934 84.77 299.525 84.3229 300.122C80.8045 294.327 77.5647 288.296 74.6836 282.265Z" fill="#973433"/>
<path d="M66.7811 263.725C68.0839 263.238 69.4134 262.829 70.7739 262.572C72.4218 262.225 74.2021 262.009 75.7895 262.601C77.3828 263.172 78.7356 264.729 78.5672 266.429C78.4211 268.135 76.9047 269.33 75.5419 270.399C73.963 271.65 72.4614 272.968 71.0699 274.412C69.5583 270.948 68.1644 267.49 66.8983 264.091C66.8613 263.962 66.8242 263.833 66.7811 263.725Z" fill="#973433"/>
<path d="M99.1245 300.407C100.632 300.405 102.237 301.289 102.588 302.746C102.756 303.46 102.626 304.214 102.457 304.934C101.536 309.085 99.9328 314.799 97.1442 318.689C94.0154 314.743 90.9806 310.536 88.1112 306.157C90.2619 304.558 92.5227 303.085 94.8755 301.803C96.2097 301.108 97.6109 300.432 99.1245 300.407Z" fill="#973433"/>
<path d="M97.3892 197.704C99.3713 199.502 101.198 201.522 102.952 203.545C105.448 206.461 108.014 209.921 107.563 213.745C107.435 215.025 106.91 216.271 106.037 217.208C104.2 219.154 101.048 219.314 98.5587 218.336C96.0638 217.381 94.0208 215.542 91.9359 213.86C89.7024 212.019 87.2544 210.263 84.526 209.198C83.5129 208.783 82.4831 208.698 81.4533 208.613C86.0045 204.215 91.39 200.543 97.3892 197.704Z" fill="#973433"/>
<path d="M79.4857 210.596C81.2362 211.83 82.7974 213.324 83.9369 215.231C85.2622 217.427 86.8961 220.614 84.7239 222.828C84.1592 223.418 83.3582 223.729 82.538 223.844C79.1398 224.296 76.5423 221.76 73.464 220.839C73.0399 220.725 72.5876 220.628 72.1353 220.531C74.2017 216.925 76.6668 213.618 79.4857 210.596Z" fill="#973433"/>
<path d="M114.387 192.291C115.084 194.51 115.37 196.833 115.253 199.145C115.178 200.678 114.887 202.297 113.881 203.462C112.876 204.627 110.989 205.149 109.749 204.243C109.151 203.796 108.787 203.101 108.417 202.428C107.051 200.03 105.124 197.936 102.847 196.346C102.548 196.123 102.187 195.954 101.853 195.769C102.948 195.345 104.058 194.95 105.185 194.582C108.443 193.495 111.51 192.763 114.387 192.291Z" fill="#973433"/>
<path d="M131.542 271.373C131.542 271.373 130.329 277.597 132.56 278.912C134.791 280.227 136.551 273.48 134.614 269.017C134.614 269.017 126.647 265.448 125.158 269.041C123.675 272.611 131.542 271.373 131.542 271.373Z" fill="#973433"/>
<path d="M166.794 257.56C164.046 258.712 161.293 259.791 158.534 260.892L150.23 264.118L141.884 267.236C139.098 268.258 136.323 269.331 133.521 270.325L132.123 270.811L132.85 269.524C134.259 267.033 135.762 264.639 137.315 262.235C138.863 259.853 140.471 257.511 142.162 255.215C143.848 252.941 145.623 250.692 147.491 248.539C149.376 246.415 151.344 244.337 153.433 242.434C151.487 244.518 149.625 246.649 147.884 248.86C146.137 251.093 144.435 253.338 142.827 255.68C139.639 260.347 136.55 265.09 133.817 270.022L133.141 269.244C135.91 268.193 138.728 267.227 141.514 266.204L149.898 263.216L158.308 260.306C161.153 259.419 163.949 258.447 166.794 257.56Z" fill="#973433"/>
<path opacity="0.48" d="M140.603 275.498C143.13 277.227 146.581 278.008 150.221 277.19C155.492 275.997 160.437 272.541 161.766 267.4C162.599 264.204 161.942 261.208 160.86 258.551C158.776 253.475 156.295 248.627 151.447 245.655C149.683 244.56 147.679 243.737 145.378 243.574C141.857 243.324 137.736 244.778 134.627 247.363C131.512 249.971 129.428 253.643 129.192 257.022C128.916 261.179 131.135 265.216 133.572 267.996C135.743 270.514 137.833 273.608 140.603 275.498Z" fill="#973433"/>
<path opacity="0.48" d="M130.303 230.38C133.668 231.927 137.599 230.112 137.696 226.002C137.804 220.509 132.803 213.193 127.513 211.513C123.036 210.098 119.274 214.851 120.36 218.656C121.27 221.864 123.292 224.677 125.675 226.941C126.756 227.995 128.406 229.513 130.303 230.38Z" fill="#CC4A4A"/>
<path d="M179.815 315.741C181.945 316.719 183.478 318.587 184.836 320.481C186.912 323.356 188.789 326.441 190.243 329.675C185.915 334.133 180.894 337.783 175.517 340.621C175.53 340.481 175.544 340.342 175.535 340.196C175.656 334.3 173.761 328.605 172.719 322.852C172.355 320.818 172.164 318.496 173.419 316.848C174.867 315.013 177.701 314.793 179.815 315.741Z" fill="#973433"/>
<path d="M191.995 311.882C195.057 311.794 198.06 313.172 200.392 315.184C200.453 315.224 200.508 315.286 200.54 315.343C198.577 319.454 196.145 323.177 193.343 326.49C192.469 324.487 191.503 322.555 190.105 320.722C189.342 319.729 188.517 318.791 187.965 317.639C187.429 316.515 187.222 315.145 187.784 314.028C188.515 312.551 190.33 311.938 191.995 311.882Z" fill="#973433"/>
<path d="M170.594 333.015C171.296 333.968 171.55 335.16 171.671 336.316C171.865 338.448 171.65 340.589 171.235 342.677C166.498 344.73 161.57 346.159 156.63 347.01C156.928 346.612 157.236 346.265 157.522 345.911C160.449 342.488 162.938 338.733 164.928 334.7C165.52 333.472 166.221 332.106 167.538 331.742C168.67 331.448 169.893 332.062 170.594 333.015Z" fill="#973433"/>
<path opacity="0.48" d="M170.598 218.372C169.753 216.974 168.891 215.548 168.017 214.167C167.143 212.785 166.219 211.414 165.255 210.104L164.794 209.502L165.577 209.616C166.477 209.738 167.486 209.722 168.271 209.382C168.655 209.198 168.917 208.934 169.035 208.583C169.111 208.388 169.09 208.287 169.064 208.208C169.015 208.123 168.882 207.992 168.71 207.922C167.964 207.579 166.957 207.5 166.039 207.445C165.092 207.407 164.105 207.429 163.157 207.486L161.839 207.587L162.785 206.645C163.349 206.056 163.904 205.415 164.369 204.751C164.805 204.103 165.233 203.309 165.226 202.71C165.218 202.564 165.206 202.609 165.228 202.615C165.228 202.615 165.116 202.585 164.942 202.61C164.616 202.666 164.244 202.805 163.866 202.967C163.132 203.296 162.396 203.72 161.699 204.179L161.206 204.501L160.906 204.014C159.619 201.853 158.068 199.788 156.367 197.922C154.638 196.072 152.693 194.403 150.459 193.279L149.297 192.705L150.567 192.519C151.612 192.369 152.753 192.125 153.537 191.522C153.628 191.451 153.725 191.357 153.771 191.274C153.833 191.219 153.783 191.229 153.805 191.235C153.805 191.235 153.805 191.235 153.789 191.207C153.729 191.072 153.52 190.872 153.298 190.717C152.877 190.413 152.383 190.113 151.9 189.864C149.934 188.812 147.84 187.964 145.77 187.122C147.916 187.769 150.04 188.505 152.115 189.42C152.627 189.653 153.132 189.908 153.642 190.236C153.88 190.419 154.13 190.558 154.343 190.925C154.392 191.01 154.429 191.14 154.432 191.308C154.412 191.47 154.326 191.614 154.291 191.652C154.183 191.791 154.08 191.907 153.955 192.016C152.955 192.8 151.83 193.073 150.666 193.31L150.774 192.551C151.992 193.092 153.118 193.8 154.175 194.585C155.198 195.409 156.181 196.294 157.073 197.25C158.88 199.169 160.459 201.217 161.84 203.476L161.053 203.289C161.806 202.797 162.548 202.351 163.383 202.001C163.79 201.823 164.241 201.657 164.763 201.582C165.01 201.552 165.353 201.525 165.731 201.722C166.125 201.947 166.279 202.442 166.252 202.722C166.233 203.864 165.671 204.622 165.182 205.375C164.648 206.117 164.088 206.779 163.445 207.396L163.056 206.527C164.077 206.466 165.057 206.465 166.049 206.516C167.056 206.595 168.07 206.651 169.097 207.189C169.347 207.328 169.624 207.546 169.798 207.879C169.965 208.235 169.897 208.67 169.78 208.926C169.574 209.516 169.051 209.95 168.544 210.149C167.478 210.556 166.448 210.471 165.436 210.32L165.764 209.81C166.739 211.171 167.528 212.601 168.333 214.06C169.111 215.44 169.894 216.893 170.598 218.372Z" fill="#973433"/>
<path opacity="0.48" d="M200.884 313.881C201.945 313.496 202.994 313.06 204.011 312.568C205.006 312.069 206.002 311.476 206.738 310.693C207.109 310.29 207.324 309.846 207.253 309.397C207.21 308.931 206.868 308.6 206.407 308.357C205.507 307.877 204.35 307.734 203.308 307.694L201.834 307.658L203.108 306.923C204.155 306.319 205.158 305.608 206.079 304.851C206.999 304.094 207.893 303.258 208.448 302.259C208.748 301.765 208.863 301.246 208.871 300.77C208.868 300.244 208.696 299.815 208.348 299.507C207.63 298.884 206.337 298.801 205.253 298.917L204.417 299.003L204.632 298.2C205.195 296.009 205.581 293.674 205.81 291.393C206.044 289.089 206.066 286.776 206.021 284.445C205.97 282.137 205.683 279.813 205.217 277.537C204.829 275.234 204.031 273.036 203.232 270.838C204.274 272.933 205.173 275.111 205.751 277.417C206.335 279.701 206.739 282.032 206.896 284.393C207.104 286.743 207.042 289.117 206.862 291.483C206.66 293.844 206.324 296.168 205.748 298.499L205.126 297.783C205.817 297.705 206.461 297.711 207.149 297.823C207.814 297.93 208.516 298.165 209.096 298.679C209.698 299.199 209.982 300.016 209.959 300.727C209.952 301.467 209.738 302.174 209.37 302.745C208.695 303.926 207.7 304.783 206.723 305.573C205.723 306.357 204.658 307.028 203.539 307.636L203.344 306.843C204.536 306.948 205.688 307.113 206.787 307.742C207.303 308.048 207.849 308.6 207.899 309.307C207.955 309.991 207.585 310.657 207.147 311.042C206.259 311.855 205.214 312.364 204.164 312.8C203.064 313.246 201.988 313.603 200.884 313.881Z" fill="#973433"/>
<path opacity="0.48" d="M181.764 298.025C184.647 300.924 189.506 300.553 191.298 296.277C193.691 290.559 191.547 280.973 186.701 277.188C182.607 273.988 176.686 277.517 176.242 281.94C175.866 285.664 176.791 289.354 178.351 292.64C179.071 294.148 180.165 296.401 181.764 298.025Z" fill="#CC4A4A"/>
<path d="M202.605 299.426C199.09 297.456 195.805 295.166 192.588 292.798C189.4 290.414 186.263 287.924 183.373 285.141C186.888 287.111 190.173 289.402 193.39 291.77C196.578 294.154 199.721 296.621 202.605 299.426Z" fill="#973433"/>
<path d="M196.334 307.475C193.487 304.799 190.94 301.894 188.485 298.917C186.057 295.924 183.698 292.854 181.646 289.531C184.494 292.207 187.04 295.112 189.496 298.089C191.946 301.088 194.304 304.158 196.334 307.475Z" fill="#973433"/>
<path d="M185.192 313.262C183.813 309.57 182.833 305.817 181.938 302.015C181.071 298.198 180.328 294.365 179.945 290.438C181.33 294.108 182.304 297.882 183.199 301.684C184.066 305.502 184.815 309.312 185.192 313.262Z" fill="#973433"/>
<path d="M130.889 222.481C128.847 219.568 127.088 216.491 125.414 213.365C123.768 210.223 122.201 207.054 120.939 203.728C122.981 206.641 124.74 209.718 126.414 212.844C128.06 215.986 129.627 219.155 130.889 222.481Z" fill="#973433"/>
<path d="M113.469 208.132C116.049 210.377 118.395 212.87 120.662 215.39C122.917 217.954 125.093 220.546 127.029 223.407C124.427 221.156 122.098 218.691 119.836 216.149C117.581 213.585 115.389 210.965 113.469 208.132Z" fill="#973433"/>
<path d="M107.371 217.136C110.652 218.015 113.804 219.194 116.939 220.441C120.039 221.726 123.138 223.106 126.08 224.802C122.793 223.946 119.647 222.744 116.512 221.498C113.396 220.184 110.319 218.81 107.371 217.136Z" fill="#973433"/>
<path d="M126.103 217.135C132.318 220.808 137.478 228.693 137.935 235.915C138.027 237.445 137.9 238.989 137.516 240.512C135.759 247.069 130.04 252.97 123.933 255.852C123.792 255.934 123.656 255.993 123.521 256.052C117.298 258.831 110.062 257.896 104.602 253.899C98.2073 249.198 92.6546 240.371 94.9028 232.249C95.7857 229.043 97.6641 225.961 100.14 223.326C106.754 216.229 117.778 212.227 126.103 217.135Z" fill="white"/>
<path d="M126.102 217.135C129.609 219.222 132.422 222.294 134.59 225.72C135.659 227.441 136.548 229.304 137.205 231.225C137.856 233.169 138.293 235.198 138.287 237.276C138.302 239.36 137.791 241.446 136.997 243.337C136.198 245.25 135.136 247.069 133.881 248.717C131.343 252.029 128.075 254.763 124.333 256.676L124.39 256.644C119.885 258.903 114.689 259.28 109.945 257.793C107.603 257.07 105.352 255.917 103.444 254.378C101.525 252.884 99.8163 251.135 98.3463 249.211C95.4511 245.376 93.4006 240.619 93.6006 235.677C93.6865 233.214 94.4495 230.813 95.5664 228.698C96.6893 226.56 98.1557 224.658 99.8035 222.973L99.733 223.503L99.5755 223.198L99.8035 222.973C101.514 221.232 103.444 219.741 105.522 218.505C107.593 217.291 109.84 216.315 112.165 215.671C114.491 215.028 116.905 214.766 119.295 214.952C121.695 215.189 124.043 215.89 126.102 217.135ZM126.102 217.135C124.037 215.912 121.683 215.234 119.293 215.048C116.903 214.861 114.51 215.224 112.239 215.93C109.953 216.608 107.8 217.681 105.822 218.992C103.844 220.302 102.042 221.851 100.471 223.606L100.542 223.075L100.705 223.357L100.471 223.606C98.9349 225.321 97.6366 227.221 96.7058 229.266C95.7467 231.328 95.1834 233.519 95.2139 235.727C95.2912 240.17 97.2603 244.426 100.055 247.924C102.843 251.444 106.437 254.367 110.624 255.704C111.683 256.036 112.744 256.272 113.851 256.426C114.942 256.551 116.051 256.609 117.145 256.543C118.239 256.478 119.351 256.345 120.403 256.078C120.938 255.958 121.468 255.765 121.986 255.617C122.471 255.413 123.074 255.216 123.464 255.009L123.521 254.977C127.084 253.374 130.319 250.942 132.875 247.921C134.144 246.397 135.259 244.736 136.096 242.952C136.961 241.152 137.52 239.246 137.598 237.259C137.759 233.262 136.436 229.274 134.404 225.789C132.41 222.339 129.575 219.261 126.102 217.135Z" fill="#973433"/>
<path d="M130.671 230.431C128.705 225.362 123.943 221.17 118.433 220.578C109.644 219.633 101.001 227.071 100.827 235.844C100.737 240.553 103.034 245.639 106.775 248.554C116.789 256.352 131.857 246.717 131.563 234.781C131.548 233.319 131.225 231.846 130.671 230.431Z" fill="#973433"/>
<path opacity="0.21" d="M100.145 223.303C102.069 249.42 121.47 255.216 123.931 255.852C123.79 255.933 123.655 255.993 123.519 256.052C117.297 258.831 110.06 257.896 104.6 253.899C98.2056 249.198 92.6529 240.371 94.9011 232.249C95.79 229.021 97.6401 225.955 100.145 223.303Z" fill="#973433"/>
<path d="M100.994 268.614C125.794 275.259 151.281 260.555 157.922 235.772C164.562 210.989 149.841 185.512 125.041 178.867C100.241 172.222 74.7535 186.925 68.1129 211.708C61.4724 236.491 76.1936 261.968 100.994 268.614Z" fill="#E05656"/>
<path d="M131.195 207.503C129.967 207.175 128.805 206.6 127.744 205.742C123.773 202.527 123.181 196.703 126.419 192.742L190.636 113.95C193.852 109.983 199.673 109.415 203.644 112.63C207.614 115.846 208.207 121.67 204.968 125.631L140.751 204.423C138.371 207.323 134.587 208.412 131.195 207.503Z" fill="#E05656"/>
<path d="M171.6 154.195C172.526 155.113 189.009 175.641 188.38 183.432C187.752 191.224 184.109 193.57 184.109 193.57C184.109 193.57 181.977 207.509 165.194 205.331C148.439 203.136 122.432 172.981 139.587 140.741C156.741 108.501 171.6 154.195 171.6 154.195Z" fill="#F09C46"/>
<path d="M184.384 192.808C182.257 192.979 180.122 192.646 178.064 192.023C176.007 191.4 174.045 190.42 172.255 189.152C170.466 187.883 168.953 186.211 167.858 184.316C166.678 182.47 166.165 180.277 166.004 178.202C167.088 180.046 168 181.82 169.349 183.305C170.624 184.794 171.997 186.19 173.637 187.299C176.793 189.626 180.442 191.273 184.384 192.808Z" fill="#973433"/>
<path d="M168.33 204.785C166.707 204.684 165.232 204.026 163.827 203.291C162.421 202.556 161.148 201.593 159.984 200.492C158.848 199.375 157.798 198.114 157.1 196.612C156.397 195.133 156.01 193.452 156.311 191.883C157.647 194.751 159.462 196.815 161.575 198.839C162.617 199.859 163.722 200.825 164.843 201.818C165.999 202.773 167.108 203.812 168.33 204.785Z" fill="#973433"/>
<g opacity="0.48">
<path d="M170.05 148.641C170.297 150.667 171.428 152.428 172.509 154.104C173.642 155.77 174.978 157.3 176.361 158.746C177.715 160.208 179.227 161.617 180.608 163.159C181.989 164.7 183.28 166.313 184.479 167.997C186.849 171.381 188.861 175.123 189.879 179.268C190.371 181.36 190.547 183.559 190.118 185.786C189.739 188.003 188.555 190.101 186.937 191.675L187.261 191.092C186.763 193.039 186.072 194.814 185.235 196.597C184.382 198.353 183.357 200.038 182.042 201.551C180.751 203.069 179.137 204.358 177.257 205.216C175.376 206.075 173.28 206.398 171.271 206.218L171.541 206.195C169.08 206.539 166.838 206.249 164.57 205.785C162.337 205.282 160.181 204.489 158.152 203.492C156.129 202.471 154.25 201.179 152.491 199.8C151.6 199.107 150.806 198.32 149.972 197.595L147.681 195.164C149.372 196.621 151.075 198.034 152.904 199.241C154.727 200.47 156.677 201.495 158.663 202.386C160.661 203.232 162.758 203.889 164.865 204.239C166.949 204.582 169.218 204.688 171.135 204.317L171.258 204.302L171.398 204.316C173.123 204.396 174.832 204.089 176.346 203.347C177.861 202.605 179.197 201.457 180.323 200.11C181.466 198.791 182.383 197.243 183.156 195.61C183.922 193.999 184.557 192.256 184.983 190.578L185.078 190.221L185.3 190.017C188.026 187.521 188.553 183.502 187.713 179.763C186.913 175.963 185.05 172.381 182.972 168.979C181.918 167.287 180.729 165.653 179.472 164.097C178.237 162.547 176.809 161.089 175.491 159.493C174.195 157.902 172.995 156.218 171.966 154.437C171.031 152.656 170.066 150.724 170.05 148.641Z" fill="#973433"/>
</g>
<path d="M299.528 215.079C300.603 214.458 300.302 208.975 300.204 207.826C299.988 205.329 299.413 202.833 298.454 200.52C296.627 196.087 293.463 192.274 289.426 189.663C279.89 183.474 267.715 184.897 258.155 190.224C255.145 191.904 252.069 193.924 249.552 196.262C246.718 198.896 244.494 202.197 241.005 204.059C237.012 206.192 232.396 206.103 227.993 206.285C223.007 206.503 219.114 207.731 214.592 209.698C205.176 213.773 197.683 222.187 194.867 232.07C190.879 246.061 196.672 259.613 206.55 269.527C217.426 280.449 231.259 281.407 245.898 282.748C247.414 282.891 258.484 283.18 258.96 284.527C258.944 284.498 245.505 246.451 299.528 215.079Z" fill="#F8C794"/>
<g opacity="0.48">
<path d="M191.894 152.103C193.444 154.622 195.105 157.171 197.288 159.023C197.841 159.458 198.401 159.871 199.002 160.127C199.302 160.256 199.614 160.339 199.811 160.32C200.013 160.279 199.991 160.273 200.078 160.129C200.355 159.271 199.946 157.584 199.529 156.372L198.289 152.789L201.057 155.491C202.403 156.808 203.742 158.147 205.122 159.425C206.508 160.681 207.91 161.965 209.35 163.02C209.71 163.283 210.081 163.503 210.398 163.659C210.549 163.723 210.721 163.793 210.705 163.765C210.8 163.767 210.991 163.77 211.069 163.743C211.217 163.639 211.011 163.871 211.104 163.705C211.146 163.549 211.085 163.15 210.968 162.784C210.523 161.23 209.514 159.55 208.524 158.065L207.365 156.321L209.45 156.306C211.951 156.258 214.572 156.029 217.122 155.708C219.683 155.342 222.224 154.876 224.712 154.252C227.228 153.611 229.647 152.706 232.018 151.715C234.4 150.68 236.609 149.312 238.764 147.786C236.922 149.659 234.771 151.258 232.474 152.602C230.159 153.918 227.682 154.952 225.157 155.805C222.638 156.636 220.037 157.326 217.413 157.746C214.776 158.211 212.16 158.514 209.418 158.568L210.35 156.786C211.477 158.474 212.503 160.088 213.164 162.177C213.306 162.717 213.442 163.28 213.322 164.084C213.271 164.453 213.067 164.948 212.724 165.334C212.353 165.737 211.908 165.88 211.52 165.991C211.121 166.052 210.829 166.069 210.454 166.041C209.945 165.976 209.695 165.837 209.395 165.709C208.844 165.442 208.423 165.138 208.019 164.862C206.38 163.658 204.99 162.329 203.64 160.94C202.284 159.573 200.956 158.189 199.703 156.706L201.231 155.824C201.447 156.623 201.587 157.354 201.657 158.162C201.705 158.963 201.821 159.783 201.333 160.8C201.117 161.34 200.33 161.774 199.783 161.675C199.24 161.649 198.833 161.469 198.456 161.272C197.7 160.878 197.092 160.381 196.552 159.806C195.467 158.678 194.636 157.404 193.856 156.119C193.098 154.84 192.454 153.496 191.894 152.103Z" fill="#973433"/>
</g>
<g opacity="0.48">
<path d="M343.339 211.639C332.75 209.112 321.571 209.32 311.107 212.038C300.637 214.778 290.941 220.164 283.101 227.553C279.172 231.234 275.629 235.352 272.396 239.649C269.158 243.969 266.241 248.518 263.918 253.346C261.618 258.179 259.841 263.297 259.03 268.554C258.237 273.743 258.29 279.351 259.959 284.101L260.612 285.949L258.718 285.609C253.633 284.677 248.444 283.956 243.285 283.482C238.114 283.052 232.923 282.785 227.826 283.236C225.317 283.496 222.765 283.912 220.563 284.899C219.524 285.386 218.431 286.073 217.605 286.832C217.218 287.206 216.886 287.643 216.802 287.955C216.724 288.245 216.766 288.448 217.051 288.811C217.634 289.493 218.79 290.09 219.914 290.534C221.061 290.985 222.299 291.365 223.527 291.694C226.004 292.357 228.552 292.849 231.105 293.318C236.246 294.217 241.367 295.016 246.577 295.479C251.769 296.01 257.035 296.441 262.225 297.784C264.814 298.478 267.36 299.423 269.702 300.767C272.09 302.124 273.989 303.876 276.323 304.717C278.611 305.64 281.19 305.567 283.027 303.979C284.868 302.465 286.024 300.025 286.613 297.649L286.823 296.773L287.555 297.256C290.354 299.13 293.427 300.694 296.589 302.019C299.75 303.345 303.04 304.369 306.379 305.121C313.085 306.607 320.065 306.804 326.872 305.592C320.133 307.085 313.043 307.121 306.25 305.779C302.842 305.105 299.484 304.158 296.232 302.904C292.98 301.65 289.838 300.163 286.861 298.242L287.825 297.855C287.187 300.504 286.062 303.095 283.901 305.002C282.815 305.93 281.426 306.562 279.978 306.7C278.529 306.838 277.093 306.572 275.806 306.108C273.16 305.184 271.072 303.334 268.923 302.16C266.69 300.94 264.289 300.082 261.799 299.463C256.821 298.224 251.608 297.951 246.393 297.414C241.155 296.967 235.927 296.211 230.758 295.328C228.176 294.875 225.578 294.394 222.983 293.723C221.689 293.376 220.4 293.007 219.125 292.498C217.856 291.967 216.537 291.446 215.376 290.155C214.803 289.523 214.403 288.34 214.716 287.349C214.995 286.396 215.56 285.806 216.09 285.255C217.178 284.231 218.328 283.512 219.644 282.884C222.23 281.713 224.928 281.288 227.595 280.975C232.922 280.466 238.226 280.668 243.475 281.166C248.724 281.664 253.929 282.414 259.119 283.398L257.9 284.912C255.97 279.351 256.075 273.69 256.907 268.176C257.783 262.674 259.653 257.39 262.062 252.418C264.515 247.458 267.468 242.775 270.869 238.475C274.253 234.147 277.892 230.03 281.995 226.325C290.149 218.924 300.143 213.499 310.849 211.037C316.199 209.817 321.696 209.21 327.148 209.308C332.621 209.413 338.108 210.094 343.339 211.639Z" fill="#973433"/>
</g>
<path d="M227.088 293.58C226.887 291.47 228.177 289.426 230.012 288.292C231.863 287.186 234.192 286.974 236.053 287.974C235.087 288.456 234.247 288.733 233.45 289.117C232.643 289.451 231.936 289.859 231.251 290.273C229.808 291.106 228.613 292.172 227.088 293.58Z" fill="#973433"/>
<path d="M148.556 242.706C159.025 223.099 151.605 198.716 131.982 188.246C112.359 177.776 87.9649 185.184 77.4955 204.791C67.0262 224.399 74.4465 248.781 94.0692 259.251C113.692 269.721 138.086 262.313 148.556 242.706Z" fill="white"/>
<path d="M127.324 196.594C135.992 201.737 143.229 212.76 143.89 222.881C144.028 225.045 143.857 227.199 143.29 229.318C140.827 238.506 132.827 246.761 124.292 250.761C124.094 250.875 123.902 250.967 123.71 251.059C115.014 254.944 104.886 253.641 97.2508 248.033C88.3143 241.479 80.5506 229.12 83.6713 217.741C84.9008 213.242 87.5336 208.952 91.014 205.247L90.9977 205.219C100.275 195.322 115.703 189.703 127.324 196.594Z" fill="white"/>
<path d="M127.324 196.594C132.236 199.511 136.177 203.818 139.196 208.619C140.703 211.031 141.949 213.612 142.867 216.344C143.792 219.054 144.366 221.909 144.402 224.811C144.432 227.735 143.728 230.63 142.607 233.294C141.503 235.986 139.993 238.498 138.245 240.826C134.71 245.449 130.146 249.27 124.877 251.969L124.962 251.92C118.661 255.084 111.394 255.6 104.77 253.538C101.481 252.513 98.3466 250.908 95.6699 248.757C92.9812 246.65 90.589 244.24 88.5379 241.539C84.4967 236.177 81.6147 229.525 81.915 222.601C82.0287 219.142 83.0933 215.794 84.6724 212.846C86.2352 209.871 88.2695 207.189 90.6011 204.825L90.4991 205.563L90.4828 205.535L90.26 205.116L90.5624 204.791C92.9566 202.373 95.6481 200.273 98.5744 198.547C101.495 196.844 104.611 195.48 107.843 194.577C111.097 193.68 114.472 193.317 117.819 193.593C121.149 193.84 124.439 194.864 127.324 196.594ZM127.324 196.594C124.433 194.887 121.125 193.929 117.817 193.688C114.487 193.441 111.121 193.949 107.944 194.915C104.745 195.874 101.744 197.341 98.9785 199.182C96.2189 201 93.6716 203.186 91.4843 205.636L91.5863 204.898L91.6026 204.926L91.8374 205.3L91.5289 205.648C89.4042 208.042 87.5664 210.705 86.2463 213.579C84.9262 216.452 84.1015 219.53 84.1624 222.606C84.2721 228.802 87.0193 234.798 90.9285 239.67C94.8258 244.586 99.8461 248.704 105.717 250.541C107.194 251.008 108.685 251.336 110.212 251.53C111.745 251.701 113.273 251.8 114.827 251.715C116.359 251.623 117.892 251.436 119.406 251.053C120.165 250.898 120.881 250.636 121.636 250.408C122.33 250.139 123.147 249.856 123.701 249.575L123.786 249.526C128.761 247.297 133.312 243.879 136.88 239.672C138.669 237.546 140.199 235.23 141.395 232.73C142.591 230.23 143.381 227.549 143.506 224.762C143.733 219.182 141.882 213.594 139.049 208.723C136.142 203.857 132.173 199.566 127.324 196.594Z" fill="#973433"/>
<path d="M133.729 215.186C130.961 208.11 124.333 202.223 116.613 201.397C104.339 200.068 92.2224 210.471 91.9895 222.767C91.8741 229.357 95.0622 236.475 100.307 240.557C114.299 251.454 135.389 238.005 134.989 221.285C134.945 219.217 134.492 217.16 133.729 215.186Z" fill="#973433"/>
<path opacity="0.21" d="M82.3616 197.813C86.0859 248.101 123.422 259.277 128.165 260.5C127.911 260.647 127.634 260.788 127.363 260.906C115.381 266.253 100.631 265.146 90.1171 257.428C77.8033 248.392 69.3709 232.101 73.6836 216.452C75.3896 210.263 77.5745 202.913 82.3616 197.813Z" fill="#973433"/>
<g opacity="0.48">
<path d="M223.552 242.768C223.959 243.929 224.365 245.09 224.897 246.14C225.418 247.141 226.161 248.296 226.837 248.453C226.922 248.404 226.831 248.475 226.934 248.36C226.996 248.305 227.123 248.099 227.205 247.882C227.398 247.432 227.541 246.897 227.646 246.327C227.872 245.216 228.004 244.009 228.068 242.878L228.459 235.167L230.233 242.742C230.469 243.737 230.776 244.823 231.214 245.777C231.636 246.703 232.203 247.62 232.754 247.887C233.344 248.093 233.405 248.133 233.806 247.261C234.1 246.431 234.125 245.267 234.109 244.258L234.048 242.162L235.608 243.393C236.145 243.8 236.923 244.2 237.664 244.47C238.427 244.746 239.231 244.961 240.048 245.037C241.708 245.267 243.422 245.032 245.15 244.563C244.402 245.032 243.6 245.439 242.715 245.704C241.847 245.997 240.942 246.161 240.017 246.224C239.097 246.264 238.14 246.175 237.213 245.974C236.27 245.746 235.417 245.445 234.49 244.886L235.99 244.021C236.154 245.284 236.196 246.467 235.87 247.862C235.691 248.531 235.368 249.377 234.457 249.921C233.501 250.454 232.517 250.286 231.756 249.915C230.234 249.076 229.661 247.823 229.153 246.683C228.68 245.505 228.334 244.384 228.119 243.131L230.279 243.017C230.123 244.314 229.918 245.526 229.561 246.769C229.371 247.387 229.153 248.022 228.789 248.665C228.611 248.976 228.397 249.325 227.983 249.621C227.653 249.962 226.861 250.061 226.365 249.857C225.514 249.461 225.132 248.833 224.789 248.239C224.468 247.651 224.277 247.026 224.102 246.429C223.78 245.22 223.576 244.018 223.552 242.768Z" fill="#973433"/>
</g>
<g opacity="0.48">
<path d="M227.863 105.088C230.467 106.264 232.791 108.034 234.809 110.057C236.848 112.086 238.586 114.439 239.955 117.006C241.303 119.566 242.361 122.312 242.818 125.159C243.427 127.976 243.39 130.882 243.04 133.704C242.447 130.916 241.977 128.209 241.073 125.6C240.265 122.993 239.191 120.482 237.914 118.108C235.405 113.276 231.963 108.984 227.863 105.088Z" fill="#973433"/>
</g>
<path d="M158.885 112.016C163.962 115.121 168.018 119.889 170.562 125.304C171.109 126.478 171.608 127.831 171.167 129.028C170.703 130.314 169.312 131.041 167.955 131.107C166.614 131.202 165.282 130.726 164.024 130.245C158.155 127.955 153.082 125.64 147.369 125.448C150.49 120.762 154.272 116.11 158.885 112.016Z" fill="#973433"/>
<path d="M363.963 194.48C373.695 189.319 385.168 187.923 396.006 189.967C399.997 202.391 401.256 214.297 400.545 225.342C397.116 222.606 393.421 220.326 388.814 218.685C379.126 215.204 367.565 214.425 360.949 206.533C359.394 204.658 358.163 202.201 358.752 199.825C359.376 197.315 361.724 195.697 363.963 194.48Z" fill="#973433"/>
<path d="M370.99 146.475C376.003 152.408 380.304 158.317 383.928 164.164C378.497 165.865 373.425 168.545 368.258 170.866C364.802 172.426 360.37 173.701 357.497 171.21C355.437 169.438 355.08 166.307 355.913 163.733C356.723 161.154 358.513 159.028 360.301 156.997C363.575 153.261 367.061 149.534 370.99 146.475Z" fill="#973433"/>
<path d="M331.233 112.109C338.991 116.722 346.854 122.462 354.683 129.58C351.703 132.845 348.529 135.939 345.334 139.027C341.283 142.985 337.526 147.811 332.542 150.611C328.831 152.676 325.187 153.062 322.193 149.774C318.368 145.57 322.016 139.544 323.491 135.11C325.638 128.705 327.756 122.317 329.875 115.928C330.305 114.681 330.741 113.411 331.233 112.109Z" fill="#973433"/>
<path d="M283.291 95.7014C291.76 96.6798 300.845 98.6601 310.276 102.119C308.82 106.749 307.153 111.274 305.269 115.718C302.976 121.151 300.388 126.434 297.506 131.566C295.635 134.889 292.872 138.595 289.059 138.362C285.767 138.149 283.361 134.899 282.871 131.636C282.382 128.374 283.267 125.073 283.892 121.846C285.131 115.437 285.297 108.836 284.396 102.38C284.057 100.162 283.623 97.9419 283.291 95.7014Z" fill="#973433"/>
<path d="M244.086 97.8416C249.279 96.6752 255.438 95.6484 262.379 95.1894C263.154 97.7398 263.625 100.448 263.945 103.091C264.332 106.47 264.52 109.962 263.418 113.181C262.339 116.406 259.724 119.291 256.369 119.85C255.79 119.958 255.162 119.98 254.61 119.809C253.356 119.401 252.632 118.084 252.092 116.887C249.87 111.965 248.444 106.754 246.194 101.849C245.584 100.466 244.866 99.1263 244.086 97.8416Z" fill="#973433"/>
<path d="M365.921 242.526C375.143 245.69 384.797 250.907 393.096 256.357C390.362 262.724 387.043 268.504 383.411 273.579C379.48 270.303 375.574 266.937 371.63 263.801C366.912 260.074 362.161 256.291 358.451 251.568C353.279 245.067 359.038 240.18 365.921 242.526Z" fill="#973433"/>
<path d="M337.61 274.358C338.925 273.467 340.719 273.733 342.213 274.229C346.031 275.515 349.299 278.136 351.893 281.221C355.317 285.318 357.74 290.198 359.907 295.057C354.126 297.883 348.473 300.145 342.957 301.894C342 297.789 340.863 293.731 339.517 289.737C338.149 285.737 332.672 277.696 337.61 274.358Z" fill="#973433"/>
<path d="M156.49 75.1277C158.032 80.8818 157.02 86.7465 154.122 91.4671C151.427 95.8705 147.085 99.3049 141.684 100.752C136.595 102.116 131.429 101.492 127.049 99.3428C121.817 96.7767 117.681 92.0524 116.049 85.9638C113.055 74.79 119.696 63.3294 130.855 60.3393C142.031 57.3209 153.496 63.9539 156.49 75.1277Z" stroke="#E05656" stroke-miterlimit="10"/>
<path d="M141.009 81.0926C142.458 79.27 143.089 76.806 142.438 74.375C141.362 70.3605 137.225 67.9551 133.186 69.0375C129.168 70.1139 126.76 74.2492 127.842 78.286C128.505 80.7617 130.341 82.6125 132.59 83.42C128.37 87.1324 127.267 94.2645 127.066 99.3145C131.445 101.464 136.611 102.087 141.7 100.724C147.101 99.2767 151.443 95.8423 154.139 91.4388C151.094 87.3065 146.321 82.0834 141.009 81.0926Z" fill="#E05656"/>
<path d="M97.7529 112.607C96.0916 118.808 89.7254 122.48 83.5209 120.818C77.3164 119.155 73.6394 112.792 75.3007 106.591C76.962 100.391 83.3283 96.7186 89.5328 98.3811C95.7373 100.044 99.4143 106.407 97.7529 112.607Z" stroke="#E05656" stroke-miterlimit="10" stroke-linecap="round" stroke-linejoin="round"/>
<path d="M91.0215 120.318L100.518 137.994" stroke="#E05656" stroke-miterlimit="10" stroke-linecap="round" stroke-linejoin="round"/>
</g>
<defs>
<clipPath id="clip0_986_4241">
<rect width="423.272" height="342.604" fill="white" transform="translate(88.6719) rotate(15)"/>
</clipPath>
</defs>
</svg>
