<svg width="37" height="38" viewBox="0 0 37 38" fill="none" xmlns="http://www.w3.org/2000/svg">
<path d="M0.771484 14.334L17.3136 34.1752C17.4583 34.3485 17.6392 34.4878 17.8437 34.5834C18.0481 34.6791 18.2711 34.7286 18.4968 34.7286C18.7225 34.7286 18.9455 34.6791 19.1499 34.5834C19.3544 34.4878 19.5353 34.3485 19.68 34.1752L36.2298 14.334H0.771484Z" fill="#EBC858"/>
<path d="M28.2132 2.77149H8.78815C8.22984 2.77083 7.68183 2.92179 7.2026 3.20824C6.72337 3.49469 6.33091 3.90589 6.06711 4.39794L0.771484 14.334H36.2298L30.9342 4.39794C30.6704 3.90589 30.2779 3.49469 29.7987 3.20824C29.3195 2.92179 28.7715 2.77083 28.2132 2.77149Z" fill="#FFD85F"/>
<path d="M17.02 33.574L11.5625 14.334H25.4375L19.98 33.6048C19.8833 33.9241 19.6857 34.2034 19.4167 34.4008C19.1478 34.5983 18.822 34.7031 18.4884 34.6996C18.1548 34.6961 17.8314 34.5845 17.5666 34.3816C17.3018 34.1786 17.11 33.8952 17.02 33.574Z" fill="#F1D88B"/>
<path d="M25.4368 14.334H11.5618L10.791 2.77148H26.2077L25.4368 14.334Z" fill="#FFE596"/>
</svg>
