<svg width="24" height="25" viewBox="0 0 24 25" fill="none" xmlns="http://www.w3.org/2000/svg">
<path d="M21.2779 6.53457L11.7379 16.0745C10.7879 17.0245 7.96792 17.4645 7.33792 16.8345C6.70792 16.2045 7.13792 13.3845 8.08792 12.4345L17.6379 2.88454C17.8734 2.6276 18.1585 2.42106 18.4761 2.27736C18.7936 2.13366 19.137 2.05576 19.4855 2.04842C19.8339 2.04109 20.1803 2.10443 20.5036 2.23464C20.8269 2.36485 21.1205 2.55925 21.3666 2.80605C21.6127 3.05285 21.8063 3.34695 21.9356 3.67061C22.0649 3.99428 22.1274 4.34078 22.1191 4.68923C22.1108 5.03768 22.0319 5.38087 21.8874 5.69802C21.7428 6.01517 21.5355 6.29976 21.2779 6.53457Z" stroke="#EA5D80" stroke-width="1.5" stroke-linecap="round" stroke-linejoin="round"/>
<path d="M11 4.13477H6C4.93913 4.13477 3.92178 4.55619 3.17163 5.30634C2.42149 6.05649 2 7.0739 2 8.13477V18.1348C2 19.1957 2.42149 20.2131 3.17163 20.9632C3.92178 21.7134 4.93913 22.1348 6 22.1348H17C19.21 22.1348 20 20.3348 20 18.1348V13.1348" stroke="#EA5D80" stroke-width="1.5" stroke-linecap="round" stroke-linejoin="round"/>
</svg>
