<svg width="811" height="840" viewBox="0 0 811 840" fill="none" xmlns="http://www.w3.org/2000/svg">
<path opacity="0.4" d="M775.531 458.524C759.936 649.316 542.018 787.205 351.226 771.61C160.434 756.014 18.4092 588.704 34.0045 397.912C49.5997 207.12 131.993 40.8581 322.785 56.4533C513.577 72.0485 791.127 267.732 775.531 458.524Z" fill="#EA5D80"/>
<path d="M450.943 788.938C261.543 816.727 78.1046 635.476 50.3156 446.075C22.5267 256.675 153.539 80.6078 342.939 52.8188C532.34 25.0299 712.89 67.8481 740.679 257.249C768.468 446.649 640.344 761.149 450.943 788.938Z" fill="white"/>
<g clip-path="url(#clip0_43_132)">
<path fill-rule="evenodd" clip-rule="evenodd" d="M682.822 118.476C682.699 117.744 682.606 117.02 682.546 116.295C682.455 115.209 682.511 114.115 682.479 113.029C682.465 112.568 682.41 111.366 682.432 111.194C682.634 109.688 683.849 109.457 684.205 109.416C684.377 109.391 686.143 109.194 686.523 111.153C686.991 113.547 687.141 115.958 686.975 118.32C687.361 120.327 688.021 122.327 688.893 124.137C692.36 131.337 698.968 132.037 706.127 131.971C707.228 131.954 708.142 132.818 708.199 133.913C708.257 135.015 707.437 135.97 706.341 136.069C702.34 136.456 695.24 139.665 692.785 143.006C692.272 143.705 691.973 145.392 691.578 147.046C691.027 149.342 690.371 151.613 689.636 152.567C689.526 152.715 688.186 154.229 687.786 154.452C686.825 154.978 686.055 154.674 685.618 154.394C685.181 154.114 684.687 153.563 684.489 152.649C684.283 151.695 684.457 149.737 684.425 149.317C684.308 147.795 684.004 144.808 683.383 142.24C683.048 140.858 682.691 139.582 682.1 138.949C679.913 136.604 676.415 136.949 673.47 137.336C673.132 137.377 672.794 137.427 672.457 137.468C671.258 137.822 669.985 138.085 668.639 138.241C666.608 138.48 666.274 136.612 666.256 136.488C666.218 136.217 666.077 134.818 667.608 134.258C667.775 134.201 669.008 133.929 669.483 133.822C670.144 133.674 670.813 133.559 671.485 133.452C678.421 131.296 682.188 125.24 682.822 118.476ZM685.203 125.956C687.821 131.37 691.795 133.987 696.505 135.172H696.504C693.563 136.711 690.888 138.636 689.47 140.57C688.932 141.302 688.438 142.775 687.993 144.429C687.752 142.89 687.426 141.253 686.996 139.854C686.506 138.258 685.847 136.933 685.111 136.143C683.691 134.621 681.909 133.773 679.992 133.353C682.287 131.321 684.026 128.786 685.203 125.956Z" fill="#EA5D80"/>
</g>
<g clip-path="url(#clip1_43_132)">
<path d="M247.527 648.545C308.57 648.545 358.054 633.067 358.054 613.974C358.054 594.881 308.57 579.403 247.527 579.403C186.485 579.403 137 594.881 137 613.974C137 633.067 186.485 648.545 247.527 648.545Z" fill="#DC5656"/>
<path d="M395.168 648.545C395.168 658.361 369.73 666.31 338.346 666.31C306.962 666.31 281.524 658.361 281.524 648.545C281.524 638.729 306.962 630.78 338.346 630.78C369.73 630.78 395.168 638.729 395.168 648.545Z" fill="#DC5656"/>
<path d="M243.523 676C257.983 676 269.704 672.328 269.704 667.799C269.704 663.269 257.983 659.598 243.523 659.598C229.064 659.598 217.342 663.269 217.342 667.799C217.342 672.328 229.064 676 243.523 676Z" fill="#DC5656"/>
<g opacity="0.18">
<path d="M247.887 648.545C308.929 648.545 358.414 633.067 358.414 613.974C358.414 594.881 308.929 579.403 247.887 579.403C186.844 579.403 137.36 594.881 137.36 613.974C137.36 633.067 186.844 648.545 247.887 648.545Z" fill="white"/>
<path d="M395.528 648.545C395.528 658.361 370.09 666.31 338.706 666.31C307.322 666.31 281.884 658.361 281.884 648.545C281.884 638.729 307.322 630.78 338.706 630.78C370.09 630.78 395.528 638.729 395.528 648.545Z" fill="white"/>
<path d="M243.859 676C258.318 676 270.04 672.328 270.04 667.799C270.04 663.27 258.318 659.598 243.859 659.598C229.399 659.598 217.678 663.27 217.678 667.799C217.678 672.328 229.399 676 243.859 676Z" fill="white"/>
</g>
<path d="M644.226 606.934C640.534 615.766 629.577 624.648 599.152 620.459C599.152 620.459 599.136 620.468 599.104 620.485L594.477 583.315L586.78 521.44L578.964 458.506L578.317 454.191L575.344 434.155L574.505 428.452C580.019 429.688 584.767 431.026 588.698 432.439C590.137 432.944 591.504 433.474 592.702 434.004C596.802 435.82 599.487 437.713 600.614 439.681L601.238 441.776L622.504 514.324L645.473 592.576C645.473 592.576 647.271 599.717 644.226 606.909V606.934Z" fill="#94DCBD"/>
<path d="M285.408 426.837L284.018 436.224L281.117 455.882L280.517 459.944L273.301 527.017L267.403 581.901L263.375 619.4C229.21 626.061 218.445 614.605 215.208 605.016C213.218 599.187 214.009 594.064 214.009 594.064L232.111 519.321L250.956 441.574L251.267 440.262C251.795 438.949 253.089 437.688 254.96 436.451C257.093 435.038 260.09 433.675 263.83 432.338C269.417 430.345 276.681 428.528 285.36 426.837H285.408Z" fill="#94DCBD"/>
<path d="M624.47 607.413C624.47 612.157 615.263 616.624 599.152 620.459C599.152 620.459 599.136 620.468 599.104 620.485C566.114 628.358 504.257 633.632 433.385 633.632C362.514 633.632 295.118 627.853 263.423 619.4H263.399C249.925 615.791 242.324 611.728 242.324 607.413L244.53 589.497L261.625 450.481L263.854 432.338C269.441 430.345 276.705 428.528 285.384 426.837C285.96 426.736 286.511 426.635 287.087 426.534C291.139 425.752 295.502 425.045 300.129 424.364C311.302 422.699 324.081 421.235 338.083 420.049C342.039 419.746 346.09 419.418 350.262 419.141C364.168 418.182 379.081 417.475 394.737 417.071C398.645 416.97 402.577 416.869 406.581 416.819C412.982 416.718 419.503 416.668 426.097 416.668C433.457 416.668 440.674 416.718 447.794 416.844C451.798 416.92 455.73 416.996 459.638 417.097C476.877 417.576 493.18 418.409 508.213 419.57C512.432 419.898 516.508 420.251 520.512 420.604C532.38 421.689 543.241 422.976 552.903 424.44C557.65 425.172 562.134 425.903 566.281 426.711C569.206 427.266 571.94 427.846 574.529 428.427C580.043 429.663 584.791 431.001 588.723 432.414L592.247 449.699L621.569 593.232L624.47 607.363V607.413Z" fill="#94DCBD"/>
<path opacity="0.48" d="M622.528 514.349C617.038 515.561 611.571 516.696 606.153 517.781C604.858 518.034 603.587 518.261 602.293 518.538C597.33 519.548 592.367 520.481 587.476 521.314C587.26 521.364 587.044 521.39 586.805 521.44C573.378 523.863 560.24 525.957 547.317 527.749C542.234 528.481 537.223 529.137 532.212 529.742C510.586 532.442 489.776 534.335 469.78 535.571C464.625 535.874 459.519 536.152 454.484 536.404C435.927 537.237 418.209 537.514 401.33 537.388C396.127 537.313 390.997 537.237 385.938 537.111C365.367 536.581 346.234 535.42 328.612 533.83C323.362 533.376 318.255 532.846 313.292 532.341C298.739 530.777 285.384 528.935 273.325 527.017C270.472 526.588 267.691 526.134 264.981 525.68C260.666 524.948 256.566 524.191 252.658 523.459H252.634C251.723 523.308 250.836 523.131 249.973 522.979C243.451 521.743 237.505 520.507 232.135 519.321L250.98 441.574L251.291 440.262C251.819 438.949 253.113 437.688 254.983 436.451L263.375 436.376L284.018 436.249L575.368 434.18L589.034 434.079H592.703C596.802 435.871 599.488 437.763 600.614 439.732L601.238 441.826L622.504 514.375L622.528 514.349Z" fill="#5BBA8F"/>
<path d="M599.128 620.459C577.502 651.952 531.565 630.099 531.565 630.099C504.808 654.248 466.064 633.632 466.064 633.632C433.05 661.844 393.993 633.632 393.993 633.632C362.538 657.831 329.451 630.578 329.451 630.578C287.398 651.22 263.423 619.374 263.423 619.374H263.447L364.815 618.567L599.152 620.434L599.128 620.459Z" fill="#94DCBD"/>
<path opacity="0.28" d="M644.226 606.934C640.534 615.766 629.577 624.648 599.152 620.459C599.152 620.459 599.136 620.459 599.104 620.459C577.478 651.952 531.541 630.099 531.541 630.099C504.784 654.248 466.04 633.632 466.04 633.632C433.026 661.844 393.969 633.632 393.969 633.632C362.514 657.831 329.427 630.578 329.427 630.578C287.374 651.22 263.399 619.374 263.399 619.374C229.234 626.036 218.469 614.58 215.232 604.991C222.473 599.389 232.351 594.191 244.53 589.472C251.435 586.797 259.107 584.248 267.427 581.876C308.545 570.218 365.558 563.001 428.566 563.001C491.574 563.001 553.047 570.798 594.501 583.289C604.642 586.343 613.729 589.648 621.593 593.257C630.943 597.496 638.592 602.089 644.226 606.934Z" fill="#5BBA8F"/>
<path d="M223.504 596.436C224.583 597.219 225.901 597.496 227.196 597.698C231.2 598.329 235.923 597.37 236.378 592.273C236.666 589.068 234.676 585.788 231.895 584.526C225.518 581.649 216.671 591.516 223.504 596.436Z" fill="white"/>
<path d="M619.267 587.579C620.346 588.361 621.665 588.639 622.96 588.841C626.963 589.472 631.687 588.513 632.142 583.416C632.43 580.211 630.44 576.93 627.659 575.669C621.281 572.792 612.434 582.658 619.267 587.579Z" fill="white"/>
<path d="M229.641 577.334C232.686 577.561 233.262 573.65 230.289 572.994C227.172 572.312 226.357 577.082 229.641 577.334Z" fill="white"/>
<path d="M621.449 563.228C624.494 563.455 625.069 559.544 622.096 558.888C618.98 558.207 618.164 562.976 621.449 563.228Z" fill="white"/>
<path d="M588.723 623.588C591.767 623.816 592.343 619.904 589.37 619.248C586.253 618.567 585.438 623.336 588.723 623.588Z" fill="white"/>
<path d="M404.255 634.591C407.3 634.818 407.875 630.906 404.902 630.25C401.785 629.569 400.97 634.338 404.255 634.591Z" fill="white"/>
<path opacity="0.18" d="M289.772 595.099C289.772 595.099 293.296 610.416 277.736 609.886C262.176 609.382 267.187 590.885 267.187 590.885L287.087 426.534C291.139 425.752 295.502 425.045 300.129 424.364L289.772 595.099Z" fill="white"/>
<path opacity="0.18" d="M349.639 599.893C349.639 599.893 354.026 614.984 338.466 615.413C322.906 615.867 326.886 597.092 326.886 597.092L338.107 420.024C342.063 419.721 346.114 419.393 350.286 419.115L349.639 599.868V599.893Z" fill="white"/>
<path opacity="0.18" d="M525.859 613.823C510.395 615.816 512.672 596.714 512.672 596.714L508.189 419.57C512.409 419.898 516.484 420.251 520.488 420.604L535.617 597.269C535.617 597.269 541.299 611.855 525.859 613.823Z" fill="white"/>
<path opacity="0.18" d="M465.632 618.062C450.168 620.056 452.446 600.953 452.446 600.953L447.794 416.844C451.798 416.92 455.73 416.996 459.638 417.097L475.39 601.483C475.39 601.483 481.073 616.069 465.632 618.037V618.062Z" fill="white"/>
<path opacity="0.18" d="M400.395 618.542C384.859 619.5 388.287 600.6 388.287 600.6L394.761 417.097C398.669 416.996 402.601 416.895 406.605 416.844L411.136 602.694C411.136 602.694 415.931 617.633 400.395 618.567V618.542Z" fill="white"/>
<path opacity="0.18" d="M586.661 606.858C571.436 610.34 572.036 591.112 572.036 591.112L552.903 424.44C557.65 425.172 562.134 425.903 566.281 426.711L594.932 589.421C594.932 589.421 601.885 603.376 586.685 606.858H586.661Z" fill="white"/>
<path d="M601.238 441.801C601.238 444.577 598.073 447.277 592.247 449.75C588.627 451.314 583.951 452.828 578.317 454.216C553.239 460.525 509.651 465.117 458.128 466.505C447.747 466.758 437.029 466.909 426.073 466.909C365.798 466.909 312.621 462.543 281.093 455.907C273.133 454.241 266.564 452.399 261.601 450.481C254.696 447.781 250.908 444.854 250.908 441.826C250.908 441.75 250.908 441.675 250.932 441.599C250.932 441.17 251.051 440.716 251.243 440.287C252.418 437.511 256.782 434.811 263.806 432.363C269.393 430.37 276.657 428.553 285.336 426.862C317.248 420.705 368.388 416.693 426.025 416.693C444.941 416.693 463.163 417.122 480.233 417.904C488.001 418.283 495.554 418.737 502.794 419.216C532.284 421.285 557.099 424.515 574.457 428.477C579.971 429.714 584.719 431.051 588.651 432.464C595.028 434.735 599.104 437.158 600.566 439.706C600.974 440.413 601.19 441.094 601.19 441.801H601.238Z" fill="#B4ECE3"/>
<path opacity="0.18" d="M458.152 466.48C447.771 466.732 437.053 466.884 426.097 466.884C365.822 466.884 312.645 462.518 281.117 455.882C273.157 454.216 266.588 452.374 261.625 450.456C254.72 447.756 250.932 444.829 250.932 441.801C250.932 441.725 250.932 441.65 250.956 441.574C250.956 441.145 251.075 440.691 251.267 440.262C252.442 437.486 256.806 434.786 263.83 432.338C269.417 430.345 276.681 428.528 285.36 426.837C317.272 420.68 368.412 416.668 426.049 416.668C444.965 416.668 463.187 417.097 480.257 417.879L480.401 419.141C413.725 419.141 359.637 429.815 359.637 442.987C359.637 454.67 402.049 464.386 458.104 466.455L458.152 466.48Z" fill="white"/>
<path d="M357.719 422.295C346.834 430.95 338.035 434.104 331.321 434.634C330.842 434.685 330.338 434.71 329.883 434.71C329.427 434.735 328.996 434.735 328.588 434.71C328.301 434.71 327.989 434.685 327.701 434.659C320.053 434.256 315.809 430.42 314.85 429.486H314.826C314.73 429.36 314.658 429.285 314.658 429.285C314.658 429.285 309.144 444.98 300.345 449.497C292.385 453.585 274.643 462.619 267.714 462.745C267.211 462.77 266.731 462.72 266.348 462.569C265.485 462.316 264.981 461.66 264.933 460.55C264.502 452.248 284.617 442.583 284.617 442.583C284.617 442.583 278.336 437.006 275.914 422.244C275.411 419.115 275.051 415.608 274.979 411.646C274.883 407.659 275.075 403.192 275.65 398.221C275.818 396.606 276.034 394.89 276.322 393.174C276.777 390.171 277.401 387.396 278.168 384.797C279.75 379.119 281.98 374.274 284.569 370.186C286.967 366.3 289.676 363.07 292.409 360.42C301.951 351.159 311.901 348.636 311.901 348.636C311.686 341.141 312.309 333.748 313.652 326.556C314.826 320.071 316.553 313.787 318.59 307.782C319.789 304.224 321.108 300.741 322.546 297.385C324.321 293.146 326.215 289.108 328.157 285.273C335.373 271.116 343.285 260.013 348.032 253.831C348.44 253.301 348.824 252.796 349.159 252.367C349.375 252.09 349.591 251.837 349.783 251.56C350.046 251.206 350.31 250.878 350.55 250.601C350.862 250.248 351.125 249.92 351.341 249.642C351.533 249.39 351.725 249.162 351.868 248.986C352.012 248.809 352.132 248.683 352.204 248.582C352.276 248.506 352.324 248.456 352.324 248.456C352.947 248.532 353.547 248.658 354.17 248.809C354.554 248.885 354.985 249.011 355.369 249.137C355.657 249.238 355.968 249.339 356.232 249.44C356.328 249.465 356.424 249.516 356.52 249.541C356.879 249.692 357.263 249.844 357.623 250.02C357.719 250.046 357.814 250.096 357.91 250.147C358.318 250.348 358.749 250.576 359.157 250.853C359.517 251.055 359.9 251.282 360.236 251.56C360.644 251.837 361.075 252.165 361.483 252.493C361.698 252.645 361.89 252.821 362.13 253.023C362.466 253.276 362.801 253.578 363.113 253.907C363.425 254.184 363.76 254.537 364.072 254.865C364.216 255.017 364.36 255.168 364.504 255.345C364.839 255.698 365.199 256.102 365.487 256.48C365.798 256.834 366.11 257.237 366.398 257.641C366.733 258.07 367.093 258.575 367.405 259.054C369.251 261.729 370.857 264.858 372.296 268.341C372.751 269.501 373.231 270.713 373.662 271.924C389.054 315.276 379.896 404.656 357.79 422.295H357.719Z" fill="#EE9A46"/>
<path opacity="0.2" d="M352.252 248.431C352.252 248.431 310.463 296.578 312.093 348.611C312.093 348.611 282.22 356.181 276.537 393.149C270.855 430.117 284.857 442.558 284.857 442.558C284.857 442.558 264.718 452.223 265.173 460.525C265.605 468.827 290.923 453.913 300.633 449.472C309.504 445.409 314.946 429.259 314.946 429.259C314.946 429.259 329.164 445.334 358.006 422.295C386.849 399.256 393.418 253.957 352.276 248.406L352.252 248.431Z" fill="#953433"/>
<path d="M275.986 460.197C275.794 459.465 275.818 458.708 275.89 457.976C275.986 457.244 276.178 456.512 276.49 455.806C276.825 455.125 277.257 454.494 277.832 453.989C278.408 453.484 279.103 453.182 279.798 453.106C279.271 453.611 278.815 454.065 278.432 454.595C278.072 455.15 277.736 455.705 277.473 456.285C276.921 457.497 276.513 458.784 275.986 460.171V460.197Z" fill="#953433"/>
<path d="M602.988 479.375C602.988 479.375 594.716 484.8 589.562 479.375C584.407 473.949 579.588 453.863 566.761 448.942C553.934 444.047 545.663 425.575 545.663 425.575C545.663 425.575 520.536 438.621 487.642 425.02C454.747 411.419 515.19 311.617 515.19 311.617C515.19 311.617 547.988 304.829 567.121 347.4C568.679 350.857 570.142 354.642 571.484 358.78C572.179 360.9 572.803 362.944 573.354 364.937C574.649 369.454 575.656 373.694 576.447 377.681C577.526 383.182 578.197 388.178 578.533 392.695C580.091 413.463 575.08 423.935 575.08 423.935C575.08 423.935 608.67 466.329 602.964 479.375H602.988Z" fill="#EE9A46"/>
<path opacity="0.2" d="M602.988 479.375C602.988 479.375 594.716 484.8 589.562 479.375C584.407 473.949 579.588 453.863 566.761 448.942C553.934 444.047 545.663 425.575 545.663 425.575C545.663 425.575 520.536 438.621 487.642 425.02C454.747 411.419 515.19 311.617 515.19 311.617C515.19 311.617 547.988 304.829 567.121 347.4C568.679 350.857 570.142 354.642 571.484 358.78C572.179 360.9 572.803 362.944 573.354 364.937C574.649 369.454 575.656 373.694 576.447 377.681C577.526 383.182 578.197 388.178 578.533 392.695C580.091 413.463 575.08 423.935 575.08 423.935C575.08 423.935 608.67 466.329 602.964 479.375H602.988Z" fill="#953433"/>
<path d="M506.271 426.004C506.271 426.004 511.33 451.365 491.574 464.764C471.842 478.163 408.858 489.998 409.769 527.723C410.177 544.227 415.26 551.141 419.455 551.292C424.85 551.494 428.422 544.05 427.991 535.849C427.2 521.289 430.772 504.609 453.069 495.096C466.735 489.266 493.588 480.788 507.853 465.874C516.844 456.462 520.896 444.501 518.978 433.903C513.991 406.448 506.247 426.029 506.247 426.029L506.271 426.004Z" fill="#EE9A46"/>
<path opacity="0.2" d="M519.002 433.877C514.015 406.422 506.271 426.004 506.271 426.004C506.271 426.004 508.309 436.275 504.713 447.176C503.442 451.062 501.452 455.024 498.407 458.632C496.561 460.828 494.307 462.922 491.574 464.764C480.833 472.032 457.361 478.87 438.276 489.62C434.896 491.538 431.635 493.556 428.638 495.752C419.48 502.388 412.503 510.413 410.417 520.532C409.937 522.828 409.722 525.225 409.794 527.724C410.201 544.227 415.284 551.141 419.48 551.292C424.874 551.494 428.47 544.05 428.015 535.849C428.015 535.672 428.015 535.496 427.991 535.319C427.296 520.885 431.084 504.483 453.093 495.07C457.96 493.001 464.506 490.579 471.578 487.652C476.757 485.507 482.224 483.059 487.522 480.308C495.194 476.271 502.459 471.527 507.901 465.849C516.916 456.437 520.944 444.476 519.026 433.877H519.002Z" fill="#953433"/>
<path d="M428.015 535.849C428.015 535.672 428.015 535.496 427.991 535.319C425.833 530.096 423.124 534.083 423.124 534.083C419.743 525.099 414.133 521.743 410.417 520.507C409.937 522.803 409.722 525.2 409.794 527.698C410.201 544.201 415.284 551.116 419.48 551.267C424.874 551.469 428.471 544.025 428.015 535.824V535.849Z" fill="#953433"/>
<path d="M504.712 447.176C503.442 451.062 501.452 455.024 498.407 458.632C500.972 459.238 504.425 459.44 506.822 457.169C509.699 454.469 507.685 450.027 504.712 447.176Z" fill="#953433"/>
<path d="M487.498 480.334C485.628 477.911 482.271 474.959 477.74 476.776C472.921 478.719 471.794 484.22 471.578 487.677C476.757 485.532 482.223 483.084 487.522 480.334H487.498Z" fill="#953433"/>
<path d="M438.276 489.62C434.896 491.538 431.635 493.556 428.638 495.752C429.285 498.628 430.604 501.631 433.121 501.909C436.55 502.287 437.821 494.44 438.3 489.62H438.276Z" fill="#953433"/>
<path d="M541.707 336.069C541.107 330.871 540.388 325.673 539.429 320.55C538.47 315.352 537.343 310.179 535.976 305.107C533.699 296.351 530.774 287.822 527.225 279.671C526.89 278.813 526.506 277.98 526.122 277.147C524.612 273.766 522.958 270.385 521.231 267.054C519.026 262.739 516.628 258.55 513.967 254.487C510.682 249.415 507.014 244.646 502.962 240.356C504.521 238.009 506.007 235.359 507.302 232.256C508.405 229.581 509.388 226.603 510.179 223.298C510.466 222.162 510.706 221.001 510.922 219.866C511.234 218.251 511.497 216.636 511.665 215.046C512.456 208.485 512.265 201.975 511.042 195.742C510.874 194.833 510.682 193.925 510.466 193.042C509.483 189.029 508.069 185.169 506.223 181.459C503.945 176.917 500.972 172.652 497.352 168.792C498.119 167.908 498.862 166.975 499.534 165.991C508.261 153.121 506.846 134.574 502.411 132.681C501.883 132.454 501.356 132.303 500.78 132.177C495.194 131.117 487.738 135.508 480.857 142.397C475.486 147.746 467.79 149.386 463.738 149.891C460.885 149.058 457.912 148.276 454.819 147.57C451.103 146.686 447.219 145.929 443.239 145.248C441.633 144.97 440.002 144.718 438.348 144.491C430.964 143.406 423.339 142.725 415.763 142.523C413.821 142.472 411.903 142.422 409.985 142.447C404.974 142.447 400.035 142.699 395.264 143.204C390.901 143.658 386.705 144.314 382.653 145.198C378.625 145.45 373.59 145.071 369.059 142.775C359.756 138.006 350.694 136.214 345.899 140.024C345.803 140.1 345.731 140.176 345.635 140.226C342.734 142.75 343.501 154.585 349.519 164.174C346.474 168.161 343.885 172.728 341.871 177.699C340.001 182.292 338.634 187.213 337.867 192.31C337.627 193.874 337.435 195.439 337.339 197.029C336.86 203.085 337.219 209.267 338.586 215.349C338.874 216.585 339.185 217.847 339.569 219.083C340.84 223.348 342.638 227.537 345.011 231.524C347.529 235.738 350.718 239.7 354.578 243.384C349.902 253.881 340.36 281.967 343.525 331.653C344.388 345.305 346.186 359.941 348.752 374.173C355.609 412.832 368.963 445.737 380.184 452.475C384.571 455.099 394.065 456.74 400.131 455.15C405.957 453.661 406.149 451.592 406.796 447.05C417.513 448.917 428.998 449.901 440.53 450.078C442.664 450.103 444.821 450.103 446.979 450.078C463.235 449.825 479.226 447.807 492.701 443.87C494.259 443.441 495.793 442.962 497.28 442.457C510.466 437.965 521.687 431.682 529.647 423.557C539.381 413.589 541.347 395.95 542.402 382.551C543.577 367.36 543.433 351.689 541.707 336.17V336.069Z" fill="#EE9A46"/>
<path d="M499.558 165.965C499.462 166.167 498.479 167.883 496.776 169.473C496.776 169.473 496.776 169.473 496.776 169.498C495.817 170.381 494.331 171.214 492.581 171.719C489.512 172.652 485.724 172.652 482.919 170.482C476.038 165.107 493.012 155.19 499.294 143.759C501.356 140.024 502.267 136.113 500.828 132.151C501.404 132.252 501.931 132.429 502.459 132.656C506.894 134.549 508.309 153.096 499.582 165.965H499.558Z" fill="#953433"/>
<path d="M366.637 176.538C345.851 172.35 340.984 144.213 345.659 140.176C345.731 140.1 345.827 140.024 345.923 139.974C346.33 141.69 347.241 144.138 349.303 146.813C351.413 149.513 354.674 152.465 359.804 155.216C369.227 160.237 369.994 167.833 368.46 172.879C368.004 174.394 367.333 175.68 366.637 176.564V176.538Z" fill="#953433"/>
<path d="M493.06 162.382C493.06 162.382 494.643 167.378 492.533 171.719C489.464 172.652 485.676 172.652 482.871 170.482C475.99 165.107 492.964 155.19 499.246 143.759C499.174 147.216 498.359 152.288 494.93 156.679C494.93 156.679 499.39 155.115 500.013 156.073C500.613 157.007 495.338 159.632 495.05 159.758C495.29 159.707 497.927 159.203 498.239 160.389C498.575 161.65 493.06 162.357 493.06 162.357V162.382Z" fill="white"/>
<path d="M368.46 172.854C355.705 173.359 356.064 160.616 356.064 160.616C356.064 160.616 354.362 162.962 353.019 161.776C351.749 160.616 354.17 158.849 354.386 158.698C354.242 158.698 351.341 158.849 350.622 157.941C349.879 157.007 352.923 156.301 352.923 156.301C349.399 153.272 349.159 148.932 349.303 146.812C351.413 149.513 354.674 152.465 359.804 155.216C369.227 160.237 369.994 167.833 368.46 172.879V172.854Z" fill="white"/>
<path d="M436.646 171.593C435.447 173.46 433.337 174.823 431.179 174.52C428.278 174.141 426.48 171.088 425.353 168.262C423.411 163.341 422.285 158.117 420.654 153.071C419.527 149.563 418.137 146.081 416.123 143.027C416.003 142.851 415.883 142.649 415.763 142.472C423.34 142.674 430.964 143.381 438.348 144.44C439.595 151.279 439.715 158.345 438.684 165.208C438.348 167.429 437.869 169.7 436.646 171.567V171.593Z" fill="#953433"/>
<path d="M450.815 157.537C449.545 158.572 447.579 158.849 446.308 157.789C445.013 156.73 444.822 154.812 444.654 153.096C444.414 150.623 444.006 148.2 443.431 145.803C443.383 145.601 443.311 145.425 443.263 145.223C447.243 145.904 451.127 146.661 454.843 147.544C454.556 149.513 454.076 151.456 453.405 153.323C452.829 154.913 452.086 156.502 450.815 157.537Z" fill="#953433"/>
<path d="M409.002 154.787C408.235 156.048 406.676 156.906 405.334 156.427C404.663 156.174 404.135 155.644 403.632 155.115C400.755 152.086 396.966 147.62 395.264 143.179C400.059 142.699 404.998 142.447 409.985 142.422C410.177 145.097 410.201 147.797 410.033 150.471C409.937 151.96 409.769 153.525 409.002 154.787Z" fill="#953433"/>
<path d="M511.665 215.021C509.196 215.702 506.63 216.131 504.089 216.51C500.445 217.014 496.345 217.267 493.516 214.844C492.557 214.037 491.813 212.926 491.526 211.69C490.902 209.091 492.389 206.365 494.451 204.801C496.513 203.211 499.03 202.505 501.452 201.672C504.089 200.789 506.75 199.704 509.004 198.013C509.843 197.382 510.466 196.574 511.042 195.767C512.241 202 512.456 208.485 511.665 215.071V215.021Z" fill="#953433"/>
<path d="M510.466 193.016C508.572 193.799 506.558 194.303 504.449 194.228C502.003 194.152 498.599 193.799 497.903 190.745C497.711 189.938 497.855 189.105 498.215 188.348C499.582 185.244 502.986 184.462 505.288 182.368C505.599 182.065 505.911 181.762 506.223 181.434C508.069 185.118 509.483 189.004 510.466 193.016Z" fill="#953433"/>
<path d="M507.302 232.23C505.168 231.6 503.13 230.59 501.332 229.228C500.133 228.344 498.982 227.209 498.551 225.745C498.119 224.256 498.671 222.389 500.037 221.859C500.708 221.607 501.452 221.683 502.195 221.733C504.832 221.884 507.518 221.405 509.939 220.37C510.275 220.219 510.586 220.042 510.922 219.84C510.706 220.976 510.466 222.137 510.179 223.272C509.388 226.578 508.405 229.556 507.302 232.23Z" fill="#953433"/>
<path d="M476.877 248.885C471.29 251.787 463.091 251.837 457.577 248.607C456.402 247.926 455.323 247.068 454.412 246.008C450.432 241.416 448.754 234.123 449.521 228.067C449.521 227.915 449.545 227.789 449.569 227.638C450.432 221.531 454.508 216.459 459.998 214.289C466.423 211.74 475.486 211.892 480.401 217.62C482.343 219.891 483.734 222.843 484.501 226.048C486.587 234.602 484.381 244.999 476.877 248.91V248.885Z" fill="white"/>
<path d="M476.877 248.885C473.712 250.525 470.14 251.156 466.615 251.106C464.841 251.08 463.091 250.828 461.365 250.374C459.638 249.92 457.96 249.238 456.426 248.229C454.891 247.22 453.597 245.806 452.566 244.267C451.535 242.703 450.696 241.012 450.072 239.22C448.825 235.662 448.346 231.801 448.682 227.941V228.016C449.113 223.424 451.319 219.26 454.628 216.383C456.282 214.945 458.176 213.809 460.19 213.128C462.18 212.422 464.266 211.967 466.352 211.816C470.499 211.538 474.911 212.321 478.435 214.92C480.209 216.207 481.576 217.973 482.607 219.866C483.662 221.758 484.357 223.827 484.837 225.947L484.477 225.644L484.765 225.67L484.837 225.947C485.316 228.092 485.508 230.313 485.436 232.508C485.364 234.703 485.028 236.874 484.429 238.968C483.806 241.062 482.871 243.031 481.6 244.772C480.329 246.513 478.723 247.951 476.853 248.885H476.877ZM476.877 248.885C478.723 247.901 480.329 246.463 481.576 244.721C482.823 242.98 483.686 240.987 484.237 238.892C484.789 236.798 485.028 234.628 485.004 232.483C484.98 230.338 484.669 228.193 484.117 226.124L484.477 226.427H484.213L484.141 226.124C483.59 224.105 482.823 222.162 481.744 220.446C480.689 218.705 479.346 217.191 477.716 216.131C474.431 213.986 470.403 213.38 466.543 213.759C462.659 214.137 458.823 215.399 455.874 217.948C454.388 219.21 453.141 220.774 452.182 222.515C451.703 223.398 451.295 224.307 450.983 225.241C450.815 225.72 450.719 226.199 450.576 226.679C450.504 227.158 450.36 227.714 450.312 228.117V228.193C449.808 231.726 450.096 235.41 451.127 238.867C451.655 240.583 452.35 242.248 453.261 243.788C454.172 245.327 455.323 246.69 456.737 247.75C459.59 249.844 463.115 250.803 466.615 250.979C470.116 251.156 473.688 250.5 476.877 248.91V248.885Z" fill="#953433"/>
<path d="M464.985 245.781C469.612 246.791 474.935 245.251 477.932 241.34C482.727 235.107 481.312 224.837 474.959 220.345C471.53 217.948 466.759 217.166 462.851 218.579C452.47 222.364 452.47 238.615 461.365 244.318C462.467 245.024 463.69 245.504 464.985 245.781Z" fill="#953433"/>
<path opacity="0.21" d="M484.501 226.023C464.457 214.566 451.151 226.477 449.521 228.067C449.521 227.915 449.545 227.789 449.569 227.638C450.432 221.531 454.508 216.459 459.998 214.289C466.423 211.74 475.486 211.892 480.401 217.62C482.343 219.891 483.734 222.843 484.501 226.048V226.023Z" fill="#953433"/>
<path d="M394.545 249.768C388.959 252.67 380.759 252.721 375.245 249.491C374.07 248.809 372.991 247.951 372.08 246.892C368.1 242.299 366.422 235.006 367.189 228.95C367.189 228.799 367.213 228.672 367.237 228.521C368.1 222.414 372.176 217.342 377.666 215.172C384.092 212.623 393.154 212.775 398.069 218.503C400.011 220.774 401.402 223.726 402.169 226.931C404.255 235.486 402.049 245.882 394.545 249.793V249.768Z" fill="white"/>
<path d="M394.545 249.768C391.38 251.408 387.808 252.039 384.283 251.989C382.509 251.964 380.759 251.711 379.033 251.257C377.306 250.803 375.628 250.122 374.094 249.112C372.559 248.103 371.265 246.69 370.234 245.15C369.203 243.586 368.364 241.895 367.74 240.104C366.494 236.546 366.014 232.685 366.35 228.824V228.9C366.781 224.307 368.987 220.143 372.296 217.267C373.95 215.828 375.844 214.693 377.858 214.011C379.848 213.305 381.934 212.851 384.02 212.699C388.167 212.396 392.579 213.204 396.103 215.803C397.877 217.09 399.244 218.856 400.275 220.749C401.33 222.641 402.025 224.711 402.505 226.83L402.145 226.528H402.433L402.505 226.805C402.984 228.95 403.176 231.171 403.104 233.366C403.032 235.561 402.697 237.732 402.097 239.826C401.474 241.92 400.539 243.889 399.268 245.63C397.997 247.371 396.391 248.809 394.521 249.743L394.545 249.768ZM394.545 249.768C396.391 248.784 397.997 247.346 399.244 245.605C400.491 243.863 401.354 241.87 401.905 239.775C402.457 237.681 402.697 235.511 402.673 233.366C402.649 231.221 402.337 229.076 401.785 227.007L402.145 227.31H401.881L401.809 227.007C401.258 224.988 400.491 223.045 399.412 221.329C398.357 219.588 397.014 218.074 395.384 217.014C392.123 214.869 388.071 214.264 384.211 214.642C380.327 215.021 376.491 216.282 373.542 218.831C372.056 220.093 370.809 221.657 369.85 223.398C369.371 224.282 368.963 225.19 368.651 226.124C368.484 226.603 368.388 227.083 368.244 227.562C368.172 228.042 368.028 228.597 368.004 229V229.076C367.5 232.609 367.788 236.293 368.819 239.75C369.347 241.466 370.042 243.132 370.953 244.671C371.864 246.21 373.015 247.573 374.429 248.633C377.283 250.727 380.807 251.686 384.307 251.863C387.808 252.039 391.38 251.383 394.569 249.793L394.545 249.768Z" fill="#953433"/>
<path d="M382.677 246.664C387.304 247.674 392.627 246.135 395.624 242.223C400.419 235.99 399.004 225.72 392.651 221.228C389.222 218.831 384.451 218.049 380.543 219.462C370.162 223.247 370.162 239.498 379.057 245.201C380.16 245.907 381.382 246.387 382.677 246.664Z" fill="#953433"/>
<path opacity="0.21" d="M402.169 226.906C382.126 215.45 368.819 227.36 367.189 228.95C367.189 228.799 367.213 228.672 367.237 228.521C368.1 222.414 372.176 217.342 377.666 215.172C384.092 212.623 393.154 212.775 398.069 218.503C400.011 220.774 401.402 223.726 402.169 226.931V226.906Z" fill="#953433"/>
<path d="M425.162 225.14C425.162 225.14 420.774 220.724 418.568 221.884C416.363 223.045 420.894 228.193 425.497 229C425.497 229 432.474 224.256 430.34 221.077C428.206 217.897 425.162 225.14 425.162 225.14Z" fill="#953433"/>
<path d="M418.185 262.234C418.664 259.307 419.216 256.405 419.743 253.478L421.421 244.772L423.172 236.066C423.771 233.164 424.322 230.262 424.97 227.385L425.281 225.947L425.929 227.234C427.2 229.783 428.374 232.331 429.501 234.931C430.628 237.53 431.707 240.154 432.666 242.829C433.625 245.504 434.512 248.179 435.303 250.929C436.046 253.68 436.718 256.43 437.173 259.256C436.502 256.506 435.735 253.781 434.824 251.106C433.913 248.431 432.978 245.781 431.923 243.157C429.813 237.959 427.559 232.76 424.994 227.789L425.953 227.638C425.377 230.54 424.706 233.416 424.107 236.318L422.213 244.974L420.247 253.629C419.551 256.506 418.88 259.383 418.161 262.259L418.185 262.234Z" fill="#953433"/>
<path opacity="0.48" d="M417.178 230.515C414.493 231.675 412.071 234.173 410.872 237.656C409.122 242.728 409.362 248.759 412.814 252.67C414.948 255.093 417.705 256.203 420.414 256.708C425.569 257.717 430.748 258.272 435.639 255.824C437.413 254.941 439.115 253.705 440.434 251.863C442.448 249.036 443.383 244.822 442.903 240.785C442.424 236.747 440.506 233.013 437.893 230.969C434.68 228.471 430.292 228.143 426.792 228.672C423.675 229.152 420.127 229.202 417.178 230.489V230.515Z" fill="#953433"/>
<path opacity="0.48" d="M463.594 252.998C460.238 255.244 459.591 260.089 463.307 262.688C468.27 266.171 477.836 265.943 482.463 261.956C486.371 258.575 484.213 252.065 480.114 250.752C476.637 249.642 472.921 249.844 469.468 250.702C467.862 251.106 465.488 251.737 463.618 252.998H463.594Z" fill="#CA4A4A"/>
<path opacity="0.48" d="M371.169 255.547C367.548 258.02 366.901 263.243 370.929 265.994C376.323 269.678 386.657 269.325 391.596 264.934C395.768 261.25 393.394 254.26 388.959 252.897C385.194 251.762 381.191 251.989 377.474 252.973C375.748 253.427 373.207 254.134 371.169 255.522V255.547Z" fill="#CA4A4A"/>
<path d="M355.177 214.087C353.307 215.324 351.005 215.601 348.776 215.727C345.371 215.904 341.943 215.803 338.586 215.273C337.219 209.217 336.836 203.009 337.339 196.953C337.459 197.054 337.555 197.13 337.675 197.205C342.35 200.511 347.936 202.025 353.091 204.296C354.937 205.104 356.903 206.189 357.575 208.157C358.318 210.352 357.047 212.851 355.177 214.087Z" fill="#953433"/>
<path d="M352.396 225.998C350.862 228.698 348.128 230.515 345.227 231.372C345.155 231.398 345.083 231.423 345.012 231.423C342.638 227.436 340.84 223.272 339.569 218.982C341.679 219.361 343.813 219.588 346.066 219.411C347.289 219.311 348.512 219.109 349.735 219.285C350.957 219.437 352.18 220.042 352.828 221.153C353.667 222.616 353.211 224.534 352.396 225.998Z" fill="#953433"/>
<path d="M345.995 196.978C344.868 197.054 343.789 196.6 342.782 196.07C340.96 195.086 339.353 193.723 337.867 192.234C338.634 187.162 340.001 182.241 341.871 177.624C342.039 178.078 342.158 178.532 342.302 178.986C343.549 183.301 345.299 187.44 347.529 191.3C348.2 192.461 348.944 193.799 348.56 195.086C348.224 196.196 347.097 196.903 345.971 196.978H345.995Z" fill="#953433"/>
<path opacity="0.48" d="M556.332 424.238C557.698 424.036 559.089 423.834 560.431 423.607C561.774 423.38 563.165 423.102 564.387 422.673L565.346 422.32L564.939 423.329C564.651 424.086 564.435 424.995 564.507 425.701C564.555 426.055 564.675 426.282 564.915 426.408C565.131 426.559 565.538 426.559 565.85 426.534C566.497 426.433 567.121 425.903 567.6 425.222C568.08 424.566 568.487 423.758 568.751 422.976L569.158 421.79L569.614 422.926C569.854 423.506 570.141 424.112 570.525 424.616C570.909 425.121 571.388 425.55 571.94 425.676C572.491 425.802 573.114 425.651 573.642 425.272C573.906 425.096 574.145 424.869 574.409 424.642L575.104 423.885L574.553 424.768C574.337 425.02 574.097 425.298 573.858 425.55C573.354 426.029 572.635 426.408 571.868 426.282C571.1 426.181 570.477 425.676 569.998 425.146C569.518 424.591 569.111 423.986 568.799 423.304L569.662 423.254C569.374 424.187 568.991 425.045 568.463 425.853C567.912 426.635 567.145 427.417 566.066 427.619C565.538 427.67 565.011 427.67 564.459 427.367C563.908 427.064 563.596 426.383 563.548 425.828C563.452 424.717 563.788 423.809 564.172 422.9L564.747 423.582C564.052 423.809 563.332 423.91 562.637 424.011C561.942 424.112 561.247 424.162 560.551 424.213C559.161 424.288 557.77 424.314 556.38 424.213L556.332 424.238Z" fill="#953433"/>
<path d="M597.33 481.772C597.474 480.687 597.546 479.627 597.522 478.567C597.498 477.507 597.402 476.473 597.186 475.463C596.97 474.454 596.706 473.445 596.299 472.486C595.939 471.502 595.436 470.593 594.956 469.584C595.771 470.29 596.491 471.123 597.042 472.082C597.617 473.041 597.977 474.126 598.217 475.211C598.433 476.321 598.481 477.482 598.337 478.592C598.193 479.703 597.881 480.813 597.306 481.747L597.33 481.772Z" fill="#953433"/>
<path opacity="0.48" d="M348.32 287.493C348.224 288.604 348.2 289.689 348.224 290.799C348.272 291.884 348.392 293.02 348.8 293.903C349.015 294.332 349.351 294.66 349.711 294.635C350.046 294.635 350.406 294.281 350.694 293.878C351.245 293.045 351.629 292.01 351.94 291.026L352.54 289.058L352.828 291.127C352.995 292.414 353.427 293.777 354.242 294.61C354.434 294.811 354.674 294.963 354.913 295.089C355.033 295.114 355.201 295.19 355.273 295.19C355.345 295.19 355.393 295.19 355.465 295.139C355.801 294.963 356.184 294.357 356.424 293.777C356.951 292.566 357.335 291.228 357.647 289.891C357.958 288.553 358.222 287.165 358.438 285.803L359.013 282.144L359.373 285.828C359.493 286.989 359.685 288.175 359.996 289.285C360.14 289.84 360.356 290.37 360.62 290.85C360.883 291.304 361.267 291.733 361.674 291.758C362.058 291.809 362.466 291.38 362.729 290.9C363.017 290.421 363.281 289.891 363.473 289.336C363.88 288.225 364.192 287.064 364.48 285.904C364.36 287.115 364.144 288.301 363.808 289.462C363.64 290.042 363.449 290.623 363.161 291.178C363.017 291.455 362.825 291.733 362.61 291.96C362.37 292.187 362.034 292.414 361.651 292.389C360.859 292.338 360.38 291.758 360.044 291.253C359.685 290.723 359.445 290.143 359.253 289.537C358.845 288.351 358.606 287.165 358.462 285.929H359.397C359.205 287.367 358.965 288.755 358.654 290.143C358.342 291.531 357.982 292.919 357.383 294.256C357.047 294.912 356.76 295.644 355.896 296.124C355.681 296.225 355.393 296.3 355.129 296.25C354.865 296.199 354.722 296.124 354.53 296.048C354.17 295.871 353.835 295.619 353.547 295.341C352.468 294.13 352.108 292.641 351.94 291.178L352.828 291.279C352.444 292.364 352.012 293.398 351.317 294.332C350.957 294.761 350.502 295.316 349.759 295.316C349.039 295.316 348.536 294.685 348.32 294.155C347.865 293.02 347.913 291.884 347.937 290.774C347.984 289.664 348.128 288.553 348.344 287.468L348.32 287.493Z" fill="#953433"/>
<path d="M573.378 364.937C571.844 366.022 570.285 367.057 568.727 368.092C564.148 371.12 559.329 374.173 553.91 374.602C552.352 374.728 550.697 374.602 549.307 373.845C547.916 373.088 546.789 371.574 546.813 369.934C546.813 368.697 547.437 367.562 548.084 366.552C550.338 363.045 553.383 360.219 556.404 357.418C559.664 354.389 562.925 351.361 566.186 348.358C566.521 348.056 566.833 347.728 567.097 347.374C568.655 350.831 570.118 354.617 571.46 358.755C572.156 360.875 572.779 362.919 573.33 364.912L573.378 364.937Z" fill="#953433"/>
<path d="M578.533 392.67C578.533 392.67 578.341 392.695 578.245 392.72C573.018 393.755 567.648 393.831 562.397 393.074C560.479 392.796 558.25 392.115 557.674 390.172C557.267 388.784 557.962 387.219 559.017 386.286C560.072 385.327 561.414 384.847 562.733 384.393C567.48 382.728 572.467 380.961 576.447 377.681C577.526 383.182 578.197 388.178 578.533 392.695V392.67Z" fill="#953433"/>
<path d="M337.939 303.341C337.315 304.098 336.284 304.325 335.349 304.299C332.64 304.249 330.195 302.71 327.917 301.12C326.287 299.984 324.369 298.798 322.618 297.461C322.57 297.436 322.522 297.385 322.475 297.36C324.249 293.121 326.143 289.058 328.109 285.248C328.133 285.273 328.181 285.323 328.205 285.349C331.753 289.361 334.846 293.777 337.459 298.521C338.274 300.01 339.018 302.003 337.963 303.341H337.939Z" fill="#953433"/>
<path d="M336.093 333.697C335.014 334.909 333.12 334.606 331.609 334.152C325.447 332.36 319.454 329.837 313.843 326.657C313.771 326.657 313.699 326.607 313.628 326.531C314.802 320.046 316.505 313.762 318.567 307.757C318.614 307.807 318.662 307.858 318.71 307.933C324.057 314.469 329.403 321.005 334.726 327.54C336.165 329.307 337.627 332.007 336.117 333.697H336.093Z" fill="#953433"/>
<path opacity="0.48" d="M312.093 348.611C314.443 348.157 316.864 348.232 319.214 348.661C321.587 349.065 323.889 349.873 326.047 351.033C328.181 352.219 330.195 353.683 331.825 355.525C332.712 356.383 333.407 357.418 334.151 358.402C334.534 358.881 334.798 359.462 335.11 359.991C335.421 360.521 335.709 361.077 335.997 361.606C334.51 359.663 333.048 357.746 331.25 356.156C329.523 354.516 327.581 353.153 325.543 352.043C323.505 350.907 321.3 350.074 319.046 349.519C318.471 349.368 317.919 349.267 317.344 349.141C316.768 349.04 316.193 348.964 315.618 348.888C314.467 348.712 313.292 348.661 312.093 348.636V348.611Z" fill="#953433"/>
<path d="M360.692 265.111C363.904 263.117 367.237 261.426 370.617 259.837C373.998 258.272 377.426 256.758 380.975 255.572C377.762 257.566 374.429 259.256 371.049 260.846C367.668 262.411 364.24 263.925 360.692 265.111Z" fill="#953433"/>
<path d="M357.167 256.127C360.62 255.017 364.12 254.26 367.62 253.579C371.145 252.923 374.669 252.367 378.266 252.14C374.813 253.251 371.313 254.008 367.812 254.689C364.288 255.345 360.763 255.9 357.167 256.153V256.127Z" fill="#953433"/>
<path d="M357.742 244.091C361.291 244.696 364.767 245.63 368.196 246.639C371.624 247.674 375.053 248.809 378.361 250.273C374.813 249.667 371.337 248.734 367.908 247.724C364.48 246.69 361.051 245.554 357.742 244.091Z" fill="#953433"/>
<path d="M499.749 250.147C496.177 250.677 492.605 250.879 489.032 250.979C485.46 251.055 481.888 251.055 478.291 250.702C481.864 250.172 485.436 249.97 489.008 249.869C492.581 249.793 496.153 249.793 499.749 250.147Z" fill="#953433"/>
<path d="M498.599 260.468C495.074 259.66 491.67 258.55 488.289 257.339C484.909 256.102 481.552 254.79 478.315 253.15C481.84 253.957 485.244 255.067 488.625 256.279C492.005 257.515 495.362 258.827 498.599 260.468Z" fill="#953433"/>
<path d="M496.896 238.463C493.923 240.583 490.783 242.425 487.618 244.166C484.429 245.882 481.216 247.548 477.86 248.885C480.833 246.765 483.974 244.923 487.138 243.182C490.327 241.466 493.54 239.826 496.896 238.463Z" fill="#953433"/>
<g opacity="0.48">
<path d="M398.669 262.486C408.259 262.663 417.777 262.89 427.295 262.814C432.043 262.814 436.814 262.713 441.561 262.562C446.332 262.436 451.079 262.184 455.898 262.007C451.223 263.142 446.476 264.076 441.705 264.53C436.934 265.085 432.115 265.313 427.319 265.338C417.729 265.338 408.091 264.631 398.669 262.486Z" fill="#953433"/>
</g>
<path d="M451.367 448.538C450.12 446.394 449.185 444.097 448.394 441.776C447.603 439.429 447.003 437.032 446.548 434.584C445.733 429.714 445.445 424.541 446.859 419.696C447.123 422.194 447.411 424.591 447.747 426.988C448.13 429.386 448.49 431.758 448.921 434.13C449.76 438.899 450.72 443.618 451.391 448.564L451.367 448.538Z" fill="#953433"/>
<path d="M434.92 448.16C433.985 446.368 433.385 444.425 432.954 442.457C432.522 440.489 432.306 438.47 432.234 436.451C432.186 432.439 432.81 428.2 434.92 424.743C434.824 426.787 434.68 428.704 434.632 430.647C434.632 432.565 434.56 434.483 434.632 436.401C434.68 440.262 434.944 444.097 434.92 448.16Z" fill="#953433"/>
<path d="M378.074 450.456C377.906 447.302 377.762 444.375 377.738 441.372C377.738 439.883 377.738 438.369 377.834 436.855C377.906 435.341 378.026 433.802 378.361 432.237C379.632 435.164 380.064 438.268 380.136 441.372C380.136 442.936 380.04 444.501 379.728 446.04C379.416 447.58 378.985 449.144 378.098 450.482L378.074 450.456Z" fill="#953433"/>
<path d="M394.833 455.024C395 451.693 395.648 448.665 396.295 445.611C396.99 442.558 397.686 439.656 398.477 436.451C399.076 438.016 399.22 439.706 399.22 441.347C399.22 442.987 398.956 444.602 398.645 446.192C398.285 447.781 397.806 449.321 397.182 450.81C396.559 452.298 395.84 453.737 394.857 455.049L394.833 455.024Z" fill="#953433"/>
<path d="M521.231 267.054C518.666 269.224 515.765 270.889 513.439 271.924C510.131 273.388 503.418 276.138 500.229 273.287C497.304 270.738 501.356 266.978 503.154 265.313C506.415 262.31 509.915 259.534 512.768 256.077C513.2 255.547 513.631 254.992 513.991 254.487C516.628 258.525 519.05 262.739 521.255 267.054H521.231Z" fill="#953433"/>
<path d="M535.976 305.107C526.77 308.11 516.652 307.807 507.374 304.93C505.192 304.249 503.01 303.416 501.356 301.827C499.701 300.237 498.623 297.713 499.198 295.467C499.821 293.121 501.931 291.607 503.969 290.471C509.172 287.645 514.902 286.055 520.272 283.658C522.694 282.573 525.068 281.311 527.225 279.696C530.774 287.847 533.699 296.376 535.976 305.132V305.107Z" fill="#953433"/>
<path d="M541.707 336.069C538.686 336.297 535.641 336.12 532.62 335.741C528.352 335.211 523.845 334.076 520.968 330.72C519.769 329.332 518.906 327.338 519.505 325.572C520.392 322.948 523.605 322.367 526.242 322.165C530.654 321.837 535.089 321.383 539.429 320.576C540.388 325.698 541.131 330.896 541.707 336.095V336.069Z" fill="#953433"/>
<path d="M361.674 418.484C361.219 419.09 360.715 419.645 360.236 420.15C355.729 407.28 351.821 391.307 348.776 374.072C350.526 370.817 352.708 366.88 355.297 362.591C356.807 382.223 358.941 403.445 361.674 418.384C361.674 418.409 361.674 418.434 361.698 418.459L361.674 418.484Z" fill="#F4C390"/>
<path d="M406.221 446.646C406.221 446.646 406.293 446.671 406.34 446.671V446.772C406.34 446.772 406.269 446.671 406.221 446.646Z" fill="#F4C390"/>
<path d="M440.53 450.002C429.046 449.851 417.01 448.538 406.341 446.671C409.937 432.086 407.396 397.767 407.012 383.131C406.605 368.218 408.762 328.701 409.506 315.529C412.55 314.898 415.691 314.57 418.904 314.57C426.432 314.57 433.841 316.74 440.937 320.601C437.293 344.422 427.847 406.372 426.408 421.79C424.898 438.268 431.443 447.857 440.53 449.977V450.002Z" fill="#F4C390"/>
<path d="M492.701 443.794C479.226 447.731 463.211 449.75 446.979 450.002C457.361 445.51 475.582 406.019 484.189 375.359C492.749 396.96 496.513 421.437 492.725 443.794H492.701Z" fill="#F4C390"/>
<g opacity="0.48">
<path d="M409.745 311.214L408.331 350.655C407.899 363.802 407.396 376.924 408.139 390.02C408.858 403.142 409.506 416.314 409.194 429.537C409.098 432.843 408.93 436.148 408.595 439.479C408.211 442.785 407.827 446.116 406.676 449.422C406.053 451.011 405.358 452.828 403.536 454.014C401.905 454.872 400.395 455.326 398.789 455.705C395.576 456.412 392.291 456.512 389.054 456.058C382.605 455.099 376.467 451.743 372.056 446.747C367.596 441.75 364.719 435.543 362.849 429.133C359.469 416.264 358.27 403.117 356.807 390.045C355.752 376.924 354.482 363.802 353.763 350.68C353.091 337.533 352.564 324.386 352.132 311.239C353.091 324.361 353.858 337.483 354.937 350.604C355.896 363.726 357.359 376.772 358.654 389.844L361.171 409.35C362.178 415.81 363.257 422.295 364.983 428.502C366.781 434.609 369.586 440.514 373.734 445.107C377.858 449.724 383.468 452.727 389.39 453.585C392.363 454.014 395.384 453.939 398.309 453.308C399.724 453.005 401.258 452.525 402.409 451.92C403.296 451.39 404.039 450.002 404.543 448.589C405.574 445.712 406.005 442.457 406.389 439.252C406.724 436.022 406.916 432.767 407.012 429.512C407.42 416.44 406.724 403.293 406.293 390.146C405.765 376.949 406.485 363.751 407.156 350.63C408.019 337.508 408.69 324.361 409.721 311.239L409.745 311.214Z" fill="#953433"/>
</g>
<g opacity="0.48">
<path d="M442.4 311.214C439.619 332.082 436.79 352.951 433.865 373.795C432.426 384.216 430.964 394.638 429.693 405.06C428.71 415.431 425.713 426.105 428.614 435.871C429.909 440.691 432.762 445.056 436.91 447.327C438.971 448.463 441.273 449.144 443.623 449.27C444.198 449.296 444.822 449.296 445.349 449.27C445.828 449.22 446.236 449.119 446.764 448.816C447.243 448.513 447.747 448.286 448.226 447.933L449.593 446.797C453.117 443.365 455.946 439 458.607 434.609C461.221 430.168 463.666 425.601 465.968 420.957C470.523 411.621 474.575 402.007 478.171 392.19L483.23 377.327C484.933 372.381 486.083 367.259 487.402 362.162C483.374 382.828 476.349 402.789 467.622 421.815C465.416 426.559 463.043 431.253 460.382 435.77C457.696 440.262 454.891 444.728 451.055 448.513L449.497 449.825C448.969 450.254 448.298 450.557 447.723 450.936C447.171 451.289 446.332 451.567 445.565 451.617C444.845 451.668 444.222 451.668 443.551 451.617C440.89 451.491 438.276 450.759 435.879 449.472C431.06 446.873 427.799 441.851 426.36 436.603C424.898 431.303 424.826 425.727 425.473 420.453L427.583 404.782C428.974 394.31 430.388 383.888 432.114 373.517L437.101 342.353C438.852 331.981 440.554 321.585 442.448 311.239L442.4 311.214Z" fill="#953433"/>
</g>
<path d="M446.716 392.947C444.006 393.78 441.057 393.553 438.228 392.973C435.615 392.468 433.002 391.862 430.388 391.282C430.964 387.396 431.539 383.308 432.139 379.195C434.224 379.901 436.31 380.557 438.396 381.314C440.482 382.071 442.544 382.879 444.558 383.888C447.962 385.554 453.141 391.004 446.74 392.973L446.716 392.947Z" fill="#953433"/>
<path d="M485.268 371.347C484.933 372.659 484.549 373.996 484.165 375.359C482.703 380.532 480.953 386.008 479.011 391.509C478.028 390.777 477.021 390.071 475.942 389.465C472.273 387.421 467.862 386.689 463.954 384.973C460.046 383.308 456.426 380.027 456.785 376.141C457.049 372.937 460.142 370.338 463.594 369.353C467.023 368.369 470.739 368.672 474.311 369.177C477.98 369.681 481.672 370.413 485.268 371.322V371.347Z" fill="#953433"/>
<path d="M462.515 344.599C462.563 346.466 461.221 348.081 459.614 348.863C458.032 349.645 456.21 349.721 454.46 349.797C448.442 350.074 442.424 350.327 436.406 350.478C437.173 345.33 437.893 340.384 438.588 335.868C441.465 335.893 444.366 336.221 447.243 336.574C451.415 337.054 455.658 337.811 459.255 340.031C460.861 341.066 462.468 342.63 462.515 344.624V344.599Z" fill="#953433"/>
<path d="M387.496 338.34C387.568 339.602 386.801 340.763 385.89 341.621C383.516 343.791 380.16 344.271 377.019 344.75C369.994 345.81 362.921 347.273 356.424 350.352C355.753 350.655 355.081 351.008 354.41 351.336C354.05 345.86 353.715 340.662 353.451 335.943C359.109 334.682 364.815 333.849 370.569 333.42C374.957 333.092 379.464 333.041 383.66 334.48C385.458 335.136 387.376 336.397 387.472 338.366L387.496 338.34Z" fill="#953433"/>
<path d="M407.516 355.575C407.276 361.682 407.084 367.612 406.988 372.735C405.094 372.911 403.224 372.911 401.33 372.911C397.973 372.937 394.641 372.937 391.308 372.962C388.815 372.962 386.225 372.962 383.948 371.877C381.67 370.792 379.776 368.319 380.136 365.72C380.543 362.692 383.54 360.95 386.249 359.84C393.01 357.115 400.275 355.651 407.54 355.575H407.516Z" fill="#953433"/>
<path d="M388.599 396.228C383.78 400.972 377.642 401.073 371.6 402.764C367.572 403.874 363.736 405.817 359.852 407.457C359.061 401.855 358.366 395.799 357.695 389.516C367.501 386.664 379.56 384.393 387.928 389.743C390.541 391.433 390.901 393.982 388.599 396.253V396.228Z" fill="#953433"/>
<g opacity="0.48">
<path d="M489.44 359.764C490.039 360.875 490.663 361.985 491.382 362.969C491.742 363.449 492.125 363.928 492.557 364.281C492.773 364.458 492.988 364.584 493.18 364.685C493.444 364.786 493.492 364.761 493.372 364.736C493.372 364.786 493.588 364.054 493.564 363.524C493.588 362.944 493.564 362.338 493.54 361.733C493.468 360.521 493.3 359.26 493.132 358.048L492.605 354.314L494.978 357.216C495.817 358.25 496.848 359.26 497.855 360.092C498.814 360.9 500.109 361.581 500.684 361.379C500.732 361.379 500.684 361.329 500.732 361.379C500.66 361.354 500.66 361.48 500.66 361.455C500.66 361.48 500.708 361.304 500.66 361.051C500.613 360.547 500.373 359.916 500.109 359.285C499.558 358.048 498.862 356.787 498.143 355.601L497.256 354.162L498.814 353.834C499.797 353.632 500.948 353.103 501.931 352.446C502.938 351.79 503.825 350.958 504.664 350.024C505.432 349.04 506.151 347.98 506.75 346.819C507.35 345.658 507.757 344.397 508.213 343.135C508.117 344.472 507.901 345.835 507.493 347.147C507.134 348.485 506.534 349.746 505.815 350.932C505.048 352.118 504.113 353.178 503.01 354.036C501.883 354.919 500.732 355.626 499.222 356.03L499.893 354.263C500.78 355.525 501.572 356.761 502.243 358.225C502.579 358.957 502.866 359.714 503.034 360.673C503.106 361.152 503.154 361.733 502.866 362.439C502.77 362.767 502.435 363.121 502.171 363.398C501.883 363.575 501.524 363.751 501.236 363.827C500.109 364.079 499.174 363.726 498.431 363.348C497.688 362.969 497.016 362.49 496.441 361.985C495.266 360.95 494.283 359.815 493.372 358.578L495.218 357.746C495.362 359.058 495.386 360.37 495.362 361.682C495.362 362.338 495.314 363.02 495.194 363.701C495.146 364.029 495.05 364.407 494.954 364.761C494.81 365.114 494.691 365.568 494.139 365.947C493.827 366.149 493.54 366.149 493.228 366.098C492.916 366.048 492.82 365.922 492.629 365.821C492.293 365.619 492.053 365.341 491.814 365.089C491.382 364.559 491.046 363.978 490.759 363.398C490.183 362.237 489.752 361.001 489.464 359.764H489.44Z" fill="#953433"/>
</g>
<path d="M306.027 369.429C305.62 370.867 304.253 371.852 302.839 372.18C301.448 372.508 299.962 372.306 298.523 372.104C293.944 371.448 289.364 370.842 284.761 370.186C284.689 370.161 284.617 370.161 284.545 370.161C286.943 366.275 289.652 363.045 292.385 360.395C292.457 360.395 292.505 360.42 292.577 360.42C297.108 361.127 301.832 361.834 304.757 365.064C305.788 366.224 306.483 367.89 306.027 369.429Z" fill="#953433"/>
<path d="M294.159 391.055C294.136 392.544 293.248 393.932 292.074 394.789C290.923 395.673 289.508 396.076 288.118 396.43C284.09 397.414 279.966 397.792 275.866 398.146C275.794 398.171 275.746 398.171 275.674 398.171H275.626C275.794 396.556 276.01 394.84 276.298 393.124C276.753 390.121 277.377 387.345 278.144 384.746H278.384C281.572 384.872 284.761 385.301 287.35 385.705C288.861 385.932 290.443 386.235 291.762 387.093C293.105 387.951 294.159 389.415 294.159 391.03V391.055Z" fill="#953433"/>
<path d="M284.545 418.611C283.61 419.696 282.316 420.327 281.021 420.856C279.439 421.462 277.808 421.916 276.154 422.194C276.082 422.219 276.01 422.219 275.914 422.219C275.411 419.09 275.051 415.583 274.979 411.621C275.051 411.596 275.147 411.596 275.219 411.596C277.089 411.52 278.935 411.621 280.589 411.797C282.531 411.999 284.785 412.655 285.48 414.548C285.984 415.911 285.48 417.526 284.545 418.585V418.611Z" fill="#953433"/>
</g>
<defs>
<clipPath id="clip0_43_132">
<rect width="46.0804" height="46.0804" fill="white" transform="translate(664.561 109.396)"/>
</clipPath>
<clipPath id="clip1_43_132">
<rect width="509" height="544" fill="white" transform="translate(137 132)"/>
</clipPath>
</defs>
</svg>
