<svg width="24" height="25" viewBox="0 0 24 25" fill="none" xmlns="http://www.w3.org/2000/svg">
<path opacity="0.5" d="M9.052 4.63477C9 5.2124 9 5.93832 9 6.8566V17.4129C9 18.3312 9 19.0572 9.05201 19.6348H8C5.64298 19.6348 4.46447 19.6348 3.73223 18.9026C3 18.1703 3 16.9918 3 14.6348V9.63477C3 7.27775 3 6.09924 3.73223 5.367C4.46447 4.63477 5.64298 4.63477 8 4.63477H9.052Z" fill="#EA5D80"/>
<path fill-rule="evenodd" clip-rule="evenodd" d="M9.70725 2.54346C9 3.17045 9 4.31735 9 6.61116V17.6584C9 19.9522 9 21.0991 9.70725 21.7261C10.4145 22.3531 11.4955 22.1645 13.6576 21.7874L15.9864 21.3813C18.3809 20.9636 19.5781 20.7548 20.2891 19.8765C21 18.9983 21 17.7281 21 15.1877V9.08187C21 6.54147 21 5.27128 20.2891 4.39302C19.5781 3.51475 18.3809 3.30594 15.9864 2.8883L13.6576 2.48212C11.4955 2.10502 10.4145 1.91647 9.70725 2.54346ZM12.75 11.0883C12.75 10.6548 12.4142 10.3034 12 10.3034C11.5858 10.3034 11.25 10.6548 11.25 11.0883V13.1813C11.25 13.6148 11.5858 13.9662 12 13.9662C12.4142 13.9662 12.75 13.6148 12.75 13.1813V11.0883Z" fill="#EA5D80"/>
</svg>
