<?xml version="1.0" encoding="UTF-8"?>
<svg xmlns="http://www.w3.org/2000/svg" xmlns:xlink="http://www.w3.org/1999/xlink" width="32px" height="32px" viewBox="0 0 32 32" version="1.1">
<g id="surface1">
<path style=" stroke:none;fill-rule:nonzero;fill:rgb(91.764706%,36.470588%,50.196078%);fill-opacity:1;" d="M 16 2.664062 C 23.363281 2.664062 29.335938 8.636719 29.335938 16 C 29.335938 23.367188 23.363281 29.335938 16 29.335938 C 8.636719 29.335938 2.664062 23.367188 2.664062 16 C 2.664062 8.636719 8.636719 2.664062 16 2.664062 Z M 16 4.664062 C 9.738281 4.664062 4.664062 9.742188 4.664062 16 C 4.664062 22.261719 9.738281 27.335938 16 27.335938 C 22.261719 27.335938 27.335938 22.261719 27.335938 16 C 27.335938 9.742188 22.261719 4.664062 16 4.664062 Z M 15.996094 8 C 20.414062 8 23.992188 11.578125 23.992188 15.996094 C 23.992188 20.414062 20.414062 23.992188 15.996094 23.992188 C 11.578125 23.992188 7.996094 20.414062 7.996094 15.996094 C 7.996094 11.578125 11.578125 8 15.996094 8 Z M 15.996094 8 "/>
</g>
</svg>
