<?xml version="1.0" encoding="UTF-8"?>
<svg xmlns="http://www.w3.org/2000/svg" xmlns:xlink="http://www.w3.org/1999/xlink" width="24px" height="24px" viewBox="0 0 24 24" version="1.1">
<g id="surface1">
<path style=" stroke:none;fill-rule:nonzero;fill:rgb(0%,100%,27.843137%);fill-opacity:1;" d="M 12 1.996094 C 17.523438 1.996094 22.003906 6.476562 22.003906 12 C 22.003906 17.527344 17.523438 22.003906 12 22.003906 C 6.476562 22.003906 1.996094 17.527344 1.996094 12 C 1.996094 6.476562 6.476562 1.996094 12 1.996094 Z M 12 3.496094 C 7.304688 3.496094 3.496094 7.308594 3.496094 12 C 3.496094 16.695312 7.304688 20.503906 12 20.503906 C 16.695312 20.503906 20.503906 16.695312 20.503906 12 C 20.503906 7.308594 16.695312 3.496094 12 3.496094 Z M 11.996094 6 C 15.308594 6 17.996094 8.683594 17.996094 11.996094 C 17.996094 15.308594 15.308594 17.996094 11.996094 17.996094 C 8.683594 17.996094 5.996094 15.308594 5.996094 11.996094 C 5.996094 8.683594 8.683594 6 11.996094 6 Z M 11.996094 6 "/>
</g>
</svg>
