<svg width="24" height="25" viewBox="0 0 24 25" fill="none" xmlns="http://www.w3.org/2000/svg">
<path d="M12.0003 6.99023L3.4408 14.0466C3.4408 14.0566 3.4383 14.0713 3.43329 14.0912C3.42839 14.111 3.42578 14.1254 3.42578 14.1356V21.281C3.42578 21.539 3.5201 21.7626 3.70869 21.9509C3.89723 22.1392 4.1205 22.234 4.37854 22.234H10.0947V16.5176H13.906V22.2342H19.622C19.88 22.2342 20.1036 22.1397 20.2919 21.9509C20.4805 21.7628 20.5751 21.539 20.5751 21.281V14.1356C20.5751 14.096 20.5697 14.0661 20.5601 14.0466L12.0003 6.99023Z" fill="#F4ADBF"/>
<path d="M23.8345 12.4389L20.5745 9.72957V3.65591C20.5745 3.51706 20.5299 3.40287 20.4403 3.3135C20.3515 3.22424 20.2373 3.17961 20.0981 3.17961H17.24C17.101 3.17961 16.9869 3.22424 16.8975 3.3135C16.8083 3.40287 16.7637 3.51711 16.7637 3.65591V6.55871L13.1315 3.5218C12.8143 3.26376 12.4371 3.13477 12.0004 3.13477C11.5637 3.13477 11.1865 3.26376 10.869 3.5218L0.165418 12.4389C0.066195 12.5181 0.0118127 12.6248 0.00169755 12.7588C-0.0083655 12.8927 0.0263077 13.0097 0.105821 13.1088L1.02875 14.2105C1.10827 14.2997 1.21234 14.3543 1.34139 14.3743C1.46053 14.3843 1.57967 14.3495 1.69881 14.2701L12 5.68041L22.3014 14.2701C22.3809 14.3393 22.485 14.3739 22.614 14.3739H22.6587C22.7876 14.3543 22.8914 14.2993 22.9714 14.2103L23.8944 13.1088C23.9738 13.0094 24.0086 12.8927 23.9982 12.7586C23.9881 12.625 23.9335 12.5183 23.8345 12.4389Z" fill="#EA5D80"/>
</svg>
