<svg width="25" height="24" viewBox="0 0 25 24" fill="none" xmlns="http://www.w3.org/2000/svg">
<path d="M24.5 12.0746C24.5 5.40933 19.1241 0 12.5 0C5.8759 0 0.5 5.40933 0.5 12.0746C0.5 18.1057 4.88723 23.1047 10.6339 24V15.5565H7.569V12.0746H10.6339V9.41347C10.6339 6.39171 12.4135 4.71295 15.1571 4.71295C16.467 4.71295 17.8265 4.96166 17.8265 4.96166V7.90881H16.3187C14.8234 7.90881 14.3538 8.85389 14.3538 9.79896V12.0622H17.6905L17.1591 15.544H14.3538V23.9876C20.1128 23.1047 24.5 18.1057 24.5 12.0746Z" fill="#1877F2"/>
<path d="M17.1712 15.4646L17.7026 12.006H14.3658V9.75794C14.3658 8.80683 14.8478 7.88043 16.3308 7.88043H17.8385V4.94064C17.8385 4.94064 16.4791 4.6936 15.1691 4.6936C12.4255 4.6936 10.6459 6.36113 10.6459 9.36267V12.006H7.58105V15.4646H10.6459V23.8516C11.2515 23.9504 11.8818 23.9998 12.512 23.9998C13.1423 23.9998 13.7726 23.9504 14.3782 23.8516V15.4646H17.1712Z" fill="white"/>
</svg>
