<svg width="34" height="34" viewBox="0 0 34 34" fill="none" xmlns="http://www.w3.org/2000/svg">
<path d="M23.9196 24.045C23.9196 24.045 22.2929 23.9303 20.5863 24.246C20.5437 24.1643 20.4967 24.0759 20.456 23.9981C20.3201 24.1131 20.1894 24.2349 20.0612 24.3586C19.8633 24.4065 19.6656 24.4583 19.4719 24.5201C19.5224 24.6071 19.5798 24.7057 19.633 24.7975C18.4601 26.0767 17.6944 27.5173 17.6944 27.5173C17.6944 27.5173 17.0125 29.7974 19.094 30.5688C19.1618 30.5938 19.2786 30.8005 19.3369 30.8541C19.5742 31.0735 19.8708 31.2217 20.183 31.2997C21.1279 31.5357 22.0723 31.1474 22.9163 30.753C24.2262 30.1409 26.7178 28.6195 25.7648 26.85C26.2146 24.6761 23.9196 24.045 23.9196 24.045Z" fill="#EA5D80"/>
<path d="M18.4216 29.5227C17.1344 29.5144 16.1044 28.5127 15.7289 27.2312C15.0448 24.896 14.9224 24.0318 11.345 23.7963C7.70525 23.5568 1.84682 19.0503 4.21527 11.2256C6.95917 2.16059 18.427 -0.183004 24.5052 6.75163C30.5839 13.6867 23.3005 19.9659 24.2584 21.5372C25.2158 23.1079 26.4857 25.0343 23.8997 26.987C22.8918 27.7481 21.7751 28.3622 20.611 28.8497C20.1205 29.055 19.6372 29.2943 19.1216 29.4315C18.8819 29.4951 18.6475 29.5243 18.4216 29.5227Z" fill="#FFC77D"/>
<path d="M11.4472 18.8467C11.7091 19.2981 12.6914 20.315 14.0154 21.0091C14.3255 21.1719 14.6848 21.3311 15.0579 21.4372C14.2529 20.5675 13.3423 19.7847 12.3482 19.2466C11.8814 18.9941 11.6035 18.8901 11.4472 18.8467ZM16.3534 16.0911C16.1458 16.273 16.2084 17.1672 16.8689 18.3414C17.1451 18.831 17.4898 19.2967 17.8686 19.661C17.896 19.4534 17.8998 19.2521 17.8914 19.0662C17.8278 17.6804 17.0253 16.3296 16.5152 16.0957C16.4091 16.0471 16.3756 16.0732 16.3598 16.0855L16.3534 16.0911ZM21.1131 16.0307C21.0512 16.0849 20.9944 16.1734 20.9438 16.2958C20.6839 16.9221 20.6813 18.114 20.8439 19.4759C21.5926 18.4888 21.8906 17.0058 21.6739 16.3022C21.5477 15.8928 21.3346 15.9444 21.2204 15.9721C21.1833 15.9812 21.1473 16.0008 21.1131 16.0307ZM22.6431 26.4159C22.6299 26.4274 22.6155 26.4376 22.6003 26.4469C22.4573 26.5336 22.2711 26.4883 22.1844 26.3454C21.4714 25.1737 20.7861 22.8646 20.4186 20.6794C20.2822 20.7635 20.1381 20.8351 19.9881 20.8917C19.3705 21.1247 18.758 21.0008 18.1982 20.6744C17.9611 21.1744 17.5861 21.5812 17.0876 21.8684C16.8825 21.9862 16.6658 22.0667 16.44 22.1141C18.3052 24.4781 19.4027 26.9837 19.4727 27.1453C19.539 27.299 19.4676 27.4774 19.3153 27.5433C19.1616 27.6096 18.9831 27.5391 18.9173 27.3859C18.8998 27.3448 17.6925 24.5917 15.6893 22.1612C14.0221 22.048 12.1308 20.6277 11.2706 19.6197C10.7879 19.0543 10.6575 18.6511 10.8718 18.3868C11.1271 18.072 11.6339 18.1727 12.6359 18.7144C13.9071 19.4024 15.0349 20.4439 15.9886 21.5632C16.269 21.5516 16.5397 21.4858 16.785 21.3441C17.2544 21.0743 17.5341 20.7083 17.6962 20.3184C17.1542 19.8662 16.6852 19.2485 16.3415 18.6378C15.6986 17.4957 15.3347 16.1098 15.9866 15.6092C16.2055 15.4375 16.4828 15.415 16.7677 15.5452C17.6054 15.9298 18.4292 17.5952 18.4964 19.0383C18.5129 19.4134 18.4815 19.7652 18.4036 20.0895C18.856 20.378 19.3297 20.4932 19.7744 20.3256C19.9689 20.2517 20.1504 20.1466 20.3172 20.0173C20.0857 18.3527 20.0631 16.8392 20.3852 16.0634C20.5414 15.6851 20.7747 15.4572 21.0781 15.3837C21.629 15.2509 22.0681 15.5269 22.2523 16.1237C22.5771 17.1792 22.0751 19.1614 20.9524 20.259C21.2964 22.4495 21.9946 24.8689 22.7014 26.0315C22.7792 26.1589 22.7514 26.3209 22.6431 26.4159Z" fill="white"/>
<path d="M7.69272 9.99835C7.86879 9.99535 8.03391 9.91742 8.18953 9.83415C8.45544 9.69123 8.71348 9.52462 8.91772 9.30214C9.27118 8.91747 9.49799 8.24779 8.95614 7.94275C8.55615 7.71782 7.87228 7.74574 7.45987 7.91806C6.54455 8.30178 6.52169 10.0178 7.69272 9.99835Z" fill="white"/>
<path d="M5.08704 15.7841C5.20043 16.3423 5.5088 16.8383 5.81158 17.3215C6.1467 17.8544 6.97759 18.3561 7.56765 17.9089C8.34056 17.3232 7.73591 16.2256 7.51575 15.5428C7.34539 15.016 7.51771 14.3659 7.55319 13.8269C7.59917 13.1282 7.77609 10.857 6.49534 11.2793C4.87035 11.8157 4.81564 14.4459 5.08704 15.7841Z" fill="white"/>
<path d="M19.0924 30.5696C19.743 30.4155 20.3749 30.2907 20.9822 30.0908C21.5887 29.8948 22.1745 29.6567 22.7234 29.3518C23.2781 29.0572 23.7896 28.6902 24.2754 28.2821C24.755 27.865 25.1979 27.3987 25.6392 26.8975C25.4155 27.5267 25.0556 28.1078 24.6076 28.6179C24.1572 29.127 23.6105 29.553 23.0128 29.883C22.41 30.2037 21.7611 30.4368 21.0932 30.5481C20.4293 30.6704 19.7458 30.6666 19.0924 30.5696Z" fill="#9A7279"/>
</svg>
