<svg width="18" height="18" viewBox="0 0 18 18" fill="none" xmlns="http://www.w3.org/2000/svg">
<path d="M12 15.75C14.6452 14.5898 16.4993 12.0683 16.4993 9.00001C16.4993 5.93176 14.6452 3.41026 12 2.25001L12 3.75001C13.7903 4.78951 14.9993 6.78526 14.9993 9.00001C14.9993 11.2148 13.7903 13.2105 12 14.25L12 15.75Z" fill="#1B1C20"/>
<path d="M12 5.25001L12 12.75C12.9188 11.925 13.5 10.3283 13.5 9.00001C13.5 7.67176 12.9188 6.07501 12 5.25001ZM3 12.75L5.02275 12.75L9.33375 15.624C9.44684 15.6991 9.57812 15.7422 9.71371 15.7488C9.8493 15.7554 9.98415 15.7253 10.104 15.6615C10.2237 15.5974 10.3238 15.502 10.3935 15.3855C10.4632 15.269 10.5001 15.1358 10.5 15L10.5 3.00001C10.4999 2.86435 10.4631 2.73124 10.3933 2.61488C10.3236 2.49851 10.2236 2.40323 10.104 2.3392C9.9844 2.27517 9.84967 2.24477 9.71416 2.25126C9.57865 2.25774 9.44744 2.30085 9.3345 2.37601L5.02275 5.25001L3 5.25001C2.17275 5.25001 1.5 5.92276 1.5 6.75001L1.5 11.25C1.5 12.0773 2.17275 12.75 3 12.75ZM3 6.75001L5.25 6.75001C5.27475 6.75001 5.29575 6.73801 5.31975 6.73576C5.41951 6.72559 5.51632 6.69604 5.60475 6.64876C5.62425 6.63751 5.6475 6.63601 5.66625 6.62401L9 4.40101L9 13.599L5.66625 11.376C5.6475 11.3633 5.62425 11.361 5.60475 11.3513C5.51618 11.303 5.41868 11.2734 5.31825 11.2643C5.29425 11.262 5.274 11.25 5.25 11.25L3 11.25L3 6.75001Z" fill="#1B1C20"/>
</svg>
