<svg width="18" height="18" viewBox="0 0 18 18" fill="none" xmlns="http://www.w3.org/2000/svg">
<path d="M16.2803 15.2197L14.763 13.7025C15.8883 12.3947 16.5047 10.7253 16.4993 8.99999C16.4993 5.93174 14.6452 3.41024 12 2.24999L12 3.74999C13.7903 4.78949 14.9993 6.78524 14.9993 8.99999C14.996 10.3324 14.5554 11.6269 13.7452 12.6847L12.7815 11.721C13.233 10.902 13.5 9.89249 13.5 8.99999C13.5 7.67174 12.9188 6.07499 12 5.24999L12 10.9395L10.5 9.43949L10.5 2.99999C10.4999 2.86432 10.4631 2.73122 10.3933 2.61485C10.3236 2.49848 10.2236 2.40321 10.104 2.33918C9.9844 2.27514 9.84967 2.24475 9.71416 2.25123C9.57865 2.25771 9.44744 2.30083 9.3345 2.37599L5.79525 4.73474L2.78025 1.71974L1.71975 2.78024L15.2197 16.2802L16.2803 15.2197ZM9 4.40099L9 7.93949L6.87675 5.81624L9 4.40099ZM3 12.75L5.02275 12.75L9.33375 15.624C9.44684 15.6991 9.57812 15.7422 9.71371 15.7488C9.8493 15.7554 9.98415 15.7252 10.104 15.6615C10.2237 15.5974 10.3238 15.502 10.3935 15.3855C10.4632 15.269 10.5001 15.1358 10.5 15L10.5 13.5907L9 12.0907L9 13.599L5.66625 11.376C5.6475 11.3632 5.62425 11.361 5.60475 11.3512C5.51618 11.303 5.41868 11.2734 5.31825 11.2642C5.29425 11.262 5.274 11.25 5.25 11.25L3 11.25L3 6.74999L3.65925 6.74999L2.3265 5.41724C2.07892 5.54117 1.87057 5.73136 1.72466 5.96666C1.57874 6.20195 1.50097 6.47312 1.5 6.74999L1.5 11.25C1.5 12.0772 2.17275 12.75 3 12.75Z" fill="#1B1C20"/>
</svg>
