<svg width="40" height="41" viewBox="0 0 40 41" fill="none" xmlns="http://www.w3.org/2000/svg">
<path opacity="0.5" fill-rule="evenodd" clip-rule="evenodd" d="M23.798 3.72492C23.1808 3.47119 22.3983 3.47119 20.8333 3.47119C19.2683 3.47119 18.4858 3.47119 17.8687 3.72492C17.0457 4.06324 16.3918 4.71216 16.0509 5.52891C15.8953 5.90176 15.8344 6.33536 15.8106 6.96784C15.7756 7.89732 15.2953 8.75767 14.4836 9.22274C13.672 9.68779 12.6811 9.67042 11.8525 9.23579C11.2886 8.94002 10.8798 8.77556 10.4766 8.72289C9.59348 8.60749 8.7003 8.84501 7.9936 9.38319C7.46356 9.78682 7.07231 10.4594 6.28983 11.8044C5.50735 13.1495 5.11611 13.822 5.02891 14.4794C4.91263 15.3559 5.15196 16.2423 5.69425 16.9437C5.94176 17.2639 6.28961 17.5329 6.8295 17.8695C7.62318 18.3645 8.13386 19.2077 8.13381 20.1379C8.13376 21.068 7.6231 21.911 6.8295 22.4059C6.28953 22.7427 5.94161 23.0119 5.69408 23.332C5.1518 24.0334 4.91248 24.9197 5.02875 25.7962C5.11595 26.4535 5.5072 27.1262 6.28966 28.4712C7.07215 29.8162 7.4634 30.4889 7.99343 30.8924C8.70013 31.4305 9.59331 31.668 10.4765 31.5527C10.8796 31.5 11.2884 31.3355 11.8522 31.0399C12.6809 30.6052 13.6718 30.5879 14.4835 31.0529C15.2952 31.518 15.7755 32.3784 15.8106 33.308C15.8344 33.9404 15.8953 34.374 16.0509 34.7469C16.3918 35.5635 17.0457 36.2125 17.8687 36.5509C18.4858 36.8045 19.2683 36.8045 20.8333 36.8045C22.3983 36.8045 23.1808 36.8045 23.798 36.5509C24.621 36.2125 25.2748 35.5635 25.6157 34.7469C25.7713 34.374 25.8323 33.9404 25.8562 33.3079C25.8912 32.3784 26.3713 31.518 27.183 31.0529C27.9947 30.5877 28.9857 30.6052 29.8143 31.0399C30.3782 31.3355 30.7868 31.4999 31.19 31.5525C32.0732 31.668 32.9663 31.4305 33.673 30.8924C34.2032 30.4887 34.5943 29.8162 35.3768 28.471C36.1593 27.126 36.5505 26.4535 36.6378 25.7962C36.754 24.9197 36.5147 24.0332 35.9725 23.3319C35.7248 23.0117 35.377 22.7425 34.837 22.4059C34.0435 21.911 33.5328 21.0679 33.5328 20.1377C33.5328 19.2075 34.0435 18.3647 34.837 17.8699C35.3772 17.533 35.725 17.264 35.9727 16.9437C36.5148 16.2424 36.7542 15.356 36.638 14.4795C36.5507 13.8221 36.1595 13.1496 35.377 11.8045C34.5945 10.4595 34.2033 9.78694 33.6732 9.38331C32.9665 8.84512 32.0733 8.60761 31.1902 8.72301C30.787 8.77567 30.3782 8.94012 29.8145 9.23586C28.9858 9.67051 27.9948 9.68789 27.1832 9.22279C26.3715 8.75771 25.8912 7.89729 25.856 6.96776C25.8322 6.33532 25.7713 5.90174 25.6157 5.52891C25.2748 4.71216 24.621 4.06324 23.798 3.72492Z" fill="#EA5D80"/>
<path d="M25.8827 20.1348C25.8827 22.8963 23.6272 25.1348 20.8447 25.1348C18.0622 25.1348 15.8066 22.8963 15.8066 20.1348C15.8066 17.3733 18.0622 15.1348 20.8447 15.1348C23.6272 15.1348 25.8827 17.3733 25.8827 20.1348Z" fill="#EA5D80"/>
</svg>
