<svg width="47" height="47" viewBox="0 0 47 47" fill="none" xmlns="http://www.w3.org/2000/svg">
<g clip-path="url(#clip0_911_6260)">
<path fill-rule="evenodd" clip-rule="evenodd" d="M18.2616 9.07952C18.1382 8.34717 18.0452 7.62313 17.9851 6.89901C17.8946 5.81283 17.9506 4.71835 17.9185 3.63217C17.9045 3.17136 17.8493 1.97 17.8716 1.79719C18.0732 0.291352 19.2885 0.0609218 19.644 0.0197786C19.816 -0.00490736 21.5818 -0.202307 21.9628 1.75611C22.4302 4.15065 22.58 6.56161 22.4146 8.92323C22.8005 10.931 23.4605 12.9305 24.3319 14.7408C27.7994 21.9409 34.407 22.6403 41.5659 22.5745C42.6669 22.5581 43.5812 23.4221 43.6388 24.5165C43.6964 25.6191 42.8768 26.5736 41.7807 26.6724C37.7791 27.0591 30.6794 30.2683 28.2248 33.6092C27.7113 34.3086 27.4127 35.9955 27.0177 37.6494C26.4664 39.9452 25.8106 42.2163 25.0757 43.1708C24.9655 43.3189 23.625 44.8331 23.2251 45.0552C22.264 45.5819 21.4946 45.2773 21.0577 44.9976C20.6208 44.7178 20.1262 44.1665 19.9287 43.2531C19.7222 42.2986 19.8966 40.3401 19.8645 39.9205C19.7477 38.3982 19.4433 35.4112 18.822 32.8438C18.4871 31.4614 18.1299 30.186 17.5391 29.5524C15.352 27.2072 11.8548 27.5529 8.90975 27.9396C8.57155 27.9808 8.23336 28.0302 7.89598 28.0713C6.69707 28.4251 5.42407 28.6884 4.07868 28.8447C2.04703 29.0834 1.71297 27.2155 1.69487 27.092C1.65702 26.8205 1.51629 25.4217 3.04764 24.8621C3.21468 24.8045 4.44735 24.5329 4.92214 24.426C5.58372 24.2778 6.2527 24.1627 6.92416 24.0557C13.8601 21.8998 17.6272 15.8435 18.2616 9.07952ZM20.6421 16.5594C23.2605 21.9739 27.2341 24.5905 31.9442 25.7755H31.9434C29.0025 27.3142 26.3273 29.2398 24.9095 31.1735C24.3713 31.9059 23.8776 33.3787 23.4325 35.0327C23.1914 33.4939 22.8655 31.8564 22.4352 30.4575C21.9456 28.8612 21.2864 27.5364 20.5508 26.7465C19.1305 25.2242 17.3482 24.3766 15.4317 23.957C17.7259 21.9245 19.4654 19.3901 20.6421 16.5594Z" fill="#EA5D80"/>
</g>
<defs>
<clipPath id="clip0_911_6260">
<rect width="46.0804" height="46.0804" fill="white"/>
</clipPath>
</defs>
</svg>
