<svg width="29" height="28" viewBox="0 0 29 28" fill="none" xmlns="http://www.w3.org/2000/svg">
<path d="M27.9328 12.3273L22.1232 17.9885L23.4945 25.984C23.6996 27.1816 22.4436 28.0938 21.3672 27.5293L14.1883 23.755L7.0093 27.5292C5.93291 28.0937 4.67692 27.1814 4.88199 25.9839L5.62426 21.655L6.25331 17.9884L0.443684 12.3272C-0.425655 11.4794 0.0549336 10.0007 1.25629 9.82674L9.28309 8.66049L12.8736 1.38585C13.4108 0.295863 14.9658 0.295863 15.5029 1.38585L19.0933 8.66049L21.7676 9.04924L27.1201 9.82674C28.3216 10.0008 28.8021 11.4795 27.9328 12.3273Z" fill="#FFEC8A"/>
<path d="M27.9422 12.3268L22.1326 17.988L23.5039 25.9835C23.709 27.181 22.453 28.0933 21.3766 27.5287L14.1976 23.7545L7.01864 27.5286C5.94226 28.0931 4.68626 27.1809 4.89133 25.9834L5.63361 21.6545C16.7742 19.621 20.5365 13.5047 21.7771 9.04883L27.1296 9.82633C28.3309 10.0002 28.8114 11.479 27.9422 12.3268Z" fill="#FBDC39"/>
</svg>
